<svg xmlns="http://www.w3.org/2000/svg" xmlns:xlink="http://www.w3.org/1999/xlink" version="1.1"><metadata>Created by FontForge 20170731 at Tue Aug 2 17:49:35 2011 By Aleksey,,, Copyright (c) 2008 - 2011 Linotype GmbH, www.linotype.com. All rights reserved. This font software may not be reproduced, modified, disclosed or transferred without the express written approval of Linotype GmbH.</metadata><defs><font id="DINNextLTArabic-Heavy" horiz-adv-x="562"><font-face x-height="487" ascent="800" bbox="-196.364 -462 1454 1389" cap-height="680" descent="-200" font-family="DIN Next LT Arabic Medium" font-stretch="normal" font-weight="750" panose-1="2 11 9 3 2 2 3 5 2 3" underline-position="-150" underline-thickness="50" unicode-range="U+000D-FEFC" units-per-em="1000"/><glyph d="M60 642q24 87 94 87q24 0 48.5 -8.5t47.5 -19t45.5 -19t42.5 -8.5q14 0 19 7.5t5 26.5q0 10 10 10h67q10 0 10 -10q0 -51 -21 -83.5t-72 -32.5q-29 0 -54 8t-47 17t-40.5 17t-33.5 8q-10 0 -18 -5.5t-14 -22.5q-3 -10 -13 -7l-69 22q-9 3 -7 13zM346 142h79 q25 0 36.5 11.5t11.5 41.5v475q0 10 10 10h150q10 0 10 -10v-544q0 -65 -27 -95.5t-90 -30.5h-491q-10 0 -10 10v122q0 10 10 10h141v387q0 10 10 10h150q10 0 10 -10v-387z" arabic-form="isolated" glyph-name="aLam.init_aAlifMadda.fina" horiz-adv-x="698" unicode="ﻟﺂ"/><glyph d="M60 642q24 87 94 87q24 0 48.5 -8.5t47.5 -19t45.5 -19t42.5 -8.5q14 0 19 7.5t5 26.5q0 10 10 10h67q10 0 10 -10q0 -51 -21 -83.5t-72 -32.5q-29 0 -54 8t-47 17t-40.5 17t-33.5 8q-10 0 -18 -5.5t-14 -22.5q-3 -10 -13 -7l-69 22q-9 3 -7 13zM473 670q0 10 10 10h150 q10 0 10 -10v-483q4 -20 20.5 -32.5t48.5 -12.5h28q40 0 40 -71q0 -34 -9.5 -52.5t-30.5 -18.5q-35 0 -63 9.5t-49 39.5q-17 -32 -49 -40.5t-88 -8.5h-456q-10 0 -10 10v122q0 10 10 10h141v387q0 10 10 10h150q10 0 10 -10v-387h79q28 0 38 14.5t10 51.5v462z" arabic-form="final" glyph-name="aLam.medi_aAlifMadda.fina" horiz-adv-x="741" unicode="ﻠﺂ"/><glyph d="M176 672q-13 21 -13 49q0 19 7 37t21.5 32t35.5 22.5t49 8.5q34 0 59 -12.5t39 -29.5q4 -6 -1 -9l-34 -39q-4 -4 -10 0q-23 23 -46 23q-14 0 -25.5 -9t-11.5 -29q0 -16 8.5 -27t18.5 -17h98q6 0 6 -7v-53q0 -7 -6 -7h-232q-6 0 -6 7v53q0 7 6 7h37zM346 142h79 q25 0 36.5 11.5t11.5 41.5v475q0 10 10 10h150q10 0 10 -10v-544q0 -65 -27 -95.5t-90 -30.5h-491q-10 0 -10 10v122q0 10 10 10h141v387q0 10 10 10h150q10 0 10 -10v-387z" arabic-form="isolated" glyph-name="aLam.init_aAlifHamza.fina" horiz-adv-x="698" unicode="ﻟﺄ"/><glyph d="M176 672q-13 21 -13 49q0 19 7 37t21.5 32t35.5 22.5t49 8.5q34 0 59 -12.5t39 -29.5q4 -6 -1 -9l-34 -39q-4 -4 -10 0q-23 23 -46 23q-14 0 -25.5 -9t-11.5 -29q0 -16 8.5 -27t18.5 -17h98q6 0 6 -7v-53q0 -7 -6 -7h-232q-6 0 -6 7v53q0 7 6 7h37zM473 670q0 10 10 10 h150q10 0 10 -10v-483q4 -20 20.5 -32.5t48.5 -12.5h28q40 0 40 -71q0 -34 -9.5 -52.5t-30.5 -18.5q-35 0 -63 9.5t-49 39.5q-17 -32 -49 -40.5t-88 -8.5h-456q-10 0 -10 10v122q0 10 10 10h141v387q0 10 10 10h150q10 0 10 -10v-387h79q28 0 38 14.5t10 51.5v462z" arabic-form="final" glyph-name="aLam.medi_aAlifHamza.fina" horiz-adv-x="741" unicode="ﻠﺄ"/><glyph d="M178 -218q-13 21 -13 48q0 19 7 37.5t21.5 32.5t35.5 22.5t49 8.5q34 0 59 -13t39 -30q4 -6 -1 -8l-34 -39q-5 -5 -10 -1q-21 23 -46 23q-14 0 -25.5 -9t-11.5 -28q0 -16 8.5 -27t18.5 -17h98q6 0 6 -7v-54q0 -7 -6 -7h-232q-6 0 -6 7v54q0 7 6 7h37zM346 142h79 q25 0 36.5 11.5t11.5 41.5v475q0 10 10 10h150q10 0 10 -10v-544q0 -65 -27 -95.5t-90 -30.5h-491q-10 0 -10 10v122q0 10 10 10h141v387q0 10 10 10h150q10 0 10 -10v-387z" arabic-form="isolated" glyph-name="aLam.init_aAlifHamzabelow.fina" horiz-adv-x="698" unicode="ﻟﺈ"/><glyph d="M178 -218q-13 21 -13 48q0 19 7 37.5t21.5 32.5t35.5 22.5t49 8.5q34 0 59 -13t39 -30q4 -6 -1 -8l-34 -39q-5 -5 -10 -1q-21 23 -46 23q-14 0 -25.5 -9t-11.5 -28q0 -16 8.5 -27t18.5 -17h98q6 0 6 -7v-54q0 -7 -6 -7h-232q-6 0 -6 7v54q0 7 6 7h37zM473 670q0 10 10 10 h150q10 0 10 -10v-483q4 -20 20.5 -32.5t48.5 -12.5h28q40 0 40 -71q0 -34 -9.5 -52.5t-30.5 -18.5q-35 0 -63 9.5t-49 39.5q-17 -32 -49 -40.5t-88 -8.5h-456q-10 0 -10 10v122q0 10 10 10h141v387q0 10 10 10h150q10 0 10 -10v-387h79q28 0 38 14.5t10 51.5v462z" arabic-form="final" glyph-name="aLam.medi_aAlifHamzabelow.fina" horiz-adv-x="741" unicode="ﻠﺈ"/><glyph d="M346 142h79q25 0 36.5 11.5t11.5 41.5v475q0 10 10 10h150q10 0 10 -10v-544q0 -65 -27 -95.5t-90 -30.5h-491q-10 0 -10 10v122q0 10 10 10h141v387q0 10 10 10h150q10 0 10 -10v-387z" arabic-form="isolated" glyph-name="aLam.init_aAlif.fina" horiz-adv-x="698" unicode="ﻟﺎ"/><glyph d="M473 670q0 10 10 10h150q10 0 10 -10v-483q4 -20 20.5 -32.5t48.5 -12.5h28q40 0 40 -71q0 -34 -9.5 -52.5t-30.5 -18.5q-35 0 -63 9.5t-49 39.5q-17 -32 -49 -40.5t-88 -8.5h-456q-10 0 -10 10v122q0 10 10 10h141v387q0 10 10 10h150q10 0 10 -10v-387h79q28 0 38 14.5 t10 51.5v462z" arabic-form="final" glyph-name="aLam.medi_aAlif.fina" horiz-adv-x="741" unicode="ﻠﺎ"/><glyph d="M156 655q10 0 10 14v84q0 7 8 7h53q8 0 8 -7v-6q15 5 32.5 8.5t34.5 3.5q45 0 62.5 -23.5t17.5 -61.5q0 -47 -16 -61t-50 -14h-172q-7 0 -7 7v42q0 7 7 7h12zM284 703q-11 0 -23.5 -3.5t-25.5 -8.5v-36h59q12 0 15.5 5.5t3.5 17.5q0 14 -7.5 19.5t-21.5 5.5zM346 142h79 q25 0 36.5 11.5t11.5 41.5v475q0 10 10 10h150q10 0 10 -10v-544q0 -65 -27 -95.5t-90 -30.5h-491q-10 0 -10 10v122q0 10 10 10h141v387q0 10 10 10h150q10 0 10 -10v-387z" glyph-name="aLam.init_aAlifWasla.fina" horiz-adv-x="698" unicode="ﻟﭑ"/><glyph d="M156 655q10 0 10 14v84q0 7 8 7h53q8 0 8 -7v-6q15 5 32.5 8.5t34.5 3.5q45 0 62.5 -23.5t17.5 -61.5q0 -47 -16 -61t-50 -14h-172q-7 0 -7 7v42q0 7 7 7h12zM284 703q-11 0 -23.5 -3.5t-25.5 -8.5v-36h59q12 0 15.5 5.5t3.5 17.5q0 14 -7.5 19.5t-21.5 5.5zM473 670 q0 10 10 10h150q10 0 10 -10v-483q4 -20 20.5 -32.5t48.5 -12.5h28q40 0 40 -71q0 -34 -9.5 -52.5t-30.5 -18.5q-35 0 -63 9.5t-49 39.5q-17 -32 -49 -40.5t-88 -8.5h-456q-10 0 -10 10v122q0 10 10 10h141v387q0 10 10 10h150q10 0 10 -10v-387h79q28 0 38 14.5t10 51.5 v462z" glyph-name="aLam.medi_aAlifWasla.fina" horiz-adv-x="741" unicode="ﻠﭑ"/><glyph d="M81 115q-16 30 -16 70q0 35 12 65.5t35.5 53t58 35.5t79.5 13q54 0 96 -21t63 -49q5 -8 -1 -14l-59 -67q-4 -5 -7.5 -3.5t-6.5 3.5q-19 18 -36.5 27t-38.5 9q-22 0 -39 -14t-17 -45q0 -21 9.5 -37t21.5 -26h172q10 0 10 -11v-93q0 -11 -10 -11h-379q-10 0 -10 11v93 q0 11 10 11h53z" arabic-form="isolated" glyph-name="aHamza" horiz-adv-x="444" unicode="ء"/><glyph d="M225 10q0 -10 -10 -10h-150q-10 0 -10 10v660q0 10 10 10h150q10 0 10 -10v-660zM-65 767q24 87 94 87q24 0 48.5 -8.5t47.5 -19t45.5 -19t42.5 -8.5q14 0 19 7.5t5 26.5q0 10 10 10h67q10 0 10 -10q0 -51 -21 -83.5t-72 -32.5q-29 0 -54 8t-47 17t-40.5 17t-33.5 8 q-10 0 -18 -5.5t-14 -22.5q-3 -10 -13 -7l-69 22q-9 3 -7 13z" arabic-form="isolated" glyph-name="aAlifMadda" horiz-adv-x="280" unicode="آ"/><glyph d="M225 10q0 -10 -10 -10h-150q-10 0 -10 10v660q0 10 10 10h150q10 0 10 -10v-660zM56 798q-13 21 -13 49q0 19 7 37t21.5 32t35.5 22.5t49 8.5q34 0 59 -12.5t39 -29.5q4 -6 -1 -9l-34 -39q-4 -4 -10 0q-23 23 -46 23q-14 0 -25.5 -9t-11.5 -29q0 -16 8.5 -27t18.5 -17h98 q6 0 6 -7v-53q0 -7 -6 -7h-232q-6 0 -6 7v53q0 7 6 7h37z" arabic-form="isolated" glyph-name="aAlifHamza" horiz-adv-x="280" unicode="أ"/><glyph d="M143 -207q-10 0 -10 10v122q0 10 10 10h112q40 0 63 11.5t23 53.5h-63q-57 0 -101 9.5t-74 33.5t-45.5 64.5t-15.5 102.5q0 68 20 113t52 72t73.5 38t85.5 11q45 0 87 -10t74.5 -35.5t52.5 -69.5t20 -112v-234q0 -92 -48 -141t-159 -49h-157zM275 302q-35 0 -52 -22.5 t-17 -61.5q0 -23 5.5 -38t14.5 -23.5t22 -11.5t28 -3h65v80q0 43 -18 61.5t-48 18.5zM189 598q-5 9 -8.5 20.5t-3.5 26.5q0 19 7 37t21.5 31.5t36 22t50.5 8.5q35 0 61 -13t39 -30q4 -6 -1 -9l-36 -40q-3 -3 -8 1q-11 11 -23 17t-26 6t-25.5 -9t-11.5 -27q0 -17 9 -27 t18 -15h101q6 0 6 -7v-55q0 -7 -6 -7h-234q-6 0 -6 7v55q0 7 6 7h34z" arabic-form="isolated" glyph-name="aWawHamza" horiz-adv-x="558" unicode="ؤ"/><glyph d="M225 10q0 -10 -10 -10h-150q-10 0 -10 10v660q0 10 10 10h150q10 0 10 -10v-660zM52 -218q-13 21 -13 48q0 19 7 37.5t21.5 32.5t35.5 22.5t49 8.5q34 0 59 -13t39 -30q4 -6 -1 -8l-34 -39q-5 -5 -10 -1q-21 23 -46 23q-14 0 -25.5 -9t-11.5 -28q0 -16 8.5 -27t18.5 -17 h98q6 0 6 -7v-54q0 -7 -6 -7h-232q-6 0 -6 7v54q0 7 6 7h37z" arabic-form="isolated" glyph-name="aAlifHamzabelow" horiz-adv-x="280" unicode="إ"/><glyph d="M93 421q-5 9 -8.5 20.5t-3.5 26.5q0 19 7 37t21.5 31.5t36 22t50.5 8.5q35 0 61 -13t39 -30q4 -6 -1 -9l-36 -40q-3 -3 -8 1q-11 11 -23 17t-26 6t-25.5 -9t-11.5 -27q0 -17 9 -27t18 -15h101q6 0 6 -7v-55q0 -7 -6 -7h-234q-6 0 -6 7v55q0 7 6 7h34zM203 35 q0 -31 13.5 -50t34 -29.5t44.5 -14.5t47 -4h155q53 0 71 12.5t18 27.5q0 14 -15.5 28t-39 29t-50.5 33.5t-50.5 42.5t-39 55t-15.5 72q0 46 19 82.5t50.5 61t73 37.5t86.5 13q66 0 115.5 -19.5t78.5 -53.5q5 -6 -3 -14l-76 -87q-6 -5 -14 1q-20 17 -40.5 23.5t-42.5 6.5 q-27 0 -47.5 -13t-20.5 -41q0 -23 16.5 -41.5t41 -36t53.5 -36.5t53.5 -42t41 -51.5t16.5 -66.5q0 -78 -56 -122.5t-166 -44.5h-233q-78 0 -133 16t-90 46t-51.5 72.5t-16.5 95.5q0 45 12 97t37 96q4 7 16 4l134 -36q6 -2 7 -6t-1 -8q-13 -28 -23 -60t-10 -75z" arabic-form="isolated" glyph-name="aYehHamza" horiz-adv-x="827" unicode="ئ"/><glyph d="M225 10q0 -10 -10 -10h-150q-10 0 -10 10v660q0 10 10 10h150q10 0 10 -10v-660z" arabic-form="isolated" glyph-name="aAlif" horiz-adv-x="280" unicode="ا"/><glyph d="M605 142q26 0 37.5 11.5t11.5 41.5v223q0 10 10 10h150q10 0 10 -10v-292q0 -65 -27 -95.5t-92 -30.5h-537q-63 0 -90 30.5t-27 95.5v227q0 10 10 10h150q10 0 10 -10v-158q0 -30 11.5 -41.5t36.5 -11.5h336v0zM363 -207q-10 0 -10 10v111q0 10 10 10h152q10 0 10 -10 v-111q0 -10 -10 -10h-152z" arabic-form="isolated" glyph-name="aBeh" horiz-adv-x="874" unicode="ب"/><glyph d="M277 -7q-48 0 -91 10.5t-75 36t-51 68t-19 105.5q0 69 20.5 114t53.5 71t75.5 36t86.5 10t86.5 -10t75.5 -36t53.5 -71t20.5 -114q0 -63 -18.5 -105.5t-51 -68t-75.5 -36t-91 -10.5zM277 302q-34 0 -51.5 -19.5t-17.5 -63.5q0 -49 18.5 -66.5t50.5 -17.5q35 0 52.5 18 t17.5 66q0 46 -18 64.5t-52 18.5zM137 529q-10 0 -10 10v111q0 10 10 10h117q10 0 10 -10v-111q0 -10 -10 -10h-117zM302 529q-10 0 -10 10v111q0 10 10 10h117q10 0 10 -10v-111q0 -10 -10 -10h-117z" arabic-form="isolated" glyph-name="aTehMarbuta" horiz-adv-x="557" unicode="ة"/><glyph d="M605 142q26 0 37.5 11.5t11.5 41.5v223q0 10 10 10h150q10 0 10 -10v-292q0 -65 -27 -95.5t-92 -30.5h-537q-63 0 -90 30.5t-27 95.5v227q0 10 10 10h150q10 0 10 -10v-158q0 -30 11.5 -41.5t36.5 -11.5h336v0zM295 470q-10 0 -10 10v111q0 10 10 10h117q10 0 10 -10 v-111q0 -10 -10 -10h-117zM460 470q-10 0 -10 10v111q0 10 10 10h117q10 0 10 -10v-111q0 -10 -10 -10h-117z" arabic-form="isolated" glyph-name="aTeh" horiz-adv-x="874" unicode="ت"/><glyph d="M605 142q26 0 37.5 11.5t11.5 41.5v223q0 10 10 10h150q10 0 10 -10v-292q0 -65 -27 -95.5t-92 -30.5h-537q-63 0 -90 30.5t-27 95.5v227q0 10 10 10h150q10 0 10 -10v-158q0 -30 11.5 -41.5t36.5 -11.5h336v0zM299 470q-10 0 -10 10v111q0 10 10 10h117q10 0 10 -10 v-111q0 -10 -10 -10h-117zM464 470q-10 0 -10 10v111q0 10 10 10h117q10 0 10 -10v-111q0 -10 -10 -10h-117zM379 623q-10 0 -10 10v111q0 10 10 10h117q10 0 10 -10v-111q0 -10 -10 -10h-117z" arabic-form="isolated" glyph-name="aTheh" horiz-adv-x="874" unicode="ث"/><glyph d="M240 0q-25 0 -35 -7t-10 -27q0 -15 8 -23t37 -8h62q10 0 10 -10v-122q0 -10 -10 -10h-77q-50 0 -87.5 8.5t-63.5 28.5t-39 54.5t-13 87.5q0 49 14 82t38 52.5t57 27.5t71 8h102q43 0 58.5 14t15.5 51q0 18 -4.5 35t-14 30.5t-26 21.5t-40.5 8q-31 0 -54.5 -12t-43.5 -28 q-7 -7 -14 -1l-67 88q-3 4 -4.5 8t2.5 8q38 35 84 57t112 22q64 0 110.5 -18t76.5 -50.5t44.5 -78t14.5 -99.5q0 -62 -13 -101t-36.5 -60.5t-57 -29t-75.5 -7.5h-132zM355 -200q-10 0 -10 10v111q0 10 10 10h134q10 0 10 -10v-111q0 -10 -10 -10h-134z" arabic-form="isolated" glyph-name="aJim" horiz-adv-x="597" unicode="ج"/><glyph d="M240 0q-25 0 -35 -7t-10 -27q0 -15 8 -23t37 -8h91q10 0 10 -10v-122q0 -10 -10 -10h-106q-50 0 -87.5 8.5t-63.5 28.5t-39 54.5t-13 87.5q0 49 14 82t38 52.5t57 27.5t71 8h102q43 0 58.5 14t15.5 51q0 18 -4.5 35t-14 30.5t-26 21.5t-40.5 8q-31 0 -54.5 -12t-43.5 -28 q-7 -7 -14 -1l-67 88q-3 4 -4.5 8t2.5 8q38 35 84 57t112 22q64 0 110.5 -18t76.5 -50.5t44.5 -78t14.5 -99.5q0 -62 -13 -101t-36.5 -60.5t-57 -29t-75.5 -7.5h-132z" arabic-form="isolated" glyph-name="aHah" horiz-adv-x="597" unicode="ح"/><glyph d="M240 0q-25 0 -35 -7t-10 -27q0 -15 8 -23t37 -8h91q10 0 10 -10v-122q0 -10 -10 -10h-106q-50 0 -87.5 8.5t-63.5 28.5t-39 54.5t-13 87.5q0 49 14 82t38 52.5t57 27.5t71 8h102q43 0 58.5 14t15.5 51q0 18 -4.5 35t-14 30.5t-26 21.5t-40.5 8q-31 0 -54.5 -12t-43.5 -28 q-7 -7 -14 -1l-67 88q-3 4 -4.5 8t2.5 8q38 35 84 57t112 22q64 0 110.5 -18t76.5 -50.5t44.5 -78t14.5 -99.5q0 -62 -13 -101t-36.5 -60.5t-57 -29t-75.5 -7.5h-132zM240 529q-10 0 -10 10v111q0 10 10 10h152q10 0 10 -10v-111q0 -10 -10 -10h-152z" arabic-form="isolated" glyph-name="aKhah" horiz-adv-x="597" unicode="خ"/><glyph d="M453 171q0 -48 -10 -81t-29.5 -53t-48.5 -28.5t-67 -8.5h-251q-10 0 -10 10v122q0 10 10 10h161q24 0 37.5 3.5t21 10t9.5 17.5t2 26v41q0 35 -19 48.5t-59 13.5h-114q-10 0 -10 10v122q0 10 10 10h187q90 0 135 -44t45 -137v-92z" arabic-form="isolated" glyph-name="aDal" horiz-adv-x="501" unicode="د"/><glyph d="M453 171q0 -48 -10 -81t-29.5 -53t-48.5 -28.5t-67 -8.5h-251q-10 0 -10 10v122q0 10 10 10h161q24 0 37.5 3.5t21 10t9.5 17.5t2 26v41q0 35 -19 48.5t-59 13.5h-114q-10 0 -10 10v122q0 10 10 10h187q90 0 135 -44t45 -137v-92zM143 529q-10 0 -10 10v111q0 10 10 10 h152q10 0 10 -10v-111q0 -10 -10 -10h-152z" arabic-form="isolated" glyph-name="aDhal" horiz-adv-x="501" unicode="ذ"/><glyph d="M14 -207q-10 0 -10 10v122q0 10 10 10h20q42 0 58.5 21t16.5 64v398q0 10 10 10h150q10 0 10 -10v-407q0 -114 -51.5 -166t-158.5 -52h-55z" arabic-form="isolated" glyph-name="aReh" horiz-adv-x="333" unicode="ر"/><glyph d="M14 -207q-10 0 -10 10v122q0 10 10 10h20q42 0 58.5 21t16.5 64v398q0 10 10 10h150q10 0 10 -10v-407q0 -114 -51.5 -166t-158.5 -52h-55zM118 529q-10 0 -10 10v111q0 10 10 10h152q10 0 10 -10v-111q0 -10 -10 -10h-152z" arabic-form="isolated" glyph-name="aZeh" horiz-adv-x="333" unicode="ز"/><glyph d="M1091 126q0 -65 -27 -95.5t-90 -30.5h-57q-43 0 -68 15.5t-38 37.5q-15 -33 -45 -43t-83 -10h-35q-34 0 -58 11.5t-36 25.5v-14q0 -68 -21.5 -115t-58 -76t-84 -41.5t-99.5 -12.5q-51 0 -99 13t-84.5 42.5t-59 77t-22.5 116.5q0 45 12 97t37 96q4 7 16 4l134 -36 q6 -2 7 -6t-1 -8q-13 -28 -23 -60t-10 -75q0 -32 8 -54t21 -35.5t30.5 -20t35.5 -6.5q91 0 91 108v321q0 10 10 10h150q10 0 10 -10v-161q0 -29 12 -39t37 -10q33 0 41.5 13.5t8.5 48.5v148q0 10 10 10h150q10 0 10 -10v-159q0 -30 14 -40.5t37 -10.5q31 0 39 14t8 49v213 q0 10 10 10h150q10 0 10 -10v-292z" arabic-form="isolated" glyph-name="aSin" horiz-adv-x="1145" unicode="س"/><glyph d="M1091 126q0 -65 -27 -95.5t-90 -30.5h-57q-43 0 -68 15.5t-38 37.5q-15 -33 -45 -43t-83 -10h-35q-34 0 -58 11.5t-36 25.5v-14q0 -68 -21.5 -115t-58 -76t-84 -41.5t-99.5 -12.5q-51 0 -99 13t-84.5 42.5t-59 77t-22.5 116.5q0 45 12 97t37 96q4 7 16 4l134 -36 q6 -2 7 -6t-1 -8q-13 -28 -23 -60t-10 -75q0 -32 8 -54t21 -35.5t30.5 -20t35.5 -6.5q91 0 91 108v321q0 10 10 10h150q10 0 10 -10v-161q0 -29 12 -39t37 -10q33 0 41.5 13.5t8.5 48.5v148q0 10 10 10h150q10 0 10 -10v-159q0 -30 14 -40.5t37 -10.5q31 0 39 14t8 49v213 q0 10 10 10h150q10 0 10 -10v-292zM597 529q-10 0 -10 10v111q0 10 10 10h117q10 0 10 -10v-111q0 -10 -10 -10h-117zM762 529q-10 0 -10 10v111q0 10 10 10h117q10 0 10 -10v-111q0 -10 -10 -10h-117zM677 682q-10 0 -10 10v111q0 10 10 10h117q10 0 10 -10v-111 q0 -10 -10 -10h-117z" arabic-form="isolated" glyph-name="aShin" horiz-adv-x="1145" unicode="ش"/><glyph d="M26 27q0 45 12 97t37 96q4 7 16 4l134 -36q6 -2 7 -6t-1 -8q-13 -28 -23 -60t-10 -75q0 -32 8 -54t21 -35.5t30.5 -20t35.5 -6.5q91 0 91 108v399q0 10 10 10h150q10 0 10 -10v-28q44 18 95.5 30t108.5 12q56 0 102.5 -12t80 -40.5t52 -74.5t18.5 -114q0 -59 -11 -98.5 t-36.5 -62.5t-66 -32.5t-99.5 -9.5h-179q-38 0 -66 7q-3 -64 -25 -107.5t-58 -70.5t-82.5 -39t-96.5 -12q-51 0 -99 13t-84.5 42.5t-59 77t-22.5 116.5zM721 302q-45 0 -88 -11.5t-79 -26.5v-122h178q33 0 53 2.5t31.5 10t15.5 21t4 36.5q0 22 -5 39t-18 28t-35.5 17 t-56.5 6z" arabic-form="isolated" glyph-name="aSad" horiz-adv-x="1055" unicode="ص"/><glyph d="M26 27q0 45 12 97t37 96q4 7 16 4l134 -36q6 -2 7 -6t-1 -8q-13 -28 -23 -60t-10 -75q0 -32 8 -54t21 -35.5t30.5 -20t35.5 -6.5q91 0 91 108v399q0 10 10 10h150q10 0 10 -10v-28q44 18 95.5 30t108.5 12q56 0 102.5 -12t80 -40.5t52 -74.5t18.5 -114q0 -59 -11 -98.5 t-36.5 -62.5t-66 -32.5t-99.5 -9.5h-179q-38 0 -66 7q-3 -64 -25 -107.5t-58 -70.5t-82.5 -39t-96.5 -12q-51 0 -99 13t-84.5 42.5t-59 77t-22.5 116.5zM721 302q-45 0 -88 -11.5t-79 -26.5v-122h178q33 0 53 2.5t31.5 10t15.5 21t4 36.5q0 22 -5 39t-18 28t-35.5 17 t-56.5 6zM652 529q-10 0 -10 10v111q0 10 10 10h152q10 0 10 -10v-111q0 -10 -10 -10h-152z" arabic-form="isolated" glyph-name="aDad" horiz-adv-x="1055" unicode="ض"/><glyph d="M63 142q26 0 31 20t5 56v452q0 10 10 10h151q10 0 10 -10v-268q44 17 94.5 29.5t107.5 12.5q56 0 103 -12t80.5 -40.5t52 -74.5t18.5 -114q0 -58 -11 -97t-35.5 -62.5t-65 -33.5t-99.5 -10h-212q-47 0 -68 25q-20 -17 -57 -21t-83 -4h-71q-10 0 -10 10v122q0 10 10 10h39 zM436 302q-45 0 -88 -11.5t-78 -26.5v-86q0 -9 -0.5 -18.5t-1.5 -17.5h179q32 0 52 2.5t31.5 10t15.5 21t4 36.5q0 22 -5 39t-18 28t-35 17t-56 6z" arabic-form="isolated" glyph-name="aTah" horiz-adv-x="769" unicode="ط"/><glyph d="M63 142q26 0 31 20t5 56v452q0 10 10 10h151q10 0 10 -10v-268q44 17 94.5 29.5t107.5 12.5q56 0 103 -12t80.5 -40.5t52 -74.5t18.5 -114q0 -58 -11 -97t-35.5 -62.5t-65 -33.5t-99.5 -10h-212q-47 0 -68 25q-20 -17 -57 -21t-83 -4h-71q-10 0 -10 10v122q0 10 10 10h39 zM436 302q-45 0 -88 -11.5t-78 -26.5v-86q0 -9 -0.5 -18.5t-1.5 -17.5h179q32 0 52 2.5t31.5 10t15.5 21t4 36.5q0 22 -5 39t-18 28t-35 17t-56 6zM406 529q-10 0 -10 10v111q0 10 10 10h152q10 0 10 -10v-111q0 -10 -10 -10h-152z" arabic-form="isolated" glyph-name="aZah" horiz-adv-x="769" unicode="ظ"/><glyph d="M24 -38q0 66 26 106t68 57q-16 23 -26.5 51.5t-10.5 66.5q0 43 14.5 80t43 64t70 42t95.5 15q40 0 72.5 -6.5t58.5 -17t45.5 -23.5t31.5 -26q7 -7 -1 -16l-74 -94q-4 -5 -7.5 -4.5t-7.5 3.5q-42 42 -91 42q-29 0 -52 -18t-23 -59q0 -34 16.5 -53.5t28.5 -29.5h211 q10 0 10 -10v-122q0 -10 -10 -10h-281q-23 0 -29 -10t-6 -23q0 -18 10 -25t37 -7h105q10 0 10 -10v-122q0 -10 -10 -10h-121q-99 0 -151 39.5t-52 129.5z" arabic-form="isolated" glyph-name="aAyn" horiz-adv-x="559" unicode="ع"/><glyph d="M24 -38q0 66 26 106t68 57q-16 23 -26.5 51.5t-10.5 66.5q0 43 14.5 80t43 64t70 42t95.5 15q40 0 72.5 -6.5t58.5 -17t45.5 -23.5t31.5 -26q7 -7 -1 -16l-74 -94q-4 -5 -7.5 -4.5t-7.5 3.5q-42 42 -91 42q-29 0 -52 -18t-23 -59q0 -34 16.5 -53.5t28.5 -29.5h211 q10 0 10 -10v-122q0 -10 -10 -10h-281q-23 0 -29 -10t-6 -23q0 -18 10 -25t37 -7h105q10 0 10 -10v-122q0 -10 -10 -10h-121q-99 0 -151 39.5t-52 129.5zM228 528q-10 0 -10 10v111q0 10 10 10h152q10 0 10 -10v-111q0 -10 -10 -10h-152z" arabic-form="isolated" glyph-name="aGhayn" horiz-adv-x="559" unicode="غ"/><glyph d="M166 0q-63 0 -90 30.5t-27 95.5v227q0 10 10 10h150q10 0 10 -10v-158q0 -30 11.5 -41.5t36.5 -11.5h225q-10 29 -10 71q0 69 20.5 114t54 71t75.5 36t86 10t86.5 -10t75.5 -36t53.5 -71t20.5 -114q0 -63 -19 -104.5t-51 -65.5t-75 -33.5t-91 -9.5h-552zM718 302 q-33 0 -51.5 -19.5t-18.5 -61.5q0 -50 19 -67t51 -17q34 0 51.5 17t17.5 65q0 46 -17.5 64.5t-51.5 18.5zM643 529q-10 0 -10 10v111q0 10 10 10h152q10 0 10 -10v-111q0 -10 -10 -10h-152z" arabic-form="isolated" glyph-name="aFeh" horiz-adv-x="998" unicode="ف"/><glyph d="M806 -48q0 -81 -54.5 -120t-167.5 -39h-262q-78 0 -133 16t-90 46t-51.5 72.5t-16.5 95.5q0 55 19.5 108.5t44.5 91.5q5 9 15 3l127 -62q8 -5 3 -13q-17 -28 -26.5 -57t-9.5 -56q0 -32 13 -51.5t33.5 -30.5t44.5 -15t47 -4h202q30 0 49.5 2.5t30 7.5t14.5 14t4 21v18h-92 q-102 0 -155.5 49t-53.5 163q0 68 19.5 112.5t52 71t74 37.5t85.5 11t86 -10t75 -36t53 -70t20 -112v-264zM573 302q-35 0 -52 -22t-17 -61q0 -23 5.5 -38t15 -23.5t22.5 -12t28 -3.5h65v80q0 42 -18.5 61t-48.5 19zM433 529q-10 0 -10 10v111q0 10 10 10h117q10 0 10 -10 v-111q0 -10 -10 -10h-117zM598 529q-10 0 -10 10v111q0 10 10 10h117q10 0 10 -10v-111q0 -10 -10 -10h-117z" arabic-form="isolated" glyph-name="aQaf" horiz-adv-x="860" unicode="ق"/><glyph d="M450 463h19q38 0 53 -19.5t15 -60.5v-22q0 -39 -15.5 -53t-45.5 -14h-130q-10 0 -10 10v39q0 10 10 10h96q15 0 19 4.5t4 17.5q0 18 -6 23t-24 5h-63q-14 0 -14 14v37q0 7 4.5 11.5t8.5 9.5l71 85q8 10 16 2l39 -35q5 -5 -2 -12zM651 669q0 10 10 10h151q10 0 10 -10 v-543q0 -65 -27 -95.5t-92 -30.5h-537q-63 0 -90 30.5t-27 95.5v227q0 10 10 10h150q10 0 10 -10v-158q0 -35 16 -44t47 -9h320q29 0 39 15t10 53v459z" arabic-form="isolated" glyph-name="aKaf" horiz-adv-x="877" unicode="ك"/><glyph d="M213 39q0 -32 8 -54t21 -35.5t30.5 -20t35.5 -6.5q91 0 91 108v639q0 10 10 10h150q10 0 10 -10v-647q0 -68 -21.5 -115t-58 -76t-84 -41.5t-99.5 -12.5q-51 0 -99 13t-84.5 42.5t-59 77t-22.5 116.5q0 45 12 97t37 96q4 7 16 4l134 -36q6 -2 7 -6t-1 -8q-13 -28 -23 -60 t-10 -75z" arabic-form="isolated" glyph-name="aLam" horiz-adv-x="624" unicode="ل"/><glyph d="M368 -7q-42 0 -78.5 8.5t-65.5 27.5q-5 -8 -11 -14t-10.5 -12.5t-7.5 -16t-3 -22.5v-171h-170v192q0 35 7.5 57.5t19 37.5t25.5 24.5t26.5 19.5t21.5 21.5t11 30.5q-1 8 -1 17v20q0 69 20.5 114t53.5 71t75.5 36t86.5 10t86.5 -10t75.5 -36t53.5 -71t20.5 -114 q0 -63 -19 -105.5t-51 -68t-75 -36t-91 -10.5zM368 302q-34 0 -52 -19.5t-18 -63.5q0 -49 19 -66.5t51 -17.5q34 0 51.5 18t17.5 66q0 46 -17.5 64.5t-51.5 18.5z" arabic-form="isolated" glyph-name="aMim" horiz-adv-x="648" unicode="م"/><glyph d="M244 447q-10 0 -10 10v111q0 10 10 10h152q10 0 10 -10v-111q0 -10 -10 -10h-152zM213 39q0 -32 8 -54t21 -35.5t30.5 -20t35.5 -6.5q91 0 91 108v305q0 10 10 10h150q10 0 10 -10v-313q0 -68 -21.5 -115t-58 -76t-84 -41.5t-99.5 -12.5q-51 0 -99 13t-84.5 42.5t-59 77 t-22.5 116.5q0 45 12 97t37 96q4 7 16 4l134 -36q6 -2 7 -6t-1 -8q-13 -28 -23 -60t-10 -75z" arabic-form="isolated" glyph-name="aNun" horiz-adv-x="623" unicode="ن"/><glyph d="M140 -207q-10 0 -10 10v122q0 10 10 10h112q40 0 63 11.5t23 53.5h-63q-57 0 -101 9.5t-74 33.5t-45.5 64.5t-15.5 102.5q0 68 20 113t52 72t73.5 38t85.5 11q45 0 87 -10t74.5 -35.5t52.5 -69.5t20 -112v-234q0 -92 -48 -141t-159 -49h-157zM272 302q-35 0 -52 -22.5 t-17 -61.5q0 -23 5.5 -38t14.5 -23.5t22 -11.5t28 -3h65v80q0 43 -18 61.5t-48 18.5z" arabic-form="isolated" glyph-name="aWaw" horiz-adv-x="558" unicode="و"/><glyph d="M203 35q0 -31 13.5 -50t34 -29.5t44.5 -14.5t47 -4h155q53 0 71 12.5t18 27.5q0 14 -15.5 28t-39 29t-50.5 33.5t-50.5 42.5t-39 55t-15.5 72q0 46 19 82.5t50.5 61t73 37.5t86.5 13q66 0 115.5 -19.5t78.5 -53.5q5 -6 -3 -14l-76 -87q-6 -5 -14 1q-20 17 -40.5 23.5 t-42.5 6.5q-27 0 -47.5 -13t-20.5 -41q0 -23 16.5 -41.5t41 -36t53.5 -36.5t53.5 -42t41 -51.5t16.5 -66.5q0 -78 -56 -122.5t-166 -44.5h-233q-78 0 -133 16t-90 46t-51.5 72.5t-16.5 95.5q0 45 12 97t37 96q4 7 16 4l134 -36q6 -2 7 -6t-1 -8q-13 -28 -23 -60t-10 -75z" arabic-form="isolated" glyph-name="aAlifMaksura" horiz-adv-x="827" unicode="ى"/><glyph d="M203 110q0 -31 13.5 -50t34 -29.5t44.5 -14.5t47 -4h155q53 0 71 12.5t18 27.5q0 14 -15.5 28t-39 29t-50.5 33.5t-50.5 42.5t-39 55t-15.5 72q0 46 19 82.5t50.5 61t73 37.5t86.5 13q66 0 115.5 -19.5t78.5 -53.5q5 -6 -3 -14l-76 -87q-6 -5 -14 1q-20 17 -40.5 23.5 t-42.5 6.5q-27 0 -47.5 -13t-20.5 -41q0 -23 16.5 -41.5t41 -36t53.5 -36.5t53.5 -42t41 -51.5t16.5 -66.5q0 -78 -56 -122.5t-166 -44.5h-233q-78 0 -133 16t-90 46t-51.5 72.5t-16.5 95.5q0 45 12 97t37 96q4 7 16 4l134 -36q6 -2 7 -6t-1 -8q-13 -28 -23 -60t-10 -75z M280 -318q-10 0 -10 10v111q0 10 10 10h117q10 0 10 -10v-111q0 -10 -10 -10h-117zM445 -318q-10 0 -10 10v111q0 10 10 10h117q10 0 10 -10v-111q0 -10 -10 -10h-117z" arabic-form="isolated" glyph-name="aYeh" horiz-adv-x="827" unicode="ي"/><glyph d="M225 10q0 -10 -10 -10h-150q-10 0 -10 10v660q0 10 10 10h150q10 0 10 -10v-660zM35 815q10 0 10 14v84q0 7 8 7h53q8 0 8 -7v-6q15 5 32.5 8.5t34.5 3.5q45 0 62.5 -23.5t17.5 -61.5q0 -47 -16 -61t-50 -14h-172q-7 0 -7 7v42q0 7 7 7h12zM163 863q-11 0 -23.5 -3.5 t-25.5 -8.5v-36h59q12 0 15.5 5.5t3.5 17.5q0 14 -7.5 19.5t-21.5 5.5z" arabic-form="isolated" glyph-name="aAlifWasla" horiz-adv-x="280" unicode="ٱ"/><glyph d="M605 142q26 0 37.5 11.5t11.5 41.5v223q0 10 10 10h150q10 0 10 -10v-292q0 -65 -27 -95.5t-92 -30.5h-537q-63 0 -90 30.5t-27 95.5v227q0 10 10 10h150q10 0 10 -10v-158q0 -30 11.5 -41.5t36.5 -11.5h336v0zM331 493q10 0 10 11v146q0 7 8 7h53q8 0 8 -7v-65 q31 12 67 12q45 0 62.5 -22.5t17.5 -57.5q0 -45 -13 -62.5t-41 -17.5h-184q-7 0 -7 7v42q0 7 7 7h12zM459 541q-11 0 -24 -3.5t-25 -8.5v-36h59q12 0 15.5 5.5t3.5 17.5q0 14 -7.5 19.5t-21.5 5.5z" arabic-form="isolated" glyph-name="aTteh" horiz-adv-x="874" unicode="ٹ"/><glyph d="M605 142q26 0 37.5 11.5t11.5 41.5v223q0 10 10 10h150q10 0 10 -10v-292q0 -65 -27 -95.5t-92 -30.5h-537q-63 0 -90 30.5t-27 95.5v227q0 10 10 10h150q10 0 10 -10v-158q0 -30 11.5 -41.5t36.5 -11.5h336v0zM297 -207q-10 0 -10 10v111q0 10 10 10h117q10 0 10 -10 v-111q0 -10 -10 -10h-117zM462 -207q-10 0 -10 10v111q0 10 10 10h117q10 0 10 -10v-111q0 -10 -10 -10h-117zM381 -363q-10 0 -10 10v111q0 10 10 10h117q10 0 10 -10v-111q0 -10 -10 -10h-117z" arabic-form="isolated" glyph-name="aPeh" horiz-adv-x="874" unicode="پ"/><glyph d="M346 -124q-7 0 -7 6v69q0 6 7 6h70q6 0 6 -6v-69q0 -6 -6 -6h-70zM452 -124q-7 0 -7 6v69q0 6 7 6h70q6 0 6 -6v-69q0 -6 -6 -6h-70zM398 -222q-6 0 -6 6v70q0 6 6 6h73q6 0 6 -6v-70q0 -6 -6 -6h-73zM224 -207q-50 0 -87.5 8.5t-63.5 28.5t-39 54.5t-13 87.5q0 49 14 82 t38 52.5t57 27.5t71 8h102q43 0 58.5 14t15.5 51q0 18 -4.5 35t-14 30.5t-26 21.5t-40.5 8q-31 0 -54.5 -12t-43.5 -28q-7 -7 -14 -1l-67 88q-3 4 -4.5 8t2.5 8q38 35 84 57t112 22q64 0 110.5 -18t76.5 -50.5t44.5 -78t14.5 -99.5q0 -62 -13 -101t-36.5 -60.5t-57 -29 t-75.5 -7.5h-132q-25 0 -35 -7t-10 -27q0 -15 8 -23t37 -8h62q10 0 10 -10v-122q0 -10 -10 -10h-77z" arabic-form="isolated" glyph-name="aTcheh" horiz-adv-x="594" unicode="چ"/><glyph d="M453 171q0 -48 -10 -81t-29.5 -53t-48.5 -28.5t-67 -8.5h-251q-10 0 -10 10v122q0 10 10 10h161q24 0 37.5 3.5t21 10t9.5 17.5t2 26v41q0 35 -19 48.5t-59 13.5h-114q-10 0 -10 10v122q0 10 10 10h187q90 0 135 -44t45 -137v-92zM134 559q10 0 10 11v146q0 7 8 7h53 q8 0 8 -7v-65q31 12 67 12q45 0 62.5 -22.5t17.5 -57.5q0 -45 -13 -62.5t-41 -17.5h-184q-7 0 -7 7v42q0 7 7 7h12zM262 607q-11 0 -24 -3.5t-25 -8.5v-36h59q12 0 15.5 5.5t3.5 17.5q0 14 -7.5 19.5t-21.5 5.5z" arabic-form="isolated" glyph-name="aDdal" horiz-adv-x="501" unicode="ڈ"/><glyph d="M14 -207q-10 0 -10 10v122q0 10 10 10h20q42 0 58.5 21t16.5 64v398q0 10 10 10h150q10 0 10 -10v-407q0 -114 -51.5 -166t-158.5 -52h-55zM86 559q10 0 10 11v146q0 7 8 7h53q8 0 8 -7v-65q31 12 67 12q45 0 62.5 -22.5t17.5 -57.5q0 -45 -13 -62.5t-41 -17.5h-184 q-7 0 -7 7v42q0 7 7 7h12zM214 607q-11 0 -24 -3.5t-25 -8.5v-36h59q12 0 15.5 5.5t3.5 17.5q0 14 -7.5 19.5t-21.5 5.5z" arabic-form="isolated" glyph-name="aRreh" horiz-adv-x="333" unicode="ڑ"/><glyph d="M14 -207q-10 0 -10 10v122q0 10 10 10h20q42 0 58.5 21t16.5 64v398q0 10 10 10h150q10 0 10 -10v-407q0 -114 -51.5 -166t-158.5 -52h-55zM49 529q-10 0 -10 10v111q0 10 10 10h117q10 0 10 -10v-111q0 -10 -10 -10h-117zM214 529q-10 0 -10 10v111q0 10 10 10h117 q10 0 10 -10v-111q0 -10 -10 -10h-117zM129 682q-10 0 -10 10v111q0 10 10 10h117q10 0 10 -10v-111q0 -10 -10 -10h-117z" arabic-form="isolated" glyph-name="aJeh" horiz-adv-x="333" unicode="ژ"/><glyph d="M166 0q-63 0 -90 30.5t-27 95.5v227q0 10 10 10h150q10 0 10 -10v-158q0 -30 11.5 -41.5t36.5 -11.5h225q-10 29 -10 71q0 69 20.5 114t54 71t75.5 36t86 10t86.5 -10t75.5 -36t53.5 -71t20.5 -114q0 -63 -19 -104.5t-51 -65.5t-75 -33.5t-91 -9.5h-552zM718 302 q-33 0 -51.5 -19.5t-18.5 -61.5q0 -50 19 -67t51 -17q34 0 51.5 17t17.5 65q0 46 -17.5 64.5t-51.5 18.5zM574 529q-10 0 -10 10v111q0 10 10 10h117q10 0 10 -10v-111q0 -10 -10 -10h-117zM739 529q-10 0 -10 10v111q0 10 10 10h117q10 0 10 -10v-111q0 -10 -10 -10h-117z M654 682q-10 0 -10 10v111q0 10 10 10h117q10 0 10 -10v-111q0 -10 -10 -10h-117z" arabic-form="isolated" glyph-name="aVeh" horiz-adv-x="998" unicode="ڤ"/><glyph d="M457 299q-8 0 -10.5 3.5t-2.5 8.5v87q0 8 3 13t6 9l229 270q7 9 13 3l100 -84q9 -8 4 -14l-135 -155q46 -3 81 -14t59 -33t36 -56t12 -85v-81q0 -48 -10 -81t-29.5 -53t-48.5 -28.5t-67 -8.5h-531q-63 0 -90 30.5t-27 95.5v227q0 10 10 10h150q10 0 10 -10v-158 q0 -34 15 -43.5t45 -9.5h328q22 0 36 2.5t21.5 8.5t10 17t2.5 28v38q0 40 -21.5 51.5t-66.5 11.5h-132z" arabic-form="isolated" glyph-name="aKeheh" horiz-adv-x="900" unicode="ک"/><glyph d="M457 299q-8 0 -10.5 3.5t-2.5 8.5v87q0 8 3 13t6 9l229 270q7 9 13 3l100 -84q9 -8 4 -14l-135 -155q46 -3 81 -14t59 -33t36 -56t12 -85v-81q0 -48 -10 -81t-29.5 -53t-48.5 -28.5t-67 -8.5h-531q-63 0 -90 30.5t-27 95.5v227q0 10 10 10h150q10 0 10 -10v-158 q0 -34 15 -43.5t45 -9.5h328q22 0 36 2.5t21.5 8.5t10 17t2.5 28v38q0 40 -21.5 51.5t-66.5 11.5h-132zM423 461q-6 -7 -13 -3l-82 67q-8 5 -4 14l224 262q6 7 13 3l82 -67q8 -6 4 -14z" arabic-form="isolated" glyph-name="aGaf" horiz-adv-x="900" unicode="گ"/><glyph d="M213 39q0 -32 8 -54t21 -35.5t30.5 -20t35.5 -6.5q91 0 91 108v305q0 10 10 10h150q10 0 10 -10v-313q0 -68 -21.5 -115t-58 -76t-84 -41.5t-99.5 -12.5q-51 0 -99 13t-84.5 42.5t-59 77t-22.5 116.5q0 45 12 97t37 96q4 7 16 4l134 -36q6 -2 7 -6t-1 -8q-13 -28 -23 -60 t-10 -75z" arabic-form="isolated" glyph-name="aNunGhunna" horiz-adv-x="623" unicode="ں"/><glyph d="M222 0q-23 0 -29.5 -6.5t-6.5 -27.5v-50q0 -10 -10 -10h-150q-10 0 -10 10v127q0 47 22.5 73t76.5 26h96q-9 17 -13.5 41t-4.5 41q0 20 4 42.5t14 40.5l-21 -6q-10 -3 -12 6l-27 94q-3 12 3 14q27 10 60.5 19t70 15.5t75 10.5t75.5 4q59 0 115.5 -12t101 -40.5 t71.5 -76.5t27 -119q0 -44 -10 -83t-35.5 -68.5t-69.5 -47t-111 -17.5h-302zM348 312q-28 0 -40.5 -21.5t-12.5 -68.5q0 -45 12.5 -64.5t39.5 -19.5q29 0 41.5 19.5t12.5 64.5q0 49 -12 69.5t-41 20.5zM569 218q0 45 -22 69.5t-59 32.5q10 -17 17 -41t7 -56 q0 -25 -6.5 -48.5t-15.5 -37.5h16q37 0 50 23.5t13 57.5z" arabic-form="isolated" glyph-name="aHehDoachashmi" horiz-adv-x="801" unicode="ھ"/><glyph d="M277 -7q-48 0 -91 10.5t-75 36t-51 68t-19 105.5q0 69 20.5 114t53.5 71t75.5 36t86.5 10t86.5 -10t75.5 -36t53.5 -71t20.5 -114q0 -63 -18.5 -105.5t-51 -68t-75.5 -36t-91 -10.5zM277 302q-34 0 -51.5 -19.5t-17.5 -63.5q0 -49 18.5 -66.5t50.5 -17.5q35 0 52.5 18 t17.5 66q0 46 -18 64.5t-52 18.5z" arabic-form="isolated" glyph-name="aHehGoal" horiz-adv-x="557" unicode="ہ"/><glyph d="M477 214q0 -35 10 -53.5t52 -18.5h20q21 0 30.5 -14.5t9.5 -56.5q0 -71 -40 -71h-108q-144 0 -144 141v138h-39q-18 0 -29.5 -4.5t-18 -15.5t-8.5 -29t-2 -45v-175q0 -10 -10 -10h-150q-10 0 -10 10v231q0 58 17.5 94.5t45.5 57t63 28t71 7.5h230q10 0 10 -10v-204z M178 571q-13 21 -13 49q0 19 7 37t21.5 32t35.5 22.5t49 8.5q34 0 59 -12.5t39 -29.5q4 -6 -1 -9l-34 -39q-4 -4 -10 0q-23 23 -46 23q-14 0 -25.5 -9t-11.5 -29q0 -16 8.5 -27t18.5 -17h98q6 0 6 -7v-53q0 -7 -6 -7h-232q-6 0 -6 7v53q0 7 6 7h37z" glyph-name="aHehGoalHamzaabove.fina" horiz-adv-x="559" unicode="ۂ"/><glyph d="M100 563q-10 0 -10 10v111q0 10 10 10h117q10 0 10 -10v-111q0 -10 -10 -10h-117zM265 563q-10 0 -10 10v111q0 10 10 10h117q10 0 10 -10v-111q0 -10 -10 -10h-117zM344 444v43q0 10 10 10h150q10 0 10 -10v-292q0 -30 11.5 -41.5t36.5 -11.5h26q40 0 40 -71 q0 -40 -9.5 -55.5t-30.5 -15.5h-127q-49 0 -76.5 14t-36.5 57q-23 -18 -52.5 -27t-61.5 -9q-40 0 -76 10.5t-63.5 34.5t-44 62.5t-16.5 93.5q0 62 18 102t47.5 63.5t66.5 33t76 9.5h102zM271 177q29 0 51 16t22 54v55h-71q-34 0 -53.5 -13.5t-19.5 -51.5q0 -35 21 -47.5 t50 -12.5z" glyph-name="aTehMarbutaGoal.fina" horiz-adv-x="591" unicode="ۃ"/><glyph d="M203 35q0 -31 13.5 -50t34 -29.5t44.5 -14.5t47 -4h155q53 0 71 12.5t18 27.5q0 14 -15.5 28t-39 29t-50.5 33.5t-50.5 42.5t-39 55t-15.5 72q0 46 19 82.5t50.5 61t73 37.5t86.5 13q66 0 115.5 -19.5t78.5 -53.5q5 -6 -3 -14l-76 -87q-6 -5 -14 1q-20 17 -40.5 23.5 t-42.5 6.5q-27 0 -47.5 -13t-20.5 -41q0 -23 16.5 -41.5t41 -36t53.5 -36.5t53.5 -42t41 -51.5t16.5 -66.5q0 -78 -56 -122.5t-166 -44.5h-233q-78 0 -133 16t-90 46t-51.5 72.5t-16.5 95.5q0 45 12 97t37 96q4 7 16 4l134 -36q6 -2 7 -6t-1 -8q-13 -28 -23 -60t-10 -75z" arabic-form="isolated" glyph-name="aYehFarsi" horiz-adv-x="827" unicode="ی"/><glyph d="M370 343q-20 -27 -46.5 -51t-50.5 -44.5t-41 -38t-17 -33.5q0 -14 13 -24t43 -10h492q10 0 10 -10v-122q0 -10 -10 -10h-503q-105 0 -159.5 36t-54.5 109q0 41 18 77t47 71t65 71t71 77q2 2 6.5 3t8.5 -2l107 -85q7 -7 1 -14z" arabic-form="isolated" glyph-name="aYehBarri" horiz-adv-x="792" unicode="ے"/><glyph d="M377 343q-20 -27 -46.5 -51t-50.5 -44.5t-41 -38t-17 -33.5q0 -14 13 -24t43 -10h492q10 0 10 -10v-122q0 -10 -10 -10h-503q-105 0 -159.5 36t-54.5 109q0 41 18 77t47 71t65 71t71 77q2 2 6.5 3t8.5 -2l107 -85q7 -7 1 -14zM107 556q-13 21 -13 49q0 19 7 37t21.5 32 t35.5 22.5t49 8.5q34 0 59 -12.5t39 -29.5q4 -6 -1 -9l-34 -39q-4 -4 -10 0q-23 23 -46 23q-14 0 -25.5 -9t-11.5 -29q0 -16 8.5 -27t18.5 -17h98q6 0 6 -7v-53q0 -7 -6 -7h-232q-6 0 -6 7v53q0 7 6 7h37z" arabic-form="isolated" glyph-name="aYehBarriHamzaabove" horiz-adv-x="819" unicode="ۓ"/><glyph d="M344 444v43q0 10 10 10h150q10 0 10 -10v-292q0 -30 11.5 -41.5t36.5 -11.5h26q40 0 40 -71q0 -40 -9.5 -55.5t-30.5 -15.5h-127q-49 0 -76.5 14t-36.5 57q-23 -18 -52.5 -27t-61.5 -9q-40 0 -76 10.5t-63.5 34.5t-44 62.5t-16.5 93.5q0 62 18 102t47.5 63.5t66.5 33 t76 9.5h102zM271 177q29 0 51 16t22 54v55h-71q-34 0 -53.5 -13.5t-19.5 -51.5q0 -35 21 -47.5t50 -12.5z" glyph-name="aAe.fina" horiz-adv-x="591" unicode="ە"/><glyph d="M37 815q10 0 10 14v84q0 7 8 7h53q8 0 8 -7v-6q15 5 32.5 8.5t34.5 3.5q45 0 62.5 -23.5t17.5 -61.5q0 -47 -16 -61t-50 -14h-172q-7 0 -7 7v42q0 7 7 7h12zM165 863q-11 0 -23.5 -3.5t-25.5 -8.5v-36h59q12 0 15.5 5.5t3.5 17.5q0 14 -7.5 19.5t-21.5 5.5zM55 670 q0 10 10 10h150q10 0 10 -10v-475q0 -30 11.5 -41.5t36.5 -11.5h18q20 0 30 -16.5t10 -57.5q0 -42 -9.5 -55t-30.5 -13h-119q-63 0 -90 30.5t-27 95.5v544z" arabic-form="final" glyph-name="aAlifWasla.fina" horiz-adv-x="291" unicode="ٱ"/><glyph d="M654 418q0 10 10 10h150q10 0 10 -10v-229q3 -20 20 -33.5t49 -13.5h29q40 0 40 -71q0 -34 -9.5 -52.5t-30.5 -18.5q-35 0 -63 9.5t-49 40.5q-17 -32 -48.5 -41t-88.5 -9h-505q-63 0 -90 30.5t-27 95.5v227q0 10 10 10h150q10 0 10 -10v-158q0 -30 11.5 -41.5t36.5 -11.5 h336q29 0 39 14t10 51v211zM296 -207q-10 0 -10 10v111q0 10 10 10h117q10 0 10 -10v-111q0 -10 -10 -10h-117zM461 -207q-10 0 -10 10v111q0 10 10 10h117q10 0 10 -10v-111q0 -10 -10 -10h-117zM380 -363q-10 0 -10 10v111q0 10 10 10h117q10 0 10 -10v-111q0 -10 -10 -10 h-117z" arabic-form="final" glyph-name="aPeh.fina" horiz-adv-x="920" unicode="پ"/><glyph d="M0 0q-20 0 -30 15t-10 53q0 74 40 74h58q25 0 36.5 11.5t11.5 41.5v223q0 10 10 10h151q10 0 10 -10v-292q0 -65 -27 -95.5t-90 -30.5h-160zM21 -207q-10 0 -10 10v111q0 10 10 10h117q10 0 10 -10v-111q0 -10 -10 -10h-117zM186 -207q-10 0 -10 10v111q0 10 10 10h117 q10 0 10 -10v-111q0 -10 -10 -10h-117zM105 -363q-10 0 -10 10v111q0 10 10 10h117q10 0 10 -10v-111q0 -10 -10 -10h-117z" arabic-form="initial" glyph-name="aPeh.init" horiz-adv-x="340" unicode="پ"/><glyph d="M50 -207q-10 0 -10 10v111q0 10 10 10h117q10 0 10 -10v-111q0 -10 -10 -10h-117zM215 -207q-10 0 -10 10v111q0 10 10 10h117q10 0 10 -10v-111q0 -10 -10 -10h-117zM134 -363q-10 0 -10 10v111q0 10 10 10h117q10 0 10 -10v-111q0 -10 -10 -10h-117zM107 418 q0 10 10 10h151q10 0 10 -10v-228q0 -21 18.5 -34.5t50.5 -13.5h29q40 0 40 -71q0 -34 -9.5 -52.5t-30.5 -18.5q-38 0 -65 9.5t-47 40.5q-9 -17 -22 -27t-31 -15t-42 -6.5t-54 -1.5h-113q-20 0 -30 15t-10 57q0 38 9.5 54t30.5 16h57q29 0 38.5 15t9.5 53v208z" arabic-form="medial" glyph-name="aPeh.medi" horiz-adv-x="376" unicode="پ"/><glyph d="M331 493q10 0 10 11v146q0 7 8 7h53q8 0 8 -7v-65q31 12 67 12q45 0 62.5 -22.5t17.5 -57.5q0 -45 -13 -62.5t-41 -17.5h-184q-7 0 -7 7v42q0 7 7 7h12zM459 541q-11 0 -24 -3.5t-25 -8.5v-36h59q12 0 15.5 5.5t3.5 17.5q0 14 -7.5 19.5t-21.5 5.5zM654 418q0 10 10 10 h150q10 0 10 -10v-229q3 -20 20 -33.5t49 -13.5h29q40 0 40 -71q0 -34 -9.5 -52.5t-30.5 -18.5q-35 0 -63 9.5t-49 40.5q-17 -32 -48.5 -41t-88.5 -9h-505q-63 0 -90 30.5t-27 95.5v227q0 10 10 10h150q10 0 10 -10v-158q0 -30 11.5 -41.5t36.5 -11.5h336q29 0 39 14t10 51 v211z" arabic-form="final" glyph-name="aTteh.fina" horiz-adv-x="920" unicode="ٹ"/><glyph d="M45 559q10 0 10 11v146q0 7 8 7h53q8 0 8 -7v-65q31 12 67 12q45 0 62.5 -22.5t17.5 -57.5q0 -45 -13 -62.5t-41 -17.5h-184q-7 0 -7 7v42q0 7 7 7h12zM173 607q-11 0 -24 -3.5t-25 -8.5v-36h59q12 0 15.5 5.5t3.5 17.5q0 14 -7.5 19.5t-21.5 5.5zM0 0q-20 0 -30 16.5 t-10 54.5t9.5 54.5t30.5 16.5h22q25 0 36.5 11.5t11.5 41.5v223q0 10 10 10h150q10 0 10 -10v-292q0 -65 -27 -95.5t-90 -30.5h-123z" arabic-form="initial" glyph-name="aTteh.init" horiz-adv-x="295" unicode="ٹ"/><glyph d="M53 559q10 0 10 11v146q0 7 8 7h53q8 0 8 -7v-65q31 12 67 12q45 0 62.5 -22.5t17.5 -57.5q0 -45 -13 -62.5t-41 -17.5h-184q-7 0 -7 7v42q0 7 7 7h12zM181 607q-11 0 -24 -3.5t-25 -8.5v-36h59q12 0 15.5 5.5t3.5 17.5q0 14 -7.5 19.5t-21.5 5.5zM72 418q0 10 10 10h150 q10 0 10 -10v-228q3 -21 19.5 -34.5t49.5 -13.5h28q40 0 40 -71t-40 -71q-37 0 -64.5 9.5t-47.5 40.5q-17 -34 -50.5 -42t-92.5 -8h-85q-20 0 -30 15t-10 57q0 36 9.5 53t33.5 17h22q28 0 38 14.5t10 52.5v209z" arabic-form="medial" glyph-name="aTteh.medi" horiz-adv-x="337" unicode="ٹ"/><glyph d="M694 444q51 0 93.5 -10.5t74 -31.5t49 -53t17.5 -75q0 -44 -21.5 -77.5t-50.5 -54.5h128q20 0 30 -15t10 -57q0 -38 -9.5 -54t-30.5 -16h-124q-45 0 -90 4t-75 20q-18 -7 -38 -11.5t-40 -7.5t-38.5 -4t-33.5 -1h-379q-63 0 -90 30.5t-27 95.5v234q0 10 10 10h150 q10 0 10 -10v-165q0 -34 15.5 -43.5t45.5 -9.5h251q-30 22 -50.5 55t-20.5 77q0 43 17.5 75t49 53t74 31.5t93.5 10.5zM694 335q-12 0 -23.5 -4.5t-21.5 -13.5t-16 -23t-6 -34q0 -41 20 -63t47 -38q13 8 25 17t21 21t14.5 27t5.5 36q0 20 -6 34t-15.5 23t-21.5 13.5t-23 4.5 zM557 529q-10 0 -10 10v111q0 10 10 10h117q10 0 10 -10v-111q0 -10 -10 -10h-117zM722 529q-10 0 -10 10v111q0 10 10 10h117q10 0 10 -10v-111q0 -10 -10 -10h-117zM637 682q-10 0 -10 10v111q0 10 10 10h117q10 0 10 -10v-111q0 -10 -10 -10h-117z" arabic-form="final" glyph-name="aVeh.fina" horiz-adv-x="984" unicode="ڤ"/><glyph d="M2 0q-21 0 -30.5 15t-9.5 57q0 38 10 54t30 16h59q-11 31 -11 71q0 69 20.5 114t54 71t76 36t85.5 10q44 0 86.5 -10t75.5 -36t53.5 -71t20.5 -114q0 -63 -18.5 -104.5t-51 -65.5t-75.5 -33.5t-91 -9.5h-284zM286 302q-32 0 -50.5 -19.5t-18.5 -61.5q0 -50 18.5 -67 t50.5 -17q35 0 52.5 17t17.5 65q0 46 -18 64.5t-52 18.5zM149 529q-10 0 -10 10v111q0 10 10 10h117q10 0 10 -10v-111q0 -10 -10 -10h-117zM314 529q-10 0 -10 10v111q0 10 10 10h117q10 0 10 -10v-111q0 -10 -10 -10h-117zM229 682q-10 0 -10 10v111q0 10 10 10h117 q10 0 10 -10v-111q0 -10 -10 -10h-117z" arabic-form="initial" glyph-name="aVeh.init" horiz-adv-x="567" unicode="ڤ"/><glyph d="M293 444q51 0 93.5 -10.5t74 -31.5t49 -53t17.5 -74q0 -44 -21 -78t-51 -55h128q20 0 30 -15t10 -57q0 -38 -9.5 -54t-30.5 -16h-160q-36 0 -68 3t-61 21q-33 -18 -70.5 -21t-66.5 -3h-157q-21 0 -30.5 16.5t-9.5 56.5q0 69 40 69h130q-29 22 -50 55.5t-21 77.5 q0 42 17.5 74t49 53t74 31.5t93.5 10.5zM293 335q-12 0 -23.5 -4t-21.5 -13t-16 -23t-6 -34q0 -41 20 -63.5t47 -38.5q13 8 25 17t21 21t14.5 27.5t5.5 36.5q0 20 -6 34t-15.5 23t-21 13t-23.5 4zM155 529q-10 0 -10 10v111q0 10 10 10h117q10 0 10 -10v-111q0 -10 -10 -10 h-117zM320 529q-10 0 -10 10v111q0 10 10 10h117q10 0 10 -10v-111q0 -10 -10 -10h-117zM235 682q-10 0 -10 10v111q0 10 10 10h117q10 0 10 -10v-111q0 -10 -10 -10h-117z" arabic-form="medial" glyph-name="aVeh.medi" horiz-adv-x="583" unicode="ڤ"/><glyph d="M348 -124q-7 0 -7 6v69q0 6 7 6h70q6 0 6 -6v-69q0 -6 -6 -6h-70zM454 -124q-7 0 -7 6v69q0 6 7 6h70q6 0 6 -6v-69q0 -6 -6 -6h-70zM400 -222q-6 0 -6 6v70q0 6 6 6h73q6 0 6 -6v-70q0 -6 -6 -6h-73zM226 -207q-49 0 -87 8.5t-63.5 28.5t-38.5 54.5t-13 87.5q0 49 14 82 t38 52.5t57 27.5t71 8h101q44 0 59.5 14t15.5 51q0 18 -4.5 35t-14.5 30.5t-26.5 21.5t-40.5 8q-31 0 -54 -12t-43 -28q-8 -6 -14 -1l-68 88q-3 4 -4.5 8t2.5 8q38 34 84.5 56.5t111.5 22.5q64 0 110.5 -18t76.5 -50.5t44.5 -78t14.5 -100.5q0 -27 20.5 -41t48.5 -14h28 q40 0 40 -71q0 -34 -9.5 -52.5t-30.5 -18.5q-43 0 -73.5 12t-51.5 50q-23 -38 -62 -50t-92 -12h-132q-25 0 -35 -7t-10 -27q0 -15 8 -23t37 -8h62q10 0 10 -10v-122q0 -10 -10 -10h-77z" arabic-form="final" glyph-name="aTcheh.fina" horiz-adv-x="652" unicode="چ"/><glyph d="M0 0q-20 0 -30 15t-10 54q0 73 40 73h230q44 0 59.5 14t15.5 51q0 18 -4.5 35t-14.5 30.5t-26.5 21.5t-40.5 8q-31 0 -54 -12t-43 -28q-8 -6 -14 -1l-68 88q-3 4 -4.5 8t2.5 8q38 34 84.5 56.5t111.5 22.5q64 0 110.5 -18t76.5 -50.5t44.5 -78t14.5 -99.5q0 -62 -13 -101 t-36.5 -60.5t-57 -29t-75.5 -7.5h-298zM105 -207q-10 0 -10 10v111q0 10 10 10h117q10 0 10 -10v-111q0 -10 -10 -10h-117zM270 -207q-10 0 -10 10v111q0 10 10 10h117q10 0 10 -10v-111q0 -10 -10 -10h-117zM189 -363q-10 0 -10 10v111q0 10 10 10h117q10 0 10 -10v-111 q0 -10 -10 -10h-117z" arabic-form="initial" glyph-name="aTcheh.init" horiz-adv-x="524" unicode="چ"/><glyph d="M38 365q38 34 84.5 56.5t111.5 22.5q64 0 110.5 -18t76.5 -50.5t44.5 -78t14.5 -99.5q0 -28 20 -42t49 -14h28q40 0 40 -71q0 -34 -9.5 -52.5t-30.5 -18.5q-43 0 -73.5 12t-51.5 50q-23 -38 -62 -50t-92 -12h-298q-20 0 -30 15t-10 54q0 36 9 54.5t31 18.5h230 q44 0 59.5 14t15.5 51q0 18 -4.5 35t-14.5 30.5t-26.5 21.5t-40.5 8q-31 0 -54 -12t-43 -28q-8 -6 -14 -1l-68 88q-3 4 -4.5 8t2.5 8zM105 -207q-10 0 -10 10v111q0 10 10 10h117q10 0 10 -10v-111q0 -10 -10 -10h-117zM270 -207q-10 0 -10 10v111q0 10 10 10h117 q10 0 10 -10v-111q0 -10 -10 -10h-117zM189 -363q-10 0 -10 10v111q0 10 10 10h117q10 0 10 -10v-111q0 -10 -10 -10h-117z" arabic-form="medial" glyph-name="aTcheh.medi" horiz-adv-x="577" unicode="چ"/><glyph d="M86 302q-10 0 -10 10v122q0 10 10 10h187q90 0 135 -44t45 -137v-65q2 -8 5.5 -18t10.5 -18.5t19.5 -14t32.5 -5.5h29q40 0 40 -71q0 -34 -9.5 -52.5t-30.5 -18.5q-42 0 -71.5 11t-50.5 45q-19 -31 -51.5 -43.5t-78.5 -12.5h-251q-10 0 -10 10v122q0 10 10 10h161 q24 0 38 3.5t21 11.5t9 20t2 29v34q0 35 -19.5 48.5t-58.5 13.5h-114zM134 559q10 0 10 11v146q0 7 8 7h53q8 0 8 -7v-65q31 12 67 12q45 0 62.5 -22.5t17.5 -57.5q0 -45 -13 -62.5t-41 -17.5h-184q-7 0 -7 7v42q0 7 7 7h12zM262 607q-11 0 -24 -3.5t-25 -8.5v-36h59 q12 0 15.5 5.5t3.5 17.5q0 14 -7.5 19.5t-21.5 5.5z" arabic-form="final" glyph-name="aDdal.fina" horiz-adv-x="550" unicode="ڈ"/><glyph d="M109 418q0 10 10 10h150q10 0 10 -10v-228q0 -21 18 -34.5t51 -13.5h28q40 0 40 -71q0 -34 -9.5 -52.5t-30.5 -18.5q-34 0 -57 7.5t-40 27.5v-13q0 -119 -49.5 -174t-160.5 -55h-55q-10 0 -10 10v122q0 10 10 10h20q48 0 61.5 27t13.5 80v376zM50 529q-10 0 -10 10v111 q0 10 10 10h117q10 0 10 -10v-111q0 -10 -10 -10h-117zM215 529q-10 0 -10 10v111q0 10 10 10h117q10 0 10 -10v-111q0 -10 -10 -10h-117zM130 682q-10 0 -10 10v111q0 10 10 10h117q10 0 10 -10v-111q0 -10 -10 -10h-117z" arabic-form="final" glyph-name="aJeh.fina" horiz-adv-x="376" unicode="ژ"/><glyph d="M109 418q0 10 10 10h150q10 0 10 -10v-228q0 -21 18 -34.5t51 -13.5h28q40 0 40 -71q0 -34 -9.5 -52.5t-30.5 -18.5q-34 0 -57 7.5t-40 27.5v-13q0 -119 -49.5 -174t-160.5 -55h-55q-10 0 -10 10v122q0 10 10 10h20q48 0 61.5 27t13.5 80v376zM86 559q10 0 10 11v146 q0 7 8 7h53q8 0 8 -7v-65q31 12 67 12q45 0 62.5 -22.5t17.5 -57.5q0 -45 -13 -62.5t-41 -17.5h-184q-7 0 -7 7v42q0 7 7 7h12zM214 607q-11 0 -24 -3.5t-25 -8.5v-36h59q12 0 15.5 5.5t3.5 17.5q0 14 -7.5 19.5t-21.5 5.5z" arabic-form="final" glyph-name="aRreh.fina" horiz-adv-x="376" unicode="ڑ"/><glyph d="M166 0q-63 0 -90 30.5t-27 95.5v227q0 10 10 10h150q10 0 10 -10v-158q0 -30 11.5 -41.5t36.5 -11.5h340q22 0 36 2.5t21.5 8.5t10 17t2.5 28v38q0 35 -18 49t-60 14h-142q-8 0 -10.5 3.5t-2.5 8.5v87q0 8 3 13t6 9l229 270q7 9 13 3l100 -84q9 -8 4 -14l-135 -155 q46 -2 81 -13t59 -33.5t36 -57t12 -84.5v-65q0 -20 18 -32.5t50 -12.5h29q40 0 40 -71q0 -34 -9.5 -52.5t-30.5 -18.5q-42 0 -71.5 11t-50.5 46q-20 -32 -52 -44.5t-78 -12.5h-531z" arabic-form="final" glyph-name="aKeheh.fina" horiz-adv-x="948" unicode="ک"/><glyph d="M262 440q50 -2 85.5 -14.5t58 -38t33 -64t10.5 -93.5v-59q0 -48 -10 -81t-29.5 -53t-48.5 -28.5t-67 -8.5h-294q-20 0 -30 16t-10 60q0 39 9.5 52.5t30.5 13.5h204q22 0 36 2.5t21.5 8.5t10 17t2.5 28v38q0 35 -18 49t-60 14h-145q-10 0 -10 10v95q0 8 10.5 19.5 t18.5 19.5l209 247q7 9 13 3l100 -84q9 -8 4 -14z" arabic-form="initial" glyph-name="aKeheh.init" horiz-adv-x="497" unicode="ک"/><glyph d="M262 440q45 -2 80 -13t59 -33.5t36 -57t12 -84.5v-64q0 -20 18.5 -33t50.5 -13h28q40 0 40 -71q0 -34 -9.5 -52.5t-30.5 -18.5q-42 0 -71 11t-50 46q-20 -32 -52.5 -44.5t-78.5 -12.5h-294q-20 0 -30 16t-10 60q0 39 9.5 52.5t30.5 13.5h204q22 0 36 2.5t21.5 8.5t10 17 t2.5 28v38q0 35 -18 49t-60 14h-145q-10 0 -10 10v95q0 8 10 18.5t17 18.5l211 249q7 9 13 3l100 -84q9 -8 4 -14z" arabic-form="medial" glyph-name="aKeheh.medi" horiz-adv-x="546" unicode="ک"/><glyph d="M166 0q-63 0 -90 30.5t-27 95.5v227q0 10 10 10h150q10 0 10 -10v-158q0 -30 11.5 -41.5t36.5 -11.5h340q22 0 36 2.5t21.5 8.5t10 17t2.5 28v38q0 35 -18 49t-60 14h-142q-8 0 -10.5 3.5t-2.5 8.5v87q0 8 3 13t6 9l229 270q7 9 13 3l100 -84q9 -8 4 -14l-135 -155 q46 -2 81 -13t59 -33.5t36 -57t12 -84.5v-65q0 -20 18 -32.5t50 -12.5h29q40 0 40 -71q0 -34 -9.5 -52.5t-30.5 -18.5q-42 0 -71.5 11t-50.5 46q-20 -32 -52 -44.5t-78 -12.5h-531zM423 461q-6 -7 -13 -3l-82 67q-8 5 -4 14l224 262q6 7 13 3l82 -67q8 -6 4 -14z" arabic-form="final" glyph-name="aGaf.fina" horiz-adv-x="948" unicode="گ"/><glyph d="M262 440q50 -2 85.5 -14.5t58 -38t33 -64t10.5 -93.5v-59q0 -48 -10 -81t-29.5 -53t-48.5 -28.5t-67 -8.5h-294q-20 0 -30 16t-10 60q0 39 9.5 52.5t30.5 13.5h204q22 0 36 2.5t21.5 8.5t10 17t2.5 28v38q0 35 -18 49t-60 14h-145q-10 0 -10 10v95q0 8 10.5 19.5 t18.5 19.5l209 247q6 7 13 3l100 -84q8 -6 4 -14zM20 461q-6 -7 -13 -3l-82 67q-8 5 -4 14l224 262q6 7 13 3l82 -67q8 -6 4 -14z" arabic-form="initial" glyph-name="aGaf.init" horiz-adv-x="497" unicode="گ"/><glyph d="M262 440q45 -2 80 -13t59 -33.5t36 -57t12 -84.5v-56v-8q3 -20 20 -33t49 -13h28q40 0 40 -71q0 -34 -9.5 -52.5t-30.5 -18.5q-42 0 -71 11t-50 46q-20 -32 -52.5 -44.5t-78.5 -12.5h-294q-20 0 -30 16t-10 60q0 39 9.5 52.5t30.5 13.5h204q22 0 36 2.5t21.5 8.5t10 17 t2.5 28v38q0 35 -18 49t-60 14h-145q-10 0 -10 10v95q0 8 10 18.5t17 18.5l211 249q6 7 13 3l100 -84q8 -6 4 -14zM20 461q-6 -7 -13 -3l-82 67q-8 5 -4 14l224 262q6 7 13 3l82 -67q8 -6 4 -14z" arabic-form="medial" glyph-name="aGaf.medi" horiz-adv-x="546" unicode="گ"/><glyph d="M399 336q0 10 10 10h150q10 0 10 -10v-146q3 -21 20 -34.5t49 -13.5h27q40 0 40 -71q0 -34 -9.5 -52.5t-30.5 -18.5q-30 0 -53.5 5.5t-42.5 25.5v-8q0 -68 -21.5 -115t-58 -76t-84 -41.5t-99.5 -12.5q-51 0 -99 13t-84.5 42.5t-59 77t-22.5 116.5q0 45 12 97t37 96 q4 7 16 4l134 -36q6 -2 7 -6t-1 -8q-13 -28 -23 -60t-10 -75q0 -32 8 -54t21 -35.5t30.5 -20t35.5 -6.5q91 0 91 108v305z" arabic-form="final" glyph-name="aNunGhunna.fina" horiz-adv-x="665" unicode="ں"/><glyph d="M344 444v43q0 10 10 10h150q10 0 10 -10v-292q0 -30 11.5 -41.5t36.5 -11.5h25q40 0 40 -71q0 -40 -9.5 -55.5t-30.5 -15.5h-126q-49 0 -76.5 14t-36.5 57q-23 -18 -53 -27t-61 -9q-40 0 -76.5 10.5t-64 34.5t-44 62.5t-16.5 93.5q0 62 18 102t47.5 63.5t67 33t76.5 9.5 h102zM271 177q29 0 51 16t22 54v55h-71q-35 0 -54 -13.5t-19 -51.5q0 -35 21 -47.5t50 -12.5zM194 640q-5 10 -8.5 22t-3.5 27q0 19 7 37t21 32t35 22.5t50 8.5q34 0 59 -12.5t39 -29.5q3 -5 -1 -9l-35 -39q-3 -4 -9 0q-11 11 -22 17t-25 6t-25.5 -9t-11.5 -29q0 -16 9 -27 t19 -17h98q6 0 6 -7v-53q0 -7 -6 -7h-232q-6 0 -6 7v53q0 7 6 7h36z" arabic-form="final" glyph-name="aHehYeh.fina" horiz-adv-x="588" unicode="ۀ"/><glyph d="M477 214q0 -35 10 -53.5t52 -18.5h20q21 0 30.5 -14.5t9.5 -56.5q0 -71 -40 -71h-108q-144 0 -144 141v138h-39q-18 0 -29.5 -4.5t-18 -15.5t-8.5 -29t-2 -45v-175q0 -10 -10 -10h-150q-10 0 -10 10v231q0 58 17.5 94.5t45.5 57t63 28t71 7.5h230q10 0 10 -10v-204z" arabic-form="final" glyph-name="aHehGoal.fina" horiz-adv-x="559" unicode="ہ"/><glyph d="M193 -183q-9 -1 -18.5 -1h-19.5q-24 0 -47.5 5t-43 18.5t-31.5 37.5t-12 63q0 27 6 60h-27q-20 0 -30 7t-10 28q0 12 2.5 30.5t7 35.5t12 29t18.5 12h22q25 0 36.5 11.5t11.5 41.5v223q0 10 10 10h150q10 0 10 -10v-292q0 -58 -21.5 -89t-70.5 -36q-3 -15 -3 -28 q0 -20 11.5 -31t36.5 -11q10 0 10 -10v-94q0 -8 -10 -10z" arabic-form="initial" glyph-name="aHehGoal.init" horiz-adv-x="310" unicode="ہ"/><glyph d="M189 142q10 0 10 -10v-87q0 -27 2 -46.5t9.5 -32t21.5 -18.5t37 -6v50q0 39 11.5 67.5t31 46.5t46.5 27t58 9h93q40 0 40 -72q0 -40 -9.5 -55t-30.5 -15h-18q-32 0 -47 -18.5t-15 -60.5v-118q0 -10 -10 -10h-151q-113 0 -170.5 45t-57.5 123v39h-41q-20 0 -30 14.5 t-10 52.5q0 39 9.5 57t30.5 18h190z" arabic-form="medial" glyph-name="aHehGoal.medi" horiz-adv-x="509" unicode="ہ"/><glyph d="M248 142v74q0 67 21.5 111.5t55.5 70t74.5 36t79.5 10.5q43 0 85 -9.5t75 -32.5t53.5 -61t20.5 -95q0 -32 -8 -60.5t-15 -43.5h83q21 0 30.5 -16.5t9.5 -54.5q0 -41 -10 -56t-30 -15h-90q9 -15 15 -32t6 -37q0 -44 -18.5 -73t-50 -46.5t-72.5 -25t-86 -7.5 q-46 0 -87.5 7.5t-73 26t-50 50t-18.5 79.5v58h-26q-23 0 -29.5 -6.5t-6.5 -27.5v-50q0 -10 -10 -10h-150q-10 0 -10 10v127q0 47 22.5 73t76.5 26h133zM480 302q-29 0 -47.5 -20.5t-18.5 -62.5v-80h70q64 0 64 82q0 41 -19 61t-49 20zM479 -89q32 0 46 13t14 35t-11.5 35.5 t-48.5 13.5h-65v-42q0 -55 65 -55z" arabic-form="final" glyph-name="aHehDoachashmi.fina" horiz-adv-x="773" unicode="ھ"/><glyph d="M-40 81q0 38 9.5 49.5t30.5 11.5h76q-9 17 -13.5 41t-4.5 41q0 20 4 42.5t14 40.5l-21 -6q-10 -3 -12 6l-27 94q-3 12 3 14q27 10 60.5 19t70 15.5t75 10.5t75.5 4q59 0 115.5 -12t101 -40.5t71.5 -76.5t27 -119q0 -44 -10 -83t-35.5 -68.5t-69.5 -47t-111 -17.5h-389 q-20 0 -30 17t-10 64zM213 312q-28 0 -40.5 -21.5t-12.5 -68.5q0 -45 12.5 -64.5t39.5 -19.5q29 0 41.5 19.5t12.5 64.5q0 49 -12 69.5t-41 20.5zM434 218q0 45 -22 69.5t-59 32.5q10 -17 17 -41t7 -56q0 -25 -6.5 -48.5t-15.5 -37.5h16q37 0 50 23.5t13 57.5z" arabic-form="initial" glyph-name="aHehDoachashmi.init" horiz-adv-x="666" unicode="ھ"/><glyph d="M-40 69q0 73 40 73h72v80q0 67 21.5 110.5t54.5 68t73.5 34t79.5 9.5q44 0 86.5 -9t75.5 -30.5t53.5 -58.5t20.5 -94q0 -32 -8 -63.5t-15 -46.5h83q21 0 30.5 -16.5t9.5 -54.5q0 -41 -10 -56t-30 -15h-90q9 -15 15 -33.5t6 -38.5q0 -44 -18.5 -72.5t-50 -45.5t-72.5 -24 t-86 -7q-46 0 -87.5 7t-73 25t-50 49t-18.5 79v61h-72q-20 0 -30 16t-10 53zM303 302q-29 0 -47 -17.5t-18 -56.5v-89h70q32 0 48 23.5t16 64.5q0 40 -19 57.5t-50 17.5zM303 -85q32 0 46 11t14 33q0 25 -13 39t-55 14h-57v-46q0 -27 15.5 -39t49.5 -12z" arabic-form="medial" glyph-name="aHehDoachashmi.medi" horiz-adv-x="597" unicode="ھ"/><glyph d="M571 -65q10 0 10 -10v-122q0 -10 -10 -10h-365q-51 0 -86 12t-56.5 33.5t-31 52.5t-9.5 69q0 89 51 135.5t134 46.5h148q20 0 30 -15t10 -57q0 -40 -9 -55t-31 -15h-119q-23 0 -31.5 -9t-8.5 -25q0 -19 12 -25t43 -6h319z" arabic-form="final" glyph-name="aYehBarri.fina" horiz-adv-x="356" unicode="ے"/><glyph d="M90 267q-13 21 -13 49q0 19 7 37t21.5 32t35.5 22.5t49 8.5q34 0 59 -12.5t39 -29.5q4 -6 -1 -9l-34 -39q-4 -4 -10 0q-23 23 -46 23q-14 0 -25.5 -9t-11.5 -29q0 -16 8.5 -27t18.5 -17h98q6 0 6 -7v-53q0 -7 -6 -7h-232q-6 0 -6 7v53q0 7 6 7h37zM571 -65q10 0 10 -10 v-122q0 -10 -10 -10h-365q-51 0 -86 12t-56.5 33.5t-31 52.5t-9.5 69q0 89 51 135.5t134 46.5h148q20 0 30 -15t10 -57q0 -40 -9 -55t-31 -15h-119q-23 0 -31.5 -9t-8.5 -25q0 -19 12 -25t43 -6h319z" arabic-form="final" glyph-name="aYehBarriHamzaabove.fina" horiz-adv-x="356" unicode="ۓ"/><glyph d="M0 0q-20 0 -30 16.5t-10 54.5t9.5 54.5t30.5 16.5h22q25 0 36.5 11.5t11.5 41.5v223q0 10 10 10h150q10 0 10 -10v-292q0 -65 -27 -95.5t-90 -30.5h-123z" arabic-form="initial" glyph-name="aAlifMaksura.init" horiz-adv-x="295" unicode="ى"/><glyph d="M70 418q0 10 10 10h150q10 0 10 -10v-228q3 -21 19.5 -34.5t49.5 -13.5h28q40 0 40 -71t-40 -71q-37 0 -64.5 9.5t-47.5 40.5q-17 -34 -50.5 -42t-92.5 -8h-85q-20 0 -30 15t-10 57q0 36 9.5 53t33.5 17h22q28 0 38 14.5t10 52.5v209z" arabic-form="medial" glyph-name="aAlifMaksura.medi" horiz-adv-x="337" unicode="ى"/><glyph d="M486 -63q30 0 49.5 2.5t30 7.5t14.5 12t4 15q0 12 -8 21.5t-27.5 20t-53.5 23t-85 31.5q-9 3 -6 12l38 118q3 10 12 7q32 -12 59.5 -23.5t53 -21t51 -15t54.5 -5.5h137q40 0 40 -70q0 -72 -40 -72h-63q5 -8 10.5 -22.5t5.5 -33.5q0 -71 -54 -111t-167 -40h-217 q-78 0 -133 16t-90 46t-51.5 72.5t-16.5 95.5q0 55 19.5 108.5t44.5 91.5q5 9 15 3l127 -62q8 -5 3 -13q-17 -28 -26.5 -57t-9.5 -56q0 -32 13 -51.5t33.5 -30.5t44.5 -15t47 -4h142z" arabic-form="final" glyph-name="aYehFarsi.fina" horiz-adv-x="808" unicode="ی"/><glyph d="M0 0q-20 0 -30 15t-10 53q0 74 40 74h58q25 0 36.5 11.5t11.5 41.5v223q0 10 10 10h151q10 0 10 -10v-292q0 -65 -27 -95.5t-90 -30.5h-160zM23 -207q-10 0 -10 10v111q0 10 10 10h117q10 0 10 -10v-111q0 -10 -10 -10h-117zM188 -207q-10 0 -10 10v111q0 10 10 10h117 q10 0 10 -10v-111q0 -10 -10 -10h-117z" arabic-form="initial" glyph-name="aYehFarsi.init" horiz-adv-x="340" unicode="ی"/><glyph d="M51 -207q-10 0 -10 10v111q0 10 10 10h117q10 0 10 -10v-111q0 -10 -10 -10h-117zM216 -207q-10 0 -10 10v111q0 10 10 10h117q10 0 10 -10v-111q0 -10 -10 -10h-117zM107 418q0 10 10 10h151q10 0 10 -10v-228q0 -21 18.5 -34.5t50.5 -13.5h29q40 0 40 -71 q0 -34 -9.5 -52.5t-30.5 -18.5q-38 0 -65 9.5t-47 40.5q-9 -17 -22 -27t-31 -15t-42 -6.5t-54 -1.5h-113q-20 0 -30 15t-10 57q0 38 9.5 54t30.5 16h57q29 0 38.5 15t9.5 53v208z" arabic-form="medial" glyph-name="aYehFarsi.medi" horiz-adv-x="376" unicode="ی"/><glyph d="M-127 902q0 10 10 10h24q10 0 10 -10v-74q0 -40 32 -40t32 36v78q0 10 10 10h24q10 0 10 -10v-78q0 -36 33 -36q31 0 31 40v74q0 10 10 10h24q10 0 10 -10v-71q0 -35 -17 -60t-58 -25q-17 0 -33 5.5t-25 16.5q-9 -11 -21.5 -16.5t-31.5 -5.5q-41 0 -57.5 25t-16.5 60v71z M-145 1060q-10 0 -10 10v21q0 10 10 10h10q34 0 56 -21.5t22 -69.5q0 -23 14 -28t41 -5q36 0 52.5 11.5t21.5 22.5h-26q-35 0 -55.5 18.5t-20.5 50.5q0 33 22.5 55.5t54.5 22.5q33 0 55 -21.5t22 -71.5q0 -37 -9.5 -61.5t-26 -39.5t-40 -21.5t-50.5 -6.5q-21 0 -38.5 2.5 t-30.5 10t-20.5 22.5t-7.5 39q0 26 -9 38t-24 12h-13zM83 1051v14q0 26 -10.5 39t-25.5 13q-18 0 -26.5 -11.5t-8.5 -22.5q0 -20 11.5 -26t27.5 -6h32z" arabic-form="isolated" glyph-name="aShadda_aDammatan" horiz-adv-x="0" unicode="ﱞ"/><glyph d="M-127 1071q0 10 10 10h24q10 0 10 -10v-74q0 -40 32 -40t32 36v78q0 10 10 10h24q10 0 10 -10v-78q0 -36 33 -36q31 0 31 40v74q0 10 10 10h24q10 0 10 -10v-71q0 -35 -17 -60t-58 -25q-17 0 -33 5.5t-25 16.5q-9 -11 -21.5 -16.5t-31.5 -5.5q-41 0 -57.5 25t-16.5 60v71 zM-127 824q-10 0 -10 10v24q0 10 10 10h254q10 0 10 -10v-24q0 -10 -10 -10h-254zM-127 750q-10 0 -10 10v24q0 10 10 10h254q10 0 10 -10v-24q0 -10 -10 -10h-254z" arabic-form="isolated" glyph-name="aShadda_aKasratan" horiz-adv-x="0" unicode="ﱟ"/><glyph d="M-131 965q-10 0 -10 10v24q0 10 10 10h254q10 0 10 -10v-24q0 -10 -10 -10h-254zM-127 902q0 10 10 10h24q10 0 10 -10v-74q0 -40 32 -40t32 36v78q0 10 10 10h24q10 0 10 -10v-78q0 -36 33 -36q31 0 31 40v74q0 10 10 10h24q10 0 10 -10v-71q0 -35 -17 -60t-58 -25 q-17 0 -33 5.5t-25 16.5q-9 -11 -21.5 -16.5t-31.5 -5.5q-41 0 -57.5 25t-16.5 60v71z" arabic-form="isolated" glyph-name="aShadda_aFatha" horiz-adv-x="0" unicode="ﱠ"/><glyph d="M40 1073v16q0 26 -9.5 38.5t-25.5 12.5q-18 0 -26.5 -11.5t-8.5 -24.5q0 -17 14 -23.5t25 -6.5zM-44 1000q36 0 52.5 12t21.5 23h-26q-35 0 -55 18.5t-20 50.5t22 55t54 23t54.5 -22t22.5 -71q0 -37 -9.5 -62t-26.5 -40t-40 -21.5t-50 -6.5h-31q-10 0 -10 10v21 q0 10 10 10h31zM-127 902q0 10 10 10h24q10 0 10 -10v-74q0 -40 32 -40t32 36v78q0 10 10 10h24q10 0 10 -10v-78q0 -36 33 -36q31 0 31 40v74q0 10 10 10h24q10 0 10 -10v-71q0 -35 -17 -60t-58 -25q-17 0 -33 5.5t-25 16.5q-9 -11 -21.5 -16.5t-31.5 -5.5q-41 0 -57.5 25 t-16.5 60v71z" arabic-form="isolated" glyph-name="aShadda_aDamma" horiz-adv-x="0" unicode="ﱡ"/><glyph d="M-126 752q-10 0 -10 10v24q0 10 10 10h254q10 0 10 -10v-24q0 -10 -10 -10h-254zM-132 994q0 10 10 10h24q10 0 10 -10v-74q0 -40 32 -40t32 36v78q0 10 10 10h24q10 0 10 -10v-78q0 -36 33 -36q31 0 31 40v74q0 10 10 10h24q10 0 10 -10v-71q0 -35 -17 -60t-58 -25 q-17 0 -33 5.5t-25 16.5q-9 -11 -21.5 -16.5t-31.5 -5.5q-41 0 -57.5 25t-16.5 60v71z" arabic-form="isolated" glyph-name="aShadda_aKasra" horiz-adv-x="0" unicode="ﱢ"/><glyph d="M-128 902q0 10 10 10h24q10 0 10 -10v-74q0 -40 32 -40t32 36v78q0 10 10 10h24q10 0 10 -10v-78q0 -36 33 -36q31 0 31 40v74q0 10 10 10h24q10 0 10 -10v-71q0 -35 -17 -60t-58 -25q-17 0 -33 5.5t-25 16.5q-9 -11 -21.5 -16.5t-31.5 -5.5q-41 0 -57.5 25t-16.5 60v71z M25 975q0 -10 -10 -10h-28q-10 0 -10 10v124q0 10 10 10h28q10 0 10 -10v-124z" arabic-form="isolated" glyph-name="aShadda_aAlifabove" horiz-adv-x="0" unicode="ﱣ"/><glyph d="M918 0q-35 0 -61.5 10t-46.5 40q-16 -31 -45.5 -40.5t-82.5 -9.5h-223q-49 0 -76.5 14t-36.5 57q-23 -18 -52.5 -27t-61.5 -9q-40 0 -76 10.5t-63.5 34.5t-44 62.5t-16.5 93.5q0 62 18 102t47.5 63.5t66.5 33t76 9.5h102v43q0 10 10 10h150q10 0 10 -10v-292 q0 -30 11.5 -41.5t36.5 -11.5h47q29 0 38.5 17.5t9.5 55.5v455q0 10 10 10h150q10 0 10 -10v-480q3 -21 19.5 -34.5t49.5 -13.5h50q25 0 36.5 11.5t11.5 41.5v475q0 10 10 10h150q10 0 10 -10v-544q0 -65 -27 -95.5t-90 -30.5h-127zM269 177q29 0 51 16t22 54v55h-71 q-34 0 -53.5 -13.5t-19.5 -51.5q0 -35 21 -47.5t50 -12.5zM1454 10q0 -10 -10 -10h-150q-10 0 -10 10v660q0 10 10 10h150q10 0 10 -10v-660z" arabic-form="isolated" glyph-name="aAllah" horiz-adv-x="1509" unicode="ﷲ"/><glyph d="M1017 437q0 -14 -16 -39q-15 -24 -31 -31q-47 -21 -116 -21h-23t-25 2q-24 -47 -38 -47q-4 0 -4 6q0 16 22 47q-43 17 -48 26q-40 -26 -50 -26q8 -141 25 -176q19 -38 87 -39q-22 17 -22 44q0 33 32 76q24 32 61 32q28 0 53 -17q24 -17 24 -31q-26 9 -52 9q-35 0 -65 -14 q-26 -14 -26 -27q0 -14 25 -39q24 -25 44 -29q19 2 68 18q25 8 42 14t25 11l-17 -37q-101 -53 -191 -53q-97 0 -119 73q-30 -65 -57 -65q-26 0 -67 44q-65 -56 -197 -56q-20 0 -37.5 1.5t-32.5 3.5q4 -32 9 -52q9 -36 23 -50q44 -44 176 -44q113 0 165 32q15 37 28 37 q4 0 4 -8q0 -14 -12 -44q6 -13 27 -13q26 0 49 12q21 66 33 66q4 0 4 -11q0 -19 -10 -43q30 -13 44 -13q1 0 4.5 0.5t3.5 3.5q0 4 -8 38l17 36q12 -36 12 -52q0 -67 -44 -67q-23 0 -48 19q-15 -26 -59 -26q-48 0 -48 26q-20 -14 -64 -24q-53 -11 -121 -11q-97 0 -143 28 q-59 34 -60 126l-22 -32q-16 -24 -26 -26q12 -21 12 -41q0 -26 -16 -42q-8 -8 -21 -8q-20 0 -61 23q-13 -30 -42 -47q-3 -2 -9.5 -3t-13.5 -1.5t-13 -1t-9 -1.5l-11 -4q-6 0 -6 5q0 4 24 15q31 12 39 19l34 26q-10 17 -10 40q0 21 18 41q18 21 34 21q2 0 6 -2q17 -10 29 -10 q18 0 36 23l23 42q-39 12 -55 27q-29 26 -41 85q-29 -50 -79 -50q-18 0 -39 8q-16 7 -16 12q0 25 43 58q20 16 41.5 26.5t43.5 17.5l-2 17l20 33q7 -108 21 -141q13 -31 56 -45l-13 132l19 43l17 -180q52 -6 95 -6q104 0 177 40q14 38 19 38q4 0 4 -9q0 -10 -4 -25 q37 -35 59 -35q26 0 42 43l-13 161q-73 0 -90 74q-7 -28 -14 -42q-11 -26 -27 -30l3 -3q35 0 52 -8t17 -30q0 -30 -25 -46q-86 -59 -160 -59q-46 0 -74 23.5t-28 65.5q0 32 16 67q-27 7 -38 43q-18 -51 -57 -51q-47 0 -47 77l-27 -24q-7 -7 -39 -7q-49 0 -49 18q0 11 13 31 q13 22 25 27l76 37v10l17 36l4 -120q1 -42 32 -42q15 0 29.5 10.5t16.5 22.5l-16 114l18 39l28 -161q9 -21 33 -21q23 0 23 13q0 22 -16 74l-10 32t-10 33l13 33q40 -124 40 -157q0 -21 -10 -44q-10 -28 -25 -28q-5 0 -9 3q-7 -20 -7 -39q0 -75 91 -75q71 0 142 48q2 2 2 3 q0 6 -38 12q-59 9 -61 10q-4 3 -4 8q0 10 17 32q60 25 64 53q1 3 1 14q0 49 -5 106.5t-15 124.5l17 56q24 -211 38 -256q18 -57 72 -66l-5 96l21 45l8 -140q28 10 60 36l30 -21q19 -12 39 -15q23 24 65 55q52 38 70 38t41 -14q26 -15 26 -33zM1008 2q0 -50 -39 -108 q-42 -64 -89 -64q-23 0 -59 16q-37 16 -37 23q0 4 5 4q6 0 27 -7q8 -3 18.5 -5.5t18.5 -2.5q68 0 138 106l-7 22q-18 -26 -37 -26q-15 0 -25.5 14t-10.5 31q0 21 15 50q16 31 28 31t32 -24q22 -26 22 -60zM970 639q-36 -13 -116 -51q-96 -47 -96 -61q0 -11 26 -25l-9 -24 q-33 10 -33 40t26 44q128 74 211 102zM476 447q-3 -66 -13 -73l-25 242l22 57zM602 37l-26 -31l-48 35l-28 -36l-50 36l29 35l47 -35l27 33zM989 420q0 7 -18 16q-17 9 -26 9q-21 0 -60 -24q-30 -19 -47 -34q4 -1 20 -1q39 0 82 8q49 10 49 26zM632 -121q0 -20 -2 -30 q-6 -13 -25 -13q-10 0 -14 4q-15 -16 -30 -16q-8 0 -16.5 8.5t-12.5 8.5q-8 0 -37 -17q-29 -18 -70 -18q-44 0 -44 8q0 7 32 7q17 0 29 0.5t17 1.5q15 3 35 16q29 19 40 19q8 0 19 -8t13 -8q15 0 18 17q1 13 11 13q4 0 4 -6t-1 -9q1 -4 11 -6q12 0 12 12q0 16 11 16z M815 705l-6 -22l-195 -96l4 25zM169 263q-88 -34 -88 -52q0 -10 31 -10q33 0 59 24zM324 665q0 -32 -21 -32q-13 0 -21 8q-18 -15 -30 -15q-21 0 -21 27q0 19 3 27l6 6q0 -37 17 -37q12 0 19 16l-2 23l9 14l4 -30q1 -16 15 -16q11 0 11 12q0 1 -0.5 4.5t-2.5 20.5l7 10 q7 -18 7 -38zM189 487q-10 -5 -20 -9t-21 -8q-34 -17 -34 -25q0 -10 25 -10q29 0 51 13zM214 -39q0 8 -7.5 18.5t-16.5 16.5q-19 14 -34 14q-14 0 -14 -12q0 -13 26 -27q24 -15 39 -15q7 0 7 5zM979 10q-6 32 -26 32q-16 0 -20 -25q4 -18 31 -18q13 0 15 11z" arabic-form="isolated" glyph-name="aAllahlong" horiz-adv-x="1057" unicode="ﷺ"/><glyph d="M-65 767q24 87 94 87q24 0 48.5 -8.5t47.5 -19t45.5 -19t42.5 -8.5q14 0 19 7.5t5 26.5q0 10 10 10h67q10 0 10 -10q0 -51 -21 -83.5t-72 -32.5q-29 0 -54 8t-47 17t-40.5 17t-33.5 8q-10 0 -18 -5.5t-14 -22.5q-3 -10 -13 -7l-69 22q-9 3 -7 13zM55 670q0 10 10 10h150 q10 0 10 -10v-475q0 -30 11.5 -41.5t36.5 -11.5h18q20 0 30 -16.5t10 -57.5q0 -42 -9.5 -55t-30.5 -13h-119q-63 0 -90 30.5t-27 95.5v544z" arabic-form="final" glyph-name="aAlifMadda.fina" horiz-adv-x="291" unicode="آ"/><glyph d="M55 670q0 10 10 10h150q10 0 10 -10v-475q0 -30 11.5 -41.5t36.5 -11.5h18q20 0 30 -16.5t10 -57.5q0 -42 -9.5 -55t-30.5 -13h-119q-63 0 -90 30.5t-27 95.5v544zM58 798q-13 21 -13 49q0 19 7 37t21.5 32t35.5 22.5t49 8.5q34 0 59 -12.5t39 -29.5q4 -6 -1 -9l-34 -39 q-4 -4 -10 0q-23 23 -46 23q-14 0 -25.5 -9t-11.5 -29q0 -16 8.5 -27t18.5 -17h98q6 0 6 -7v-53q0 -7 -6 -7h-232q-6 0 -6 7v53q0 7 6 7h37z" arabic-form="final" glyph-name="aAlifHamza.fina" horiz-adv-x="291" unicode="أ"/><glyph d="M275 0q-57 0 -101 9.5t-74 33.5t-45.5 64.5t-15.5 102.5q0 68 20 113t52 72t73.5 38t85.5 11q45 0 87 -10t74.5 -35.5t52.5 -69.5t20 -112v-75h69q40 0 40 -70q0 -44 -9.5 -58t-30.5 -14h-69v-17q0 -92 -48 -141t-159 -49h-157q-10 0 -10 10v122q0 10 10 10h112 q20 0 36 2t26.5 9t16.5 20t7 34h-63zM272 302q-35 0 -52 -22.5t-17 -61.5q0 -23 5.5 -38t14.5 -23.5t22 -11.5t28 -3h65v80q0 43 -18 61.5t-48 18.5zM199 598q-5 9 -8.5 20.5t-3.5 26.5q0 19 7 37t21.5 31.5t36 22t50.5 8.5q35 0 61 -13t39 -30q4 -6 -1 -9l-36 -40 q-3 -3 -8 1q-11 11 -23 17t-26 6t-25.5 -9t-11.5 -27q0 -17 9 -27t18 -15h101q6 0 6 -7v-55q0 -7 -6 -7h-234q-6 0 -6 7v55q0 7 6 7h34z" arabic-form="final" glyph-name="aWawHamza.fina" horiz-adv-x="573" unicode="ؤ"/><glyph d="M55 670q0 10 10 10h150q10 0 10 -10v-475q0 -30 11.5 -41.5t36.5 -11.5h18q20 0 30 -16.5t10 -57.5q0 -42 -9.5 -55t-30.5 -13h-119q-63 0 -90 30.5t-27 95.5v544zM53 -218q-13 21 -13 48q0 19 7 37.5t21.5 32.5t35.5 22.5t49 8.5q34 0 59 -13t39 -30q4 -6 -1 -8l-34 -39 q-5 -5 -10 -1q-21 23 -46 23q-14 0 -25.5 -9t-11.5 -28q0 -16 8.5 -27t18.5 -17h98q6 0 6 -7v-54q0 -7 -6 -7h-232q-6 0 -6 7v54q0 7 6 7h37z" arabic-form="final" glyph-name="aAlifHamzabelow.fina" horiz-adv-x="291" unicode="إ"/><glyph d="M95 421q-5 9 -8.5 20.5t-3.5 26.5q0 19 7 37t21.5 31.5t36 22t50.5 8.5q35 0 61 -13t39 -30q4 -6 -1 -9l-36 -40q-3 -3 -8 1q-11 11 -23 17t-26 6t-25.5 -9t-11.5 -27q0 -17 9 -27t18 -15h101q6 0 6 -7v-55q0 -7 -6 -7h-234q-6 0 -6 7v55q0 7 6 7h34zM486 -63 q30 0 49.5 2.5t30 7.5t14.5 12t4 15q0 12 -8 21.5t-27.5 20t-53.5 23t-85 31.5q-9 3 -6 12l38 118q3 10 12 7q32 -12 59.5 -23.5t53 -21t51 -15t54.5 -5.5h137q40 0 40 -70q0 -72 -40 -72h-63q5 -8 10.5 -22.5t5.5 -33.5q0 -71 -54 -111t-167 -40h-217q-78 0 -133 16t-90 46 t-51.5 72.5t-16.5 95.5q0 55 19.5 108.5t44.5 91.5q5 9 15 3l127 -62q8 -5 3 -13q-17 -28 -26.5 -57t-9.5 -56q0 -32 13 -51.5t33.5 -30.5t44.5 -15t47 -4h142z" arabic-form="final" glyph-name="aYehHamza.fina" horiz-adv-x="808" unicode="ئ"/><glyph d="M68 598q-5 9 -8.5 20.5t-3.5 26.5q0 19 7 37t21.5 31.5t36 22t50.5 8.5q35 0 61 -13t39 -30q4 -6 -1 -9l-36 -40q-3 -3 -8 1q-11 11 -23 17t-26 6t-25.5 -9t-11.5 -27q0 -17 9 -27t18 -15h101q6 0 6 -7v-55q0 -7 -6 -7h-234q-6 0 -6 7v55q0 7 6 7h34zM2 0q-20 0 -30 16.5 t-10 54.5t9.5 54.5t30.5 16.5h22q25 0 36.5 11.5t11.5 41.5v223q0 10 10 10h150q10 0 10 -10v-292q0 -65 -27 -95.5t-90 -30.5h-123z" arabic-form="initial" glyph-name="aYehHamza.init" horiz-adv-x="299" unicode="ئ"/><glyph d="M74 598q-5 9 -8.5 20.5t-3.5 26.5q0 19 7 37t21.5 31.5t36 22t50.5 8.5q35 0 61 -13t39 -30q4 -6 -1 -9l-36 -40q-3 -3 -8 1q-11 11 -23 17t-26 6t-25.5 -9t-11.5 -27q0 -17 9 -27t18 -15h101q6 0 6 -7v-55q0 -7 -6 -7h-234q-6 0 -6 7v55q0 7 6 7h34zM72 418q0 10 10 10 h150q10 0 10 -10v-228q3 -21 19.5 -34.5t49.5 -13.5h28q40 0 40 -71t-40 -71q-37 0 -64.5 9.5t-47.5 40.5q-17 -34 -50.5 -42t-92.5 -8h-85q-20 0 -30 15t-10 57q0 36 9.5 53t33.5 17h22q28 0 38 14.5t10 52.5v209z" arabic-form="medial" glyph-name="aYehHamza.medi" horiz-adv-x="337" unicode="ئ"/><glyph d="M55 670q0 10 10 10h150q10 0 10 -10v-475q0 -30 11.5 -41.5t36.5 -11.5h18q20 0 30 -16.5t10 -57.5q0 -42 -9.5 -55t-30.5 -13h-119q-63 0 -90 30.5t-27 95.5v544z" arabic-form="final" glyph-name="aAlif.fina" horiz-adv-x="291" unicode="ا"/><glyph d="M654 418q0 10 10 10h150q10 0 10 -10v-229q3 -20 20 -33.5t49 -13.5h29q40 0 40 -71q0 -34 -9.5 -52.5t-30.5 -18.5q-35 0 -63 9.5t-49 40.5q-17 -32 -48.5 -41t-88.5 -9h-505q-63 0 -90 30.5t-27 95.5v227q0 10 10 10h150q10 0 10 -10v-158q0 -30 11.5 -41.5t36.5 -11.5 h336q29 0 39 14t10 51v211zM363 -207q-10 0 -10 10v111q0 10 10 10h152q10 0 10 -10v-111q0 -10 -10 -10h-152z" arabic-form="final" glyph-name="aBeh.fina" horiz-adv-x="920" unicode="ب"/><glyph d="M70 -206q-10 0 -10 10v111q0 10 10 10h152q10 0 10 -10v-111q0 -10 -10 -10h-152zM0 0q-20 0 -30 16.5t-10 54.5t9.5 54.5t30.5 16.5h22q25 0 36.5 11.5t11.5 41.5v223q0 10 10 10h150q10 0 10 -10v-292q0 -65 -27 -95.5t-90 -30.5h-123z" arabic-form="initial" glyph-name="aBeh.init" horiz-adv-x="295" unicode="ب"/><glyph d="M77 -206q-10 0 -10 10v111q0 10 10 10h152q10 0 10 -10v-111q0 -10 -10 -10h-152zM72 418q0 10 10 10h150q10 0 10 -10v-228q3 -21 19.5 -34.5t49.5 -13.5h28q40 0 40 -71t-40 -71q-37 0 -64.5 9.5t-47.5 40.5q-17 -34 -50.5 -42t-92.5 -8h-85q-20 0 -30 15t-10 57 q0 36 9.5 53t33.5 17h22q28 0 38 14.5t10 52.5v209z" arabic-form="medial" glyph-name="aBeh.medi" horiz-adv-x="337" unicode="ب"/><glyph d="M137 569q-10 0 -10 10v111q0 10 10 10h117q10 0 10 -10v-111q0 -10 -10 -10h-117zM302 569q-10 0 -10 10v111q0 10 10 10h117q10 0 10 -10v-111q0 -10 -10 -10h-117zM344 444v43q0 10 10 10h150q10 0 10 -10v-292q0 -30 11.5 -41.5t36.5 -11.5h26q40 0 40 -71 q0 -40 -9.5 -55.5t-30.5 -15.5h-127q-49 0 -76.5 14t-36.5 57q-23 -18 -52.5 -27t-61.5 -9q-40 0 -76 10.5t-63.5 34.5t-44 62.5t-16.5 93.5q0 62 18 102t47.5 63.5t66.5 33t76 9.5h102zM271 177q29 0 51 16t22 54v55h-71q-34 0 -53.5 -13.5t-19.5 -51.5q0 -35 21 -47.5 t50 -12.5z" arabic-form="final" glyph-name="aTehMarbuta.fina" horiz-adv-x="591" unicode="ة"/><glyph d="M295 470q-10 0 -10 10v111q0 10 10 10h117q10 0 10 -10v-111q0 -10 -10 -10h-117zM460 470q-10 0 -10 10v111q0 10 10 10h117q10 0 10 -10v-111q0 -10 -10 -10h-117zM654 418q0 10 10 10h150q10 0 10 -10v-229q3 -20 20 -33.5t49 -13.5h29q40 0 40 -71q0 -34 -9.5 -52.5 t-30.5 -18.5q-35 0 -63 9.5t-49 40.5q-17 -32 -48.5 -41t-88.5 -9h-505q-63 0 -90 30.5t-27 95.5v227q0 10 10 10h150q10 0 10 -10v-158q0 -30 11.5 -41.5t36.5 -11.5h336q29 0 39 14t10 51v211z" arabic-form="final" glyph-name="aTeh.fina" horiz-adv-x="920" unicode="ت"/><glyph d="M42 529q-10 0 -10 10v111q0 10 10 10h117q10 0 10 -10v-111q0 -10 -10 -10h-117zM207 529q-10 0 -10 10v111q0 10 10 10h117q10 0 10 -10v-111q0 -10 -10 -10h-117zM0 0q-20 0 -30 15t-10 53q0 74 40 74h58q25 0 36.5 11.5t11.5 41.5v223q0 10 10 10h151q10 0 10 -10 v-292q0 -65 -27 -95.5t-90 -30.5h-160z" arabic-form="initial" glyph-name="aTeh.init" horiz-adv-x="340" unicode="ت"/><glyph d="M51 529q-10 0 -10 10v111q0 10 10 10h117q10 0 10 -10v-111q0 -10 -10 -10h-117zM216 529q-10 0 -10 10v111q0 10 10 10h117q10 0 10 -10v-111q0 -10 -10 -10h-117zM107 418q0 10 10 10h151q10 0 10 -10v-228q0 -21 18.5 -34.5t50.5 -13.5h29q40 0 40 -71 q0 -34 -9.5 -52.5t-30.5 -18.5q-38 0 -65 9.5t-47 40.5q-9 -17 -22 -27t-31 -15t-42 -6.5t-54 -1.5h-113q-20 0 -30 15t-10 57q0 38 9.5 54t30.5 16h57q29 0 38.5 15t9.5 53v208z" arabic-form="medial" glyph-name="aTeh.medi" horiz-adv-x="376" unicode="ت"/><glyph d="M654 418q0 10 10 10h150q10 0 10 -10v-229q3 -20 20 -33.5t49 -13.5h29q40 0 40 -71q0 -34 -9.5 -52.5t-30.5 -18.5q-35 0 -63 9.5t-49 40.5q-17 -32 -48.5 -41t-88.5 -9h-505q-63 0 -90 30.5t-27 95.5v227q0 10 10 10h150q10 0 10 -10v-158q0 -30 11.5 -41.5t36.5 -11.5 h336q29 0 39 14t10 51v211zM299 470q-10 0 -10 10v111q0 10 10 10h117q10 0 10 -10v-111q0 -10 -10 -10h-117zM464 470q-10 0 -10 10v111q0 10 10 10h117q10 0 10 -10v-111q0 -10 -10 -10h-117zM379 623q-10 0 -10 10v111q0 10 10 10h117q10 0 10 -10v-111q0 -10 -10 -10 h-117z" arabic-form="final" glyph-name="aTheh.fina" horiz-adv-x="920" unicode="ث"/><glyph d="M0 0q-20 0 -30 15t-10 53q0 74 40 74h58q25 0 36.5 11.5t11.5 41.5v223q0 10 10 10h151q10 0 10 -10v-292q0 -65 -27 -95.5t-90 -30.5h-160zM41 529q-10 0 -10 10v111q0 10 10 10h117q10 0 10 -10v-111q0 -10 -10 -10h-117zM206 529q-10 0 -10 10v111q0 10 10 10h117 q10 0 10 -10v-111q0 -10 -10 -10h-117zM121 682q-10 0 -10 10v111q0 10 10 10h117q10 0 10 -10v-111q0 -10 -10 -10h-117z" arabic-form="initial" glyph-name="aTheh.init" horiz-adv-x="340" unicode="ث"/><glyph d="M52 529q-10 0 -10 10v111q0 10 10 10h117q10 0 10 -10v-111q0 -10 -10 -10h-117zM217 529q-10 0 -10 10v111q0 10 10 10h117q10 0 10 -10v-111q0 -10 -10 -10h-117zM132 682q-10 0 -10 10v111q0 10 10 10h117q10 0 10 -10v-111q0 -10 -10 -10h-117zM107 418q0 10 10 10 h151q10 0 10 -10v-228q0 -21 18.5 -34.5t50.5 -13.5h29q40 0 40 -71q0 -34 -9.5 -52.5t-30.5 -18.5q-38 0 -65 9.5t-47 40.5q-9 -17 -22 -27t-31 -15t-42 -6.5t-54 -1.5h-113q-20 0 -30 15t-10 57q0 38 9.5 54t30.5 16h57q29 0 38.5 15t9.5 53v208z" arabic-form="medial" glyph-name="aTheh.medi" horiz-adv-x="376" unicode="ث"/><glyph d="M226 -207q-49 0 -87 8.5t-63.5 28.5t-38.5 54.5t-13 87.5q0 49 14 82t38 52.5t57 27.5t71 8h101q44 0 59.5 14t15.5 51q0 18 -4.5 35t-14.5 30.5t-26.5 21.5t-40.5 8q-31 0 -54 -12t-43 -28q-8 -6 -14 -1l-68 88q-3 4 -4.5 8t2.5 8q38 34 84.5 56.5t111.5 22.5 q64 0 110.5 -18t76.5 -50.5t44.5 -78t14.5 -100.5q0 -27 20.5 -41t48.5 -14h28q40 0 40 -71q0 -34 -9.5 -52.5t-30.5 -18.5q-43 0 -73.5 12t-51.5 50q-23 -38 -62 -50t-92 -12h-132q-25 0 -35 -7t-10 -27q0 -15 8 -23t37 -8h62q10 0 10 -10v-122q0 -10 -10 -10h-77z M356 -200q-10 0 -10 10v111q0 10 10 10h134q10 0 10 -10v-111q0 -10 -10 -10h-134z" arabic-form="final" glyph-name="aJim.fina" horiz-adv-x="649" unicode="ج"/><glyph d="M0 0q-20 0 -30 15t-10 54q0 73 40 73h230q44 0 59.5 14t15.5 51q0 18 -4.5 35t-14.5 30.5t-26.5 21.5t-40.5 8q-31 0 -54 -12t-43 -28q-8 -6 -14 -1l-68 88q-3 4 -4.5 8t2.5 8q38 34 84.5 56.5t111.5 22.5q64 0 110.5 -18t76.5 -50.5t44.5 -78t14.5 -99.5q0 -62 -13 -101 t-36.5 -60.5t-57 -29t-75.5 -7.5h-298zM165 -205q-10 0 -10 10v111q0 10 10 10h152q10 0 10 -10v-111q0 -10 -10 -10h-152z" arabic-form="initial" glyph-name="aJim.init" horiz-adv-x="524" unicode="ج"/><glyph d="M38 365q38 34 84.5 56.5t111.5 22.5q64 0 110.5 -18t76.5 -50.5t44.5 -78t14.5 -99.5q0 -28 20 -42t49 -14h28q40 0 40 -71q0 -34 -9.5 -52.5t-30.5 -18.5q-43 0 -73.5 12t-51.5 50q-23 -38 -62 -50t-92 -12h-298q-20 0 -30 15t-10 54q0 36 9 54.5t31 18.5h230 q44 0 59.5 14t15.5 51q0 18 -4.5 35t-14.5 30.5t-26.5 21.5t-40.5 8q-31 0 -54 -12t-43 -28q-8 -6 -14 -1l-68 88q-3 4 -4.5 8t2.5 8zM164 -205q-10 0 -10 10v111q0 10 10 10h152q10 0 10 -10v-111q0 -10 -10 -10h-152z" arabic-form="medial" glyph-name="aJim.medi" horiz-adv-x="577" unicode="ج"/><glyph d="M111 365q38 34 84.5 56.5t111.5 22.5q64 0 110.5 -18t76.5 -50.5t44.5 -78t14.5 -100.5q0 -27 20.5 -41t48.5 -14h28q40 0 40 -71q0 -34 -9.5 -52.5t-30.5 -18.5q-43 0 -73.5 12t-51.5 50q-23 -38 -62 -50t-92 -12h-132q-25 0 -35 -7t-10 -27q0 -15 8 -23t37 -8h91 q10 0 10 -10v-122q0 -10 -10 -10h-105q-50 0 -87.5 8.5t-63.5 28.5t-39 54.5t-13 87.5q0 49 14 82t38 52.5t57 27.5t71 8h101q44 0 59.5 14t15.5 51q0 18 -4.5 35t-14.5 30.5t-26.5 21.5t-40.5 8q-31 0 -54 -12t-43 -28q-8 -6 -14 -1l-68 88q-3 4 -4.5 8t2.5 8z" arabic-form="final" glyph-name="aHah.fina" horiz-adv-x="649" unicode="ح"/><glyph d="M0 0q-20 0 -30 15t-10 54q0 73 40 73h230q44 0 59.5 14t15.5 51q0 18 -4.5 35t-14.5 30.5t-26.5 21.5t-40.5 8q-31 0 -54 -12t-43 -28q-8 -6 -14 -1l-68 88q-3 4 -4.5 8t2.5 8q38 34 84.5 56.5t111.5 22.5q64 0 110.5 -18t76.5 -50.5t44.5 -78t14.5 -99.5q0 -62 -13 -101 t-36.5 -60.5t-57 -29t-75.5 -7.5h-298z" arabic-form="initial" glyph-name="aHah.init" horiz-adv-x="524" unicode="ح"/><glyph d="M38 365q38 34 84.5 56.5t111.5 22.5q64 0 110.5 -18t76.5 -50.5t44.5 -78t14.5 -99.5q0 -28 20 -42t49 -14h28q40 0 40 -71q0 -34 -9.5 -52.5t-30.5 -18.5q-43 0 -73.5 12t-51.5 50q-23 -38 -62 -50t-92 -12h-298q-20 0 -30 15t-10 54q0 36 9 54.5t31 18.5h230 q44 0 59.5 14t15.5 51q0 18 -4.5 35t-14.5 30.5t-26.5 21.5t-40.5 8q-31 0 -54 -12t-43 -28q-8 -6 -14 -1l-68 88q-3 4 -4.5 8t2.5 8z" arabic-form="medial" glyph-name="aHah.medi" horiz-adv-x="577" unicode="ح"/><glyph d="M241 529q-10 0 -10 10v111q0 10 10 10h152q10 0 10 -10v-111q0 -10 -10 -10h-152zM113 365q38 34 84.5 56.5t111.5 22.5q64 0 110.5 -18t76.5 -50.5t44.5 -78t14.5 -100.5q0 -27 20.5 -41t48.5 -14h28q40 0 40 -71q0 -34 -9.5 -52.5t-30.5 -18.5q-43 0 -73.5 12t-51.5 50 q-23 -38 -62 -50t-92 -12h-132q-25 0 -35 -7t-10 -27q0 -15 8 -23t37 -8h91q10 0 10 -10v-122q0 -10 -10 -10h-105q-50 0 -87.5 8.5t-63.5 28.5t-39 54.5t-13 87.5q0 49 14 82t38 52.5t57 27.5t71 8h101q44 0 59.5 14t15.5 51q0 18 -4.5 35t-14.5 30.5t-26.5 21.5t-40.5 8 q-31 0 -54 -12t-43 -28q-8 -6 -14 -1l-68 88q-3 4 -4.5 8t2.5 8z" arabic-form="final" glyph-name="aKhah.fina" horiz-adv-x="649" unicode="خ"/><glyph d="M159 528q-10 0 -10 10v111q0 10 10 10h152q10 0 10 -10v-111q0 -10 -10 -10h-152zM0 0q-20 0 -30 15t-10 54q0 73 40 73h230q44 0 59.5 14t15.5 51q0 18 -4.5 35t-14.5 30.5t-26.5 21.5t-40.5 8q-31 0 -54 -12t-43 -28q-8 -6 -14 -1l-68 88q-3 4 -4.5 8t2.5 8 q38 34 84.5 56.5t111.5 22.5q64 0 110.5 -18t76.5 -50.5t44.5 -78t14.5 -99.5q0 -62 -13 -101t-36.5 -60.5t-57 -29t-75.5 -7.5h-298z" arabic-form="initial" glyph-name="aKhah.init" horiz-adv-x="524" unicode="خ"/><glyph d="M159 528q-10 0 -10 10v111q0 10 10 10h152q10 0 10 -10v-111q0 -10 -10 -10h-152zM38 365q38 34 84.5 56.5t111.5 22.5q64 0 110.5 -18t76.5 -50.5t44.5 -78t14.5 -99.5q0 -28 20 -42t49 -14h28q40 0 40 -71q0 -34 -9.5 -52.5t-30.5 -18.5q-43 0 -73.5 12t-51.5 50 q-23 -38 -62 -50t-92 -12h-298q-20 0 -30 15t-10 54q0 36 9 54.5t31 18.5h230q44 0 59.5 14t15.5 51q0 18 -4.5 35t-14.5 30.5t-26.5 21.5t-40.5 8q-31 0 -54 -12t-43 -28q-8 -6 -14 -1l-68 88q-3 4 -4.5 8t2.5 8z" arabic-form="medial" glyph-name="aKhah.medi" horiz-adv-x="577" unicode="خ"/><glyph d="M86 302q-10 0 -10 10v122q0 10 10 10h187q90 0 135 -44t45 -137v-65q2 -8 5.5 -18t10.5 -18.5t19.5 -14t32.5 -5.5h29q40 0 40 -71q0 -34 -9.5 -52.5t-30.5 -18.5q-42 0 -71.5 11t-50.5 45q-19 -31 -51.5 -43.5t-78.5 -12.5h-251q-10 0 -10 10v122q0 10 10 10h161 q24 0 38 3.5t21 11.5t9 20t2 29v34q0 35 -19.5 48.5t-58.5 13.5h-114z" arabic-form="final" glyph-name="aDal.fina" horiz-adv-x="550" unicode="د"/><glyph d="M141 529q-10 0 -10 10v111q0 10 10 10h152q10 0 10 -10v-111q0 -10 -10 -10h-152zM88 302q-10 0 -10 10v122q0 10 10 10h187q90 0 135 -44t45 -137v-65q2 -8 5.5 -18t10.5 -18.5t19.5 -14t32.5 -5.5h29q40 0 40 -71q0 -34 -9.5 -52.5t-30.5 -18.5q-42 0 -71.5 11 t-50.5 45q-19 -31 -51.5 -43.5t-78.5 -12.5h-251q-10 0 -10 10v122q0 10 10 10h161q24 0 38 3.5t21 11.5t9 20t2 29v34q0 35 -19.5 48.5t-58.5 13.5h-114z" arabic-form="final" glyph-name="aDhal.fina" horiz-adv-x="550" unicode="ذ"/><glyph d="M109 418q0 10 10 10h150q10 0 10 -10v-228q0 -21 18 -34.5t51 -13.5h28q40 0 40 -71q0 -34 -9.5 -52.5t-30.5 -18.5q-34 0 -57 7.5t-40 27.5v-13q0 -119 -49.5 -174t-160.5 -55h-55q-10 0 -10 10v122q0 10 10 10h20q48 0 61.5 27t13.5 80v376z" arabic-form="final" glyph-name="aReh.fina" horiz-adv-x="376" unicode="ر"/><glyph d="M118 529q-10 0 -10 10v111q0 10 10 10h152q10 0 10 -10v-111q0 -10 -10 -10h-152zM109 418q0 10 10 10h150q10 0 10 -10v-228q0 -21 18 -34.5t51 -13.5h28q40 0 40 -71q0 -34 -9.5 -52.5t-30.5 -18.5q-34 0 -57 7.5t-40 27.5v-13q0 -119 -49.5 -174t-160.5 -55h-55 q-10 0 -10 10v122q0 10 10 10h20q48 0 61.5 27t13.5 80v376z" arabic-form="final" glyph-name="aZeh.fina" horiz-adv-x="376" unicode="ز"/><glyph d="M917 0q-43 0 -68 15.5t-38 37.5q-15 -33 -45 -43t-83 -10h-35q-34 0 -58 11.5t-36 25.5v-14q0 -68 -21.5 -115t-58 -76t-84 -41.5t-99.5 -12.5q-51 0 -99 13t-84.5 42.5t-59 77t-22.5 116.5q0 45 12 97t37 96q4 7 16 4l134 -36q6 -2 7 -6t-1 -8q-13 -28 -23 -60t-10 -75 q0 -32 8 -54t21 -35.5t30.5 -20t35.5 -6.5q91 0 91 108v321q0 10 10 10h150q10 0 10 -10v-161q0 -29 12 -39t37 -10q33 0 41.5 13.5t8.5 48.5v148q0 10 10 10h150q10 0 10 -10v-159q0 -30 14 -40.5t37 -10.5q31 0 39 14t8 49v213q0 10 10 10h150q10 0 10 -10v-228 q0 -21 18.5 -34.5t50.5 -13.5h28q40 0 40 -71q0 -34 -9.5 -52.5t-30.5 -18.5q-37 0 -64 9.5t-47 40.5q-16 -31 -45.5 -40.5t-80.5 -9.5h-34z" arabic-form="final" glyph-name="aSin.fina" horiz-adv-x="1188" unicode="س"/><glyph d="M805 126q0 -37 -7.5 -61t-24 -38.5t-43.5 -20.5t-65 -6h-34q-43 0 -68 15.5t-38 37.5q-14 -33 -44.5 -43t-83.5 -10h-34q-43 0 -68.5 15.5t-38.5 38.5q-15 -34 -45 -44t-84 -10h-127q-20 0 -30 14t-10 52q0 40 9.5 58t30.5 18h54q27 0 35.5 13t8.5 48v149q0 10 10 10h150 q10 0 10 -10v-161q0 -29 12 -39t37 -10q33 0 41.5 13.5t8.5 48.5v148q0 10 10 10h150q10 0 10 -10v-159q0 -30 14 -40.5t37 -10.5q31 0 39 14t8 49v213q0 10 10 10h150q10 0 10 -10v-292z" arabic-form="initial" glyph-name="aSin.init" horiz-adv-x="859" unicode="س"/><glyph d="M805 190q0 -21 18.5 -34.5t51.5 -13.5h28q40 0 40 -71t-40 -71q-37 0 -64.5 9.5t-47.5 40.5q-16 -31 -45.5 -40.5t-80.5 -9.5h-34q-43 0 -68 15.5t-38 37.5q-14 -33 -44.5 -43t-83.5 -10h-34q-43 0 -68.5 15.5t-38.5 38.5q-14 -33 -43.5 -43.5t-82.5 -10.5h-130 q-8 0 -15 1.5t-12.5 7.5t-9 19.5t-3.5 37.5q0 40 9.5 58t30.5 18h54q29 0 36.5 15.5t7.5 53.5v141q0 10 10 10h150q10 0 10 -10v-161q0 -29 12 -39t37 -10q33 0 41.5 13.5t8.5 48.5v148q0 10 10 10h150q10 0 10 -10v-159q0 -30 14 -40.5t37 -10.5q31 0 39 14t8 49v213 q0 10 10 10h150q10 0 10 -10v-228z" arabic-form="medial" glyph-name="aSin.medi" horiz-adv-x="903" unicode="س"/><glyph d="M917 0q-43 0 -68 15.5t-38 37.5q-15 -33 -45 -43t-83 -10h-35q-34 0 -58 11.5t-36 25.5v-14q0 -68 -21.5 -115t-58 -76t-84 -41.5t-99.5 -12.5q-51 0 -99 13t-84.5 42.5t-59 77t-22.5 116.5q0 45 12 97t37 96q4 7 16 4l134 -36q6 -2 7 -6t-1 -8q-13 -28 -23 -60t-10 -75 q0 -32 8 -54t21 -35.5t30.5 -20t35.5 -6.5q91 0 91 108v321q0 10 10 10h150q10 0 10 -10v-161q0 -29 12 -39t37 -10q33 0 41.5 13.5t8.5 48.5v148q0 10 10 10h150q10 0 10 -10v-159q0 -30 14 -40.5t37 -10.5q31 0 39 14t8 49v213q0 10 10 10h150q10 0 10 -10v-228 q0 -21 18.5 -34.5t50.5 -13.5h28q40 0 40 -71q0 -34 -9.5 -52.5t-30.5 -18.5q-37 0 -64 9.5t-47 40.5q-16 -31 -45.5 -40.5t-80.5 -9.5h-34zM597 529q-10 0 -10 10v111q0 10 10 10h117q10 0 10 -10v-111q0 -10 -10 -10h-117zM762 529q-10 0 -10 10v111q0 10 10 10h117 q10 0 10 -10v-111q0 -10 -10 -10h-117zM677 682q-10 0 -10 10v111q0 10 10 10h117q10 0 10 -10v-111q0 -10 -10 -10h-117z" arabic-form="final" glyph-name="aShin.fina" horiz-adv-x="1188" unicode="ش"/><glyph d="M805 126q0 -37 -7.5 -61t-24 -38.5t-43.5 -20.5t-65 -6h-34q-43 0 -68 15.5t-38 37.5q-14 -33 -44.5 -43t-83.5 -10h-34q-43 0 -68.5 15.5t-38.5 38.5q-15 -34 -45 -44t-84 -10h-127q-20 0 -30 14t-10 52q0 40 9.5 58t30.5 18h54q27 0 35.5 13t8.5 48v149q0 10 10 10h150 q10 0 10 -10v-161q0 -29 12 -39t37 -10q33 0 41.5 13.5t8.5 48.5v148q0 10 10 10h150q10 0 10 -10v-159q0 -30 14 -40.5t37 -10.5q31 0 39 14t8 49v213q0 10 10 10h150q10 0 10 -10v-292zM307 529q-10 0 -10 10v111q0 10 10 10h117q10 0 10 -10v-111q0 -10 -10 -10h-117z M472 529q-10 0 -10 10v111q0 10 10 10h117q10 0 10 -10v-111q0 -10 -10 -10h-117zM387 682q-10 0 -10 10v111q0 10 10 10h117q10 0 10 -10v-111q0 -10 -10 -10h-117z" arabic-form="initial" glyph-name="aShin.init" horiz-adv-x="859" unicode="ش"/><glyph d="M807 190q0 -21 18.5 -34.5t51.5 -13.5h28q40 0 40 -71t-40 -71q-37 0 -64.5 9.5t-47.5 40.5q-16 -31 -45.5 -40.5t-80.5 -9.5h-34q-43 0 -68 15.5t-38 37.5q-14 -33 -44.5 -43t-83.5 -10h-34q-43 0 -68.5 15.5t-38.5 38.5q-14 -33 -43.5 -43.5t-82.5 -10.5h-130 q-8 0 -15 1.5t-12.5 7.5t-9 19.5t-3.5 37.5q0 40 9.5 58t30.5 18h54q29 0 36.5 15.5t7.5 53.5v141q0 10 10 10h150q10 0 10 -10v-161q0 -29 12 -39t37 -10q33 0 41.5 13.5t8.5 48.5v148q0 10 10 10h150q10 0 10 -10v-159q0 -30 14 -40.5t37 -10.5q31 0 39 14t8 49v213 q0 10 10 10h150q10 0 10 -10v-228zM309 529q-10 0 -10 10v111q0 10 10 10h117q10 0 10 -10v-111q0 -10 -10 -10h-117zM474 529q-10 0 -10 10v111q0 10 10 10h117q10 0 10 -10v-111q0 -10 -10 -10h-117zM389 682q-10 0 -10 10v111q0 10 10 10h117q10 0 10 -10v-111 q0 -10 -10 -10h-117z" arabic-form="medial" glyph-name="aShin.medi" horiz-adv-x="903" unicode="ش"/><glyph d="M721 302q-45 0 -88 -11.5t-79 -26.5v-122h178q33 0 53 2.5t31.5 10t15.5 21t4 36.5q0 22 -5 39t-18 28t-35.5 17t-56.5 6zM198 39q0 -32 8 -54t21 -35.5t30.5 -20t35.5 -6.5q91 0 91 108v399q0 10 10 10h150q10 0 10 -10v-28q44 18 95.5 30t108.5 12q56 0 102.5 -12 t80 -40.5t52 -75t18.5 -115.5q0 -29 19 -44t50 -15h28q40 0 40 -71q0 -34 -9.5 -52.5t-30.5 -18.5q-45 0 -75 12.5t-52 51.5q-23 -37 -66.5 -50.5t-114.5 -13.5h-185q-37 0 -62 7q-3 -64 -25 -107.5t-58 -70.5t-82.5 -39t-96.5 -12q-51 0 -99 13t-85 42.5t-59 77t-22 116.5 q0 45 12 97t37 96q4 7 16 4l134 -36q6 -2 7 -6t-1 -8q-13 -28 -23 -60t-10 -75z" arabic-form="final" glyph-name="aSad.fina" horiz-adv-x="1108" unicode="ص"/><glyph d="M66 430q0 10 10 10h150q10 0 10 -10v-28q44 17 95 29.5t108 12.5q56 0 102.5 -12t80 -40.5t52 -74.5t18.5 -114q0 -58 -11 -97t-35.5 -62.5t-64.5 -33.5t-98 -10h-185q-29 0 -57 5t-39 20q-18 -18 -51.5 -21.5t-81.5 -3.5h-69q-20 0 -30 15t-10 57q0 44 9 57t31 13h29 q24 0 30.5 14t6.5 49v225zM402 302q-45 0 -87.5 -11.5t-78.5 -26.5v-86v-18.5t-1 -17.5h178q33 0 53 2.5t31.5 10t15.5 21t4 36.5q0 22 -5 39t-18 28t-35.5 17t-56.5 6z" arabic-form="initial" glyph-name="aSad.init" horiz-adv-x="736" unicode="ص"/><glyph d="M402 302q-45 0 -87.5 -11.5t-78.5 -26.5v-86v-18.5t-1 -17.5h178q33 0 53 2.5t31.5 10t15.5 21t4 36.5q0 22 -5 39t-18 28t-35.5 17t-56.5 6zM236 402q44 17 95 29.5t108 12.5q56 0 102.5 -12t80 -40.5t52 -75t18.5 -115.5q0 -29 19 -44t50 -15h28q40 0 40 -71 q0 -34 -9.5 -52.5t-30.5 -18.5q-43 0 -73.5 12.5t-52.5 51.5q-23 -36 -66 -50t-113 -14h-189q-29 0 -55.5 5t-37.5 20q-18 -17 -43 -21t-65 -4h-94q-20 0 -30 15t-10 57q0 44 9 57t31 13h29q26 0 31.5 18t5.5 52v218q0 10 10 10h150q10 0 10 -10v-28z" arabic-form="medial" glyph-name="aSad.medi" horiz-adv-x="789" unicode="ص"/><glyph d="M652 529q-10 0 -10 10v111q0 10 10 10h152q10 0 10 -10v-111q0 -10 -10 -10h-152zM721 302q-45 0 -88 -11.5t-79 -26.5v-122h178q33 0 53 2.5t31.5 10t15.5 21t4 36.5q0 22 -5 39t-18 28t-35.5 17t-56.5 6zM198 39q0 -32 8 -54t21 -35.5t30.5 -20t35.5 -6.5q91 0 91 108 v399q0 10 10 10h150q10 0 10 -10v-28q44 18 95.5 30t108.5 12q56 0 102.5 -12t80 -40.5t52 -75t18.5 -115.5q0 -29 19 -44t50 -15h28q40 0 40 -71q0 -34 -9.5 -52.5t-30.5 -18.5q-45 0 -75 12.5t-52 51.5q-23 -37 -66.5 -50.5t-114.5 -13.5h-185q-37 0 -62 7 q-3 -64 -25 -107.5t-58 -70.5t-82.5 -39t-96.5 -12q-51 0 -99 13t-85 42.5t-59 77t-22 116.5q0 45 12 97t37 96q4 7 16 4l134 -36q6 -2 7 -6t-1 -8q-13 -28 -23 -60t-10 -75z" arabic-form="final" glyph-name="aDad.fina" horiz-adv-x="1108" unicode="ض"/><glyph d="M337 529q-10 0 -10 10v111q0 10 10 10h152q10 0 10 -10v-111q0 -10 -10 -10h-152zM66 430q0 10 10 10h150q10 0 10 -10v-28q44 17 95 29.5t108 12.5q56 0 102.5 -12t80 -40.5t52 -74.5t18.5 -114q0 -58 -11 -97t-35.5 -62.5t-64.5 -33.5t-98 -10h-185q-29 0 -57 5t-39 20 q-18 -18 -51.5 -21.5t-81.5 -3.5h-69q-20 0 -30 15t-10 57q0 44 9 57t31 13h29q24 0 30.5 14t6.5 49v225zM402 302q-45 0 -87.5 -11.5t-78.5 -26.5v-86v-18.5t-1 -17.5h178q33 0 53 2.5t31.5 10t15.5 21t4 36.5q0 22 -5 39t-18 28t-35.5 17t-56.5 6z" arabic-form="initial" glyph-name="aDad.init" horiz-adv-x="736" unicode="ض"/><glyph d="M339 529q-10 0 -10 10v111q0 10 10 10h152q10 0 10 -10v-111q0 -10 -10 -10h-152zM404 302q-45 0 -87.5 -11.5t-78.5 -26.5v-86v-18.5t-1 -17.5h178q33 0 53 2.5t31.5 10t15.5 21t4 36.5q0 22 -5 39t-18 28t-35.5 17t-56.5 6zM238 402q44 17 95 29.5t108 12.5 q56 0 102.5 -12t80 -40.5t52 -75t18.5 -115.5q0 -29 19 -44t50 -15h28q40 0 40 -71q0 -34 -9.5 -52.5t-30.5 -18.5q-43 0 -73.5 12.5t-52.5 51.5q-23 -36 -66 -50t-113 -14h-189q-29 0 -55.5 5t-37.5 20q-18 -17 -43 -21t-65 -4h-94q-20 0 -30 15t-10 57q0 44 9 57t31 13h29 q26 0 31.5 18t5.5 52v218q0 10 10 10h150q10 0 10 -10v-28z" arabic-form="medial" glyph-name="aDad.medi" horiz-adv-x="789" unicode="ض"/><glyph d="M697 64q-23 -38 -66.5 -51t-115.5 -13h-212q-47 0 -68 25q-20 -18 -57 -21.5t-83 -3.5h-71q-10 0 -10 10v122q0 10 10 10h39q26 0 31 18.5t5 55.5v454q0 10 10 10h151q10 0 10 -10v-268q44 17 94.5 29.5t107.5 12.5q56 0 103 -12t80.5 -40.5t52 -75t18.5 -115.5 q0 -29 18.5 -44t49.5 -15h28q40 0 40 -71q0 -34 -9.5 -52.5t-30.5 -18.5q-43 0 -73.5 12.5t-51.5 51.5zM436 302q-45 0 -88 -11.5t-78 -26.5v-86q0 -9 -0.5 -18.5t-1.5 -17.5h179q32 0 52 2.5t31.5 10t15.5 21t4 36.5q0 22 -5 39t-18 28t-35 17t-56 6z" arabic-form="final" glyph-name="aTah.fina" horiz-adv-x="823" unicode="ط"/><glyph d="M421 302q-45 0 -87.5 -11.5t-78.5 -26.5v-86q0 -9 -0.5 -18.5t-0.5 -17.5h178q33 0 53 2.5t31.5 10t15.5 21t4 36.5q0 22 -5 39t-18 28t-35.5 17t-56.5 6zM256 402q44 17 94.5 29.5t107.5 12.5q56 0 102.5 -12t80 -40.5t52 -74.5t18.5 -114q0 -59 -11 -98.5t-36 -62.5 t-65.5 -32.5t-99.5 -9.5h-211q-48 0 -67 25q-20 -19 -48.5 -22t-74.5 -3h-98q-20 0 -30 15t-10 57q0 45 9.5 57.5t30.5 12.5h48q26 0 31.5 21.5t5.5 56.5v450q0 10 10 10h151q10 0 10 -10v-268z" arabic-form="initial" glyph-name="aTah.init" horiz-adv-x="755" unicode="ط"/><glyph d="M421 302q-45 0 -87.5 -11.5t-78.5 -26.5v-86q0 -9 -0.5 -18.5t-0.5 -17.5h178q33 0 53 2.5t31.5 10t15.5 21t4 36.5q0 22 -5 39t-18 28t-35.5 17t-56.5 6zM256 402q44 17 94.5 29.5t107.5 12.5q56 0 102.5 -12t80 -40.5t52 -75t18.5 -115.5q0 -29 19 -44t50 -15h28 q40 0 40 -71q0 -34 -9.5 -52.5t-30.5 -18.5q-43 0 -74 12.5t-52 51.5q-23 -38 -66.5 -51t-114.5 -13h-213q-48 0 -67 25q-24 -18 -60.5 -21.5t-81.5 -3.5h-79q-20 0 -30 15t-10 57q0 44 9 57t31 13h48q26 0 31.5 20t5.5 56v452q0 10 10 10h151q10 0 10 -10v-268z" arabic-form="medial" glyph-name="aTah.medi" horiz-adv-x="808" unicode="ط"/><glyph d="M403 529q-10 0 -10 10v111q0 10 10 10h152q10 0 10 -10v-111q0 -10 -10 -10h-152zM699 64q-23 -38 -66.5 -51t-115.5 -13h-212q-47 0 -68 25q-20 -18 -57 -21.5t-83 -3.5h-71q-10 0 -10 10v122q0 10 10 10h39q26 0 31 18.5t5 55.5v454q0 10 10 10h151q10 0 10 -10v-268 q44 17 94.5 29.5t107.5 12.5q56 0 103 -12t80.5 -40.5t52 -75t18.5 -115.5q0 -29 18.5 -44t49.5 -15h28q40 0 40 -71q0 -34 -9.5 -52.5t-30.5 -18.5q-43 0 -73.5 12.5t-51.5 51.5zM438 302q-45 0 -88 -11.5t-78 -26.5v-86q0 -9 -0.5 -18.5t-1.5 -17.5h179q32 0 52 2.5 t31.5 10t15.5 21t4 36.5q0 22 -5 39t-18 28t-35 17t-56 6z" arabic-form="final" glyph-name="aZah.fina" horiz-adv-x="823" unicode="ظ"/><glyph d="M392 529q-10 0 -10 10v111q0 10 10 10h152q10 0 10 -10v-111q0 -10 -10 -10h-152zM421 302q-45 0 -87.5 -11.5t-78.5 -26.5v-86q0 -9 -0.5 -18.5t-0.5 -17.5h178q33 0 53 2.5t31.5 10t15.5 21t4 36.5q0 22 -5 39t-18 28t-35.5 17t-56.5 6zM256 402q44 17 94.5 29.5 t107.5 12.5q56 0 102.5 -12t80 -40.5t52 -74.5t18.5 -114q0 -59 -11 -98.5t-36 -62.5t-65.5 -32.5t-99.5 -9.5h-211q-48 0 -67 25q-20 -19 -48.5 -22t-74.5 -3h-98q-20 0 -30 15t-10 57q0 45 9.5 57.5t30.5 12.5h48q26 0 31.5 21.5t5.5 56.5v450q0 10 10 10h151q10 0 10 -10 v-268z" arabic-form="initial" glyph-name="aZah.init" horiz-adv-x="755" unicode="ظ"/><glyph d="M389 529q-10 0 -10 10v111q0 10 10 10h152q10 0 10 -10v-111q0 -10 -10 -10h-152zM423 302q-45 0 -87.5 -11.5t-78.5 -26.5v-86q0 -9 -0.5 -18.5t-0.5 -17.5h178q33 0 53 2.5t31.5 10t15.5 21t4 36.5q0 22 -5 39t-18 28t-35.5 17t-56.5 6zM258 402q44 17 94.5 29.5 t107.5 12.5q56 0 102.5 -12t80 -40.5t52 -75t18.5 -115.5q0 -29 19 -44t50 -15h28q40 0 40 -71q0 -34 -9.5 -52.5t-30.5 -18.5q-43 0 -74 12.5t-52 51.5q-23 -38 -66.5 -51t-114.5 -13h-213q-48 0 -67 25q-24 -18 -60.5 -21.5t-81.5 -3.5h-79q-20 0 -30 15t-10 57q0 44 9 57 t31 13h48q26 0 31.5 20t5.5 56v452q0 10 10 10h151q10 0 10 -10v-268z" arabic-form="medial" glyph-name="aZah.medi" horiz-adv-x="808" unicode="ظ"/><glyph d="M311 158q68 42 68 92q0 23 -18 37.5t-55 14.5q-29 0 -51 -5.5t-30 -9.5q35 -27 56.5 -63.5t29.5 -65.5zM235 -207q-100 0 -155.5 38t-55.5 120q0 40 14 69t37 50t54 35t65 23q-20 42 -52.5 71t-70.5 57q-10 8 -12 21.5t-2 25.5v69q0 14 24 27t60 23t77.5 16t77.5 6 q35 0 79.5 -5.5t84 -22t66.5 -47t27 -80.5q0 -24 -7.5 -45.5t-19.5 -40t-27.5 -33.5t-31.5 -26q9 -1 18.5 -1.5t17.5 -0.5h87q40 0 40 -70q0 -38 -9.5 -55t-30.5 -17h-163q-29 0 -62 7t-59 24q-25 -9 -45 -14.5t-34.5 -12t-22.5 -14.5t-8 -21q0 -18 16 -26t57 -8h79 q10 0 10 -10v-122q0 -10 -10 -10h-113z" arabic-form="final" glyph-name="aAyn.fina" horiz-adv-x="590" unicode="ع"/><glyph d="M64 142q-13 20 -20.5 44.5t-7.5 56.5q0 43 14.5 80t43 64t70 42t95.5 15q40 0 72.5 -6.5t58.5 -17t45.5 -23.5t31.5 -26q7 -7 -1 -16l-74 -94q-4 -5 -7.5 -4.5t-7.5 3.5q-42 42 -91 42q-29 0 -52 -18t-23 -59q0 -34 16.5 -53.5t28.5 -29.5h218q10 0 10 -10v-122 q0 -10 -10 -10h-474q-20 0 -30 15.5t-10 53.5q0 73 40 73h64z" arabic-form="initial" glyph-name="aAyn.init" horiz-adv-x="522" unicode="ع"/><glyph d="M300 158q68 42 68 92q0 23 -18 37.5t-55 14.5q-29 0 -50.5 -5.5t-29.5 -9.5q35 -27 56 -63.5t29 -65.5zM592 142q40 0 40 -71q0 -34 -9.5 -52.5t-30.5 -18.5h-167q-36 0 -68.5 6.5t-61.5 24.5q-33 -18 -70 -24.5t-66 -6.5h-159q-20 0 -30 15.5t-10 53.5q0 73 40 73h93 q17 0 36 0.5t42 4.5q-19 38 -47.5 62t-62.5 47q-9 6 -11.5 20.5t-2.5 26.5v69q0 13 23 26t59 23.5t80 16.5t86 6q66 0 112.5 -12t76.5 -33t44 -49.5t14 -60.5q0 -24 -7.5 -45.5t-20 -40t-28 -34t-31.5 -26.5q13 -1 26.5 -1h27.5h83z" arabic-form="medial" glyph-name="aAyn.medi" horiz-adv-x="592" unicode="ع"/><glyph d="M235 529q-10 0 -10 10v111q0 10 10 10h152q10 0 10 -10v-111q0 -10 -10 -10h-152zM313 158q68 42 68 92q0 23 -18 37.5t-55 14.5q-29 0 -51 -5.5t-30 -9.5q35 -27 56.5 -63.5t29.5 -65.5zM237 -207q-100 0 -155.5 38t-55.5 120q0 40 14 69t37 50t54 35t65 23 q-20 42 -52.5 71t-70.5 57q-10 8 -12 21.5t-2 25.5v69q0 14 24 27t60 23t77.5 16t77.5 6q35 0 79.5 -5.5t84 -22t66.5 -47t27 -80.5q0 -24 -7.5 -45.5t-19.5 -40t-27.5 -33.5t-31.5 -26q9 -1 18.5 -1.5t17.5 -0.5h87q40 0 40 -70q0 -38 -9.5 -55t-30.5 -17h-163q-29 0 -62 7 t-59 24q-25 -9 -45 -14.5t-34.5 -12t-22.5 -14.5t-8 -21q0 -18 16 -26t57 -8h79q10 0 10 -10v-122q0 -10 -10 -10h-113z" arabic-form="final" glyph-name="aGhayn.fina" horiz-adv-x="590" unicode="غ"/><glyph d="M183 529q-10 0 -10 10v111q0 10 10 10h152q10 0 10 -10v-111q0 -10 -10 -10h-152zM64 142q-13 20 -20.5 44.5t-7.5 56.5q0 43 14.5 80t43 64t70 42t95.5 15q40 0 72.5 -6.5t58.5 -17t45.5 -23.5t31.5 -26q7 -7 -1 -16l-74 -94q-4 -5 -7.5 -4.5t-7.5 3.5q-42 42 -91 42 q-29 0 -52 -18t-23 -59q0 -34 16.5 -53.5t28.5 -29.5h218q10 0 10 -10v-122q0 -10 -10 -10h-474q-20 0 -30 15.5t-10 53.5q0 73 40 73h64z" arabic-form="initial" glyph-name="aGhayn.init" horiz-adv-x="522" unicode="غ"/><glyph d="M219 529q-10 0 -10 10v111q0 10 10 10h152q10 0 10 -10v-111q0 -10 -10 -10h-152zM300 158q68 42 68 92q0 23 -18 37.5t-55 14.5q-29 0 -50.5 -5.5t-29.5 -9.5q35 -27 56 -63.5t29 -65.5zM592 142q40 0 40 -71q0 -34 -9.5 -52.5t-30.5 -18.5h-167q-36 0 -68.5 6.5 t-61.5 24.5q-33 -18 -70 -24.5t-66 -6.5h-159q-20 0 -30 15.5t-10 53.5q0 73 40 73h93q17 0 36 0.5t42 4.5q-19 38 -47.5 62t-62.5 47q-9 6 -11.5 20.5t-2.5 26.5v69q0 13 23 26t59 23.5t80 16.5t86 6q66 0 112.5 -12t76.5 -33t44 -49.5t14 -60.5q0 -24 -7.5 -45.5t-20 -40 t-28 -34t-31.5 -26.5q13 -1 26.5 -1h27.5h83z" arabic-form="medial" glyph-name="aGhayn.medi" horiz-adv-x="592" unicode="غ"/><glyph d="M694 444q51 0 93.5 -10.5t74 -31.5t49 -53t17.5 -75q0 -44 -21.5 -77.5t-50.5 -54.5h128q20 0 30 -15t10 -57q0 -38 -9.5 -54t-30.5 -16h-124q-45 0 -90 4t-75 20q-18 -7 -38 -11.5t-40 -7.5t-38.5 -4t-33.5 -1h-379q-63 0 -90 30.5t-27 95.5v234q0 10 10 10h150 q10 0 10 -10v-165q0 -34 15.5 -43.5t45.5 -9.5h251q-30 22 -50.5 55t-20.5 77q0 43 17.5 75t49 53t74 31.5t93.5 10.5zM694 335q-12 0 -23.5 -4.5t-21.5 -13.5t-16 -23t-6 -34q0 -41 20 -63t47 -38q13 8 25 17t21 21t14.5 27t5.5 36q0 20 -6 34t-15.5 23t-21.5 13.5t-23 4.5 zM610 529q-10 0 -10 10v111q0 10 10 10h152q10 0 10 -10v-111q0 -10 -10 -10h-152z" arabic-form="final" glyph-name="aFeh.fina" horiz-adv-x="984" unicode="ف"/><glyph d="M211 529q-10 0 -10 10v111q0 10 10 10h152q10 0 10 -10v-111q0 -10 -10 -10h-152zM2 0q-21 0 -30.5 15t-9.5 57q0 38 10 54t30 16h59q-11 31 -11 71q0 69 20.5 114t54 71t76 36t85.5 10q44 0 86.5 -10t75.5 -36t53.5 -71t20.5 -114q0 -63 -18.5 -104.5t-51 -65.5 t-75.5 -33.5t-91 -9.5h-284zM286 302q-32 0 -50.5 -19.5t-18.5 -61.5q0 -50 18.5 -67t50.5 -17q35 0 52.5 17t17.5 65q0 46 -18 64.5t-52 18.5z" arabic-form="initial" glyph-name="aFeh.init" horiz-adv-x="567" unicode="ف"/><glyph d="M293 444q51 0 93.5 -10.5t74 -31.5t49 -53t17.5 -74q0 -44 -21 -78t-51 -55h128q20 0 30 -15t10 -57q0 -38 -9.5 -54t-30.5 -16h-160q-36 0 -68 3t-61 21q-33 -18 -70.5 -21t-66.5 -3h-157q-21 0 -30.5 16.5t-9.5 56.5q0 69 40 69h130q-29 22 -50 55.5t-21 77.5 q0 42 17.5 74t49 53t74 31.5t93.5 10.5zM293 335q-12 0 -23.5 -4t-21.5 -13t-16 -23t-6 -34q0 -41 20 -63.5t47 -38.5q13 8 25 17t21 21t14.5 27.5t5.5 36.5q0 20 -6 34t-15.5 23t-21 13t-23.5 4zM220 529q-10 0 -10 10v111q0 10 10 10h152q10 0 10 -10v-111q0 -10 -10 -10 h-152z" arabic-form="medial" glyph-name="aFeh.medi" horiz-adv-x="583" unicode="ف"/><glyph d="M435 529q-10 0 -10 10v111q0 10 10 10h117q10 0 10 -10v-111q0 -10 -10 -10h-117zM600 529q-10 0 -10 10v111q0 10 10 10h117q10 0 10 -10v-111q0 -10 -10 -10h-117zM546 -63q30 0 49.5 2.5t30 7.5t14.5 14t4 21v18h-92q-102 0 -155.5 49t-53.5 163q0 68 19.5 112.5 t52 71t74 37.5t85.5 11t86 -10t75 -36t53 -70t20 -112v-74h67q20 0 30 -15.5t10 -57.5q0 -38 -9.5 -53.5t-30.5 -15.5h-67v-48q0 -81 -54.5 -120t-167.5 -39h-262q-78 0 -133 16t-90 46t-51.5 72.5t-16.5 95.5q0 55 19.5 108.5t44.5 91.5q5 9 15 3l127 -62q8 -5 3 -13 q-17 -28 -26.5 -57t-9.5 -56q0 -32 13 -51.5t33.5 -30.5t44.5 -15t47 -4h202zM575 302q-35 0 -52 -22t-17 -61q0 -23 5.5 -38t15 -23.5t22.5 -12t28 -3.5h65v80q0 42 -18.5 61t-48.5 19z" arabic-form="final" glyph-name="aQaf.fina" horiz-adv-x="873" unicode="ق"/><glyph d="M147 529q-10 0 -10 10v111q0 10 10 10h117q10 0 10 -10v-111q0 -10 -10 -10h-117zM312 529q-10 0 -10 10v111q0 10 10 10h117q10 0 10 -10v-111q0 -10 -10 -10h-117zM4 0q-21 0 -30.5 15t-9.5 57q0 38 10 54t30 16h59q-11 31 -11 71q0 69 20.5 114t54 71t76 36t85.5 10 q44 0 86.5 -10t75.5 -36t53.5 -71t20.5 -114q0 -63 -18.5 -104.5t-51 -65.5t-75.5 -33.5t-91 -9.5h-284zM288 302q-32 0 -50.5 -19.5t-18.5 -61.5q0 -50 18.5 -67t50.5 -17q35 0 52.5 17t17.5 65q0 46 -18 64.5t-52 18.5z" arabic-form="initial" glyph-name="aQaf.init" horiz-adv-x="569" unicode="ق"/><glyph d="M293 444q51 0 93.5 -10.5t74 -31.5t49 -53t17.5 -74q0 -44 -21 -78t-51 -55h128q20 0 30 -15t10 -57q0 -38 -9.5 -54t-30.5 -16h-160q-36 0 -68 3t-61 21q-33 -18 -70.5 -21t-66.5 -3h-157q-21 0 -30.5 16.5t-9.5 56.5q0 69 40 69h130q-29 22 -50 55.5t-21 77.5 q0 42 17.5 74t49 53t74 31.5t93.5 10.5zM293 335q-12 0 -23.5 -4t-21.5 -13t-16 -23t-6 -34q0 -41 20 -63.5t47 -38.5q13 8 25 17t21 21t14.5 27.5t5.5 36.5q0 20 -6 34t-15.5 23t-21 13t-23.5 4zM158 529q-10 0 -10 10v111q0 10 10 10h117q10 0 10 -10v-111q0 -10 -10 -10 h-117zM323 529q-10 0 -10 10v111q0 10 10 10h117q10 0 10 -10v-111q0 -10 -10 -10h-117z" arabic-form="medial" glyph-name="aQaf.medi" horiz-adv-x="583" unicode="ق"/><glyph d="M808 50q-8 -17 -20 -26.5t-29.5 -15t-40 -7t-52.5 -1.5h-500q-63 0 -90 30.5t-27 95.5v227q0 10 10 10h150q10 0 10 -10v-158q0 -34 15.5 -43.5t45.5 -9.5h323q29 0 39 14.5t10 52.5v460q0 5 9 7.5t21 3t25 0t22 -0.5h83q10 0 10 -10v-479q0 -21 18.5 -34.5t50.5 -13.5 h29q40 0 40 -71q0 -34 -9.5 -52.5t-30.5 -18.5q-35 0 -63 9.5t-49 40.5zM450 463h19q38 0 53 -19.5t15 -60.5v-22q0 -39 -15.5 -53t-45.5 -14h-130q-10 0 -10 10v39q0 10 10 10h96q15 0 19 4.5t4 17.5q0 18 -6 23t-24 5h-63q-14 0 -14 14v37q0 7 4.5 11.5t8.5 9.5l71 85 q8 10 16 2l39 -35q5 -5 -2 -12z" arabic-form="final" glyph-name="aKaf.fina" horiz-adv-x="920" unicode="ك"/><glyph d="M262 440q50 -2 85.5 -14.5t58 -38t33 -64t10.5 -93.5v-59q0 -48 -10 -81t-29.5 -53t-48.5 -28.5t-67 -8.5h-294q-20 0 -30 16t-10 60q0 39 9.5 52.5t30.5 13.5h204q22 0 36 2.5t21.5 8.5t10 17t2.5 28v38q0 35 -18 49t-60 14h-145q-10 0 -10 10v95q0 8 10.5 19.5 t18.5 19.5l209 247q7 9 13 3l100 -84q9 -8 4 -14z" arabic-form="initial" glyph-name="aKaf.init" horiz-adv-x="497" unicode="ك"/><glyph d="M262 440q45 -2 80 -13t59 -33.5t36 -57t12 -84.5v-64q0 -20 18.5 -33t50.5 -13h28q40 0 40 -71q0 -34 -9.5 -52.5t-30.5 -18.5q-42 0 -71 11t-50 46q-20 -32 -52.5 -44.5t-78.5 -12.5h-294q-20 0 -30 16t-10 60q0 39 9.5 52.5t30.5 13.5h204q22 0 36 2.5t21.5 8.5t10 17 t2.5 28v38q0 35 -18 49t-60 14h-145q-10 0 -10 10v95q0 8 10 18.5t17 18.5l211 249q7 9 13 3l100 -84q9 -8 4 -14z" arabic-form="medial" glyph-name="aKaf.medi" horiz-adv-x="546" unicode="ك"/><glyph d="M399 669q0 10 10 10h150q10 0 10 -10v-479q3 -21 20 -34.5t49 -13.5h28q40 0 40 -71q0 -34 -9.5 -52.5t-30.5 -18.5q-30 0 -54 5.5t-43 25.5v-8q0 -68 -21.5 -115t-58 -76t-84 -41.5t-99.5 -12.5q-51 0 -99 13t-84.5 42.5t-59 77t-22.5 116.5q0 45 12 97t37 96q4 7 16 4 l134 -36q6 -2 7 -6t-1 -8q-13 -28 -23 -60t-10 -75q0 -32 8 -54t21 -35.5t30.5 -20t35.5 -6.5q91 0 91 108v638z" arabic-form="final" glyph-name="aLam.fina" horiz-adv-x="666" unicode="ل"/><glyph d="M0 0q-20 0 -30 16t-10 54q0 39 9.5 55.5t30.5 16.5h22q25 0 36.5 11.5t11.5 41.5v475q0 10 10 10h150q10 0 10 -10v-544q0 -65 -27 -95.5t-90 -30.5h-123z" arabic-form="initial" glyph-name="aLam.init" horiz-adv-x="295" unicode="ل"/><glyph d="M70 670q0 10 10 10h150q10 0 10 -10v-480q3 -21 19.5 -34.5t49.5 -13.5h28q40 0 40 -71q0 -34 -9.5 -52.5t-30.5 -18.5q-37 0 -64.5 9.5t-47.5 40.5q-16 -31 -45.5 -40.5t-82.5 -9.5h-97q-20 0 -30 13.5t-10 55.5q0 41 9.5 57t30.5 16h22q25 0 36.5 11.5t11.5 41.5v475z" arabic-form="medial" glyph-name="aLam.medi" horiz-adv-x="337" unicode="ل"/><glyph d="M368 -7q-42 0 -78.5 8.5t-65.5 27.5q-5 -8 -11 -14t-10.5 -12.5t-7.5 -16t-3 -22.5v-171h-170v192q0 35 7.5 57.5t19 37.5t25.5 24.5t26.5 19.5t21.5 21.5t11 30.5q-1 8 -1 17v20q0 69 20.5 114t53.5 71t75.5 36t86.5 10t86.5 -10t75.5 -36t53.5 -71t20.5 -114 q0 -29 13 -50t48 -21h29q40 0 40 -71q0 -34 -9.5 -52.5t-30.5 -18.5q-40 0 -74.5 11.5t-60.5 51.5q-32 -39 -82.5 -54.5t-108.5 -15.5zM368 302q-34 0 -52 -19.5t-18 -63.5q0 -49 19 -66.5t51 -17.5q34 0 51.5 18t17.5 66q0 46 -17.5 64.5t-51.5 18.5z" arabic-form="final" glyph-name="aMim.fina" horiz-adv-x="694" unicode="م"/><glyph d="M315 -7q-56 0 -104 14t-81 49q-11 -20 -27 -31.5t-34 -17t-36 -6.5t-33 -1q-20 0 -30 15t-10 54q0 40 9.5 56.5t30.5 16.5h18q17 0 29 9t19.5 23t11 32.5t3.5 36.5q0 60 21 98.5t54 61.5t75 32t84 9q44 0 86.5 -10t75.5 -36t53.5 -71t20.5 -114q0 -63 -18.5 -105.5 t-51 -68t-75.5 -36t-91 -10.5zM315 302q-33 0 -51.5 -19.5t-18.5 -63.5q0 -49 19 -66.5t51 -17.5q35 0 52.5 18t17.5 66q0 46 -18 64.5t-52 18.5z" arabic-form="initial" glyph-name="aMim.init" horiz-adv-x="595" unicode="م"/><glyph d="M315 -7q-56 0 -104 14t-81 49q-11 -20 -27 -31.5t-34 -17t-36 -6.5t-33 -1q-20 0 -30 15t-10 54q0 38 9 55.5t31 17.5h18q17 0 29 9t19.5 23t11 32.5t3.5 36.5q0 58 20 96.5t52.5 62t72.5 33t80 9.5q53 0 98 -12.5t77.5 -40.5t51 -71.5t18.5 -106.5q0 -29 13.5 -50 t48.5 -21h29q40 0 40 -71q0 -34 -9.5 -52.5t-30.5 -18.5q-39 0 -74.5 12t-61.5 51q-32 -39 -82 -54.5t-109 -15.5zM315 302q-33 0 -51 -19.5t-18 -63.5q0 -49 18.5 -66.5t50.5 -17.5q35 0 52.5 18t17.5 66q0 46 -18 64.5t-52 18.5z" arabic-form="medial" glyph-name="aMim.medi" horiz-adv-x="642" unicode="م"/><glyph d="M244 447q-10 0 -10 10v111q0 10 10 10h152q10 0 10 -10v-111q0 -10 -10 -10h-152zM399 336q0 10 10 10h150q10 0 10 -10v-146q3 -21 20 -34.5t49 -13.5h27q40 0 40 -71q0 -34 -9.5 -52.5t-30.5 -18.5q-30 0 -53.5 5.5t-42.5 25.5v-8q0 -68 -21.5 -115t-58 -76t-84 -41.5 t-99.5 -12.5q-51 0 -99 13t-84.5 42.5t-59 77t-22.5 116.5q0 45 12 97t37 96q4 7 16 4l134 -36q6 -2 7 -6t-1 -8q-13 -28 -23 -60t-10 -75q0 -32 8 -54t21 -35.5t30.5 -20t35.5 -6.5q91 0 91 108v305z" arabic-form="final" glyph-name="aNun.fina" horiz-adv-x="665" unicode="ن"/><glyph d="M80 529q-10 0 -10 10v111q0 10 10 10h152q10 0 10 -10v-111q0 -10 -10 -10h-152zM2 0q-20 0 -30 16.5t-10 54.5t9.5 54.5t30.5 16.5h22q25 0 36.5 11.5t11.5 41.5v223q0 10 10 10h150q10 0 10 -10v-292q0 -65 -27 -95.5t-90 -30.5h-123z" arabic-form="initial" glyph-name="aNun.init" horiz-adv-x="292" unicode="ن"/><glyph d="M81 529q-10 0 -10 10v111q0 10 10 10h152q10 0 10 -10v-111q0 -10 -10 -10h-152zM72 418q0 10 10 10h150q10 0 10 -10v-228q3 -21 19.5 -34.5t49.5 -13.5h28q40 0 40 -71t-40 -71q-37 0 -64.5 9.5t-47.5 40.5q-17 -34 -50.5 -42t-92.5 -8h-85q-20 0 -30 15t-10 57 q0 36 9.5 53t33.5 17h22q28 0 38 14.5t10 52.5v209z" arabic-form="medial" glyph-name="aNun.medi" horiz-adv-x="337" unicode="ن"/><glyph d="M222 0q-23 0 -29.5 -6.5t-6.5 -27.5v-50q0 -10 -10 -10h-150q-10 0 -10 10v127q0 47 22.5 73t76.5 26h96q-9 17 -13.5 41t-4.5 41q0 20 4 42.5t14 40.5l-21 -6q-10 -3 -12 6l-27 94q-3 12 3 14q27 10 60.5 19t70 15.5t75 10.5t75.5 4q59 0 115.5 -12t101 -40.5 t71.5 -76.5t27 -119q0 -44 -10 -83t-35.5 -68.5t-69.5 -47t-111 -17.5h-302zM348 312q-28 0 -40.5 -21.5t-12.5 -68.5q0 -45 12.5 -64.5t39.5 -19.5q29 0 41.5 19.5t12.5 64.5q0 49 -12 69.5t-41 20.5zM569 218q0 45 -22 69.5t-59 32.5q10 -17 17 -41t7 -56 q0 -25 -6.5 -48.5t-15.5 -37.5h16q37 0 50 23.5t13 57.5z" arabic-form="isolated" glyph-name="aHeh.isol" horiz-adv-x="801" unicode="ه"/><glyph d="M342 444v43q0 10 10 10h150q10 0 10 -10v-292q0 -30 11.5 -41.5t36.5 -11.5h26q40 0 40 -71q0 -40 -9.5 -55.5t-30.5 -15.5h-127q-49 0 -76.5 14t-36.5 57q-23 -18 -52.5 -27t-61.5 -9q-40 0 -76 10.5t-63.5 34.5t-44 62.5t-16.5 93.5q0 62 18 102t47.5 63.5t66.5 33 t76 9.5h102zM269 177q29 0 51 16t22 54v55h-71q-34 0 -53.5 -13.5t-19.5 -51.5q0 -35 21 -47.5t50 -12.5z" arabic-form="final" glyph-name="aHeh.fina" horiz-adv-x="586" unicode="ه"/><glyph d="M-40 81q0 38 9.5 49.5t30.5 11.5h76q-9 17 -13.5 41t-4.5 41q0 20 4 42.5t14 40.5l-21 -6q-10 -3 -12 6l-27 94q-3 12 3 14q27 10 60.5 19t70 15.5t75 10.5t75.5 4q59 0 115.5 -12t101 -40.5t71.5 -76.5t27 -119q0 -44 -10 -83t-35.5 -68.5t-69.5 -47t-111 -17.5h-389 q-20 0 -30 17t-10 64zM213 312q-28 0 -40.5 -21.5t-12.5 -68.5q0 -45 12.5 -64.5t39.5 -19.5q29 0 41.5 19.5t12.5 64.5q0 49 -12 69.5t-41 20.5zM434 218q0 45 -22 69.5t-59 32.5q10 -17 17 -41t7 -56q0 -25 -6.5 -48.5t-15.5 -37.5h16q37 0 50 23.5t13 57.5z" arabic-form="initial" glyph-name="aHeh.init" horiz-adv-x="666" unicode="ه"/><glyph d="M-40 69q0 73 40 73h72v80q0 67 21.5 110.5t54.5 68t73.5 34t79.5 9.5q44 0 86.5 -9t75.5 -30.5t53.5 -58.5t20.5 -94q0 -32 -8 -63.5t-15 -46.5h83q21 0 30.5 -16.5t9.5 -54.5q0 -41 -10 -56t-30 -15h-90q9 -15 15 -33.5t6 -38.5q0 -44 -18.5 -72.5t-50 -45.5t-72.5 -24 t-86 -7q-46 0 -87.5 7t-73 25t-50 49t-18.5 79v61h-72q-20 0 -30 16t-10 53zM303 302q-29 0 -47 -17.5t-18 -56.5v-89h70q32 0 48 23.5t16 64.5q0 40 -19 57.5t-50 17.5zM303 -85q32 0 46 11t14 33q0 25 -13 39t-55 14h-57v-46q0 -27 15.5 -39t49.5 -12z" arabic-form="medial" glyph-name="aHeh.medi" horiz-adv-x="597" unicode="ه"/><glyph d="M275 0q-57 0 -101 9.5t-74 33.5t-45.5 64.5t-15.5 102.5q0 68 20 113t52 72t73.5 38t85.5 11q45 0 87 -10t74.5 -35.5t52.5 -69.5t20 -112v-75h69q40 0 40 -70q0 -44 -9.5 -58t-30.5 -14h-69v-17q0 -92 -48 -141t-159 -49h-157q-10 0 -10 10v122q0 10 10 10h112 q20 0 36 2t26.5 9t16.5 20t7 34h-63zM272 302q-35 0 -52 -22.5t-17 -61.5q0 -23 5.5 -38t14.5 -23.5t22 -11.5t28 -3h65v80q0 43 -18 61.5t-48 18.5z" arabic-form="final" glyph-name="aWaw.fina" horiz-adv-x="573" unicode="و"/><glyph d="M484 -63q30 0 49.5 2.5t30 7.5t14.5 12t4 15q0 12 -8 21.5t-27.5 20t-53.5 23t-85 31.5q-9 3 -6 12l38 118q3 10 12 7q32 -12 59.5 -23.5t53 -21t51 -15t54.5 -5.5h137q40 0 40 -70q0 -72 -40 -72h-63q5 -8 10.5 -22.5t5.5 -33.5q0 -71 -54 -111t-167 -40h-217 q-78 0 -133 16t-90 46t-51.5 72.5t-16.5 95.5q0 55 19.5 108.5t44.5 91.5q5 9 15 3l127 -62q8 -5 3 -13q-17 -28 -26.5 -57t-9.5 -56q0 -32 13 -51.5t33.5 -30.5t44.5 -15t47 -4h142z" arabic-form="final" glyph-name="aAlifMaksura.fina" horiz-adv-x="806" unicode="ى"/><glyph d="M273 -394q-10 0 -10 10v111q0 10 10 10h117q10 0 10 -10v-111q0 -10 -10 -10h-117zM438 -394q-10 0 -10 10v111q0 10 10 10h117q10 0 10 -10v-111q0 -10 -10 -10h-117zM486 -63q30 0 49.5 2.5t30 7.5t14.5 12t4 15q0 12 -8 21.5t-27.5 20t-53.5 23t-85 31.5q-9 3 -6 12 l38 118q3 10 12 7q32 -12 59.5 -23.5t53 -21t51 -15t54.5 -5.5h137q40 0 40 -70q0 -72 -40 -72h-63q5 -8 10.5 -22.5t5.5 -33.5q0 -71 -54 -111t-167 -40h-217q-78 0 -133 16t-90 46t-51.5 72.5t-16.5 95.5q0 55 19.5 108.5t44.5 91.5q5 9 15 3l127 -62q8 -5 3 -13 q-17 -28 -26.5 -57t-9.5 -56q0 -32 13 -51.5t33.5 -30.5t44.5 -15t47 -4h142z" arabic-form="final" glyph-name="aYeh.fina" horiz-adv-x="808" unicode="ي"/><glyph d="M0 0q-20 0 -30 15t-10 53q0 74 40 74h58q25 0 36.5 11.5t11.5 41.5v223q0 10 10 10h151q10 0 10 -10v-292q0 -65 -27 -95.5t-90 -30.5h-160zM24 -207q-10 0 -10 10v111q0 10 10 10h117q10 0 10 -10v-111q0 -10 -10 -10h-117zM189 -207q-10 0 -10 10v111q0 10 10 10h117 q10 0 10 -10v-111q0 -10 -10 -10h-117z" arabic-form="initial" glyph-name="aYeh.init" horiz-adv-x="340" unicode="ي"/><glyph d="M50 -207q-10 0 -10 10v111q0 10 10 10h117q10 0 10 -10v-111q0 -10 -10 -10h-117zM215 -207q-10 0 -10 10v111q0 10 10 10h117q10 0 10 -10v-111q0 -10 -10 -10h-117zM107 418q0 10 10 10h151q10 0 10 -10v-228q0 -21 18.5 -34.5t50.5 -13.5h29q40 0 40 -71 q0 -34 -9.5 -52.5t-30.5 -18.5q-38 0 -65 9.5t-47 40.5q-9 -17 -22 -27t-31 -15t-42 -6.5t-54 -1.5h-113q-20 0 -30 15t-10 57q0 38 9.5 54t30.5 16h57q29 0 38.5 15t9.5 53v208z" arabic-form="medial" glyph-name="aYeh.medi" horiz-adv-x="376" unicode="ي"/><glyph d="M0 670q0 10 10 10h510q10 0 10 -10v-660q0 -10 -10 -10h-510q-10 0 -10 10v660zM79 81q0 -6 6 -6h360q6 0 6 6v518q0 6 -6 6h-360q-6 0 -6 -6v-518zM219 249q-10 0 -10 10v24q0 18 5 30t15 24l39 47q15 17 21.5 28t6.5 23q0 17 -9.5 27t-26.5 10q-33 0 -41 -34 q-3 -11 -12 -9l-76 10q-10 2 -8 11q8 51 45 82t97 31q31 0 56.5 -9.5t43 -26t27 -38t9.5 -46.5q0 -28 -9 -48.5t-31 -43.5l-38 -47q-7 -8 -10 -15.5t-3 -19.5v-10q0 -10 -10 -10h-81zM208 198q0 10 10 10h83q10 0 10 -10v-75q0 -10 -10 -10h-83q-10 0 -10 10v75z" glyph-name=".notdef" horiz-adv-x="530"/><glyph glyph-name=".null" horiz-adv-x="500"/><glyph glyph-name=".null" horiz-adv-x="500"/><glyph glyph-name="nonmarkingreturn" horiz-adv-x="0"/><glyph glyph-name="space" horiz-adv-x="238"/><glyph glyph-name="space" horiz-adv-x="238"/><glyph d="M106 210q-10 0 -10 10l-24 450q0 10 10 10h153q10 0 10 -10l-24 -450q0 -10 -10 -10h-105zM80 136q0 10 10 10h138q10 0 10 -10v-126q0 -10 -10 -10h-138q-10 0 -10 10v126z" glyph-name="exclam" horiz-adv-x="317" unicode="!"/><glyph d="M243 455q-10 0 -10 10v205q0 10 10 10h97q10 0 10 -10v-205q0 -10 -10 -10h-97zM66 455q-10 0 -10 10v205q0 10 10 10h97q10 0 10 -10v-205q0 -10 -10 -10h-97z" glyph-name="quotedbl" horiz-adv-x="406" unicode="&quot;"/><glyph d="M94 180h-62q-10 0 -10 10v100q0 10 10 10h79l12 89h-65q-10 0 -10 10v100q0 10 10 10h81l22 161q2 10 11 10h116q11 0 9 -10l-22 -161h93l22 161q2 10 11 10h116q11 0 9 -10l-22 -161h63q10 0 10 -10v-100q0 -10 -10 -10h-80l-12 -89h66q10 0 10 -10v-100q0 -10 -10 -10 h-82l-23 -170q-2 -10 -11 -10h-116q-11 0 -9 10l23 170h-93l-23 -170q-2 -10 -11 -10h-116q-11 0 -9 10zM340 300l12 89h-94l-12 -89h94z" glyph-name="numbersign" horiz-adv-x="599" unicode="#"/><glyph d="M45 65q-9 7 -2 16l83 101q6 7 13 1q24 -20 57.5 -35t69.5 -15q40 0 62 18.5t22 52.5q0 24 -15.5 39.5t-54.5 20.5l-21 3q-95 12 -148 65t-53 138q0 41 12.5 77t35.5 64.5t55.5 48t73.5 27.5v69q0 10 10 10h83q10 0 10 -10v-67q47 -6 84.5 -21.5t65.5 -33.5q10 -7 2 -16 l-70 -101q-6 -8 -14 -3q-26 17 -51.5 25t-54.5 8q-33 0 -53.5 -17t-20.5 -46q0 -23 15 -38t56 -21l24 -3q100 -14 148.5 -67t48.5 -138q0 -87 -47.5 -146t-132.5 -76v-71q0 -10 -10 -10h-83q-10 0 -10 10v66q-58 5 -106.5 25.5t-83.5 49.5z" glyph-name="dollar" unicode="$"/><glyph d="M562 682q6 10 16 10h101q5 0 6 -3t-1 -7l-395 -684q-6 -10 -16 -10h-102q-5 0 -5.5 3t1.5 7zM206 330q-52 0 -87 22.5t-49 62.5q-5 14 -7.5 33.5t-2.5 60.5t2.5 60.5t7.5 33.5q14 40 49 62.5t87 22.5t87 -22.5t48 -62.5q5 -14 8 -33.5t3 -60.5t-3 -60.5t-8 -33.5 q-13 -40 -48 -62.5t-87 -22.5zM206 415q20 0 28 19q1 3 1.5 6.5t1 11t0.5 21v36.5v36t-0.5 21.5t-1 11t-1.5 6.5q-8 19 -28 19q-22 0 -28 -19q-1 -3 -1.5 -6.5t-1 -11t-0.5 -21.5v-36v-36.5t0.5 -21t1 -11t1.5 -6.5q6 -19 28 -19zM508 77q-5 14 -7.5 33t-2.5 61 q0 41 2.5 60.5t7.5 33.5q14 40 48.5 62.5t87.5 22.5q52 0 87 -22.5t48 -62.5q4 -14 7.5 -33.5t3.5 -60.5q0 -42 -3 -61t-8 -33q-13 -40 -48 -62.5t-87 -22.5q-53 0 -87.5 22.5t-48.5 62.5zM616 96q6 -19 28 -19q21 0 27 19q1 3 2 6.5t1.5 11t0.5 21v36.5v35.5t-0.5 21.5 t-1.5 11.5t-2 6.5q-6 18 -27 18q-22 0 -28 -18q-1 -3 -1.5 -6.5t-1 -11.5t-0.5 -21.5v-35.5v-36.5t0.5 -21t1 -11t1.5 -6.5z" glyph-name="percent" horiz-adv-x="850" unicode="%"/><glyph d="M45 174q0 27 6.5 52t21.5 49t38.5 48t56.5 50q-19 24 -32 44t-21.5 38t-12.5 35t-4 35q0 36 14.5 67t40 53t60 34.5t75.5 12.5q43 0 78 -12.5t59.5 -35t38 -53t13.5 -65.5q0 -23 -6 -43t-19.5 -40.5t-34.5 -41.5t-52 -45l72 -90l66 74q7 8 14 1l81 -71q8 -6 2 -14 l-80 -93l11 -13q15 -19 38 -19h15q10 0 10 -10v-111q0 -10 -10 -10h-51q-38 0 -62.5 11.5t-51.5 45.5q-44 -38 -84.5 -53.5t-89.5 -15.5q-48 0 -85.5 13.5t-63 38t-38.5 58.5t-13 76zM283 458q29 23 39.5 39t10.5 33q0 20 -12 33t-31 13q-20 0 -32 -13t-12 -33 q0 -14 7.5 -28.5t29.5 -43.5zM197 187q0 -27 16.5 -44.5t45.5 -18.5q20 -1 37.5 7.5t40.5 28.5l-87 110q-32 -26 -42.5 -44.5t-10.5 -38.5z" glyph-name="ampersand" horiz-adv-x="647" unicode="&amp;"/><glyph d="M66 455q-10 0 -10 10v205q0 10 10 10h97q10 0 10 -10v-205q0 -10 -10 -10h-97v0z" glyph-name="quotesingle" horiz-adv-x="229" unicode="'"/><glyph d="M181 -74q-66 91 -97.5 195t-31.5 207t31.5 207t97.5 195q8 10 15 10h96q5 0 7 -2.5t0 -7.5q-43 -91 -66 -195t-23 -207t23 -207.5t66 -194.5q2 -5 0 -7.5t-7 -2.5h-96q-7 0 -15 10z" glyph-name="parenleft" horiz-adv-x="329" unicode="("/><glyph d="M30 -74q43 90 66 194.5t23 207.5t-23 207t-66 195q-2 5 0 7.5t7 2.5h96q7 0 15 -10q66 -91 97.5 -195t31.5 -207t-31.5 -207t-97.5 -195q-8 -10 -15 -10h-96q-5 0 -7 2.5t0 7.5z" glyph-name="parenright" horiz-adv-x="329" unicode=")"/><glyph d="M167 355q-10 0 -10 10l1 78l-67 -40q-9 -5 -14 4l-34 59q-5 8 4 13l69 38l-69 39q-9 5 -4 13l34 59q5 9 14 4l67 -41l-1 79q0 10 10 10h68q10 0 10 -10l-2 -79l69 41q8 5 13 -4l34 -59q5 -8 -4 -13l-69 -39l69 -38q9 -5 4 -13l-34 -59q-5 -9 -13 -4l-69 41l2 -79 q0 -10 -10 -10h-68v0z" glyph-name="asterisk" horiz-adv-x="402" unicode="*"/><glyph d="M57 206q-10 0 -10 10v120q0 10 10 10h146q6 0 6 6v148q0 10 10 10h124q10 0 10 -10v-148q0 -6 6 -6h146q10 0 10 -10v-120q0 -10 -10 -10h-146q-6 0 -6 -6v-148q0 -10 -10 -10h-124q-10 0 -10 10v148q0 6 -6 6h-146v0z" glyph-name="plus" unicode="+"/><glyph d="M52 148q0 10 10 10h131q10 0 10 -10v-131q0 -13 -9 -21l-114 -94q-10 -7 -16 -7q-12 0 -12 11v242z" glyph-name="comma" horiz-adv-x="255" unicode=","/><glyph d="M49 193q-10 0 -10 10v125q0 10 10 10h301q10 0 10 -10v-125q0 -10 -10 -10h-301v0z" glyph-name="hyphen" horiz-adv-x="399" unicode="-"/><glyph d="M49 193q-10 0 -10 10v125q0 10 10 10h301q10 0 10 -10v-125q0 -10 -10 -10h-301v0z" glyph-name="hyphen" horiz-adv-x="399" unicode="‐"/><glyph d="M49 193q-10 0 -10 10v125q0 10 10 10h301q10 0 10 -10v-125q0 -10 -10 -10h-301v0z" glyph-name="hyphen" horiz-adv-x="399" unicode="­"/><glyph d="M52 148q0 10 10 10h139q10 0 10 -10v-138q0 -10 -10 -10h-139q-10 0 -10 10v138z" glyph-name="period" horiz-adv-x="263" unicode="."/><glyph d="M248 682q3 10 13 10h143q10 0 7 -10l-212 -684q-3 -10 -13 -10h-143q-10 0 -7 10z" glyph-name="slash" horiz-adv-x="446" unicode="/"/><glyph d="M64 134q-4 12 -7 25.5t-5 35.5t-3 56.5t-1 88.5t1 88.5t3 56.5t5 35.5t7 25.5q23 69 77.5 107.5t139.5 38.5t140 -38.5t78 -107.5q4 -12 6.5 -25.5t4.5 -35.5t3 -56.5t1 -88.5t-1 -88.5t-3 -56.5t-4.5 -35.5t-6.5 -25.5q-23 -69 -78 -107.5t-140 -38.5t-139.5 38.5 t-77.5 107.5zM226 163q12 -37 55 -37q44 0 56 37q2 6 3.5 14t2 26t1 50t0.5 87t-0.5 87t-1 50t-2 26t-3.5 14q-12 37 -56 37q-43 0 -55 -37q-2 -6 -3.5 -14t-2.5 -26t-1.5 -50t-0.5 -87t0.5 -87t1.5 -50t2.5 -26t3.5 -14z" glyph-name="zero" unicode="0"/><glyph d="M238 498h-2l-115 -76q-5 -3 -8.5 -1.5t-3.5 7.5v146q0 8 7 14l122 86q7 6 18 6h139q10 0 10 -10v-660q0 -10 -10 -10h-147q-10 0 -10 10v488z" glyph-name="one" unicode="1"/><glyph d="M58 122q0 8 5 14l239 268q19 21 28 41t9 43q0 29 -16 47.5t-45 18.5t-46.5 -18t-21.5 -58q0 -11 -11 -9l-132 20q-10 2 -8 12q2 40 19 75t46.5 61t70 40.5t90.5 14.5q49 0 89.5 -15t69.5 -41.5t44.5 -63t15.5 -78.5q0 -54 -19.5 -94.5t-54.5 -77.5l-162 -180v-2h226 q10 0 10 -10v-120q0 -10 -10 -10h-426q-10 0 -10 10v112z" glyph-name="two" unicode="2"/><glyph d="M49 156q-2 10 8 12l133 22q10 2 12 -8q8 -25 26 -40.5t49 -15.5q32 0 51 20t19 55q0 38 -21.5 59t-59.5 21h-27q-10 0 -10 10v116q0 10 10 10h25q33 0 52 18.5t19 51.5q0 31 -17.5 49t-46.5 18q-27 0 -43 -15t-22 -40q-2 -10 -11 -8l-133 21q-10 2 -8 12q7 36 24.5 67 t46 53.5t67.5 35t88 12.5q52 0 93 -14.5t69.5 -39.5t43 -59.5t14.5 -74.5q0 -45 -20.5 -80.5t-56.5 -59.5v-2q16 -9 32 -23t29 -34t20.5 -46.5t7.5 -60.5q0 -47 -17 -85.5t-47.5 -66t-73 -43t-93.5 -15.5q-96 0 -157.5 45t-74.5 123z" glyph-name="three" unicode="3"/><glyph d="M44 95q-10 0 -10 10v128q0 7 2 11l187 428q3 8 14 8h157q12 0 7 -10l-189 -429v-2h96q6 0 6 6v120q0 10 10 10h140q10 0 10 -10v-120q0 -6 5 -6h39q10 0 10 -10v-124q0 -10 -10 -10h-38q-6 0 -6 -6v-79q0 -10 -10 -10h-140q-10 0 -10 10v79q0 6 -6 6h-264v0z" glyph-name="four" unicode="4"/><glyph d="M65 149q0 9 9 12l130 21q10 1 13 -9q7 -20 22 -33.5t44 -13.5q43 0 57 39q7 18 7 57q0 40 -7 58q-7 21 -22 30t-36 9q-22 0 -35 -9t-20 -23q-5 -10 -14 -10h-128q-10 0 -10 10v383q0 10 10 10h396q10 0 10 -10v-120q0 -10 -10 -10h-258q-6 0 -6 -6v-114h2 q14 14 39.5 24.5t65.5 10.5q64 0 109 -27.5t64 -86.5q7 -21 11 -47.5t4 -71.5q0 -31 -4 -56.5t-11 -45.5q-21 -66 -77.5 -99t-135.5 -33q-48 0 -86.5 12t-66.5 33.5t-45 51t-21 64.5z" glyph-name="five" unicode="5"/><glyph d="M43 207q0 47 13.5 89t40.5 94l151 283q4 7 12 7h158q12 0 7 -11l-136 -254l1 -1q5 2 13.5 3.5t20.5 1.5q42 0 78 -15t62 -43t41 -66.5t15 -85.5q0 -51 -18 -91.5t-49.5 -69.5t-75.5 -44.5t-96 -15.5t-96 15.5t-75.5 44t-49 69t-17.5 90.5zM204 206q0 -35 21 -57.5 t56 -22.5t56.5 22.5t21.5 57.5t-21.5 58t-56.5 23t-56 -23t-21 -58z" glyph-name="six" unicode="6"/><glyph d="M337 532v3h-117q-6 0 -6 -6v-64q0 -10 -10 -10h-136q-10 0 -10 10v205q0 10 10 10h433q10 0 10 -10v-132q0 -4 -2 -10l-207 -518q-4 -10 -14 -10h-153q-5 0 -7.5 3t-0.5 8z" glyph-name="seven" unicode="7"/><glyph d="M41 199q0 57 24 95t54 59v2q-23 18 -43 52.5t-20 82.5q0 40 15 76.5t44 64.5t70.5 44.5t95.5 16.5t95.5 -16.5t70.5 -44.5t44 -64.5t15 -76.5q0 -48 -19.5 -82.5t-42.5 -52.5v-2q30 -21 53.5 -59t23.5 -95q0 -49 -18.5 -88t-51 -66.5t-76 -42t-94.5 -14.5t-94.5 14.5 t-76 42t-51 66.5t-18.5 88zM281 420q30 0 48.5 19.5t18.5 47.5t-18.5 47.5t-48.5 19.5t-48 -19.5t-18 -47.5t18 -47.5t48 -19.5zM202 205q0 -35 22 -57t57 -22t57 22t22 57t-22 57.5t-57 22.5t-57 -22.5t-22 -57.5z" glyph-name="eight" unicode="8"/><glyph d="M273 265l-2 1q-4 -2 -12.5 -3.5t-20.5 -1.5q-42 0 -78 15t-62 43t-41 66.5t-15 85.5q0 51 18 91.5t49.5 69.5t75.5 44.5t96 15.5t96 -15.5t75.5 -44t49 -69t17.5 -90.5q0 -47 -13.5 -89t-40.5 -94l-151 -283q-4 -7 -13 -7h-157q-13 0 -7 11zM281 393q35 0 56 23t21 58 t-21 57.5t-56 22.5t-56.5 -22.5t-21.5 -57.5t21.5 -58t56.5 -23z" glyph-name="nine" unicode="9"/><glyph d="M70 329q-10 0 -10 10v138q0 10 10 10h138q10 0 10 -10v-138q0 -10 -10 -10h-138zM60 148q0 10 10 10h138q10 0 10 -10v-138q0 -10 -10 -10h-138q-10 0 -10 10v138z" glyph-name="colon" horiz-adv-x="278" unicode=":"/><glyph d="M70 329q-10 0 -10 10v138q0 10 10 10h138q10 0 10 -10v-138q0 -10 -10 -10h-138zM64 148q0 10 10 10h131q10 0 10 -10v-131q0 -8 -2 -11.5t-7 -8.5l-115 -95q-8 -7 -16 -7q-11 0 -11 11v242z" glyph-name="semicolon" horiz-adv-x="278" unicode=";"/><glyph d="M58 211q-10 3 -10 14v102q0 11 10 14l448 167q10 3 10 -6v-129q0 -9 -10 -13l-243 -83v-2l243 -83q10 -4 10 -13v-129q0 -9 -10 -6l-448 167v0z" glyph-name="less" unicode="&lt;"/><glyph d="M57 316q-10 0 -10 10v120q0 10 10 10h448q10 0 10 -10v-120q0 -10 -10 -10h-448zM57 96q-10 0 -10 10v120q0 10 10 10h448q10 0 10 -10v-120q0 -10 -10 -10h-448z" glyph-name="equal" unicode="="/><glyph d="M47 179q0 9 10 13l244 83v2l-244 83q-10 4 -10 13v129q0 9 10 6l448 -167q10 -3 10 -14v-102q0 -11 -10 -14l-448 -167q-10 -3 -10 6v129z" glyph-name="greater" unicode="&gt;"/><glyph d="M165 210q-10 0 -10 10v41q0 27 7 46t24 38l60 71q25 26 34.5 43.5t9.5 36.5q0 24 -15 40t-41 16q-52 0 -65 -61q-2 -10 -11 -8l-129 18q-10 1 -8 11q5 40 22.5 73t45 57t65.5 37t84 13q48 0 88 -15t68 -40.5t43.5 -59.5t15.5 -73q0 -45 -17.5 -77.5t-50.5 -67.5l-53 -64 q-13 -14 -17 -26t-4 -32v-17q0 -10 -10 -10h-136zM155 136q0 10 10 10h138q10 0 10 -10v-126q0 -10 -10 -10h-138q-10 0 -10 10v126z" glyph-name="question" horiz-adv-x="483" unicode="?"/><glyph d="M41 262q0 94 31 171.5t86.5 132t133.5 84.5t173 30q94 0 172 -30t134 -84.5t86.5 -130.5t30.5 -168q0 -54 -16 -94.5t-42.5 -67.5t-61 -40t-72.5 -13q-51 0 -86.5 18t-52.5 48h-1q-17 -31 -47 -48.5t-89 -17.5q-112 0 -141 94q-8 22 -11 48.5t-3 70.5t3 70.5t11 49.5 q29 94 130 94q38 0 66 -14t41 -36h1v30q0 9 9 9h118q8 0 8 -9v-237q0 -29 14 -43t34 -14q27 0 43 24.5t16 77.5q0 68 -20.5 123t-58.5 94t-92.5 60.5t-122.5 21.5t-122.5 -21.5t-92.5 -61t-58.5 -96t-20.5 -125.5q0 -67 20.5 -121.5t58.5 -93.5t92.5 -60.5t122.5 -21.5 q60 0 108 13.5t90 36.5q9 6 14 -4l51 -74q5 -8 -3 -14q-54 -35 -119 -53.5t-141 -18.5q-95 0 -173 30t-133.5 84t-86.5 129.5t-31 167.5zM405 203q13 -37 54 -37t53 37q3 9 4 21t1 41t-1 41.5t-4 20.5q-12 38 -53 38q-40 0 -54 -38q-2 -8 -3.5 -20.5t-1.5 -41.5t1.5 -41 t3.5 -21z" glyph-name="at" horiz-adv-x="931" unicode="@"/><glyph d="M245 670q3 10 13 10h163q10 0 13 -10l230 -660q3 -10 -7 -10h-165q-10 0 -13 10l-32 105h-221l-32 -105q-3 -10 -13 -10h-164q-10 0 -7 10zM403 261l-63 212h-3l-66 -212h132z" glyph-name="A" horiz-adv-x="674" unicode="A"/><glyph d="M55 670q0 10 10 10h277q114 0 168 -50t54 -131q0 -53 -22.5 -89.5t-60.5 -56.5v-2q38 -14 66.5 -54.5t28.5 -100.5q0 -50 -17 -87t-48 -61t-74.5 -36t-97.5 -12h-274q-10 0 -10 10v660zM308 407q81 0 81 70t-81 70h-71q-6 0 -6 -6v-128q0 -6 6 -6h71zM231 139q0 -6 6 -6 h80q83 0 83 77q0 35 -20.5 55.5t-62.5 20.5h-80q-6 0 -6 -6v-141z" glyph-name="B" horiz-adv-x="614" unicode="B"/><glyph d="M59 156q-6 17 -9.5 34t-6 37.5t-3.5 47.5t-1 65t1 65t3.5 47.5t6 37.5t9.5 34q27 84 90.5 126t156.5 42q91 0 153 -40.5t91 -114.5q4 -10 -5 -14l-133 -58q-10 -4 -14 6q-14 30 -34 47t-55 17q-63 0 -82 -59q-3 -8 -4.5 -17t-3 -23.5t-2 -37.5t-0.5 -58t0.5 -58t2 -37.5 t3 -23.5t4.5 -17q19 -59 82 -59q35 0 55 17t34 47q4 10 14 6l133 -58q9 -4 5 -14q-29 -74 -91 -114.5t-153 -40.5q-93 0 -156.5 42t-90.5 126z" glyph-name="C" horiz-adv-x="574" unicode="C"/><glyph d="M55 670q0 10 10 10h263q91 0 153.5 -38t88.5 -117q5 -17 9 -33t6.5 -37t3.5 -48.5t1 -66.5q0 -38 -1 -65.5t-3.5 -48.5t-6.5 -38t-9 -33q-26 -79 -88.5 -117t-153.5 -38h-263q-10 0 -10 10v660zM231 162q0 -6 6 -6h53q47 0 73.5 14.5t38.5 50.5q2 7 4 16t3.5 22.5t2 32.5 t0.5 48q0 28 -0.5 47.5t-2 33t-3.5 22t-4 16.5q-12 36 -38.5 50.5t-73.5 14.5h-53q-6 0 -6 -6v-356z" glyph-name="D" horiz-adv-x="631" unicode="D"/><glyph d="M55 670q0 10 10 10h445q10 0 10 -10v-129q0 -10 -10 -10h-273q-6 0 -6 -6v-103q0 -6 6 -6h224q10 0 10 -10v-126q0 -10 -10 -10h-224q-6 0 -6 -6v-109q0 -6 6 -6h273q10 0 10 -10v-129q0 -10 -10 -10h-445q-10 0 -10 10v660z" glyph-name="E" horiz-adv-x="557" unicode="E"/><glyph d="M55 670q0 10 10 10h445q10 0 10 -10v-129q0 -10 -10 -10h-273q-6 0 -6 -6v-112q0 -6 6 -6h224q10 0 10 -10v-126q0 -10 -10 -10h-224q-6 0 -6 -6v-245q0 -10 -10 -10h-156q-10 0 -10 10v660z" glyph-name="F" horiz-adv-x="552" unicode="F"/><glyph d="M59 155q-6 19 -10 37.5t-6 39.5t-3 47t-1 61t1 61t3 47t6 39t10 38q27 83 96 125t160 42q94 0 156 -39.5t91 -105.5q5 -11 -5 -16l-130 -55q-10 -5 -15 4q-17 28 -39.5 41.5t-57.5 13.5t-57 -15.5t-31 -44.5q-3 -9 -5 -20t-3 -26.5t-1.5 -37t-0.5 -51.5t0.5 -52t2 -37.5 t3 -26t4.5 -19.5q10 -29 33 -44.5t60 -15.5q33 0 57.5 14t32.5 40q6 18 6 44q0 6 -6 6h-74q-10 0 -10 10v113q0 10 10 10h243q10 0 10 -10v-52q0 -49 -3.5 -87.5t-14.5 -70.5q-27 -85 -94.5 -129.5t-161.5 -44.5q-91 0 -160 42t-96 125z" glyph-name="G" horiz-adv-x="628" unicode="G"/><glyph d="M55 670q0 10 10 10h156q10 0 10 -10v-241q0 -6 6 -6h185q6 0 6 6v241q0 10 10 10h156q10 0 10 -10v-660q0 -10 -10 -10h-156q-10 0 -10 10v251q0 6 -6 6h-185q-6 0 -6 -6v-251q0 -10 -10 -10h-156q-10 0 -10 10v660z" glyph-name="H" horiz-adv-x="659" unicode="H"/><glyph d="M55 670q0 10 10 10h156q10 0 10 -10v-660q0 -10 -10 -10h-156q-10 0 -10 10v660z" glyph-name="I" horiz-adv-x="286" unicode="I"/><glyph d="M18 81q-5 8 1 14l111 88q8 6 14 -2q14 -15 32 -25.5t43 -10.5q86 0 86 100v425q0 10 10 10h156q10 0 10 -10v-411q0 -136 -67.5 -203.5t-192.5 -67.5q-66 0 -121.5 26t-81.5 67z" glyph-name="J" horiz-adv-x="534" unicode="J"/><glyph d="M55 670q0 10 10 10h156q10 0 10 -10v-266l195 267q7 9 17 9h176q6 0 7.5 -4t-1.5 -9l-203 -263l215 -393q2 -4 0.5 -7.5t-6.5 -3.5h-179q-12 0 -16 9l-132 256l-73 -97v-158q0 -10 -10 -10h-156q-10 0 -10 10v660z" glyph-name="K" horiz-adv-x="657" unicode="K"/><glyph d="M55 670q0 10 10 10h156q10 0 10 -10v-508q0 -6 6 -6h288q10 0 10 -10v-136q0 -10 -10 -10h-460q-10 0 -10 10v660z" glyph-name="L" horiz-adv-x="554" unicode="L"/><glyph d="M55 670q0 10 10 10h148q13 0 17 -10l157 -355h4l153 355q4 10 17 10h146q10 0 10 -10v-660q0 -10 -10 -10h-139q-10 0 -10 10v350h-5l-109 -254q-4 -8 -9 -10.5t-10 -2.5h-78q-11 0 -19 13l-109 254h-5v-350q0 -10 -10 -10h-139q-10 0 -10 10v660z" glyph-name="M" horiz-adv-x="772" unicode="M"/><glyph d="M55 670q0 10 10 10h147q13 0 17 -10l205 -385h4v385q0 10 10 10h140q10 0 10 -10v-660q0 -10 -10 -10h-147q-13 0 -17 10l-203 384h-6v-384q0 -10 -10 -10h-140q-10 0 -10 10v660z" glyph-name="N" horiz-adv-x="653" unicode="N"/><glyph d="M314 -12q-90 0 -159 42t-96 125q-6 19 -10 37.5t-6 39.5t-3 47t-1 61t1 61t3 47t6 39t10 38q27 83 96 125t159 42t159 -42t96 -125q6 -20 10 -38t6.5 -39t3 -47t0.5 -61t-0.5 -61t-3 -47t-6.5 -39.5t-10 -37.5q-27 -83 -96 -125t-159 -42zM314 145q33 0 55.5 15.5 t31.5 44.5q3 9 5 19.5t3 26t1.5 37.5t0.5 52t-0.5 52t-1.5 37.5t-3 26t-5 19.5q-9 29 -31.5 44.5t-55.5 15.5t-55.5 -15.5t-31.5 -44.5q-3 -9 -5 -19.5t-3 -26t-1.5 -37.5t-0.5 -52t0.5 -52t1.5 -37.5t3 -26t5 -19.5q9 -29 31.5 -44.5t55.5 -15.5z" glyph-name="O" horiz-adv-x="628" unicode="O"/><glyph d="M65 0q-10 0 -10 10v660q0 10 10 10h272q62 0 109.5 -17t79 -47t47.5 -71.5t16 -90.5t-16 -90.5t-48 -72t-79 -47.5t-109 -17h-100q-6 0 -6 -6v-211q0 -10 -10 -10h-156zM327 376q42 0 64 21.5t22 56.5t-22 56t-64 21h-90q-6 0 -6 -6v-143q0 -6 6 -6h90z" glyph-name="P" horiz-adv-x="612" unicode="P"/><glyph d="M531 -53q-8 -7 -15 0l-66 70q-61 -29 -136 -29q-91 0 -159.5 41.5t-95.5 125.5q-6 19 -10 37.5t-6.5 39.5t-3 47t-0.5 61t0.5 61t3 47t6.5 39t10 38q27 84 95.5 125.5t159.5 41.5q90 0 159 -42t96 -125q6 -20 10 -38t6 -39t3 -47t1 -61t-1 -61t-3 -47t-6 -39.5t-10 -37.5 q-2 -5 -3.5 -9t-3.5 -9l74 -76q7 -8 0 -15zM314 144q33 0 55.5 16t31.5 45q3 9 5 19.5t3 26t1.5 37.5t0.5 52t-0.5 52t-1.5 37.5t-3 26t-5 19.5q-9 29 -31.5 45t-55.5 16t-55.5 -16t-32.5 -45q-3 -9 -4.5 -19.5t-2.5 -26t-1.5 -37.5t-0.5 -52t0.5 -52t1.5 -37.5t2.5 -26 t4.5 -19.5q10 -29 32.5 -45t55.5 -16z" glyph-name="Q" horiz-adv-x="628" unicode="Q"/><glyph d="M420 0q-11 0 -15 10l-103 232h-65q-6 0 -6 -6v-226q0 -10 -10 -10h-156q-10 0 -10 10v660q0 10 10 10h277q58 0 104 -16t77 -45.5t47.5 -69.5t16.5 -88q0 -64 -29 -113.5t-83 -76.5l125 -259q2 -5 0 -8.5t-7 -3.5h-173zM331 387q38 0 59 19.5t21 52.5t-21 52.5t-59 19.5 h-94q-6 0 -6 -6v-132q0 -6 6 -6h94z" glyph-name="R" horiz-adv-x="629" unicode="R"/><glyph d="M300 -12q-42 0 -82.5 8t-77 21.5t-66 31t-48.5 36.5q-9 8 -1 16l90 106q7 8 14 1q31 -27 76.5 -47.5t96.5 -20.5q48 0 72 17.5t24 46.5q0 22 -18 36t-68 21l-36 5q-111 16 -169 67t-58 147q0 48 18 87t51 66.5t79.5 43t104.5 15.5q71 0 134 -20t109 -55q8 -6 2 -15 l-75 -109q-6 -8 -14 -3q-36 24 -74 37.5t-79 13.5q-38 0 -56.5 -16t-18.5 -41q0 -23 19 -37t68 -20l36 -5q112 -16 168.5 -67.5t56.5 -148.5q0 -47 -18 -87t-53 -69t-87 -45.5t-120 -16.5z" glyph-name="S" horiz-adv-x="605" unicode="S"/><glyph d="M205 0h-3q-2 0 -5 3q-2 2 -2 4v3v508q0 4 -5 6h-1h-167h-3q-2 0 -4 2l-1 1l-1 1q-1 2 -1 6v136q0 8 7 10h3h522q4 0 7 -3l1 -2q2 -2 2 -5v-136q0 -5 -3 -8q-2 -2 -5 -2h-2h-167q-3 0 -4 -1l-2 -2v-3v-508v-3q-1 -3 -5 -6q-1 -1 -5 -1h-156z" glyph-name="T" horiz-adv-x="566" unicode="T"/><glyph d="M324 -12q-62 0 -112 17.5t-85.5 52t-54.5 86t-19 119.5v407q0 10 10 10h156q10 0 10 -10v-418q0 -51 26 -79t69 -28q45 0 69.5 28t24.5 79v418q0 10 10 10h156q10 0 10 -10v-407q0 -68 -19.5 -119.5t-55 -86t-85 -52t-110.5 -17.5z" glyph-name="U" horiz-adv-x="647" unicode="U"/><glyph d="M239 0q-10 0 -13 10l-217 659q-4 11 9 11h164q10 0 13 -10l121 -410h3l117 410q3 10 13 10h163q12 0 8 -11l-217 -659q-3 -10 -13 -10h-151z" glyph-name="V" horiz-adv-x="629" unicode="V"/><glyph d="M575 0q-10 0 -13 10l-107 380h-2l-108 -380q-3 -10 -13 -10h-125q-10 0 -13 10l-185 660q-2 10 8 10h164q11 0 13 -10l88 -396h2l106 396q3 10 13 10h103q10 0 13 -10l109 -396h2l85 396q2 10 12 10h164q10 0 7 -10l-184 -660q-3 -10 -14 -10h-125z" glyph-name="W" horiz-adv-x="907" unicode="W"/><glyph d="M432 0q-11 0 -17 10l-107 183h-2l-107 -183q-6 -10 -17 -10h-168q-12 0 -6 11l204 340l-191 318q-6 11 6 11h168q11 0 17 -10l94 -161h2l94 161q6 10 17 10h168q13 0 6 -11l-190 -318l203 -340q7 -11 -6 -11h-168z" glyph-name="X" horiz-adv-x="616" unicode="X"/><glyph d="M223 0q-10 0 -10 10v253l-206 406q-4 11 8 11h157q10 0 16 -10l114 -232h3l112 232q4 10 16 10h154q12 0 8 -11l-206 -406v-253q0 -10 -10 -10h-156z" glyph-name="Y" horiz-adv-x="602" unicode="Y"/><glyph d="M45 0q-10 0 -10 10v134q0 5 3 10l282 367v3h-264q-10 0 -10 10v136q0 10 10 10h460q10 0 10 -10v-134q0 -6 -3 -10l-282 -367v-3h275q10 0 10 -10v-136q0 -10 -10 -10h-471z" glyph-name="Z" unicode="Z"/><glyph d="M64 -84q-10 0 -10 10v804q0 10 10 10h213q10 0 10 -10v-104q0 -10 -10 -10h-73q-6 0 -6 -6v-564q0 -6 6 -6h73q10 0 10 -10v-104q0 -10 -10 -10h-213z" glyph-name="bracketleft" horiz-adv-x="312" unicode="["/><glyph d="M261 -12q-10 0 -13 10l-212 684q-3 10 7 10h143q10 0 13 -10l212 -684q3 -10 -7 -10h-143z" glyph-name="backslash" horiz-adv-x="446" unicode="\"/><glyph d="M35 -84q-10 0 -10 10v104q0 10 10 10h73q6 0 6 6v564q0 6 -6 6h-73q-10 0 -10 10v104q0 10 10 10h213q10 0 10 -10v-804q0 -10 -10 -10h-213z" glyph-name="bracketright" horiz-adv-x="312" unicode="]"/><glyph d="M376 243q-10 0 -14 10l-80 224h-2l-80 -224q-3 -10 -13 -10h-135q-10 0 -7 10l167 417q5 10 14 10h111q9 0 14 -10l166 -417q5 -10 -6 -10h-135z" glyph-name="asciicircum" unicode="^"/><glyph d="M0 -169v111h550v-111h-550z" glyph-name="underscore" horiz-adv-x="550" unicode="_"/><glyph d="M243 546q-10 0 -17 10l-103 136q-3 4 -1.5 7t6.5 3h139q11 0 17 -10l80 -136q5 -10 -5 -10h-116z" glyph-name="grave" horiz-adv-x="489" unicode="`"/><glyph d="M334 0q-10 0 -10 10v28h-1q-20 -23 -51.5 -36.5t-79.5 -13.5q-31 0 -59.5 8.5t-50.5 27t-35 47t-13 67.5q0 41 15.5 71t43 50t65.5 29.5t83 9.5h77q6 0 6 6v13q0 27 -19 39t-75 12q-33 0 -60.5 -8t-44.5 -20q-9 -5 -13 3l-52 92q-4 10 3 16q33 23 81 35.5t108 12.5 q64 0 108 -11t71 -33.5t39 -56.5t12 -81v-307q0 -10 -10 -10h-138zM248 108q76 0 76 52v30q0 6 -6 6h-59q-68 0 -68 -46q0 -42 57 -42z" glyph-name="a" horiz-adv-x="532" unicode="a"/><glyph d="M347 -12q-47 0 -77.5 16t-47.5 42h-1v-36q0 -10 -10 -10h-148q-10 0 -10 10v660q0 10 10 10h148q10 0 10 -10v-229h1q17 26 47.5 42t77.5 16q62 0 102 -30t59 -87q9 -29 13 -61t4 -78q0 -45 -4 -77t-13 -61q-19 -57 -59 -87t-102 -30zM288 126q45 0 60 41q4 12 5.5 28 t1.5 48t-1.5 48.5t-5.5 28.5q-15 41 -60 41q-46 0 -59 -41q-5 -12 -6.5 -28.5t-1.5 -48.5t1.5 -48t6.5 -28q13 -41 59 -41z" glyph-name="b" horiz-adv-x="557" unicode="b"/><glyph d="M263 -12q-79 0 -136.5 36t-80.5 107q-8 21 -11 47.5t-3 64.5t3 65t11 48q23 71 80.5 107t136.5 36q74 0 126.5 -32t75.5 -80q4 -9 -4 -14l-112 -58q-4 -2 -8.5 -2t-6.5 5q-13 23 -28 33t-38 10q-44 0 -59 -42q-4 -11 -5.5 -27.5t-1.5 -48.5q0 -31 1.5 -47.5t5.5 -27.5 q15 -42 59 -42q23 0 38 10t28 33q2 5 6.5 5t8.5 -2l112 -58q8 -5 4 -14q-23 -48 -75.5 -80t-126.5 -32z" glyph-name="c" horiz-adv-x="493" unicode="c"/><glyph d="M346 0q-10 0 -10 10v36h-1q-17 -26 -47.5 -42t-77.5 -16q-62 0 -102 30t-59 87q-9 29 -13 61t-4 77q0 46 4 78t13 61q19 57 59 87t102 30q47 0 77.5 -16t47.5 -42h1v229q0 10 10 10h148q10 0 10 -10v-660q0 -10 -10 -10h-148zM269 126q46 0 59 41q5 12 6.5 28t1.5 48 t-1.5 48.5t-6.5 28.5q-13 41 -59 41q-45 0 -60 -41q-4 -12 -5.5 -28.5t-1.5 -48.5t1.5 -48t5.5 -28q15 -41 60 -41z" glyph-name="d" horiz-adv-x="557" unicode="d"/><glyph d="M275 -12q-90 0 -147.5 37.5t-79.5 105.5q-8 22 -12 48t-4 64q0 39 4 65.5t11 47.5q23 69 79.5 106t138.5 37q88 0 143.5 -37t76.5 -104q4 -11 7 -24.5t5 -31t3 -41t1 -55.5q0 -10 -11 -10h-289q-6 0 -6 -6q1 -5 1.5 -10t2.5 -10q8 -26 33.5 -39.5t60.5 -13.5q61 0 109 39 q8 7 15 0l71 -73q4 -3 3.5 -7.5t-4.5 -7.5q-38 -37 -92 -58.5t-120 -21.5zM333 298q6 0 6 6q0 19 -4 30q-14 44 -68 44q-26 0 -43.5 -11.5t-24.5 -32.5q-2 -6 -3 -13t-1 -17q0 -6 6 -6h132z" glyph-name="e" horiz-adv-x="533" unicode="e"/><glyph d="M84 0q-10 0 -10 10v351q0 6 -6 6h-28q-10 0 -10 10v100q0 10 10 10h28q6 0 6 6v14q0 93 42.5 133t137.5 40h66q10 0 10 -10v-108q0 -10 -10 -10h-29q-30 0 -40 -9.5t-10 -34.5v-15q0 -6 6 -6h71q10 0 10 -10v-100q0 -10 -10 -10h-71q-6 0 -6 -6v-351q0 -10 -10 -10h-147z" glyph-name="f" horiz-adv-x="351" unicode="f"/><glyph d="M240 -192q-29 0 -57.5 6t-54 16.5t-46 24.5t-33.5 29q-6 7 1 15l84 86q7 7 15 0q22 -18 44.5 -28.5t51.5 -10.5q45 0 65.5 24t20.5 75v37h-1q-16 -26 -47.5 -41.5t-76.5 -15.5q-122 0 -160 117q-8 25 -12 53.5t-4 66.5t4 66t12 54q19 57 59.5 87t100.5 30q45 0 76.5 -16 t47.5 -42h1v36q0 10 10 10h148q10 0 10 -10v-402q0 -141 -66 -204t-193 -63zM265 162q46 0 59 43q3 11 5 23.5t2 33.5q0 20 -2 33t-5 24q-7 21 -21 31.5t-38 10.5q-45 0 -58 -42q-4 -11 -5.5 -24t-1.5 -33q0 -21 1.5 -33.5t5.5 -23.5q13 -43 58 -43z" glyph-name="g" horiz-adv-x="552" unicode="g"/><glyph d="M350 0q-10 0 -10 10v278q0 32 -14.5 51.5t-44.5 19.5q-29 0 -44.5 -19t-15.5 -52v-278q0 -10 -10 -10h-148q-10 0 -10 10v660q0 10 10 10h148q10 0 10 -10v-228h1q17 24 48 40.5t77 16.5q42 0 72 -13.5t50 -37.5t29.5 -57.5t9.5 -73.5v-307q0 -10 -10 -10h-148z" glyph-name="h" horiz-adv-x="558" unicode="h"/><glyph d="M63 550q-10 0 -10 10v110q0 10 10 10h148q10 0 10 -10v-110q0 -10 -10 -10h-148zM63 0q-10 0 -10 10v467q0 10 10 10h148q10 0 10 -10v-467q0 -10 -10 -10h-148z" glyph-name="i" horiz-adv-x="274" unicode="i"/><glyph d="M63 550q-10 0 -10 10v110q0 10 10 10h148q10 0 10 -10v-110q0 -10 -10 -10h-148zM-16 -180q-10 0 -10 10v118q0 10 10 10h15q30 0 42 10t12 45v464q0 10 10 10h148q10 0 10 -10v-464q0 -104 -51.5 -148.5t-147.5 -44.5h-38z" glyph-name="j" horiz-adv-x="274" unicode="j"/><glyph d="M366 0q-11 0 -15 10l-95 188l-36 -48v-140q0 -10 -10 -10h-147q-10 0 -10 10v660q0 10 10 10h147q10 0 10 -10v-342l114 149q9 10 19 10h153q5 0 6 -3.5t-2 -6.5l-143 -166l163 -301q2 -4 1 -7t-6 -3h-159z" glyph-name="k" horiz-adv-x="540" unicode="k"/><glyph d="M220 -6q-91 0 -130 39.5t-39 131.5v505q0 10 10 10h148q10 0 10 -10v-488q0 -48 41 -48h21q10 0 10 -10v-120q0 -10 -10 -10h-61z" glyph-name="l" horiz-adv-x="315" unicode="l"/><glyph d="M637 0q-10 0 -10 10v278q0 32 -15 51.5t-45 19.5q-28 0 -43.5 -19t-15.5 -52v-278q0 -10 -10 -10h-148q-10 0 -10 10v278q0 32 -14.5 51.5t-44.5 19.5q-29 0 -44.5 -19t-15.5 -52v-278q0 -10 -10 -10h-148q-10 0 -10 10v467q0 10 10 10h148q10 0 10 -10v-35h1 q17 24 48 40.5t77 16.5q45 0 76.5 -15.5t51.5 -44.5h1q25 27 61.5 43.5t87.5 16.5q87 0 128.5 -49t41.5 -133v-307q0 -10 -10 -10h-148z" glyph-name="m" horiz-adv-x="845" unicode="m"/><glyph d="M350 0q-10 0 -10 10v278q0 32 -14.5 51.5t-44.5 19.5q-29 0 -44.5 -19t-15.5 -52v-278q0 -10 -10 -10h-148q-10 0 -10 10v467q0 10 10 10h148q10 0 10 -10v-35h1q17 24 48 40.5t77 16.5q42 0 72 -13.5t50 -37.5t29.5 -57.5t9.5 -73.5v-307q0 -10 -10 -10h-148z" glyph-name="n" horiz-adv-x="558" unicode="n"/><glyph d="M269 -12q-81 0 -140 35.5t-82 105.5q-8 27 -11.5 54.5t-3.5 59.5q0 33 3.5 60.5t11.5 54.5q23 70 82 105.5t140 35.5t140 -35.5t82 -105.5q8 -27 11.5 -54.5t3.5 -60.5q0 -32 -3.5 -59.5t-11.5 -54.5q-23 -70 -82 -105.5t-140 -35.5zM269 126q45 0 60 41q4 14 5.5 29.5 t1.5 46.5t-1.5 47t-5.5 30q-15 41 -60 41t-60 -41q-4 -14 -5.5 -30t-1.5 -47t1.5 -46.5t5.5 -29.5q15 -41 60 -41z" glyph-name="o" horiz-adv-x="538" unicode="o"/><glyph d="M63 -180q-10 0 -10 10v647q0 10 10 10h148q10 0 10 -10v-36h1q17 26 47.5 42t77.5 16q62 0 102 -30t59 -87q9 -29 13 -61t4 -78q0 -45 -4 -77t-13 -61q-19 -57 -59 -87t-102 -30q-47 0 -77.5 16t-47.5 42h-1v-216q0 -10 -10 -10h-148zM288 126q45 0 60 41q4 12 5.5 28 t1.5 48t-1.5 48.5t-5.5 28.5q-15 41 -60 41q-46 0 -59 -41q-5 -12 -6.5 -28.5t-1.5 -48.5t1.5 -48t6.5 -28q13 -41 59 -41z" glyph-name="p" horiz-adv-x="557" unicode="p"/><glyph d="M346 -180q-10 0 -10 10v216h-1q-17 -26 -47.5 -42t-77.5 -16q-62 0 -102 30t-59 87q-9 29 -13 61t-4 77q0 46 4 78t13 61q19 57 59 87t102 30q47 0 77.5 -16t47.5 -42h1v36q0 10 10 10h148q10 0 10 -10v-647q0 -10 -10 -10h-148zM269 126q46 0 59 41q5 12 6.5 28t1.5 48 t-1.5 48.5t-6.5 28.5q-13 41 -59 41q-45 0 -60 -41q-4 -12 -5.5 -28.5t-1.5 -48.5t1.5 -48t5.5 -28q15 -41 60 -41z" glyph-name="q" horiz-adv-x="557" unicode="q"/><glyph d="M63 0q-10 0 -10 10v467q0 10 10 10h148q10 0 10 -10v-43h1q17 32 50 48.5t76 16.5t67 -19q8 -4 5 -13l-57 -141q-5 -6 -14 -1q-37 23 -71 19q-29 -2 -43 -24t-14 -61v-249q0 -10 -10 -10h-148z" glyph-name="r" horiz-adv-x="429" unicode="r"/><glyph d="M255 -12q-77 0 -135.5 21.5t-96.5 53.5q-8 7 -1 14l71 85q6 6 14 2q79 -52 158 -52q32 0 47 10t15 25q0 13 -11.5 20t-49.5 12l-54 5q-81 9 -124.5 47.5t-43.5 107.5q0 72 55 116t155 44q67 0 121 -17.5t89 -43.5q7 -6 2 -15l-63 -80q-6 -8 -15 -3q-27 17 -62 27.5 t-74 10.5q-26 0 -38.5 -8t-12.5 -22q0 -12 10.5 -19.5t45.5 -10.5l54 -6q95 -10 134.5 -51t38.5 -103q-1 -77 -60.5 -123.5t-168.5 -46.5z" glyph-name="s" horiz-adv-x="512" unicode="s"/><glyph d="M243 -6q-96 0 -136.5 43t-40.5 141v183q0 6 -6 6h-28q-10 0 -10 10v100q0 10 10 10h28q6 0 6 6v127q0 10 10 10h146q10 0 10 -10v-127q0 -6 6 -6h61q10 0 10 -10v-100q0 -10 -10 -10h-61q-6 0 -6 -6v-176q0 -29 10 -40t35 -11h22q10 0 10 -10v-120q0 -10 -10 -10h-56z" glyph-name="t" horiz-adv-x="341" unicode="t"/><glyph d="M344 0q-10 0 -10 10v35h-1q-18 -25 -48.5 -41t-75.5 -16q-42 0 -72 13.5t-49.5 37.5t-29 57.5t-9.5 73.5v307q0 10 10 10h148q10 0 10 -10v-278q0 -32 15 -51.5t44 -19.5t43.5 19t14.5 52v278q0 10 10 10h148q10 0 10 -10v-467q0 -10 -10 -10h-148z" glyph-name="u" horiz-adv-x="555" unicode="u"/><glyph d="M196 0q-9 0 -12 10l-174 467q-3 10 8 10h154q11 0 14 -10l81 -260h2l78 260q3 10 14 10h153q11 0 8 -10l-174 -467q-3 -10 -13 -10h-139z" glyph-name="v" horiz-adv-x="532" unicode="v"/><glyph d="M475 0q-9 0 -12 10l-75 250h-2l-76 -250q-3 -10 -12 -10h-116q-9 0 -12 10l-158 466q-4 11 8 11h149q11 0 14 -10l67 -257h2l75 257q3 10 13 10h95q11 0 14 -10l75 -257h2l63 257q3 10 15 10h149q11 0 7 -11l-157 -466q-3 -10 -12 -10h-116z" glyph-name="w" horiz-adv-x="772" unicode="w"/><glyph d="M356 0q-10 0 -16 9l-73 115h-1l-73 -115q-6 -9 -16 -9h-158q-5 0 -6.5 3t0.5 7l163 242l-151 225q-2 4 -0.5 7t7.5 3h159q11 0 16 -9l60 -97h1l61 97q6 9 16 9h157q6 0 7.5 -3t-0.5 -7l-151 -225l164 -242q2 -4 0 -7t-7 -3h-159z" glyph-name="x" horiz-adv-x="535" unicode="x"/><glyph d="M96 -180q-10 0 -10 10v118q0 10 10 10h25q24 0 38 9t22 32l11 31l-183 447q-4 10 7 10h157q9 0 12 -10l84 -244h2l78 244q3 10 13 10h153q11 0 7 -10l-211 -532q-14 -36 -30.5 -60.5t-37.5 -38.5t-48 -20t-62 -6h-37z" glyph-name="y" horiz-adv-x="531" unicode="y"/><glyph d="M50 0q-10 0 -10 10v108q0 5 3 10l215 223v3h-197q-10 0 -10 10v113q0 10 10 10h385q10 0 10 -10v-113q0 -6 -3 -10l-214 -218v-3h207q10 0 10 -10v-113q0 -10 -10 -10h-396z" glyph-name="z" horiz-adv-x="494" unicode="z"/><glyph d="M256 -84q-133 0 -133 126v138q0 44 -16.5 64.5t-52.5 20.5q-10 0 -10 10v109q0 10 10 10q36 0 52.5 20t16.5 64v136q0 126 133 126h74q10 0 10 -10v-104q0 -10 -10 -10h-24q-42 0 -42 -44v-113q0 -56 -16.5 -85t-55.5 -44v-1q39 -15 55.5 -44t16.5 -85v-116q0 -44 42 -44 h24q10 0 10 -10v-104q0 -10 -10 -10h-74z" glyph-name="braceleft" horiz-adv-x="367" unicode="{"/><glyph d="M106 -84q-10 0 -10 10v804q0 10 10 10h125q10 0 10 -10v-804q0 -10 -10 -10h-125z" glyph-name="bar" horiz-adv-x="337" unicode="|"/><glyph d="M37 -84q-10 0 -10 10v104q0 10 10 10h24q42 0 42 44v116q0 56 16.5 85t55.5 44v1q-39 15 -55.5 44t-16.5 85v113q0 44 -42 44h-24q-10 0 -10 10v104q0 10 10 10h74q133 0 133 -126v-136q0 -44 16.5 -64t52.5 -20q10 0 10 -10v-109q0 -10 -10 -10q-36 0 -52.5 -20.5 t-16.5 -64.5v-138q0 -126 -133 -126h-74z" glyph-name="braceright" horiz-adv-x="367" unicode="}"/><glyph d="M370 183q-33 0 -57 9.5t-45 22.5q-17 11 -31.5 18t-31.5 7q-22 0 -37 -13t-26 -33q-2 -4 -6 -5t-8 2l-81 51q-7 4 -4 14q22 48 61 80t88 32q34 0 57.5 -9.5t44.5 -23.5q17 -11 32 -18t32 -7q22 0 36.5 13t25.5 33q5 9 14 4l82 -52q8 -5 3 -14q-21 -48 -60.5 -79.5 t-88.5 -31.5z" glyph-name="asciitilde" unicode="~"/><glyph d="M211 277q10 0 10 -10l24 -450q0 -10 -10 -10h-153q-10 0 -10 10l24 450q0 10 10 10h105zM237 351q0 -10 -10 -10h-138q-10 0 -10 10v126q0 10 10 10h138q10 0 10 -10v-126z" glyph-name="exclamdown" horiz-adv-x="317" unicode="¡"/><glyph d="M230 243q0 -31 2 -47.5t6 -27.5q13 -42 64 -42q25 0 40.5 10t27.5 33q2 5 6.5 5t9.5 -2l112 -58q8 -5 4 -14q-20 -41 -61.5 -70.5t-99.5 -38.5v-78q0 -10 -10 -10h-79q-10 0 -10 10v80q-61 10 -104.5 44.5t-62.5 93.5q-7 21 -10.5 47.5t-3.5 64.5t3.5 65t10.5 48 q19 58 62.5 92.5t104.5 45.5v79q0 10 10 10h79q10 0 10 -10v-77q58 -9 99.5 -39t61.5 -70q4 -9 -4 -14l-112 -58q-5 -2 -9.5 -2t-6.5 5q-12 23 -27.5 33t-40.5 10q-51 0 -64 -42q-4 -11 -6 -27.5t-2 -48.5z" glyph-name="cent" unicode="¢"/><glyph d="M78 0q-10 0 -10 10v116q0 8 5 13q17 15 26 31.5t9 48.5v38q0 6 -6 6h-34q-10 0 -10 10v96q0 10 10 10h34q6 0 6 6v105q0 97 54.5 149.5t150.5 52.5q42 0 75.5 -11.5t58.5 -31.5t39.5 -47.5t19.5 -58.5q2 -10 -8 -12l-129 -27q-10 -2 -12 8q-8 42 -42 42q-40 0 -40 -52 v-117q0 -6 6 -6h125q10 0 10 -10v-96q0 -10 -10 -10h-125q-6 0 -6 -6v-27q0 -60 -29 -89v-2h251q10 0 10 -10v-119q0 -10 -10 -10h-419z" glyph-name="sterling" unicode="£"/><glyph d="M448 36q-8 -6 -14 0l-61 61q-42 -21 -92 -21q-51 0 -91 21l-60 -60q-7 -7 -14 0l-84 85q-6 6 0 14l60 59q-19 39 -19 89q0 46 19 89l-60 61q-8 6 0 14l83 84q8 6 14 0l61 -61q20 10 43 15.5t48 5.5t48 -5.5t43 -15.5l61 61q7 7 14 0l84 -84q7 -7 0 -14l-62 -62 q20 -42 20 -88t-19 -89l61 -60q8 -8 0 -14zM281 195q38 0 62.5 25.5t24.5 63.5t-24.5 63.5t-62.5 25.5t-62 -25.5t-24 -63.5t24 -63.5t62 -25.5z" glyph-name="currency" unicode="¤"/><glyph d="M208 0q-10 0 -10 10v112q0 6 -6 6h-112q-10 0 -10 10v62q0 10 10 10h112q6 0 6 6v29q0 6 -6 6h-112q-10 0 -10 10v62q0 10 10 10h87v2l-145 335q-4 10 7 10h156q11 0 15 -10l82 -237h3l81 237q3 10 15 10h153q11 0 7 -10l-145 -335v-2h87q10 0 10 -10v-62q0 -10 -10 -10 h-112q-6 0 -6 -6v-29q0 -6 6 -6h112q10 0 10 -10v-62q0 -10 -10 -10h-112q-6 0 -6 -6v-112q0 -10 -10 -10h-147z" glyph-name="yen" unicode="¥"/><glyph d="M106 388q-10 0 -10 10v332q0 10 10 10h125q10 0 10 -10v-332q0 -10 -10 -10h-125zM106 -84q-10 0 -10 10v336q0 10 10 10h125q10 0 10 -10v-336q0 -10 -10 -10h-125z" glyph-name="brokenbar" horiz-adv-x="337" unicode="¦"/><glyph d="M262 -194q-46 0 -81.5 12t-60.5 32.5t-39 47.5t-17 58q-2 10 7 11l124 19q10 2 11 -8q2 -20 14.5 -34t38.5 -14t39 12.5t13 33.5q0 26 -19.5 44t-77.5 34q-83 23 -123 70.5t-40 125.5q0 49 22.5 86.5t60.5 61.5v2q-61 44 -61 127q0 34 13.5 64.5t39 53t62 36t81.5 13.5 q46 0 81.5 -13t59.5 -34t37.5 -48.5t16.5 -56.5q2 -10 -7 -11l-122 -18q-9 -2 -11 7q-3 23 -16 36.5t-36 13.5t-36.5 -12.5t-13.5 -32.5q0 -26 21 -43t75 -32q80 -23 121 -70t41 -126q0 -51 -24.5 -89t-58.5 -59v-2q33 -23 48 -55.5t15 -77.5q0 -35 -14 -65t-39.5 -52.5 t-62 -35t-82.5 -12.5zM266 181q30 0 47.5 19.5t17.5 51.5t-17.5 51.5t-47.5 19.5q-31 0 -48.5 -19.5t-17.5 -51.5t17.5 -51.5t48.5 -19.5z" glyph-name="section" horiz-adv-x="531" unicode="§"/><glyph d="M293 550q-10 0 -10 10v110q0 10 10 10h108q10 0 10 -10v-110q0 -10 -10 -10h-108zM88 550q-10 0 -10 10v110q0 10 10 10h108q10 0 10 -10v-110q0 -10 -10 -10h-108z" glyph-name="dieresis" horiz-adv-x="489" unicode="¨"/><glyph d="M397 -13q-75 0 -139.5 26.5t-112 74t-74 112t-26.5 139.5q0 76 26.5 140.5t74 111.5t112 74t139.5 27t139.5 -27t112 -74t74 -111.5t26.5 -140.5q0 -75 -26.5 -139.5t-74 -112t-112 -74t-139.5 -26.5zM397 71q58 0 107 20t84 56t55 85t20 107t-20 107.5t-55 85.5t-84 56 t-107 20t-107 -20t-84 -56t-55 -85.5t-20 -107.5t20 -107t55 -85t84 -56t107 -20zM404 145q-62 0 -108.5 27.5t-64.5 84.5q-5 15 -7.5 34t-2.5 50q0 30 2.5 49t7.5 34q18 57 64.5 84.5t108.5 27.5q57 0 98.5 -23.5t59.5 -59.5q2 -4 1.5 -7.5t-5.5 -5.5l-85 -44q-9 -4 -14 4 q-10 17 -22 23.5t-29 6.5q-18 0 -31.5 -8.5t-18.5 -25.5q-2 -8 -3.5 -18.5t-1.5 -36.5t1.5 -37t3.5 -19q5 -17 18.5 -25.5t31.5 -8.5q17 0 29 7t22 24q5 7 14 3l85 -43q10 -5 4 -14q-18 -35 -59.5 -59t-98.5 -24z" glyph-name="copyright" horiz-adv-x="794" unicode="©"/><glyph d="M229 392q-10 0 -10 10v14h-2q-24 -30 -80 -30q-20 0 -38.5 5t-32.5 16t-22.5 27.5t-8.5 39.5q0 47 34.5 72t96.5 25h46q6 0 6 6v5q0 12 -12 18.5t-44 6.5q-19 0 -37.5 -5t-29.5 -13q-9 -6 -14 4l-31 53q-5 9 3 14q23 14 53.5 21.5t68.5 7.5q81 0 116 -25.5t35 -82.5v-179 q0 -10 -10 -10h-87zM171 461q47 0 47 29v10q0 6 -6 6h-38q-18 0 -26 -6.5t-8 -16.5q0 -22 31 -22z" glyph-name="ordfeminine" horiz-adv-x="367" unicode="ª"/><glyph d="M282 257q-7 7 0 14l237 234q3 3 6.5 2t3.5 -6v-138q0 -6 -2.5 -10t-7.5 -9l-77 -76q-4 -4 0 -8l77 -76q5 -5 7.5 -9t2.5 -10v-138q0 -5 -3.5 -6t-6.5 2zM22 257q-7 7 0 14l236 234q3 3 6.5 2t3.5 -6v-138q0 -10 -10 -19l-76 -76q-4 -4 0 -8l76 -76q10 -9 10 -19v-138 q0 -5 -3.5 -6t-6.5 2z" glyph-name="guillemotleft" horiz-adv-x="586" unicode="«"/><glyph d="M382 76q-10 0 -10 10v114q0 6 -6 6h-309q-10 0 -10 10v120q0 10 10 10h448q10 0 10 -10v-250q0 -10 -10 -10h-123z" glyph-name="logicalnot" unicode="¬"/><glyph d="M218 301q-41 0 -76.5 14.5t-61.5 40.5t-40.5 61t-14.5 76q0 40 14.5 75t40.5 61t61.5 40.5t76.5 14.5t76.5 -14.5t61.5 -40.5t41 -61t15 -75q0 -41 -15 -76t-41 -61t-61.5 -40.5t-76.5 -14.5zM218 342q32 0 59.5 11t47.5 31t31 48t11 61t-11 60.5t-31 47.5t-47.5 31 t-59.5 11t-59 -11t-47 -31t-31 -47.5t-11 -60.5t11 -61t31 -48t47 -31t59 -11zM140 388q-7 0 -7 7v198q0 7 7 7h93q41 0 62 -19t21 -51q0 -42 -37 -61l37 -74q2 -7 -5 -7h-55q-7 0 -10 7l-30 65h-15q-4 0 -4 -4v-61q0 -7 -7 -7h-50zM227 509q25 0 25 21q0 20 -25 20h-26 q-4 0 -4 -4v-32q0 -5 4 -5h26z" glyph-name="registered" horiz-adv-x="437" unicode="®"/><glyph d="M94 562q-10 0 -10 10v91q0 10 10 10h301q10 0 10 -10v-91q0 -10 -10 -10h-301z" glyph-name="macron" horiz-adv-x="489" unicode="¯"/><glyph d="M203 378q-34 0 -63 12t-50 33t-33 50t-12 63t12 63t33 50t50 33t63 12t63 -12t50.5 -33t33.5 -50t12 -63t-12 -63t-33.5 -50t-50.5 -33t-63 -12zM203 475q26 0 43 17t17 44t-17 44.5t-43 17.5t-42.5 -17.5t-16.5 -44.5t16.5 -44t42.5 -17z" glyph-name="degree" horiz-adv-x="407" unicode="°"/><glyph d="M219 184q-10 0 -10 10v147q0 6 -6 6h-146q-10 0 -10 10v119q0 10 10 10h146q6 0 6 6v147q0 10 10 10h124q10 0 10 -10v-147q0 -6 6 -6h146q10 0 10 -10v-119q0 -10 -10 -10h-146q-6 0 -6 -6v-147q0 -10 -10 -10h-124zM57 0q-10 0 -10 10v120q0 10 10 10h448q10 0 10 -10 v-120q0 -10 -10 -10h-448z" glyph-name="plusminus" unicode="±"/><glyph d="M45 430q-10 0 -10 10v76q0 11 8 18l146 137q11 11 17 21.5t6 23.5q0 14 -8 22.5t-23 8.5q-14 0 -23.5 -8.5t-11.5 -27.5q-2 -11 -11 -9l-91 13q-9 1 -9 11q1 23 11.5 44.5t30 37.5t47.5 25.5t64 9.5q30 0 56 -8.5t45.5 -24.5t31 -39.5t11.5 -53.5q0 -33 -13.5 -57.5 t-40.5 -49.5l-84 -78v-1h128q10 0 10 -10v-81q0 -10 -10 -10h-277z" glyph-name="twosuperior" horiz-adv-x="366" unicode="²"/><glyph d="M184 423q-62 0 -103 26t-50 76q-2 10 8 12l90 14q9 1 13 -7q5 -11 14.5 -18t23.5 -7q17 0 26.5 9t9.5 26q0 35 -43 35h-13q-10 0 -10 10v74q0 10 10 10h13q16 0 26 8.5t10 23.5q0 32 -32 32q-14 0 -21.5 -6t-12.5 -17q-3 -9 -12 -7l-90 14q-10 2 -8 11q9 44 46.5 72.5 t102.5 28.5q71 0 109 -32t38 -82q0 -23 -11 -44.5t-34 -37.5v-1q20 -9 36 -32t16 -62q0 -59 -41 -94t-111 -35z" glyph-name="threesuperior" horiz-adv-x="366" unicode="³"/><glyph d="M130 546q-10 0 -5 10l80 136q6 10 17 10h139q5 0 6.5 -3t-1.5 -7l-103 -136q-8 -10 -17 -10h-116z" glyph-name="acute" horiz-adv-x="489" unicode="´"/><glyph d="M348 0q-10 0 -10 10v37h-1q-11 -18 -30.5 -32.5t-46.5 -18.5q-13 -1 -22 1.5t-16 5.5h-1v-173q0 -10 -10 -10h-148q-10 0 -10 10v647q0 10 10 10h148q10 0 10 -10v-278q0 -33 15 -52t44 -19t43.5 19t14.5 52v278q0 10 10 10h148q10 0 10 -10v-467q0 -10 -10 -10h-148z" glyph-name="micron" horiz-adv-x="559" unicode="µ"/><glyph d="M486 -180q-10 0 -10 10v730q0 6 -6 6h-68q-6 0 -6 -6v-730q0 -10 -10 -10h-113q-10 0 -10 10v386q-46 3 -85 21t-67.5 48t-44.5 71.5t-16 91.5q0 51 17 93.5t48.5 73t77.5 48t103 17.5h304q10 0 10 -10v-840q0 -10 -10 -10h-114z" glyph-name="paragraph" horiz-adv-x="678" unicode="¶"/><glyph d="M62 186q-10 0 -10 10v138q0 10 10 10h139q10 0 10 -10v-138q0 -10 -10 -10h-139z" glyph-name="periodcentered" horiz-adv-x="263" unicode="·"/><glyph d="M161 -166q-10 0 -7 10l62 156q4 10 14 10h101q10 0 7 -10l-46 -156q-3 -10 -16 -10h-115z" glyph-name="cedilla" horiz-adv-x="489" unicode="¸"/><glyph d="M166 430q-10 0 -10 10v270h-2l-66 -38q-4 -2 -7 -0.5t-3 6.5v97q0 10 9 15l62 40q10 6 17 6h102q10 0 10 -10v-386q0 -10 -10 -10h-102z" glyph-name="onesuperior" horiz-adv-x="366" unicode="¹"/><glyph d="M194 383q-59 0 -97 23t-52 67q-4 12 -6 27t-2 36t2 36t6 27q14 44 52 67t97 23q58 0 96 -23t52 -67q4 -12 6 -27t2 -36t-2 -36t-6 -27q-14 -44 -52 -67t-96 -23zM194 473q27 0 37 26q2 5 2.5 13.5t0.5 23.5t-0.5 23.5t-2.5 13.5q-10 26 -37 26q-28 0 -38 -26 q-2 -5 -2.5 -13.5t-0.5 -23.5t0.5 -23.5t2.5 -13.5q10 -26 38 -26z" glyph-name="ordmasculine" horiz-adv-x="387" unicode="º"/><glyph d="M328 23q-3 -3 -6.5 -2t-3.5 6v138q0 10 10 19l76 76q4 4 0 8l-76 76q-10 9 -10 19v138q0 5 3.5 6t6.5 -2l236 -234q7 -7 0 -14zM67 23q-3 -3 -6.5 -2t-3.5 6v138q0 6 2.5 10t7.5 9l77 76q4 4 0 8l-77 76q-5 5 -7.5 9t-2.5 10v138q0 5 3.5 6t6.5 -2l236 -234q7 -7 0 -14z" glyph-name="guillemotright" horiz-adv-x="586" unicode="»"/><glyph d="M172 274q-10 0 -10 10v270h-2l-66 -38q-4 -2 -7 -0.5t-3 6.5v97q0 10 9 15l62 40q10 6 17 6h102q10 0 10 -10v-386q0 -10 -10 -10h-102zM691 0q-10 0 -10 10v36q0 6 -6 6h-166q-10 0 -10 10v85q0 10 4 18l107 231q4 10 15 10h107q11 0 7 -10l-111 -241v-2h47q6 0 6 6v57 q0 10 10 10h93q10 0 10 -10v-57q0 -6 5 -6h14q10 0 10 -10v-81q0 -10 -10 -10h-13q-6 0 -6 -6v-36q0 -10 -10 -10h-93zM185 -12q-5 0 -5.5 3t1.5 7l395 684q6 10 16 10h102q5 0 5.5 -3t-1.5 -7l-395 -684q-6 -10 -16 -10h-102z" glyph-name="onequarter" horiz-adv-x="908" unicode="¼"/><glyph d="M172 274q-10 0 -10 10v270h-2l-66 -38q-4 -2 -7 -0.5t-3 6.5v97q0 10 9 15l62 40q10 6 17 6h102q10 0 10 -10v-386q0 -10 -10 -10h-102zM563 0q-10 0 -10 10v76q0 11 8 18l146 137q11 11 17 21.5t6 23.5q0 14 -8 22.5t-23 8.5q-14 0 -23.5 -8.5t-11.5 -27.5 q-2 -11 -11 -9l-91 13q-9 1 -9 11q1 23 11.5 44.5t30 37.5t47.5 25.5t64 9.5q30 0 56 -8.5t45.5 -24.5t31 -39.5t11.5 -53.5q0 -33 -13.5 -57.5t-40.5 -49.5l-84 -78v-1h128q10 0 10 -10v-81q0 -10 -10 -10h-277zM185 -12q-5 0 -5.5 3t1.5 7l395 684q6 10 16 10h102 q5 0 5.5 -3t-1.5 -7l-395 -684q-6 -10 -16 -10h-102z" glyph-name="onehalf" horiz-adv-x="934" unicode="½"/><glyph d="M753 0q-10 0 -10 10v36q0 6 -6 6h-166q-10 0 -10 10v85q0 10 4 18l107 231q4 10 15 10h107q11 0 7 -10l-111 -241v-2h47q6 0 6 6v57q0 10 10 10h93q10 0 10 -10v-57q0 -6 5 -6h14q10 0 10 -10v-81q0 -10 -10 -10h-13q-6 0 -6 -6v-36q0 -10 -10 -10h-93zM248 -12 q-5 0 -5.5 3t1.5 7l395 684q6 10 16 10h102q5 0 5.5 -3t-1.5 -7l-395 -684q-6 -10 -16 -10h-102zM237 267q-62 0 -103 26t-50 76q-2 10 8 12l90 14q9 1 13 -7q5 -11 14.5 -18t23.5 -7q17 0 26.5 9t9.5 26q0 35 -43 35h-13q-10 0 -10 10v74q0 10 10 10h13q16 0 26 8.5 t10 23.5q0 32 -32 32q-14 0 -21.5 -6t-12.5 -17q-3 -9 -12 -7l-90 14q-10 2 -8 11q9 44 46.5 72.5t102.5 28.5q71 0 109 -32t38 -82q0 -23 -11 -44.5t-34 -37.5v-1q20 -9 36 -32t16 -62q0 -59 -41 -94t-111 -35z" glyph-name="threequarters" horiz-adv-x="970" unicode="¾"/><glyph d="M318 277q10 0 10 -10v-41q0 -27 -7 -46t-24 -38l-60 -71q-25 -26 -34.5 -43.5t-9.5 -36.5q0 -24 15 -40t41 -16q52 0 65 61q2 10 11 8l129 -18q10 -1 8 -11q-5 -40 -22.5 -73t-45 -57t-65.5 -37t-84 -13q-48 0 -88 15t-68 40.5t-43.5 59.5t-15.5 73q0 45 17.5 77.5 t50.5 67.5l53 64q13 14 17 26t4 32v17q0 10 10 10h136zM328 351q0 -10 -10 -10h-138q-10 0 -10 10v126q0 10 10 10h138q10 0 10 -10v-126z" glyph-name="questiondown" horiz-adv-x="483" unicode="¿"/><glyph d="M245 670q3 10 13 10h163q10 0 13 -10l230 -660q3 -10 -7 -10h-165q-10 0 -13 10l-32 105h-221l-32 -105q-3 -10 -13 -10h-164q-10 0 -7 10zM403 261l-63 212h-3l-66 -212h132zM285 747q-11 0 -20 9l-128 123q-3 4 -1.5 7t6.5 3h142q10 0 18 -10l102 -122q3 -4 2 -7t-6 -3 h-115z" glyph-name="Agrave" horiz-adv-x="674" unicode="À"/><glyph d="M245 670q3 10 13 10h163q10 0 13 -10l230 -660q3 -10 -7 -10h-165q-10 0 -13 10l-32 105h-221l-32 -105q-3 -10 -13 -10h-164q-10 0 -7 10zM403 261l-63 212h-3l-66 -212h132zM277 747q-5 0 -6 3t2 7l102 122q8 10 18 10h142q5 0 6.5 -3t-1.5 -7l-128 -123q-9 -9 -20 -9 h-115z" glyph-name="Aacute" horiz-adv-x="674" unicode="Á"/><glyph d="M245 670q3 10 13 10h163q10 0 13 -10l230 -660q3 -10 -7 -10h-165q-10 0 -13 10l-32 105h-221l-32 -105q-3 -10 -13 -10h-164q-10 0 -7 10zM403 261l-63 212h-3l-66 -212h132zM409 741q-13 0 -23 10l-48 50h-2l-49 -50q-6 -6 -10.5 -8t-12.5 -2h-95q-5 0 -6 3t2 7 l108 137q7 10 19 10h90q12 0 19 -10l108 -137q3 -4 1.5 -7t-6.5 -3h-95z" glyph-name="Acircumflex" horiz-adv-x="674" unicode="Â"/><glyph d="M245 670q3 10 13 10h163q10 0 13 -10l230 -660q3 -10 -7 -10h-165q-10 0 -13 10l-32 105h-221l-32 -105q-3 -10 -13 -10h-164q-10 0 -7 10zM403 261l-63 212h-3l-66 -212h132zM405 740q-27 0 -46 7t-37 16q-15 8 -29 13t-31 5q-23 0 -39.5 -9t-36.5 -24q-4 -3 -7 -2t-3 6 v81q0 8 2 12t7 10q17 17 37 27t44 10q28 0 47 -7.5t37 -16.5q15 -7 29 -12t31 -5q22 0 39 9t36 23q11 7 11 -3v-81q0 -13 -10 -22q-17 -17 -37 -27t-44 -10z" glyph-name="Atilde" horiz-adv-x="674" unicode="Ã"/><glyph d="M245 670q3 10 13 10h163q10 0 13 -10l230 -660q3 -10 -7 -10h-165q-10 0 -13 10l-32 105h-221l-32 -105q-3 -10 -13 -10h-164q-10 0 -7 10zM403 261l-63 212h-3l-66 -212h132zM386 750q-10 0 -10 10v110q0 10 10 10h107q10 0 10 -10v-110q0 -10 -10 -10h-107zM180 750 q-10 0 -10 10v110q0 10 10 10h107q10 0 10 -10v-110q0 -10 -10 -10h-107z" glyph-name="Adieresis" horiz-adv-x="674" unicode="Ä"/><glyph d="M245 670q3 10 13 10h163q10 0 13 -10l230 -660q3 -10 -7 -10h-165q-10 0 -13 10l-32 105h-221l-32 -105q-3 -10 -13 -10h-164q-10 0 -7 10zM403 261l-63 212h-3l-66 -212h132zM336 704q-49 0 -81.5 32t-32.5 82q0 49 32.5 81t81.5 32q50 0 82.5 -32t32.5 -81 q0 -50 -32.5 -82t-82.5 -32zM336 773q19 0 31.5 12.5t12.5 32.5q0 19 -12.5 31.5t-31.5 12.5q-18 0 -30.5 -12.5t-12.5 -31.5q0 -20 12.5 -32.5t30.5 -12.5z" glyph-name="Aring" horiz-adv-x="674" unicode="Å"/><glyph d="M439 0q-10 0 -10 10v99q0 6 -6 6h-178l-45 -105q-4 -10 -14 -10h-168q-12 0 -7 10l303 660q5 10 14 10h556q10 0 10 -10v-129q0 -10 -10 -10h-273q-6 0 -6 -6v-103q0 -6 6 -6h224q10 0 10 -10v-126q0 -10 -10 -10h-224q-6 0 -6 -6v-109q0 -6 6 -6h273q10 0 10 -10v-129 q0 -10 -10 -10h-445zM309 261h114q6 0 6 6v264h-3z" glyph-name="AE" horiz-adv-x="931" unicode="Æ"/><glyph d="M192 -166q-10 0 -7 10l59 149q-69 12 -116 53t-69 110q-6 17 -9.5 34t-6 37.5t-3.5 47.5t-1 65t1 65t3.5 47.5t6 37.5t9.5 34q27 84 90.5 126t156.5 42q91 0 153 -40.5t91 -114.5q4 -10 -5 -14l-133 -58q-10 -4 -14 6q-14 30 -34 47t-55 17q-63 0 -82 -59q-3 -8 -4.5 -17 t-3 -23.5t-2 -37.5t-0.5 -58t0.5 -58t2 -37.5t3 -23.5t4.5 -17q19 -59 82 -59q35 0 55 17t34 47q4 10 14 6l133 -58q9 -4 5 -14q-23 -61 -70 -99.5t-113 -50.5l-44 -149q-3 -10 -16 -10h-115z" glyph-name="Ccedilla" horiz-adv-x="574" unicode="Ç"/><glyph d="M252 747q-11 0 -20 9l-128 123q-3 4 -1.5 7t6.5 3h142q10 0 18 -10l102 -122q3 -4 2 -7t-6 -3h-115zM55 670q0 10 10 10h445q10 0 10 -10v-129q0 -10 -10 -10h-273q-6 0 -6 -6v-103q0 -6 6 -6h224q10 0 10 -10v-126q0 -10 -10 -10h-224q-6 0 -6 -6v-109q0 -6 6 -6h273 q10 0 10 -10v-129q0 -10 -10 -10h-445q-10 0 -10 10v660z" glyph-name="Egrave" horiz-adv-x="557" unicode="È"/><glyph d="M195 747q-5 0 -6 3t2 7l102 122q8 10 18 10h142q5 0 6.5 -3t-1.5 -7l-128 -123q-9 -9 -20 -9h-115zM55 670q0 10 10 10h445q10 0 10 -10v-129q0 -10 -10 -10h-273q-6 0 -6 -6v-103q0 -6 6 -6h224q10 0 10 -10v-126q0 -10 -10 -10h-224q-6 0 -6 -6v-109q0 -6 6 -6h273 q10 0 10 -10v-129q0 -10 -10 -10h-445q-10 0 -10 10v660z" glyph-name="Eacute" horiz-adv-x="557" unicode="É"/><glyph d="M55 670q0 10 10 10h445q10 0 10 -10v-129q0 -10 -10 -10h-273q-6 0 -6 -6v-103q0 -6 6 -6h224q10 0 10 -10v-126q0 -10 -10 -10h-224q-6 0 -6 -6v-109q0 -6 6 -6h273q10 0 10 -10v-129q0 -10 -10 -10h-445q-10 0 -10 10v660zM361 741q-13 0 -23 10l-48 50h-2l-49 -50 q-6 -6 -10.5 -8t-12.5 -2h-95q-5 0 -6 3t2 7l108 137q7 10 19 10h90q12 0 19 -10l108 -137q3 -4 1.5 -7t-6.5 -3h-95z" glyph-name="Ecircumflex" horiz-adv-x="557" unicode="Ê"/><glyph d="M336 750q-10 0 -10 10v110q0 10 10 10h107q10 0 10 -10v-110q0 -10 -10 -10h-107zM130 750q-10 0 -10 10v110q0 10 10 10h107q10 0 10 -10v-110q0 -10 -10 -10h-107zM55 670q0 10 10 10h445q10 0 10 -10v-129q0 -10 -10 -10h-273q-6 0 -6 -6v-103q0 -6 6 -6h224 q10 0 10 -10v-126q0 -10 -10 -10h-224q-6 0 -6 -6v-109q0 -6 6 -6h273q10 0 10 -10v-129q0 -10 -10 -10h-445q-10 0 -10 10v660z" glyph-name="Edieresis" horiz-adv-x="557" unicode="Ë"/><glyph d="M55 670q0 10 10 10h156q10 0 10 -10v-660q0 -10 -10 -10h-156q-10 0 -10 10v660zM94 747q-11 0 -20 9l-128 123q-3 4 -1.5 7t6.5 3h142q10 0 18 -10l102 -122q3 -4 2 -7t-6 -3h-115z" glyph-name="Igrave" horiz-adv-x="286" unicode="Ì"/><glyph d="M55 670q0 10 10 10h156q10 0 10 -10v-660q0 -10 -10 -10h-156q-10 0 -10 10v660zM79 747q-5 0 -6 3t2 7l102 122q8 10 18 10h142q5 0 6.5 -3t-1.5 -7l-128 -123q-9 -9 -20 -9h-115z" glyph-name="Iacute" horiz-adv-x="286" unicode="Í"/><glyph d="M55 670q0 10 10 10h156q10 0 10 -10v-660q0 -10 -10 -10h-156q-10 0 -10 10v660zM216 741q-13 0 -23 10l-48 50h-2l-49 -50q-6 -6 -10.5 -8t-12.5 -2h-95q-5 0 -6 3t2 7l108 137q7 10 19 10h90q12 0 19 -10l108 -137q3 -4 1.5 -7t-6.5 -3h-95z" glyph-name="Icircumflex" horiz-adv-x="286" unicode="Î"/><glyph d="M55 670q0 10 10 10h156q10 0 10 -10v-660q0 -10 -10 -10h-156q-10 0 -10 10v660zM193 750q-10 0 -10 10v110q0 10 10 10h107q10 0 10 -10v-110q0 -10 -10 -10h-107zM-13 750q-10 0 -10 10v110q0 10 10 10h107q10 0 10 -10v-110q0 -10 -10 -10h-107z" glyph-name="Idieresis" horiz-adv-x="286" unicode="Ï"/><glyph d="M65 0q-10 0 -10 10v266q0 6 -6 6h-25q-10 0 -10 10v102q0 10 10 10h25q6 0 6 6v260q0 10 10 10h263q91 0 153.5 -38t88.5 -117q5 -17 9 -33t6.5 -37t3.5 -48.5t1 -66.5q0 -38 -1 -65.5t-3.5 -48.5t-6.5 -38t-9 -33q-26 -79 -88.5 -117t-153.5 -38h-263zM290 156 q47 0 73.5 14.5t38.5 50.5q2 7 4 16t3.5 22.5t2 32.5t0.5 48q0 28 -0.5 47.5t-2 33t-3.5 22t-4 16.5q-12 36 -38.5 50.5t-73.5 14.5h-53q-6 0 -6 -6v-108q0 -6 6 -6h70q10 0 10 -10v-102q0 -10 -10 -10h-70q-6 0 -6 -6v-114q0 -6 6 -6h53z" glyph-name="Eth" horiz-adv-x="631" unicode="Ð"/><glyph d="M395 740q-27 0 -46 7t-37 16q-15 8 -29 13t-31 5q-23 0 -39.5 -9t-36.5 -24q-4 -3 -7 -2t-3 6v81q0 8 2 12t7 10q17 17 37 27t44 10q28 0 47 -7.5t37 -16.5q15 -7 29 -12t31 -5q22 0 39 9t36 23q11 7 11 -3v-81q0 -13 -10 -22q-17 -17 -37 -27t-44 -10zM55 670 q0 10 10 10h147q13 0 17 -10l205 -385h4v385q0 10 10 10h140q10 0 10 -10v-660q0 -10 -10 -10h-147q-13 0 -17 10l-203 384h-6v-384q0 -10 -10 -10h-140q-10 0 -10 10v660z" glyph-name="Ntilde" horiz-adv-x="653" unicode="Ñ"/><glyph d="M270 747q-11 0 -20 9l-128 123q-3 4 -1.5 7t6.5 3h142q10 0 18 -10l102 -122q3 -4 2 -7t-6 -3h-115zM314 -12q-90 0 -159 42t-96 125q-6 19 -10 37.5t-6 39.5t-3 47t-1 61t1 61t3 47t6 39t10 38q27 83 96 125t159 42t159 -42t96 -125q6 -20 10 -38t6.5 -39t3 -47t0.5 -61 t-0.5 -61t-3 -47t-6.5 -39.5t-10 -37.5q-27 -83 -96 -125t-159 -42zM314 145q33 0 55.5 15.5t31.5 44.5q3 9 5 19.5t3 26t1.5 37.5t0.5 52t-0.5 52t-1.5 37.5t-3 26t-5 19.5q-9 29 -31.5 44.5t-55.5 15.5t-55.5 -15.5t-31.5 -44.5q-3 -9 -5 -19.5t-3 -26t-1.5 -37.5 t-0.5 -52t0.5 -52t1.5 -37.5t3 -26t5 -19.5q9 -29 31.5 -44.5t55.5 -15.5z" glyph-name="Ograve" horiz-adv-x="628" unicode="Ò"/><glyph d="M242 747q-5 0 -6 3t2 7l102 122q8 10 18 10h142q5 0 6.5 -3t-1.5 -7l-128 -123q-9 -9 -20 -9h-115zM314 -12q-90 0 -159 42t-96 125q-6 19 -10 37.5t-6 39.5t-3 47t-1 61t1 61t3 47t6 39t10 38q27 83 96 125t159 42t159 -42t96 -125q6 -20 10 -38t6.5 -39t3 -47t0.5 -61 t-0.5 -61t-3 -47t-6.5 -39.5t-10 -37.5q-27 -83 -96 -125t-159 -42zM314 145q33 0 55.5 15.5t31.5 44.5q3 9 5 19.5t3 26t1.5 37.5t0.5 52t-0.5 52t-1.5 37.5t-3 26t-5 19.5q-9 29 -31.5 44.5t-55.5 15.5t-55.5 -15.5t-31.5 -44.5q-3 -9 -5 -19.5t-3 -26t-1.5 -37.5 t-0.5 -52t0.5 -52t1.5 -37.5t3 -26t5 -19.5q9 -29 31.5 -44.5t55.5 -15.5z" glyph-name="Oacute" horiz-adv-x="628" unicode="Ó"/><glyph d="M314 -12q-90 0 -159 42t-96 125q-6 19 -10 37.5t-6 39.5t-3 47t-1 61t1 61t3 47t6 39t10 38q27 83 96 125t159 42t159 -42t96 -125q6 -20 10 -38t6.5 -39t3 -47t0.5 -61t-0.5 -61t-3 -47t-6.5 -39.5t-10 -37.5q-27 -83 -96 -125t-159 -42zM314 145q33 0 55.5 15.5 t31.5 44.5q3 9 5 19.5t3 26t1.5 37.5t0.5 52t-0.5 52t-1.5 37.5t-3 26t-5 19.5q-9 29 -31.5 44.5t-55.5 15.5t-55.5 -15.5t-31.5 -44.5q-3 -9 -5 -19.5t-3 -26t-1.5 -37.5t-0.5 -52t0.5 -52t1.5 -37.5t3 -26t5 -19.5q9 -29 31.5 -44.5t55.5 -15.5zM386 741q-13 0 -23 10 l-48 50h-2l-49 -50q-6 -6 -10.5 -8t-12.5 -2h-95q-5 0 -6 3t2 7l108 137q7 10 19 10h90q12 0 19 -10l108 -137q3 -4 1.5 -7t-6.5 -3h-95z" glyph-name="Ocircumflex" horiz-adv-x="628" unicode="Ô"/><glyph d="M382 740q-27 0 -46 7t-37 16q-15 8 -29 13t-31 5q-23 0 -39.5 -9t-36.5 -24q-4 -3 -7 -2t-3 6v81q0 8 2 12t7 10q17 17 37 27t44 10q28 0 47 -7.5t37 -16.5q15 -7 29 -12t31 -5q22 0 39 9t36 23q11 7 11 -3v-81q0 -13 -10 -22q-17 -17 -37 -27t-44 -10zM314 -12 q-90 0 -159 42t-96 125q-6 19 -10 37.5t-6 39.5t-3 47t-1 61t1 61t3 47t6 39t10 38q27 83 96 125t159 42t159 -42t96 -125q6 -20 10 -38t6.5 -39t3 -47t0.5 -61t-0.5 -61t-3 -47t-6.5 -39.5t-10 -37.5q-27 -83 -96 -125t-159 -42zM314 145q33 0 55.5 15.5t31.5 44.5 q3 9 5 19.5t3 26t1.5 37.5t0.5 52t-0.5 52t-1.5 37.5t-3 26t-5 19.5q-9 29 -31.5 44.5t-55.5 15.5t-55.5 -15.5t-31.5 -44.5q-3 -9 -5 -19.5t-3 -26t-1.5 -37.5t-0.5 -52t0.5 -52t1.5 -37.5t3 -26t5 -19.5q9 -29 31.5 -44.5t55.5 -15.5z" glyph-name="Otilde" horiz-adv-x="628" unicode="Õ"/><glyph d="M363 750q-10 0 -10 10v110q0 10 10 10h107q10 0 10 -10v-110q0 -10 -10 -10h-107zM157 750q-10 0 -10 10v110q0 10 10 10h107q10 0 10 -10v-110q0 -10 -10 -10h-107zM314 -12q-90 0 -159 42t-96 125q-6 19 -10 37.5t-6 39.5t-3 47t-1 61t1 61t3 47t6 39t10 38 q27 83 96 125t159 42t159 -42t96 -125q6 -20 10 -38t6.5 -39t3 -47t0.5 -61t-0.5 -61t-3 -47t-6.5 -39.5t-10 -37.5q-27 -83 -96 -125t-159 -42zM314 145q33 0 55.5 15.5t31.5 44.5q3 9 5 19.5t3 26t1.5 37.5t0.5 52t-0.5 52t-1.5 37.5t-3 26t-5 19.5q-9 29 -31.5 44.5 t-55.5 15.5t-55.5 -15.5t-31.5 -44.5q-3 -9 -5 -19.5t-3 -26t-1.5 -37.5t-0.5 -52t0.5 -52t1.5 -37.5t3 -26t5 -19.5q9 -29 31.5 -44.5t55.5 -15.5z" glyph-name="Odieresis" horiz-adv-x="628" unicode="Ö"/><glyph d="M416 60q-7 -9 -14 0l-117 117q-4 4 -8 0l-118 -117q-7 -9 -14 0l-80 80q-7 7 0 14l116 117q4 4 0 9l-116 117q-7 7 0 14l81 82q7 7 14 0l117 -118q4 -3 9 0l117 118q7 7 14 0l80 -81q9 -7 0 -14l-116 -117q-5 -5 0 -8l116 -118q9 -7 0 -14z" glyph-name="multiply" unicode="×"/><glyph d="M27 -30q-5 0 -6 3t1 7l70 109q-21 28 -33 66q-6 19 -10 37.5t-6 39.5t-3 47t-1 61t1 61t3 47t6 39t10 38q27 83 96 125t159 42q80 0 142 -32l26 40q7 10 17 10h101q5 0 6.5 -3t-0.5 -7l-70 -110q10 -14 18.5 -30.5t14.5 -34.5q6 -20 10 -38t6.5 -39t3 -47t0.5 -61 t-0.5 -61t-3 -47t-6.5 -39.5t-10 -37.5q-27 -83 -96 -125t-159 -42q-80 0 -142 32l-26 -40q-7 -10 -17 -10h-102zM314 145q33 0 55.5 15.5t31.5 44.5q3 9 5 19.5t3 26t1.5 37.5t0.5 52t-0.5 52t-1.5 37.5t-3 26t-5 19.5q-9 29 -31.5 44.5t-55.5 15.5t-55.5 -15.5 t-31.5 -44.5q-3 -9 -5 -19.5t-3 -26t-1.5 -37.5t-0.5 -52t0.5 -52t1.5 -37.5t3 -26t5 -19.5q9 -29 31.5 -44.5t55.5 -15.5z" glyph-name="Oslash" horiz-adv-x="628" unicode="Ø"/><glyph d="M280 747q-11 0 -20 9l-128 123q-3 4 -1.5 7t6.5 3h142q10 0 18 -10l102 -122q3 -4 2 -7t-6 -3h-115zM324 -12q-62 0 -112 17.5t-85.5 52t-54.5 86t-19 119.5v407q0 10 10 10h156q10 0 10 -10v-418q0 -51 26 -79t69 -28q45 0 69.5 28t24.5 79v418q0 10 10 10h156 q10 0 10 -10v-407q0 -68 -19.5 -119.5t-55 -86t-85 -52t-110.5 -17.5z" glyph-name="Ugrave" horiz-adv-x="647" unicode="Ù"/><glyph d="M256 747q-5 0 -6 3t2 7l102 122q8 10 18 10h142q5 0 6.5 -3t-1.5 -7l-128 -123q-9 -9 -20 -9h-115zM324 -12q-62 0 -112 17.5t-85.5 52t-54.5 86t-19 119.5v407q0 10 10 10h156q10 0 10 -10v-418q0 -51 26 -79t69 -28q45 0 69.5 28t24.5 79v418q0 10 10 10h156 q10 0 10 -10v-407q0 -68 -19.5 -119.5t-55 -86t-85 -52t-110.5 -17.5z" glyph-name="Uacute" horiz-adv-x="647" unicode="Ú"/><glyph d="M324 -12q-62 0 -112 17.5t-85.5 52t-54.5 86t-19 119.5v407q0 10 10 10h156q10 0 10 -10v-418q0 -51 26 -79t69 -28q45 0 69.5 28t24.5 79v418q0 10 10 10h156q10 0 10 -10v-407q0 -68 -19.5 -119.5t-55 -86t-85 -52t-110.5 -17.5zM395 741q-13 0 -23 10l-48 50h-2 l-49 -50q-6 -6 -10.5 -8t-12.5 -2h-95q-5 0 -6 3t2 7l108 137q7 10 19 10h90q12 0 19 -10l108 -137q3 -4 1.5 -7t-6.5 -3h-95z" glyph-name="Ucircumflex" horiz-adv-x="647" unicode="Û"/><glyph d="M373 750q-10 0 -10 10v110q0 10 10 10h107q10 0 10 -10v-110q0 -10 -10 -10h-107zM167 750q-10 0 -10 10v110q0 10 10 10h107q10 0 10 -10v-110q0 -10 -10 -10h-107zM324 -12q-62 0 -112 17.5t-85.5 52t-54.5 86t-19 119.5v407q0 10 10 10h156q10 0 10 -10v-418 q0 -51 26 -79t69 -28q45 0 69.5 28t24.5 79v418q0 10 10 10h156q10 0 10 -10v-407q0 -68 -19.5 -119.5t-55 -86t-85 -52t-110.5 -17.5z" glyph-name="Udieresis" horiz-adv-x="647" unicode="Ü"/><glyph d="M223 0q-10 0 -10 10v253l-206 406q-4 11 8 11h157q10 0 16 -10l114 -232h3l112 232q4 10 16 10h154q12 0 8 -11l-206 -406v-253q0 -10 -10 -10h-156zM237 747q-5 0 -6 3t2 7l102 122q8 10 18 10h142q5 0 6.5 -3t-1.5 -7l-128 -123q-9 -9 -20 -9h-115z" glyph-name="Yacute" horiz-adv-x="602" unicode="Ý"/><glyph d="M65 0q-10 0 -10 10v660q0 10 10 10h156q10 0 10 -10v-87q0 -6 6 -6h100q62 0 109.5 -17t79 -47t47.5 -71.5t16 -90.5t-16 -90.5t-48 -72t-79 -47.5t-109 -17h-100q-6 0 -6 -6v-108q0 -10 -10 -10h-156zM327 273q42 0 64 21.5t22 56.5t-22 56t-64 21h-90q-6 0 -6 -6v-143 q0 -6 6 -6h90z" glyph-name="Thorn" horiz-adv-x="612" unicode="Þ"/><glyph d="M288 -5q-10 0 -10 10v110q0 10 10 10h24q50 0 62 39q2 7 3.5 19.5t1.5 44.5t-1.5 45t-3.5 21q-14 41 -67 41h-17q-10 0 -10 10v108q0 10 10 10h25q53 0 53 48q0 23 -16.5 35t-53.5 12q-42 0 -60.5 -18.5t-18.5 -57.5v-472q0 -10 -10 -10h-146q-10 0 -10 10v470 q0 102 57 157t187 55q114 0 174.5 -46.5t60.5 -124.5q0 -79 -57 -117v-2q20 -11 35 -28t24 -43q5 -17 7.5 -39.5t2.5 -67.5q0 -27 -1 -46t-2.5 -33.5t-3.5 -25t-5 -19.5q-19 -57 -69 -81t-135 -24h-40z" glyph-name="germandbls" horiz-adv-x="579" unicode="ß"/><glyph d="M334 0q-10 0 -10 10v28h-1q-20 -23 -51.5 -36.5t-79.5 -13.5q-31 0 -59.5 8.5t-50.5 27t-35 47t-13 67.5q0 41 15.5 71t43 50t65.5 29.5t83 9.5h77q6 0 6 6v13q0 27 -19 39t-75 12q-33 0 -60.5 -8t-44.5 -20q-9 -5 -13 3l-52 92q-4 10 3 16q33 23 81 35.5t108 12.5 q64 0 108 -11t71 -33.5t39 -56.5t12 -81v-307q0 -10 -10 -10h-138zM248 108q76 0 76 52v30q0 6 -6 6h-59q-68 0 -68 -46q0 -42 57 -42zM244 546q-10 0 -17 10l-103 136q-3 4 -1.5 7t6.5 3h139q11 0 17 -10l80 -136q5 -10 -5 -10h-116z" glyph-name="agrave" horiz-adv-x="532" unicode="à"/><glyph d="M334 0q-10 0 -10 10v28h-1q-20 -23 -51.5 -36.5t-79.5 -13.5q-31 0 -59.5 8.5t-50.5 27t-35 47t-13 67.5q0 41 15.5 71t43 50t65.5 29.5t83 9.5h77q6 0 6 6v13q0 27 -19 39t-75 12q-33 0 -60.5 -8t-44.5 -20q-9 -5 -13 3l-52 92q-4 10 3 16q33 23 81 35.5t108 12.5 q64 0 108 -11t71 -33.5t39 -56.5t12 -81v-307q0 -10 -10 -10h-138zM248 108q76 0 76 52v30q0 6 -6 6h-59q-68 0 -68 -46q0 -42 57 -42zM199 546q-10 0 -5 10l80 136q6 10 17 10h139q5 0 6.5 -3t-1.5 -7l-103 -136q-8 -10 -17 -10h-116z" glyph-name="aacute" horiz-adv-x="532" unicode="á"/><glyph d="M334 0q-10 0 -10 10v28h-1q-20 -23 -51.5 -36.5t-79.5 -13.5q-31 0 -59.5 8.5t-50.5 27t-35 47t-13 67.5q0 41 15.5 71t43 50t65.5 29.5t83 9.5h77q6 0 6 6v13q0 27 -19 39t-75 12q-33 0 -60.5 -8t-44.5 -20q-9 -5 -13 3l-52 92q-4 10 3 16q33 23 81 35.5t108 12.5 q64 0 108 -11t71 -33.5t39 -56.5t12 -81v-307q0 -10 -10 -10h-138zM248 108q76 0 76 52v30q0 6 -6 6h-59q-68 0 -68 -46q0 -42 57 -42zM338 544q-13 0 -23 10l-49 50h-2l-48 -50q-10 -10 -23 -10h-95q-5 0 -6.5 3t1.5 7l109 137q7 10 18 10h91q11 0 18 -10l109 -137 q3 -4 1.5 -7t-6.5 -3h-95z" glyph-name="acircumflex" horiz-adv-x="532" unicode="â"/><glyph d="M334 0q-10 0 -10 10v28h-1q-20 -23 -51.5 -36.5t-79.5 -13.5q-31 0 -59.5 8.5t-50.5 27t-35 47t-13 67.5q0 41 15.5 71t43 50t65.5 29.5t83 9.5h77q6 0 6 6v13q0 27 -19 39t-75 12q-33 0 -60.5 -8t-44.5 -20q-9 -5 -13 3l-52 92q-4 10 3 16q33 23 81 35.5t108 12.5 q64 0 108 -11t71 -33.5t39 -56.5t12 -81v-307q0 -10 -10 -10h-138zM248 108q76 0 76 52v30q0 6 -6 6h-59q-68 0 -68 -46q0 -42 57 -42zM335 545q-27 0 -46 7t-37 16q-15 8 -29 13t-31 5q-23 0 -39.5 -9t-36.5 -23q-4 -3 -7 -2t-3 5v81q0 13 9 22q17 17 37 27t44 10 q28 0 47 -7t37 -16q15 -8 29 -13t31 -5q22 0 39 9t36 24q11 7 11 -4v-81q0 -13 -10 -22q-17 -17 -37 -27t-44 -10z" glyph-name="atilde" horiz-adv-x="532" unicode="ã"/><glyph d="M334 0q-10 0 -10 10v28h-1q-20 -23 -51.5 -36.5t-79.5 -13.5q-31 0 -59.5 8.5t-50.5 27t-35 47t-13 67.5q0 41 15.5 71t43 50t65.5 29.5t83 9.5h77q6 0 6 6v13q0 27 -19 39t-75 12q-33 0 -60.5 -8t-44.5 -20q-9 -5 -13 3l-52 92q-4 10 3 16q33 23 81 35.5t108 12.5 q64 0 108 -11t71 -33.5t39 -56.5t12 -81v-307q0 -10 -10 -10h-138zM248 108q76 0 76 52v30q0 6 -6 6h-59q-68 0 -68 -46q0 -42 57 -42zM313 550q-10 0 -10 10v110q0 10 10 10h108q10 0 10 -10v-110q0 -10 -10 -10h-108zM108 550q-10 0 -10 10v110q0 10 10 10h108 q10 0 10 -10v-110q0 -10 -10 -10h-108z" glyph-name="adieresis" horiz-adv-x="532" unicode="ä"/><glyph d="M334 0q-10 0 -10 10v28h-1q-20 -23 -51.5 -36.5t-79.5 -13.5q-31 0 -59.5 8.5t-50.5 27t-35 47t-13 67.5q0 41 15.5 71t43 50t65.5 29.5t83 9.5h77q6 0 6 6v13q0 27 -19 39t-75 12q-33 0 -60.5 -8t-44.5 -20q-9 -5 -13 3l-52 92q-4 10 3 16q33 23 81 35.5t108 12.5 q64 0 108 -11t71 -33.5t39 -56.5t12 -81v-307q0 -10 -10 -10h-138zM248 108q76 0 76 52v30q0 6 -6 6h-59q-68 0 -68 -46q0 -42 57 -42zM267 518q-49 0 -81.5 32t-32.5 82t32.5 82t81.5 32q50 0 82.5 -32t32.5 -82t-32.5 -82t-82.5 -32zM267 587q19 0 31.5 12.5t12.5 32.5 t-12.5 32.5t-31.5 12.5q-18 0 -30.5 -12.5t-12.5 -32.5t12.5 -32.5t30.5 -12.5z" glyph-name="aring" horiz-adv-x="532" unicode="å"/><glyph d="M562 -12q-52 0 -95.5 18.5t-69.5 50.5h-1q-28 -36 -72.5 -52.5t-110.5 -16.5q-84 0 -131.5 37.5t-47.5 112.5q0 41 15.5 71t43 50t65.5 29.5t83 9.5h77q6 0 6 6v13q0 27 -19 39t-75 12q-33 0 -60.5 -8t-44.5 -20q-9 -5 -13 3l-52 92q-4 10 3 16q33 23 81 35.5t108 12.5 q55 0 95.5 -11.5t68.5 -31.5h2q22 17 56 30t78 13q88 0 143 -37t77 -104q4 -11 6.5 -24.5t4.5 -31t3 -41t1 -55.5q0 -10 -10 -10h-289q-6 0 -6 -6q0 -12 4 -20q8 -26 33 -39.5t61 -13.5q32 0 58.5 10t50.5 29q8 8 14 0l72 -73q7 -7 -1 -15q-38 -37 -92 -58.5t-120 -21.5z M620 298q6 0 6 6q0 17 -5 30q-6 21 -23.5 32.5t-43.5 11.5q-54 0 -68 -44q-4 -11 -4 -30q0 -6 6 -6h132zM248 108q76 0 76 52v30q0 6 -6 6h-59q-68 0 -68 -46q0 -42 57 -42z" glyph-name="ae" horiz-adv-x="819" unicode="æ"/><glyph d="M143 -166q-10 0 -7 10l60 151q-57 17 -94.5 48t-55.5 88q-8 21 -11 47.5t-3 64.5t3 65t11 48q23 71 80.5 107t136.5 36q74 0 126.5 -32t75.5 -80q4 -9 -4 -14l-112 -58q-4 -2 -8.5 -2t-6.5 5q-13 23 -28 33t-38 10q-44 0 -59 -42q-4 -11 -5.5 -27.5t-1.5 -48.5 q0 -31 1.5 -47.5t5.5 -27.5q15 -42 59 -42q23 0 38 10t28 33q2 5 6.5 5t8.5 -2l112 -58q8 -5 4 -14q-18 -36 -55 -65.5t-92 -40.5l-44 -150q-3 -10 -16 -10h-115z" glyph-name="ccedilla" horiz-adv-x="493" unicode="ç"/><glyph d="M275 -12q-90 0 -147.5 37.5t-79.5 105.5q-8 22 -12 48t-4 64q0 39 4 65.5t11 47.5q23 69 79.5 106t138.5 37q88 0 143.5 -37t76.5 -104q4 -11 7 -24.5t5 -31t3 -41t1 -55.5q0 -10 -11 -10h-289q-6 0 -6 -6q1 -5 1.5 -10t2.5 -10q8 -26 33.5 -39.5t60.5 -13.5q61 0 109 39 q8 7 15 0l71 -73q4 -3 3.5 -7.5t-4.5 -7.5q-38 -37 -92 -58.5t-120 -21.5zM333 298q6 0 6 6q0 19 -4 30q-14 44 -68 44q-26 0 -43.5 -11.5t-24.5 -32.5q-2 -6 -3 -13t-1 -17q0 -6 6 -6h132zM222 546q-10 0 -17 10l-103 136q-3 4 -1.5 7t6.5 3h139q11 0 17 -10l80 -136 q5 -10 -5 -10h-116z" glyph-name="egrave" horiz-adv-x="533" unicode="è"/><glyph d="M193 546q-10 0 -5 10l80 136q6 10 17 10h139q5 0 6.5 -3t-1.5 -7l-103 -136q-8 -10 -17 -10h-116zM275 -12q-90 0 -147.5 37.5t-79.5 105.5q-8 22 -12 48t-4 64q0 39 4 65.5t11 47.5q23 69 79.5 106t138.5 37q88 0 143.5 -37t76.5 -104q4 -11 7 -24.5t5 -31t3 -41 t1 -55.5q0 -10 -11 -10h-289q-6 0 -6 -6q1 -5 1.5 -10t2.5 -10q8 -26 33.5 -39.5t60.5 -13.5q61 0 109 39q8 7 15 0l71 -73q4 -3 3.5 -7.5t-4.5 -7.5q-38 -37 -92 -58.5t-120 -21.5zM333 298q6 0 6 6q0 19 -4 30q-14 44 -68 44q-26 0 -43.5 -11.5t-24.5 -32.5q-2 -6 -3 -13 t-1 -17q0 -6 6 -6h132z" glyph-name="eacute" horiz-adv-x="533" unicode="é"/><glyph d="M338 544q-13 0 -23 10l-49 50h-2l-48 -50q-10 -10 -23 -10h-95q-5 0 -6.5 3t1.5 7l109 137q7 10 18 10h91q11 0 18 -10l109 -137q3 -4 1.5 -7t-6.5 -3h-95zM275 -12q-90 0 -147.5 37.5t-79.5 105.5q-8 22 -12 48t-4 64q0 39 4 65.5t11 47.5q23 69 79.5 106t138.5 37 q88 0 143.5 -37t76.5 -104q4 -11 7 -24.5t5 -31t3 -41t1 -55.5q0 -10 -11 -10h-289q-6 0 -6 -6q1 -5 1.5 -10t2.5 -10q8 -26 33.5 -39.5t60.5 -13.5q61 0 109 39q8 7 15 0l71 -73q4 -3 3.5 -7.5t-4.5 -7.5q-38 -37 -92 -58.5t-120 -21.5zM333 298q6 0 6 6q0 19 -4 30 q-14 44 -68 44q-26 0 -43.5 -11.5t-24.5 -32.5q-2 -6 -3 -13t-1 -17q0 -6 6 -6h132z" glyph-name="ecircumflex" horiz-adv-x="533" unicode="ê"/><glyph d="M314 550q-10 0 -10 10v110q0 10 10 10h108q10 0 10 -10v-110q0 -10 -10 -10h-108zM109 550q-10 0 -10 10v110q0 10 10 10h108q10 0 10 -10v-110q0 -10 -10 -10h-108zM275 -12q-90 0 -147.5 37.5t-79.5 105.5q-8 22 -12 48t-4 64q0 39 4 65.5t11 47.5q23 69 79.5 106 t138.5 37q88 0 143.5 -37t76.5 -104q4 -11 7 -24.5t5 -31t3 -41t1 -55.5q0 -10 -11 -10h-289q-6 0 -6 -6q1 -5 1.5 -10t2.5 -10q8 -26 33.5 -39.5t60.5 -13.5q61 0 109 39q8 7 15 0l71 -73q4 -3 3.5 -7.5t-4.5 -7.5q-38 -37 -92 -58.5t-120 -21.5zM333 298q6 0 6 6 q0 19 -4 30q-14 44 -68 44q-26 0 -43.5 -11.5t-24.5 -32.5q-2 -6 -3 -13t-1 -17q0 -6 6 -6h132z" glyph-name="edieresis" horiz-adv-x="533" unicode="ë"/><glyph d="M63 0q-10 0 -10 10v467q0 10 10 10h148q10 0 10 -10v-467q0 -10 -10 -10h-148zM83 546q-10 0 -17 10l-103 136q-3 4 -1.5 7t6.5 3h139q11 0 17 -10l80 -136q5 -10 -5 -10h-116z" glyph-name="igrave" horiz-adv-x="274" unicode="ì"/><glyph d="M77 546q-10 0 -5 10l80 136q6 10 17 10h139q5 0 6.5 -3t-1.5 -7l-103 -136q-8 -10 -17 -10h-116zM63 0q-10 0 -10 10v467q0 10 10 10h148q10 0 10 -10v-467q0 -10 -10 -10h-148z" glyph-name="iacute" horiz-adv-x="274" unicode="í"/><glyph d="M210 544q-13 0 -23 10l-49 50h-2l-48 -50q-10 -10 -23 -10h-95q-5 0 -6.5 3t1.5 7l109 137q7 10 18 10h91q11 0 18 -10l109 -137q3 -4 1.5 -7t-6.5 -3h-95zM63 0q-10 0 -10 10v467q0 10 10 10h148q10 0 10 -10v-467q0 -10 -10 -10h-148z" glyph-name="icircumflex" horiz-adv-x="274" unicode="î"/><glyph d="M186 550q-10 0 -10 10v110q0 10 10 10h108q10 0 10 -10v-110q0 -10 -10 -10h-108zM-19 550q-10 0 -10 10v110q0 10 10 10h108q10 0 10 -10v-110q0 -10 -10 -10h-108zM63 0q-10 0 -10 10v467q0 10 10 10h148q10 0 10 -10v-467q0 -10 -10 -10h-148z" glyph-name="idieresis" horiz-adv-x="274" unicode="ï"/><glyph d="M368 549l23 -31q31 -42 53 -78t36 -69.5t20.5 -67.5t6.5 -72q0 -31 -4 -54.5t-10 -43.5q-23 -69 -81 -107t-143 -38q-88 0 -144.5 37.5t-77.5 100.5q-7 22 -11 45t-4 48q0 52 14 97q19 57 63 91.5t109 34.5q23 0 39.5 -5.5t27.5 -12.5h2l-61 83l-98 -29q-10 -2 -13 7 l-21 73q-3 10 7 13l64 19l-58 80q-3 4 -1.5 7t6.5 3h148q11 0 19 -9l28 -39l88 26q10 2 13 -7l22 -72q2 -10 -7 -13zM269 125q23 0 39 11t23 31q6 21 6 52t-6 52q-14 42 -61 42q-23 0 -39 -11t-23 -31q-3 -11 -5 -23.5t-2 -28.5t2 -28.5t5 -23.5q7 -20 23 -31t38 -11z" glyph-name="eth" horiz-adv-x="538" unicode="ð"/><glyph d="M350 0q-10 0 -10 10v278q0 32 -14.5 51.5t-44.5 19.5q-29 0 -44.5 -19t-15.5 -52v-278q0 -10 -10 -10h-148q-10 0 -10 10v467q0 10 10 10h148q10 0 10 -10v-35h1q17 24 48 40.5t77 16.5q42 0 72 -13.5t50 -37.5t29.5 -57.5t9.5 -73.5v-307q0 -10 -10 -10h-148zM347 545 q-27 0 -46 7t-37 16q-15 8 -29 13t-31 5q-23 0 -39.5 -9t-36.5 -23q-4 -3 -7 -2t-3 5v81q0 13 9 22q17 17 37 27t44 10q28 0 47 -7t37 -16q15 -8 29 -13t31 -5q22 0 39 9t36 24q11 7 11 -4v-81q0 -13 -10 -22q-17 -17 -37 -27t-44 -10z" glyph-name="ntilde" horiz-adv-x="558" unicode="ñ"/><glyph d="M269 -12q-81 0 -140 35.5t-82 105.5q-8 27 -11.5 54.5t-3.5 59.5q0 33 3.5 60.5t11.5 54.5q23 70 82 105.5t140 35.5t140 -35.5t82 -105.5q8 -27 11.5 -54.5t3.5 -60.5q0 -32 -3.5 -59.5t-11.5 -54.5q-23 -70 -82 -105.5t-140 -35.5zM269 126q45 0 60 41q4 14 5.5 29.5 t1.5 46.5t-1.5 47t-5.5 30q-15 41 -60 41t-60 -41q-4 -14 -5.5 -30t-1.5 -47t1.5 -46.5t5.5 -29.5q15 -41 60 -41zM222 546q-10 0 -17 10l-103 136q-3 4 -1.5 7t6.5 3h139q11 0 17 -10l80 -136q5 -10 -5 -10h-116z" glyph-name="ograve" horiz-adv-x="538" unicode="ò"/><glyph d="M201 546q-10 0 -5 10l80 136q6 10 17 10h139q5 0 6.5 -3t-1.5 -7l-103 -136q-8 -10 -17 -10h-116zM269 -12q-81 0 -140 35.5t-82 105.5q-8 27 -11.5 54.5t-3.5 59.5q0 33 3.5 60.5t11.5 54.5q23 70 82 105.5t140 35.5t140 -35.5t82 -105.5q8 -27 11.5 -54.5t3.5 -60.5 q0 -32 -3.5 -59.5t-11.5 -54.5q-23 -70 -82 -105.5t-140 -35.5zM269 126q45 0 60 41q4 14 5.5 29.5t1.5 46.5t-1.5 47t-5.5 30q-15 41 -60 41t-60 -41q-4 -14 -5.5 -30t-1.5 -47t1.5 -46.5t5.5 -29.5q15 -41 60 -41z" glyph-name="oacute" horiz-adv-x="538" unicode="ó"/><glyph d="M341 544q-13 0 -23 10l-49 50h-2l-48 -50q-10 -10 -23 -10h-95q-5 0 -6.5 3t1.5 7l109 137q7 10 18 10h91q11 0 18 -10l109 -137q3 -4 1.5 -7t-6.5 -3h-95zM269 -12q-81 0 -140 35.5t-82 105.5q-8 27 -11.5 54.5t-3.5 59.5q0 33 3.5 60.5t11.5 54.5q23 70 82 105.5 t140 35.5t140 -35.5t82 -105.5q8 -27 11.5 -54.5t3.5 -60.5q0 -32 -3.5 -59.5t-11.5 -54.5q-23 -70 -82 -105.5t-140 -35.5zM269 126q45 0 60 41q4 14 5.5 29.5t1.5 46.5t-1.5 47t-5.5 30q-15 41 -60 41t-60 -41q-4 -14 -5.5 -30t-1.5 -47t1.5 -46.5t5.5 -29.5 q15 -41 60 -41z" glyph-name="ocircumflex" horiz-adv-x="538" unicode="ô"/><glyph d="M269 -12q-81 0 -140 35.5t-82 105.5q-8 27 -11.5 54.5t-3.5 59.5q0 33 3.5 60.5t11.5 54.5q23 70 82 105.5t140 35.5t140 -35.5t82 -105.5q8 -27 11.5 -54.5t3.5 -60.5q0 -32 -3.5 -59.5t-11.5 -54.5q-23 -70 -82 -105.5t-140 -35.5zM269 126q45 0 60 41q4 14 5.5 29.5 t1.5 46.5t-1.5 47t-5.5 30q-15 41 -60 41t-60 -41q-4 -14 -5.5 -30t-1.5 -47t1.5 -46.5t5.5 -29.5q15 -41 60 -41zM337 545q-27 0 -46 7t-37 16q-15 8 -29 13t-31 5q-23 0 -39.5 -9t-36.5 -23q-4 -3 -7 -2t-3 5v81q0 13 9 22q17 17 37 27t44 10q28 0 47 -7t37 -16 q15 -8 29 -13t31 -5q22 0 39 9t36 24q11 7 11 -4v-81q0 -13 -10 -22q-17 -17 -37 -27t-44 -10z" glyph-name="otilde" horiz-adv-x="538" unicode="õ"/><glyph d="M316 550q-10 0 -10 10v110q0 10 10 10h108q10 0 10 -10v-110q0 -10 -10 -10h-108zM111 550q-10 0 -10 10v110q0 10 10 10h108q10 0 10 -10v-110q0 -10 -10 -10h-108zM269 -12q-81 0 -140 35.5t-82 105.5q-8 27 -11.5 54.5t-3.5 59.5q0 33 3.5 60.5t11.5 54.5 q23 70 82 105.5t140 35.5t140 -35.5t82 -105.5q8 -27 11.5 -54.5t3.5 -60.5q0 -32 -3.5 -59.5t-11.5 -54.5q-23 -70 -82 -105.5t-140 -35.5zM269 126q45 0 60 41q4 14 5.5 29.5t1.5 46.5t-1.5 47t-5.5 30q-15 41 -60 41t-60 -41q-4 -14 -5.5 -30t-1.5 -47t1.5 -46.5 t5.5 -29.5q15 -41 60 -41z" glyph-name="odieresis" horiz-adv-x="538" unicode="ö"/><glyph d="M281 389q-35 0 -60 24.5t-25 59.5q0 36 25 60.5t60 24.5q36 0 60.5 -24.5t24.5 -60.5q0 -35 -24.5 -59.5t-60.5 -24.5zM57 206q-10 0 -10 10v120q0 10 10 10h448q10 0 10 -10v-120q0 -10 -10 -10h-448zM281 -6q-35 0 -60 24.5t-25 60.5q0 35 25 59.5t60 24.5 q36 0 60.5 -24.5t24.5 -59.5q0 -36 -24.5 -60.5t-60.5 -24.5z" glyph-name="divide" unicode="÷"/><glyph d="M269 -12q-67 0 -118 24l-24 -32q-7 -10 -19 -10h-82q-5 0 -6 3t2 7l62 82q-12 14 -21.5 30.5t-15.5 36.5q-8 27 -11.5 54.5t-3.5 59.5q0 33 3.5 60.5t11.5 54.5q23 70 82 105.5t140 35.5q67 0 118 -24l24 32q7 10 19 10h81q5 0 6 -3t-1 -7l-62 -83q12 -14 21 -30.5 t16 -35.5q8 -27 11.5 -54.5t3.5 -60.5q0 -32 -3.5 -59.5t-11.5 -54.5q-23 -70 -82 -105.5t-140 -35.5zM269 126q45 0 60 41q4 14 5.5 29.5t1.5 46.5t-1.5 47t-5.5 30q-15 41 -60 41t-60 -41q-4 -14 -5.5 -30t-1.5 -47t1.5 -46.5t5.5 -29.5q15 -41 60 -41z" glyph-name="oslash" horiz-adv-x="538" unicode="ø"/><glyph d="M344 0q-10 0 -10 10v35h-1q-18 -25 -48.5 -41t-75.5 -16q-42 0 -72 13.5t-49.5 37.5t-29 57.5t-9.5 73.5v307q0 10 10 10h148q10 0 10 -10v-278q0 -32 15 -51.5t44 -19.5t43.5 19t14.5 52v278q0 10 10 10h148q10 0 10 -10v-467q0 -10 -10 -10h-148zM231 546q-10 0 -17 10 l-103 136q-3 4 -1.5 7t6.5 3h139q11 0 17 -10l80 -136q5 -10 -5 -10h-116z" glyph-name="ugrave" horiz-adv-x="555" unicode="ù"/><glyph d="M208 546q-10 0 -5 10l80 136q6 10 17 10h139q5 0 6.5 -3t-1.5 -7l-103 -136q-8 -10 -17 -10h-116zM344 0q-10 0 -10 10v35h-1q-18 -25 -48.5 -41t-75.5 -16q-42 0 -72 13.5t-49.5 37.5t-29 57.5t-9.5 73.5v307q0 10 10 10h148q10 0 10 -10v-278q0 -32 15 -51.5t44 -19.5 t43.5 19t14.5 52v278q0 10 10 10h148q10 0 10 -10v-467q0 -10 -10 -10h-148z" glyph-name="uacute" horiz-adv-x="555" unicode="ú"/><glyph d="M350 544q-13 0 -23 10l-49 50h-2l-48 -50q-10 -10 -23 -10h-95q-5 0 -6.5 3t1.5 7l109 137q7 10 18 10h91q11 0 18 -10l109 -137q3 -4 1.5 -7t-6.5 -3h-95zM344 0q-10 0 -10 10v35h-1q-18 -25 -48.5 -41t-75.5 -16q-42 0 -72 13.5t-49.5 37.5t-29 57.5t-9.5 73.5v307 q0 10 10 10h148q10 0 10 -10v-278q0 -32 15 -51.5t44 -19.5t43.5 19t14.5 52v278q0 10 10 10h148q10 0 10 -10v-467q0 -10 -10 -10h-148z" glyph-name="ucircumflex" horiz-adv-x="555" unicode="û"/><glyph d="M325 550q-10 0 -10 10v110q0 10 10 10h108q10 0 10 -10v-110q0 -10 -10 -10h-108zM120 550q-10 0 -10 10v110q0 10 10 10h108q10 0 10 -10v-110q0 -10 -10 -10h-108zM344 0q-10 0 -10 10v35h-1q-18 -25 -48.5 -41t-75.5 -16q-42 0 -72 13.5t-49.5 37.5t-29 57.5 t-9.5 73.5v307q0 10 10 10h148q10 0 10 -10v-278q0 -32 15 -51.5t44 -19.5t43.5 19t14.5 52v278q0 10 10 10h148q10 0 10 -10v-467q0 -10 -10 -10h-148z" glyph-name="udieresis" horiz-adv-x="555" unicode="ü"/><glyph d="M96 -180q-10 0 -10 10v118q0 10 10 10h25q24 0 38 9t22 32l11 31l-183 447q-4 10 7 10h157q9 0 12 -10l84 -244h2l78 244q3 10 13 10h153q11 0 7 -10l-211 -532q-14 -36 -30.5 -60.5t-37.5 -38.5t-48 -20t-62 -6h-37zM202 546q-10 0 -5 10l80 136q6 10 17 10h139 q5 0 6.5 -3t-1.5 -7l-103 -136q-8 -10 -17 -10h-116z" glyph-name="yacute" horiz-adv-x="531" unicode="ý"/><glyph d="M63 -180q-10 0 -10 10v840q0 10 10 10h148q10 0 10 -10v-229h1q17 26 47.5 42t77.5 16q62 0 102 -30t59 -87q9 -29 13 -61t4 -78q0 -45 -4 -77t-13 -61q-19 -57 -59 -87t-102 -30q-47 0 -77.5 16t-47.5 42h-1v-216q0 -10 -10 -10h-148zM288 126q45 0 60 41q4 12 5.5 28 t1.5 48t-1.5 48.5t-5.5 28.5q-15 41 -60 41q-46 0 -59 -41q-5 -12 -6.5 -28.5t-1.5 -48.5t1.5 -48t6.5 -28q13 -41 59 -41z" glyph-name="thorn" horiz-adv-x="557" unicode="þ"/><glyph d="M96 -180q-10 0 -10 10v118q0 10 10 10h25q24 0 38 9t22 32l11 31l-183 447q-4 10 7 10h157q9 0 12 -10l84 -244h2l78 244q3 10 13 10h153q11 0 7 -10l-211 -532q-14 -36 -30.5 -60.5t-37.5 -38.5t-48 -20t-62 -6h-37zM313 550q-10 0 -10 10v110q0 10 10 10h108 q10 0 10 -10v-110q0 -10 -10 -10h-108zM108 550q-10 0 -10 10v110q0 10 10 10h108q10 0 10 -10v-110q0 -10 -10 -10h-108z" glyph-name="ydieresis" horiz-adv-x="531" unicode="ÿ"/><glyph d="M63 0q-10 0 -10 10v467q0 10 10 10h148q10 0 10 -10v-467q0 -10 -10 -10h-148z" glyph-name="dotlessi" horiz-adv-x="274" unicode="ı"/><glyph d="M65 0q-10 0 -10 10v231l-40 -20q-10 -5 -10 6v107q0 9 10 14l40 20v302q0 10 10 10h156q10 0 10 -10v-220l128 66q10 5 10 -6v-108q0 -9 -10 -14l-128 -65v-161q0 -6 6 -6h288q10 0 10 -10v-136q0 -10 -10 -10h-460z" glyph-name="Lslash" horiz-adv-x="554" unicode="Ł"/><glyph d="M219 327v-145q0 -48 41 -48h21q10 0 10 -10v-120q0 -10 -10 -10h-61q-91 0 -130 39.5t-39 131.5v81l-32 -16q-10 -5 -10 6v105q0 9 10 14l32 16v299q0 10 10 10h148q10 0 10 -10v-218l62 32q10 5 10 -6v-104q0 -10 -10 -15z" glyph-name="lslash" horiz-adv-x="316" unicode="ł"/><glyph d="M421 0q-10 0 -10 10v18h-3q-17 -17 -45.5 -28.5t-73.5 -11.5q-87 0 -145 41.5t-84 122.5q-6 18 -10 36t-6.5 39.5t-3.5 48.5t-1 64t1 64t3.5 48.5t6.5 39.5t10 36q26 81 84 122.5t145 41.5q45 0 73.5 -11.5t45.5 -28.5h3v18q0 10 10 10h445q10 0 10 -10v-129 q0 -10 -10 -10h-273q-6 0 -6 -6v-103q0 -6 6 -6h224q10 0 10 -10v-126q0 -10 -10 -10h-224q-6 0 -6 -6v-109q0 -6 6 -6h273q10 0 10 -10v-129q0 -10 -10 -10h-445zM314 145q33 0 55.5 15.5t31.5 44.5q3 9 5 19.5t3 26t1.5 37.5t0.5 52t-0.5 52t-1.5 37.5t-3 26t-5 19.5 q-9 29 -31.5 44.5t-55.5 15.5t-55.5 -15.5t-31.5 -44.5q-3 -9 -5 -19.5t-3 -26t-1.5 -37.5t-0.5 -52t0.5 -52t1.5 -37.5t3 -26t5 -19.5q9 -29 31.5 -44.5t55.5 -15.5z" glyph-name="OE" horiz-adv-x="913" unicode="Œ"/><glyph d="M579 -12q-96 0 -157 52h-1q-61 -52 -152 -52q-81 0 -140 35.5t-82 105.5q-8 27 -11.5 54.5t-3.5 59.5q0 33 3.5 60.5t11.5 54.5q23 70 82 105.5t140 35.5q44 0 82 -12.5t69 -38.5h2q26 24 64 37.5t83 13.5q88 0 143 -37t77 -104q4 -11 7 -24.5t5 -31t3 -41t1 -55.5 q0 -10 -11 -10h-289q-6 0 -6 -6q0 -5 1 -10t3 -10q9 -26 34 -39.5t60 -13.5q61 0 109 39q8 7 14 0l72 -73q8 -8 -1 -15q-38 -37 -92 -58.5t-120 -21.5zM637 298q6 0 6 6q0 10 -1 17t-3 13q-7 21 -24.5 32.5t-43.5 11.5q-54 0 -68 -44q-4 -11 -4 -30q0 -6 6 -6h132zM269 126 q45 0 60 41q4 14 5.5 29.5t1.5 46.5t-1.5 47t-5.5 30q-15 41 -60 41t-60 -41q-4 -14 -5.5 -30t-1.5 -47t1.5 -46.5t5.5 -29.5q15 -41 60 -41z" glyph-name="oe" horiz-adv-x="836" unicode="œ"/><glyph d="M300 -12q-42 0 -82.5 8t-77 21.5t-66 31t-48.5 36.5q-9 8 -1 16l90 106q7 8 14 1q31 -27 76.5 -47.5t96.5 -20.5q48 0 72 17.5t24 46.5q0 22 -18 36t-68 21l-36 5q-111 16 -169 67t-58 147q0 48 18 87t51 66.5t79.5 43t104.5 15.5q71 0 134 -20t109 -55q8 -6 2 -15 l-75 -109q-6 -8 -14 -3q-36 24 -74 37.5t-79 13.5q-38 0 -56.5 -16t-18.5 -41q0 -23 19 -37t68 -20l36 -5q112 -16 168.5 -67.5t56.5 -148.5q0 -47 -18 -87t-53 -69t-87 -45.5t-120 -16.5zM258 736q-12 0 -19 10l-108 136q-3 4 -2 7t6 3h95q8 0 12.5 -2t10.5 -8l49 -49h2 l48 49q6 6 10.5 8t12.5 2h95q5 0 6.5 -3t-1.5 -7l-108 -136q-7 -10 -19 -10h-90z" glyph-name="Scaron" horiz-adv-x="605" unicode="Š"/><glyph d="M207 541q-11 0 -18 10l-109 137q-3 4 -1.5 7t6.5 3h95q8 0 12.5 -2t10.5 -8l48 -49h2l49 49q6 6 10.5 8t12.5 2h95q5 0 6.5 -3t-1.5 -7l-109 -137q-7 -10 -18 -10h-91zM255 -12q-77 0 -135.5 21.5t-96.5 53.5q-8 7 -1 14l71 85q6 6 14 2q79 -52 158 -52q32 0 47 10t15 25 q0 13 -11.5 20t-49.5 12l-54 5q-81 9 -124.5 47.5t-43.5 107.5q0 72 55 116t155 44q67 0 121 -17.5t89 -43.5q7 -6 2 -15l-63 -80q-6 -8 -15 -3q-27 17 -62 27.5t-74 10.5q-26 0 -38.5 -8t-12.5 -22q0 -12 10.5 -19.5t45.5 -10.5l54 -6q95 -10 134.5 -51t38.5 -103 q-1 -77 -60.5 -123.5t-168.5 -46.5z" glyph-name="scaron" horiz-adv-x="512" unicode="š"/><glyph d="M223 0q-10 0 -10 10v253l-206 406q-4 11 8 11h157q10 0 16 -10l114 -232h3l112 232q4 10 16 10h154q12 0 8 -11l-206 -406v-253q0 -10 -10 -10h-156zM349 750q-10 0 -10 10v110q0 10 10 10h107q10 0 10 -10v-110q0 -10 -10 -10h-107zM143 750q-10 0 -10 10v110 q0 10 10 10h107q10 0 10 -10v-110q0 -10 -10 -10h-107z" glyph-name="Ydieresis" horiz-adv-x="602" unicode="Ÿ"/><glyph d="M236 736q-12 0 -19 10l-108 136q-3 4 -2 7t6 3h95q8 0 12.5 -2t10.5 -8l49 -49h2l48 49q6 6 10.5 8t12.5 2h95q5 0 6.5 -3t-1.5 -7l-108 -136q-7 -10 -19 -10h-90zM45 0q-10 0 -10 10v134q0 5 3 10l282 367v3h-264q-10 0 -10 10v136q0 10 10 10h460q10 0 10 -10v-134 q0 -6 -3 -10l-282 -367v-3h275q10 0 10 -10v-136q0 -10 -10 -10h-471z" glyph-name="Zcaron" unicode="Ž"/><glyph d="M205 541q-11 0 -18 10l-109 137q-3 4 -1.5 7t6.5 3h95q8 0 12.5 -2t10.5 -8l48 -49h2l49 49q6 6 10.5 8t12.5 2h95q5 0 6.5 -3t-1.5 -7l-109 -137q-7 -10 -18 -10h-91zM50 0q-10 0 -10 10v108q0 5 3 10l215 223v3h-197q-10 0 -10 10v113q0 10 10 10h385q10 0 10 -10v-113 q0 -6 -3 -10l-214 -218v-3h207q10 0 10 -10v-113q0 -10 -10 -10h-396z" glyph-name="zcaron" horiz-adv-x="494" unicode="ž"/><glyph d="M370 302l-47 -302q-8 -51 -23.5 -85.5t-40.5 -55.5t-59.5 -30t-80.5 -9h-36q-10 0 -10 10v118q0 10 10 10h20q28 0 41 10.5t18 39.5l45 294h-58q-10 0 -10 10v103q0 10 10 10h77l12 76q7 50 22.5 84t40.5 55t59.5 30.5t80.5 9.5h37q10 0 10 -10v-118q0 -10 -10 -10h-21 q-26 0 -39.5 -11.5t-17.5 -38.5l-11 -67h68q10 0 10 -10v-103q0 -10 -10 -10h-87z" glyph-name="florin" unicode="ƒ"/><glyph d="M317 544q-13 0 -23 10l-49 50h-2l-48 -50q-10 -10 -23 -10h-95q-5 0 -6.5 3t1.5 7l109 137q7 10 18 10h91q11 0 18 -10l109 -137q3 -4 1.5 -7t-6.5 -3h-95z" glyph-name="circumflex" horiz-adv-x="489" unicode="ˆ"/><glyph d="M199 541q-11 0 -18 10l-109 137q-3 4 -1.5 7t6.5 3h95q8 0 12.5 -2t10.5 -8l48 -49h2l49 49q6 6 10.5 8t12.5 2h95q5 0 6.5 -3t-1.5 -7l-109 -137q-7 -10 -18 -10h-91z" glyph-name="caron" horiz-adv-x="489" unicode="ˇ"/><glyph d="M244 538q-34 0 -63 11t-50.5 30t-33.5 44.5t-13 55.5q0 11 12 11h65q10 0 14 -11q18 -40 69 -40q52 0 70 40q4 11 14 11h65q12 0 12 -11q-1 -30 -13 -55.5t-33.5 -44.5t-51 -30t-63.5 -11z" glyph-name="breve" horiz-adv-x="489" unicode="˘"/><glyph d="M175 550q-10 0 -10 10v110q0 10 10 10h138q10 0 10 -10v-110q0 -10 -10 -10h-138z" glyph-name="dotaccent" horiz-adv-x="489" unicode="˙"/><glyph d="M244 518q-49 0 -81.5 32t-32.5 82t32.5 82t81.5 32q50 0 82.5 -32t32.5 -82t-32.5 -82t-82.5 -32zM244 587q19 0 31.5 12.5t12.5 32.5t-12.5 32.5t-31.5 12.5q-18 0 -30.5 -12.5t-12.5 -32.5t12.5 -32.5t30.5 -12.5z" glyph-name="ring" horiz-adv-x="489" unicode="˚"/><glyph d="M240 -192q-51 0 -80.5 26.5t-29.5 70.5q0 32 15 55t38 40q8 5 12.5 7.5t12.5 2.5h127q5 0 5.5 -4t-4.5 -6q-26 -12 -42.5 -21.5t-26 -17.5t-13 -14.5t-3.5 -12.5q0 -16 17 -16q10 0 24 8q9 4 13 -3l38 -71q5 -8 -4 -13q-24 -17 -49 -24t-50 -7z" glyph-name="ogonek" horiz-adv-x="489" unicode="˛"/><glyph d="M313 545q-27 0 -46 7t-37 16q-15 8 -29 13t-31 5q-23 0 -39.5 -9t-36.5 -23q-4 -3 -7 -2t-3 5v81q0 13 9 22q17 17 37 27t44 10q28 0 47 -7t37 -16q15 -8 29 -13t31 -5q22 0 39 9t36 24q11 7 11 -4v-81q0 -13 -10 -22q-17 -17 -37 -27t-44 -10z" glyph-name="tilde" horiz-adv-x="489" unicode="˜"/><glyph d="M243 543q-11 0 -6 10l69 137q5 10 16 10h114q5 0 6.5 -3t-0.5 -7l-84 -137q-6 -10 -17 -10h-98zM58 543q-11 0 -6 10l70 137q5 10 16 10h114q5 0 6.5 -3t-0.5 -7l-84 -137q-7 -10 -18 -10h-98z" glyph-name="hungarumlaut" horiz-adv-x="489" unicode="˝"/><glyph d="M510 -6q-85 0 -124.5 39t-39.5 129v175q0 6 -6 6h-84q-6 0 -6 -6v-327q0 -10 -10 -10h-148q-10 0 -10 10v327q0 6 -6 6h-41q-10 0 -10 10v124q0 10 10 10h524q10 0 10 -10v-124q0 -10 -10 -10h-42q-6 0 -6 -6v-162q0 -23 7.5 -32t25.5 -9h5q10 0 10 -10v-120 q0 -10 -10 -10h-39z" glyph-name="pi" horiz-adv-x="601" unicode="π"/><glyph d="M201 10q0 -10 -10 -10h-131q-10 0 -10 10v132q0 12 9 20l114 95q9 8 17 8q11 0 11 -12v-243z" glyph-name="aComma" horiz-adv-x="249" unicode="،"/><glyph d="M-114 559q10 0 10 11v146q0 7 8 7h53q8 0 8 -7v-65q31 12 67 12q45 0 62.5 -22.5t17.5 -57.5q0 -45 -13 -62.5t-41 -17.5h-184q-7 0 -7 7v42q0 7 7 7h12zM14 607q-11 0 -24 -3.5t-25 -8.5v-36h59q12 0 15.5 5.5t3.5 17.5q0 14 -7.5 19.5t-21.5 5.5z" glyph-name="aTahabove" horiz-adv-x="0" unicode="ؕ"/><glyph d="M204 246q0 -10 -10 -10h-131q-10 0 -10 10v132q0 12 9 20l114 95q9 8 17 8q11 0 11 -12v-243zM52 148q0 10 10 10h139q10 0 10 -10v-138q0 -10 -10 -10h-139q-10 0 -10 10v138z" glyph-name="aSemicolon" horiz-adv-x="263" unicode="؛"/><glyph d="M177 195q-10 0 -10 10v11q0 20 -4.5 32t-18.5 28l-44 50q-18 20 -32 37.5t-23.5 35.5t-15 38t-5.5 44q0 38 15.5 72.5t44 60.5t68.5 41t90 15q47 0 85 -13.5t66 -37.5t45 -57.5t22 -73.5q2 -9 -8 -11l-129 -19q-9 -2 -11 9q-14 61 -66 61q-26 0 -41.5 -15.5t-15.5 -41.5 q0 -20 10 -37.5t39 -48.5l53 -59q17 -19 25 -38.5t8 -46.5v-36q0 -10 -10 -10h-137zM324 10q0 -10 -10 -10h-139q-10 0 -10 10v126q0 10 10 10h139q10 0 10 -10v-126z" glyph-name="aQuestion" horiz-adv-x="496" unicode="؟"/><glyph d="M5 0q-20 0 -29 13t-9 53q0 41 8.5 58.5t29.5 17.5h139q20 0 30 -17.5t10 -55.5q0 -43 -9.5 -56t-30.5 -13h-139z" glyph-name="aKashida" horiz-adv-x="149" unicode="ـ"/><glyph d="M277 -7q-48 0 -91 10.5t-75 36t-51 68t-19 105.5q0 69 20.5 114t53.5 71t75.5 36t86.5 10t86.5 -10t75.5 -36t53.5 -71t20.5 -114q0 -63 -18.5 -105.5t-51 -68t-75.5 -36t-91 -10.5zM277 302q-34 0 -51.5 -19.5t-17.5 -63.5q0 -49 18.5 -66.5t50.5 -17.5q35 0 52.5 18 t17.5 66q0 46 -18 64.5t-52 18.5z" glyph-name="aHeh" horiz-adv-x="557" unicode="ه"/><glyph d="M-124 824q-10 0 -10 10v24q0 10 10 10h254q10 0 10 -10v-24q0 -10 -10 -10h-254zM-124 750q-10 0 -10 10v24q0 10 10 10h254q10 0 10 -10v-24q0 -10 -10 -10h-254z" glyph-name="aFathatan" horiz-adv-x="0" unicode="ً"/><glyph d="M-142 870q-10 0 -10 10v21q0 10 10 10h10q34 0 56 -21.5t22 -69.5q0 -23 14 -28t41 -5q36 0 52.5 11.5t21.5 22.5h-26q-35 0 -55.5 18.5t-20.5 50.5q0 33 22.5 55.5t54.5 22.5q33 0 55 -21.5t22 -71.5q0 -37 -9.5 -61.5t-26 -39.5t-40 -21.5t-50.5 -6.5q-21 0 -38.5 2.5 t-30.5 10t-20.5 22.5t-7.5 39q0 26 -9 38t-24 12h-13zM86 861v14q0 26 -10.5 39t-25.5 13q-18 0 -26.5 -11.5t-8.5 -22.5q0 -20 11.5 -26t27.5 -6h32z" glyph-name="aDammatan" horiz-adv-x="0" unicode="ٌ"/><glyph d="M-127 -133q-10 0 -10 10v24q0 10 10 10h254q10 0 10 -10v-24q0 -10 -10 -10h-254zM-127 -207q-10 0 -10 10v24q0 10 10 10h254q10 0 10 -10v-24q0 -10 -10 -10h-254z" glyph-name="aKasratan" horiz-adv-x="0" unicode="ٍ"/><glyph d="M-126 750q-10 0 -10 10v24q0 10 10 10h254q10 0 10 -10v-24q0 -10 -10 -10h-254z" glyph-name="aFatha" horiz-adv-x="0" unicode="َ"/><glyph d="M36 858v16q0 26 -9.5 38.5t-25.5 12.5q-18 0 -26.5 -11.5t-8.5 -24.5q0 -17 14 -23.5t25 -6.5zM-48 785q36 0 52.5 12t21.5 23h-26q-35 0 -55 18.5t-20 50.5t22 55t54 23t54.5 -22t22.5 -71q0 -37 -9.5 -62t-26.5 -40t-40 -21.5t-50 -6.5h-31q-10 0 -10 10v21q0 10 10 10 h31z" glyph-name="aDamma" horiz-adv-x="0" unicode="ُ"/><glyph d="M-123 -138q-10 0 -10 10v24q0 10 10 10h254q10 0 10 -10v-24q0 -10 -10 -10h-254z" glyph-name="aKasra" horiz-adv-x="0" unicode="ِ"/><glyph d="M-128 902q0 10 10 10h24q10 0 10 -10v-74q0 -40 32 -40t32 36v78q0 10 10 10h24q10 0 10 -10v-78q0 -36 33 -36q31 0 31 40v74q0 10 10 10h24q10 0 10 -10v-71q0 -35 -17 -60t-58 -25q-17 0 -33 5.5t-25 16.5q-9 -11 -21.5 -16.5t-31.5 -5.5q-41 0 -57.5 25t-16.5 60v71z" glyph-name="aShadda" horiz-adv-x="0" unicode="ّ"/><glyph d="M-85 830q0 35 24.5 59.5t59.5 24.5t59.5 -24.5t24.5 -59.5t-24.5 -59.5t-59.5 -24.5t-59.5 24.5t-24.5 59.5zM-44 831q0 -18 13 -31t31 -13t31 13t13 31t-13 31t-31 13t-31 -13t-13 -31z" glyph-name="aSukun" horiz-adv-x="0" unicode="ْ"/><glyph d="M-196 767q24 87 94 87q24 0 48.5 -8.5t47.5 -19t45.5 -19t42.5 -8.5q14 0 19 7.5t5 26.5q0 10 10 10h67q10 0 10 -10q0 -51 -21 -83.5t-72 -32.5q-29 0 -54 8t-47 17t-40.5 17t-33.5 8q-10 0 -18 -5.5t-14 -22.5q-3 -10 -13 -7l-69 22q-9 3 -7 13z" glyph-name="aMadda" horiz-adv-x="0" unicode="ٓ"/><glyph d="M-83 798q-13 21 -13 49q0 19 7 37t21.5 32t35.5 22.5t49 8.5q34 0 59 -12.5t39 -29.5q4 -6 -1 -9l-34 -39q-4 -4 -10 0q-23 23 -46 23q-14 0 -25.5 -9t-11.5 -29q0 -16 8.5 -27t18.5 -17h98q6 0 6 -7v-53q0 -7 -6 -7h-232q-6 0 -6 7v53q0 7 6 7h37z" glyph-name="aHamzaabove" horiz-adv-x="0" unicode="ٔ"/><glyph d="M-83 -218q-13 21 -13 48q0 19 7 37.5t21.5 32.5t35.5 22.5t49 8.5q34 0 59 -13t39 -30q4 -6 -1 -8l-34 -39q-5 -5 -10 -1q-21 23 -46 23q-14 0 -25.5 -9t-11.5 -28q0 -16 8.5 -27t18.5 -17h98q6 0 6 -7v-54q0 -7 -6 -7h-232q-6 0 -6 7v54q0 7 6 7h37z" glyph-name="aHamzabelow" horiz-adv-x="0" unicode="ٕ"/><glyph d="M24 -237q0 -10 -10 -10h-28q-10 0 -10 10v124q0 10 10 10h28q10 0 10 -10v-124z" glyph-name="aAlifbelow" horiz-adv-x="0" unicode="ٖ"/><glyph d="M-91 892q0 10 10 10h24q10 0 10 -10v-55q0 -22 11 -36t36 -14t35.5 13.5t10.5 37.5v54q0 10 10 10h24q10 0 10 -10v-48q0 -41 -20 -69.5t-70 -28.5q-51 0 -71 28t-20 70v48z" glyph-name="aNasalnun" horiz-adv-x="0" unicode="٘"/><glyph d="M328 101q-21 -19 -39.5 -21.5t-41.5 21.5l-65 67q-21 22 -22.5 38.5t22.5 41.5l65 65q19 19 36 23t39 -18l72 -70q20 -20 21.5 -39t-21.5 -42z" glyph-name="aZero" horiz-adv-x="574" unicode="٠"/><glyph d="M372 10q0 -10 -10 -10h-150q-10 0 -10 10v585q0 10 10 10h150q10 0 10 -10v-585z" glyph-name="aOne" horiz-adv-x="574" unicode="١"/><glyph d="M105 478q0 63 28.5 95t91.5 32h273q10 0 10 -10v-123q0 -10 -10 -10h-162q-37 0 -49 -16t-12 -50v-386q0 -10 -10 -10h-150q-10 0 -10 10v468z" glyph-name="aTwo" horiz-adv-x="574" unicode="٢"/><glyph d="M188 435h46v113q0 10 10 10h103q10 0 10 -10v-112q23 3 33 13t10 33v113q0 10 10 10h142q10 0 10 -10v-146q0 -85 -46 -120t-143 -35h-185v-284q0 -10 -10 -10h-150q-10 0 -10 10v585q0 10 10 10h150q10 0 10 -10v-160z" glyph-name="aThree" horiz-adv-x="574" unicode="٣"/><glyph d="M492 138q10 0 10 -10v-118q0 -10 -10 -10h-228q-39 0 -74.5 9t-62.5 28t-43 48.5t-16 70.5q0 19 3.5 39.5t13.5 41t28 40t47 34.5q-35 26 -48.5 61t-13.5 67q0 82 52 124t136 42h166q10 0 10 -10v-118q0 -10 -10 -10h-115q-29 0 -43.5 -10t-14.5 -39q0 -27 14.5 -37 t43.5 -10h114q10 0 10 -10v-118q0 -10 -10 -10h-137q-30 0 -48.5 -11.5t-18.5 -39.5t20 -36t49 -8h176z" glyph-name="aFour" horiz-adv-x="574" unicode="٤"/><glyph d="M287 0q-46 0 -88 7.5t-74 29t-51 61.5t-19 106v154q0 69 17.5 117t48.5 77t74 42t95 13q51 0 93.5 -12t73 -41t47.5 -76.5t17 -118.5v-150q0 -64 -18.5 -104.5t-50.5 -64t-74.5 -32t-90.5 -8.5zM289 143q36 0 49 19.5t13 50.5v136q0 66 -14.5 92t-47.5 26t-48 -25 t-15 -92v-137q0 -39 15 -54.5t48 -15.5z" glyph-name="aFive" horiz-adv-x="574" unicode="٥"/><glyph d="M90 462q-10 0 -10 10v123q0 10 10 10h261q63 0 91.5 -32t28.5 -95v-468q0 -10 -10 -10h-150q-10 0 -10 10v386q0 34 -12 50t-49 16h-150z" glyph-name="aSix" horiz-adv-x="574" unicode="٦"/><glyph d="M403 604q3 10 12 7l140 -36q11 -3 9 -11l-187 -546q-3 -8 -14.5 -12.5t-25.5 -7t-28.5 -3t-23.5 -0.5q-8 0 -22.5 1t-29 3.5t-26 7t-13.5 11.5l-186 547q-2 8 9 11l140 35q9 3 12 -7l116 -404z" glyph-name="aSeven" horiz-adv-x="574" unicode="٧"/><glyph d="M169 2q-3 -10 -12 -7l-140 36q-11 3 -9 11l188 546q3 8 14 12.5t25.5 7t28.5 3t23 0.5q8 0 22.5 -1t29 -3.5t26.5 -7t14 -11.5l185 -547q2 -8 -9 -11l-140 -35q-9 -3 -12 7l-116 404z" glyph-name="aEight" horiz-adv-x="574" unicode="٨"/><glyph d="M276 213q-44 0 -84 8t-70 29t-48 58.5t-18 97.5q0 62 21 101t54 60.5t72 29.5t75 8q40 0 78.5 -7.5t68.5 -25.5t48.5 -48.5t18.5 -76.5v-437q0 -10 -10 -10h-150q-10 0 -10 10v203h-46zM322 356v59q0 17 -9.5 32t-38.5 15q-22 0 -36.5 -13t-14.5 -41q0 -52 52 -52h47z" glyph-name="aNine" horiz-adv-x="574" unicode="٩"/><glyph d="M463 620q2 4 5 7t8 3h131q10 0 7 -10l-386 -622q-2 -4 -5 -7t-8 -3h-131q-5 0 -7 3t0 7zM184 426q-18 -16 -33.5 -18t-35.5 18l-55 57q-18 19 -19 33t19 35l55 55q16 16 30.5 19.5t33.5 -15.5l61 -59q17 -17 18 -33t-18 -36zM559 19q-18 -16 -33.5 -18t-35.5 18l-55 57 q-18 19 -19 33t19 35l55 55q16 16 30.5 19.5t33.5 -15.5l61 -59q17 -17 18 -33t-18 -36z" glyph-name="aPercent" horiz-adv-x="686" unicode="٪"/><glyph d="M50 151q0 10 10 10h132q10 0 10 -10v-132q0 -11 -9 -20l-115 -95q-9 -8 -16 -8q-12 0 -12 12v243z" glyph-name="aDecimal" horiz-adv-x="249" unicode="٫"/><glyph d="M50 285q0 10 10 10h132q10 0 10 -10v-132q0 -11 -9 -20l-115 -95q-9 -8 -16 -8q-12 0 -12 12v243z" glyph-name="aThousands" horiz-adv-x="230" unicode="٬"/><glyph d="M112 488q-9 -9 -14 -3l-11 7q-7 5 -4 14l35 77l-77 53q-8 5 -6 12l4 14q3 7 12 6l89 -11l22 93q3 10 10 10h14q8 0 10 -10l22 -93l89 11q9 1 12 -6l4 -14q2 -7 -6 -12l-77 -53l35 -77q3 -9 -4 -14l-11 -7q-6 -6 -14 3l-67 53z" glyph-name="aStar" horiz-adv-x="343" unicode="٭"/><glyph d="M24 760q0 -10 -10 -10h-28q-10 0 -10 10v124q0 10 10 10h28q10 0 10 -10v-124z" glyph-name="aAlifabove" horiz-adv-x="0" unicode="ٰ"/><glyph d="M277 -7q-48 0 -91 10.5t-75 36t-51 68t-19 105.5q0 69 20.5 114t53.5 71t75.5 36t86.5 10t86.5 -10t75.5 -36t53.5 -71t20.5 -114q0 -63 -18.5 -105.5t-51 -68t-75.5 -36t-91 -10.5zM277 302q-34 0 -51.5 -19.5t-17.5 -63.5q0 -49 18.5 -66.5t50.5 -17.5q35 0 52.5 18 t17.5 66q0 46 -18 64.5t-52 18.5zM193 595q-5 9 -8.5 21t-3.5 27q0 19 7 37.5t21.5 32.5t35.5 22.5t49 8.5q34 0 59 -13t39 -30q4 -6 -1 -8l-34 -39q-5 -5 -10 -1q-21 23 -46 23q-14 0 -25.5 -9t-11.5 -28q0 -17 8.5 -28t18.5 -16h98q6 0 6 -7v-54q0 -7 -6 -7h-232 q-6 0 -6 7v54q0 7 6 7h36z" glyph-name="aHehYeh" horiz-adv-x="557" unicode="ۀ"/><glyph d="M277 -7q-48 0 -91 10.5t-75 36t-51 68t-19 105.5q0 69 20.5 114t53.5 71t75.5 36t86.5 10t86.5 -10t75.5 -36t53.5 -71t20.5 -114q0 -63 -18.5 -105.5t-51 -68t-75.5 -36t-91 -10.5zM277 302q-34 0 -51.5 -19.5t-17.5 -63.5q0 -49 18.5 -66.5t50.5 -17.5q35 0 52.5 18 t17.5 66q0 46 -18 64.5t-52 18.5zM193 595q-5 9 -8.5 21t-3.5 27q0 19 7 37.5t21.5 32.5t35.5 22.5t49 8.5q34 0 59 -13t39 -30q4 -6 -1 -8l-34 -39q-5 -5 -10 -1q-21 23 -46 23q-14 0 -25.5 -9t-11.5 -28q0 -17 8.5 -28t18.5 -16h98q6 0 6 -7v-54q0 -7 -6 -7h-232 q-6 0 -6 7v54q0 7 6 7h36z" glyph-name="aHehGoalHamzaabove" horiz-adv-x="557" unicode="ۂ"/><glyph d="M277 -7q-48 0 -91 10.5t-75 36t-51 68t-19 105.5q0 69 20.5 114t53.5 71t75.5 36t86.5 10t86.5 -10t75.5 -36t53.5 -71t20.5 -114q0 -63 -18.5 -105.5t-51 -68t-75.5 -36t-91 -10.5zM277 302q-34 0 -51.5 -19.5t-17.5 -63.5q0 -49 18.5 -66.5t50.5 -17.5q35 0 52.5 18 t17.5 66q0 46 -18 64.5t-52 18.5zM144 529q-10 0 -10 10v111q0 10 10 10h117q10 0 10 -10v-111q0 -10 -10 -10h-117zM309 529q-10 0 -10 10v111q0 10 10 10h117q10 0 10 -10v-111q0 -10 -10 -10h-117z" glyph-name="aTehMarbutaGoal" horiz-adv-x="557" unicode="ۃ"/><glyph d="M288 142q10 0 10 -10v-122q0 -10 -10 -10h-91q-51 0 -96 16t-75 42q-7 4 -1 14l59 102q5 8 13 3q28 -18 55 -26.5t71 -8.5h65z" glyph-name="aPeriodUrdu" horiz-adv-x="340" unicode="۔"/><glyph d="M277 -7q-48 0 -91 10.5t-75 36t-51 68t-19 105.5q0 69 20.5 114t53.5 71t75.5 36t86.5 10t86.5 -10t75.5 -36t53.5 -71t20.5 -114q0 -63 -18.5 -105.5t-51 -68t-75.5 -36t-91 -10.5zM277 302q-34 0 -51.5 -19.5t-17.5 -63.5q0 -49 18.5 -66.5t50.5 -17.5q35 0 52.5 18 t17.5 66q0 46 -18 64.5t-52 18.5z" glyph-name="aAe" horiz-adv-x="557" unicode="ە"/><glyph d="M328 101q-21 -19 -39.5 -21.5t-41.5 21.5l-65 67q-21 22 -22.5 38.5t22.5 41.5l65 65q19 19 36 23t39 -18l72 -70q20 -20 21.5 -39t-21.5 -42z" glyph-name="aZeroFarsi" horiz-adv-x="574" unicode="۰"/><glyph d="M372 10q0 -10 -10 -10h-150q-10 0 -10 10v585q0 10 10 10h150q10 0 10 -10v-585z" glyph-name="aOneFarsi" horiz-adv-x="574" unicode="۱"/><glyph d="M105 478q0 63 28.5 95t91.5 32h273q10 0 10 -10v-123q0 -10 -10 -10h-162q-37 0 -49 -16t-12 -50v-386q0 -10 -10 -10h-150q-10 0 -10 10v468z" glyph-name="aTwoFarsi" horiz-adv-x="574" unicode="۲"/><glyph d="M188 435h46v113q0 10 10 10h103q10 0 10 -10v-112q23 3 33 13t10 33v113q0 10 10 10h142q10 0 10 -10v-146q0 -85 -46 -120t-143 -35h-185v-284q0 -10 -10 -10h-150q-10 0 -10 10v585q0 10 10 10h150q10 0 10 -10v-160z" glyph-name="aThreeFarsi" horiz-adv-x="574" unicode="۳"/><glyph d="M562 495q0 -80 -32 -122t-112 -42h-235v-321q0 -10 -10 -10h-150q-10 0 -10 10v585q0 10 10 10h150q10 0 10 -10v-139h43v42q0 57 27 82.5t84 25.5h26q10 0 10 -10v-62q0 -10 -10 -10q-24 0 -31.5 -9.5t-7.5 -29.5v-29q25 0 41 2.5t25 8.5t12.5 17t3.5 28v21q0 10 10 10 h136q10 0 10 -10v-38z" glyph-name="aFourFarsi" horiz-adv-x="574" unicode="۴"/><glyph d="M354 225q0 49 -1.5 93.5t-8 78t-20 53t-37.5 19.5q-21 0 -34.5 -12t-21 -37.5t-10 -64.5t-2.5 -94q0 -25 0.5 -46.5t4 -37.5t10.5 -25t19 -9q8 0 12.5 4t8 9t6.5 9t7 4t7 -4t6.5 -9t8.5 -9t13 -4q32 0 32 82zM51 244q0 61 4.5 125t27 117t70.5 87t135 34q78 0 124.5 -26 t71 -73.5t31.5 -114t7 -146.5q0 -35 -3 -78t-16.5 -81t-42 -64t-79.5 -26q-27 0 -49 7.5t-43 25.5q-21 -17 -41 -24.5t-46 -7.5q-27 0 -54 11t-48.5 38.5t-35 75t-13.5 120.5z" glyph-name="aFiveFarsi" horiz-adv-x="574" unicode="۵"/><glyph d="M182 -28q-5 -8 -14 -3l-114 88q-9 7 -3 14l177 244q-35 23 -51.5 54t-16.5 66q0 43 15.5 75t41 53t59 31.5t69.5 10.5h138q10 0 10 -10v-122q0 -10 -10 -10h-84q-35 0 -52.5 -13t-17.5 -45q0 -34 21.5 -45t47.5 -11h84q10 0 10 -10v-122q0 -10 -10 -10h-73 q-32 0 -46.5 -3.5t-27.5 -19.5z" glyph-name="aSixFarsi" horiz-adv-x="574" unicode="۶"/><glyph d="M403 604q3 10 12 7l140 -36q11 -3 9 -11l-187 -546q-3 -8 -14.5 -12.5t-25.5 -7t-28.5 -3t-23.5 -0.5q-8 0 -22.5 1t-29 3.5t-26 7t-13.5 11.5l-186 547q-2 8 9 11l140 35q9 3 12 -7l116 -404z" glyph-name="aSevenFarsi" horiz-adv-x="574" unicode="۷"/><glyph d="M169 2q-3 -10 -12 -7l-140 36q-11 3 -9 11l188 546q3 8 14 12.5t25.5 7t28.5 3t23 0.5q8 0 22.5 -1t29 -3.5t26.5 -7t14 -11.5l185 -547q2 -8 -9 -11l-140 -35q-9 -3 -12 7l-116 404z" glyph-name="aEightFarsi" horiz-adv-x="574" unicode="۸"/><glyph d="M276 213q-44 0 -84 8t-70 29t-48 58.5t-18 97.5q0 62 21 101t54 60.5t72 29.5t75 8q40 0 78.5 -7.5t68.5 -25.5t48.5 -48.5t18.5 -76.5v-437q0 -10 -10 -10h-150q-10 0 -10 10v203h-46zM322 356v59q0 17 -9.5 32t-38.5 15q-22 0 -36.5 -13t-14.5 -41q0 -52 52 -52h47z" glyph-name="aNineFarsi" horiz-adv-x="574" unicode="۹"/><glyph glyph-name="enspace" horiz-adv-x="500"/><glyph glyph-name="emspace" horiz-adv-x="1000"/><glyph glyph-name="thinspace" horiz-adv-x="100"/><glyph glyph-name="hairspace" horiz-adv-x="20"/><glyph d="M33 2h-33v1319h33v-1319z" glyph-name="ZWNJ" horiz-adv-x="33" unicode="‌"/><glyph d="M78 1227l-45 46v-1273h-33v1276l-49 -49l-17 18l63 63l-63 64l17 17l64 -63l63 63l18 -17l-63 -63v-1l63 -63z" glyph-name="ZWJ" horiz-adv-x="33" unicode="‍"/><glyph d="M109 1227v61h-77v-1286h-32v1319h109v68l81 -81z" glyph-name="LTR" horiz-adv-x="32" unicode="‎"/><glyph d="M33 1321v-1319h-33v1286h-77v-61l-81 81l81 81v-68h110z" glyph-name="RTL" horiz-adv-x="33" unicode="‏"/><glyph d="M30 195q-10 0 -10 10v120q0 10 10 10h491q10 0 10 -10v-120q0 -10 -10 -10h-491z" glyph-name="endash" horiz-adv-x="551" unicode="–"/><glyph d="M30 195q-10 0 -10 10v120q0 10 10 10h861q10 0 10 -10v-120q0 -10 -10 -10h-861z" glyph-name="emdash" horiz-adv-x="921" unicode="—"/><glyph d="M63 455q-10 0 -10 10v116q0 15 9 21l96 72q9 8 17 8q11 0 11 -12v-205q0 -10 -10 -10h-113z" glyph-name="quoteleft" horiz-adv-x="239" unicode="‘"/><glyph d="M64 453q-11 0 -11 12v205q0 10 10 10h113q10 0 10 -10v-115q0 -16 -9 -22l-96 -72q-9 -8 -17 -8z" glyph-name="quoteright" horiz-adv-x="239" unicode="’"/><glyph d="M64 -89q-11 0 -11 11v205q0 10 10 10h113q10 0 10 -10v-115q0 -14 -9 -22l-96 -72q-10 -7 -17 -7z" glyph-name="quotesinglbase" horiz-adv-x="239" unicode="‚"/><glyph d="M261 455q-10 0 -10 10v116q0 15 9 21l96 72q9 8 17 8q11 0 11 -12v-205q0 -10 -10 -10h-113zM63 455q-10 0 -10 10v116q0 15 9 21l96 72q9 8 17 8q11 0 11 -12v-205q0 -10 -10 -10h-113z" glyph-name="quotedblleft" horiz-adv-x="437" unicode="“"/><glyph d="M262 453q-11 0 -11 12v205q0 10 10 10h113q10 0 10 -10v-115q0 -16 -9 -22l-96 -72q-9 -8 -17 -8zM64 453q-11 0 -11 12v205q0 10 10 10h113q10 0 10 -10v-115q0 -16 -9 -22l-96 -72q-9 -8 -17 -8z" glyph-name="quotedblright" horiz-adv-x="437" unicode="”"/><glyph d="M262 -89q-11 0 -11 11v205q0 10 10 10h113q10 0 10 -10v-115q0 -14 -9 -22l-96 -72q-10 -7 -17 -7zM64 -89q-11 0 -11 11v205q0 10 10 10h113q10 0 10 -10v-115q0 -14 -9 -22l-96 -72q-10 -7 -17 -7z" glyph-name="quotedblbase" horiz-adv-x="437" unicode="„"/><glyph d="M210 -180q-10 0 -10 10v486q0 6 -6 6h-144q-10 0 -10 10v129q0 10 10 10h144q6 0 6 6v193q0 10 10 10h146q10 0 10 -10v-193q0 -6 6 -6h144q10 0 10 -10v-129q0 -10 -10 -10h-144q-6 0 -6 -6v-486q0 -10 -10 -10h-146z" glyph-name="dagger" horiz-adv-x="566" unicode="†"/><glyph d="M210 -180q-10 0 -10 10v157q0 6 -6 6h-144q-10 0 -10 10v129q0 10 10 10h144q6 0 6 6v204q0 6 -6 6h-144q-10 0 -10 10v129q0 10 10 10h144q6 0 6 6v157q0 10 10 10h146q10 0 10 -10v-157q0 -6 6 -6h144q10 0 10 -10v-129q0 -10 -10 -10h-144q-6 0 -6 -6v-204q0 -6 6 -6 h144q10 0 10 -10v-129q0 -10 -10 -10h-144q-6 0 -6 -6v-157q0 -10 -10 -10h-146z" glyph-name="daggerdbl" horiz-adv-x="566" unicode="‡"/><glyph d="M246 147q-35 0 -65 12t-51.5 33.5t-33.5 51.5t-12 65t12 64.5t33.5 51t51.5 33.5t65 12t64.5 -12t51 -33.5t33.5 -51t12 -64.5t-12 -65t-33.5 -51.5t-51 -33.5t-64.5 -12z" glyph-name="bullet" horiz-adv-x="491" unicode="•"/><glyph d="M588 0q-10 0 -10 10v138q0 10 10 10h139q10 0 10 -10v-138q0 -10 -10 -10h-139zM325 0q-10 0 -10 10v138q0 10 10 10h139q10 0 10 -10v-138q0 -10 -10 -10h-139zM62 0q-10 0 -10 10v138q0 10 10 10h139q10 0 10 -10v-138q0 -10 -10 -10h-139z" glyph-name="ellipsis" horiz-adv-x="789" unicode="…"/><glyph glyph-name="LTRE" horiz-adv-x="500" unicode="‪"/><glyph glyph-name="RTLE" horiz-adv-x="500" unicode="‫"/><glyph glyph-name="POP" horiz-adv-x="500" unicode="‬"/><glyph glyph-name="LTRO" horiz-adv-x="500" unicode="‭"/><glyph glyph-name="RTLO" horiz-adv-x="500" unicode="‮"/><glyph d="M171 -12q-5 0 -5.5 3t1.5 7l395 684q6 10 16 10h101q5 0 6 -3t-1 -7l-395 -684q-6 -10 -16 -10h-102zM206 330q-52 0 -87 22.5t-48 62.5q-5 14 -8 33.5t-3 60.5t3 60.5t8 33.5q13 40 48 62.5t87 22.5t87 -22.5t48 -62.5q5 -14 8 -33.5t3 -60.5t-3 -60.5t-8 -33.5 q-13 -40 -48 -62.5t-87 -22.5zM206 415q22 0 28 19q1 3 1.5 6.5t1 11t0.5 21v36.5v36t-0.5 21.5t-1 11t-1.5 6.5q-6 19 -28 19t-28 -19q-1 -3 -1.5 -6.5t-1 -11t-0.5 -21.5v-36v-36.5t0.5 -21t1 -11t1.5 -6.5q6 -19 28 -19zM980 -8q-52 0 -87 22.5t-48 62.5q-5 14 -7.5 33 t-2.5 61q0 41 2.5 60.5t7.5 33.5q13 40 48 62.5t87 22.5q53 0 88 -22.5t48 -62.5q4 -14 7 -33.5t3 -60.5q0 -42 -2.5 -61t-7.5 -33q-13 -40 -48 -62.5t-88 -22.5zM644 -8q-52 0 -87 22.5t-48 62.5q-5 14 -8 33t-3 61q0 41 3 60.5t8 33.5q13 40 48 62.5t87 22.5t87 -22.5 t48 -62.5q5 -14 8 -33.5t3 -60.5q0 -42 -3 -61t-8 -33q-13 -40 -48 -62.5t-87 -22.5zM980 77q22 0 28 19q1 3 2 6.5t1.5 11t0.5 21v36.5v35.5t-0.5 21.5t-1.5 11.5t-2 6.5q-6 18 -28 18q-21 0 -27 -18q-1 -3 -2 -6.5t-1.5 -11.5t-0.5 -21.5v-35.5v-36.5t0.5 -21t1.5 -11 t2 -6.5q6 -19 27 -19zM644 77q22 0 28 19q1 3 1.5 6.5t1 11t0.5 21v36.5v35.5t-0.5 21.5t-1 11.5t-1.5 6.5q-6 18 -28 18t-28 -18q-1 -3 -1.5 -6.5t-1 -11.5t-0.5 -21.5v-35.5v-36.5t0.5 -21t1 -11t1.5 -6.5q6 -19 28 -19z" glyph-name="perthousand" horiz-adv-x="1186" unicode="‰"/><glyph d="M22 257q-7 7 0 14l236 234q3 3 6.5 2t3.5 -6v-138q0 -10 -10 -19l-76 -76q-4 -4 0 -8l76 -76q10 -9 10 -19v-138q0 -5 -3.5 -6t-6.5 2z" glyph-name="guilsinglleft" horiz-adv-x="325" unicode="‹"/><glyph d="M67 23q-3 -3 -6.5 -2t-3.5 6v138q0 6 2.5 10t7.5 9l77 76q4 4 0 8l-77 76q-5 5 -7.5 9t-2.5 10v138q0 5 3.5 6t6.5 -2l236 -234q7 -7 0 -14l-236 -234v0z" glyph-name="guilsinglright" horiz-adv-x="325" unicode="›"/></font>
</defs>
</svg>
