<svg xmlns="http://www.w3.org/2000/svg" xmlns:xlink="http://www.w3.org/1999/xlink" version="1.1"><metadata>Created by FontForge 20170731 at Tue Aug 2 17:52:12 2011 By Aleksey,,, Copyright (c) 2008 - 2011 Linotype GmbH, www.linotype.com. All rights reserved. This font software may not be reproduced, modified, disclosed or transferred without the express written approval of Linotype GmbH.</metadata><defs><font id="DINNextLTArabic-Black" horiz-adv-x="570"><font-face x-height="490" ascent="800" bbox="-202.692 -487 1545 1389" cap-height="680" descent="-200" font-family="DIN Next LT Arabic Black" font-stretch="normal" font-weight="900" panose-1="2 11 10 3 2 2 3 5 2 3" underline-position="-150" underline-thickness="50" unicode-range="U+000D-FEFC" units-per-em="1000"/><glyph d="M40 647q27 94 100 94q25 0 49.5 -9t47.5 -19.5t44 -19t41 -8.5q14 0 18 7.5t4 26.5q0 10 10 10h83q10 0 10 -10q0 -55 -22.5 -91t-78.5 -36q-30 0 -55 7.5t-46 17t-38 17t-31 7.5q-10 0 -17.5 -5.5t-14.5 -22.5q-3 -10 -13 -7l-84 28q-10 3 -7 13zM351 164h66 q25 0 36.5 11.5t11.5 41.5v453q0 10 10 10h179q10 0 10 -10v-544q0 -65 -27 -95.5t-90 -30.5h-517q-10 0 -10 10v144q0 10 10 10h122v365q0 10 10 10h179q10 0 10 -10v-365z" arabic-form="isolated" glyph-name="aLam.init_aAlifMadda.fina" horiz-adv-x="714" unicode="ﻟﺂ"/><glyph d="M40 647q27 94 100 94q25 0 49.5 -9t47.5 -19.5t44 -19t41 -8.5q14 0 18 7.5t4 26.5q0 10 10 10h83q10 0 10 -10q0 -55 -22.5 -91t-78.5 -36q-30 0 -55 7.5t-46 17t-38 17t-31 7.5q-10 0 -17.5 -5.5t-14.5 -22.5q-3 -10 -13 -7l-84 28q-10 3 -7 13zM351 164h66 q25 0 36.5 11.5t11.5 41.5v453q0 10 10 10h179q10 0 10 -10v-465q4 -17 18 -29t44 -12h34q40 0 40 -83q0 -37 -9.5 -59t-30.5 -22q-35 0 -61.5 9.5t-49.5 39.5q-25 -49 -102 -49h-517q-10 0 -10 10v144q0 10 10 10h122v365q0 10 10 10h179q10 0 10 -10v-365z" arabic-form="final" glyph-name="aLam.medi_aAlifMadda.fina" horiz-adv-x="761" unicode="ﻠﺂ"/><glyph d="M160 681q-11 19 -11 44q0 42 30 71.5t87 29.5q37 0 63.5 -14t40.5 -31q4 -4 -1 -8l-39 -46q-3 -4 -9 0q-23 23 -46 23q-10 0 -20.5 -6.5t-10.5 -24.5q0 -14 8 -23.5t17 -14.5h97q6 0 6 -7v-62q0 -7 -6 -7h-242q-6 0 -6 7v62q0 7 6 7h36zM351 164h66q25 0 36.5 11.5 t11.5 41.5v453q0 10 10 10h179q10 0 10 -10v-544q0 -65 -27 -95.5t-90 -30.5h-517q-10 0 -10 10v144q0 10 10 10h122v365q0 10 10 10h179q10 0 10 -10v-365z" arabic-form="isolated" glyph-name="aLam.init_aAlifHamza.fina" horiz-adv-x="714" unicode="ﻟﺄ"/><glyph d="M160 681q-11 19 -11 44q0 42 30 71.5t87 29.5q37 0 63.5 -14t40.5 -31q4 -4 -1 -8l-39 -46q-3 -4 -9 0q-23 23 -46 23q-10 0 -20.5 -6.5t-10.5 -24.5q0 -14 8 -23.5t17 -14.5h97q6 0 6 -7v-62q0 -7 -6 -7h-242q-6 0 -6 7v62q0 7 6 7h36zM351 164h66q25 0 36.5 11.5 t11.5 41.5v453q0 10 10 10h179q10 0 10 -10v-465q4 -17 18 -29t44 -12h34q40 0 40 -83q0 -37 -9.5 -59t-30.5 -22q-35 0 -61.5 9.5t-49.5 39.5q-25 -49 -102 -49h-517q-10 0 -10 10v144q0 10 10 10h122v365q0 10 10 10h179q10 0 10 -10v-365z" arabic-form="final" glyph-name="aLam.medi_aAlifHamza.fina" horiz-adv-x="761" unicode="ﻠﺄ"/><glyph d="M163 -214q-11 19 -11 44q0 42 30 71.5t87 29.5q37 0 63.5 -14t40.5 -31q4 -4 -1 -8l-39 -46q-3 -4 -9 0q-23 23 -46 23q-10 0 -20.5 -6.5t-10.5 -24.5q0 -14 8 -23.5t17 -14.5h97q6 0 6 -7v-62q0 -7 -6 -7h-242q-6 0 -6 7v62q0 7 6 7h36zM351 164h66q25 0 36.5 11.5 t11.5 41.5v453q0 10 10 10h179q10 0 10 -10v-544q0 -65 -27 -95.5t-90 -30.5h-517q-10 0 -10 10v144q0 10 10 10h122v365q0 10 10 10h179q10 0 10 -10v-365z" arabic-form="isolated" glyph-name="aLam.init_aAlifHamzabelow.fina" horiz-adv-x="714" unicode="ﻟﺈ"/><glyph d="M163 -214q-11 19 -11 44q0 42 30 71.5t87 29.5q37 0 63.5 -14t40.5 -31q4 -4 -1 -8l-39 -46q-3 -4 -9 0q-23 23 -46 23q-10 0 -20.5 -6.5t-10.5 -24.5q0 -14 8 -23.5t17 -14.5h97q6 0 6 -7v-62q0 -7 -6 -7h-242q-6 0 -6 7v62q0 7 6 7h36zM351 164h66q25 0 36.5 11.5 t11.5 41.5v453q0 10 10 10h179q10 0 10 -10v-465q4 -17 18 -29t44 -12h34q40 0 40 -83q0 -37 -9.5 -59t-30.5 -22q-35 0 -61.5 9.5t-49.5 39.5q-25 -49 -102 -49h-517q-10 0 -10 10v144q0 10 10 10h122v365q0 10 10 10h179q10 0 10 -10v-365z" arabic-form="final" glyph-name="aLam.medi_aAlifHamzabelow.fina" horiz-adv-x="761" unicode="ﻠﺈ"/><glyph d="M351 164h66q25 0 36.5 11.5t11.5 41.5v453q0 10 10 10h179q10 0 10 -10v-544q0 -65 -27 -95.5t-90 -30.5h-517q-10 0 -10 10v144q0 10 10 10h122v365q0 10 10 10h179q10 0 10 -10v-365z" arabic-form="isolated" glyph-name="aLam.init_aAlif.fina" horiz-adv-x="714" unicode="ﻟﺎ"/><glyph d="M351 164h66q25 0 36.5 11.5t11.5 41.5v453q0 10 10 10h179q10 0 10 -10v-465q4 -17 18 -29t44 -12h34q40 0 40 -83q0 -37 -9.5 -59t-30.5 -22q-35 0 -61.5 9.5t-49.5 39.5q-25 -49 -102 -49h-517q-10 0 -10 10v144q0 10 10 10h122v365q0 10 10 10h179q10 0 10 -10v-365z" arabic-form="final" glyph-name="aLam.medi_aAlif.fina" horiz-adv-x="761" unicode="ﻠﺎ"/><glyph d="M140 662q10 0 10 11v85q0 7 8 7h63q8 0 8 -7v-5q31 11 67 11q45 0 62.5 -23.5t17.5 -63.5q0 -44 -13 -61t-41 -17h-194q-7 0 -7 7v49q0 7 7 7h12zM272 701q-18 0 -43 -10v-29h50q11 0 14.5 5t3.5 15q0 12 -7 15.5t-18 3.5zM351 164h66q25 0 36.5 11.5t11.5 41.5v453 q0 10 10 10h179q10 0 10 -10v-544q0 -65 -27 -95.5t-90 -30.5h-517q-10 0 -10 10v144q0 10 10 10h122v365q0 10 10 10h179q10 0 10 -10v-365z" glyph-name="aLam.init_aAlifWasla.fina" horiz-adv-x="714" unicode="ﻟﭑ"/><glyph d="M140 662q10 0 10 11v85q0 7 8 7h63q8 0 8 -7v-5q31 11 67 11q45 0 62.5 -23.5t17.5 -63.5q0 -44 -13 -61t-41 -17h-194q-7 0 -7 7v49q0 7 7 7h12zM272 701q-18 0 -43 -10v-29h50q11 0 14.5 5t3.5 15q0 12 -7 15.5t-18 3.5zM351 164h66q25 0 36.5 11.5t11.5 41.5v453 q0 10 10 10h179q10 0 10 -10v-465q4 -17 18 -29t44 -12h34q40 0 40 -83q0 -37 -9.5 -59t-30.5 -22q-35 0 -61.5 9.5t-49.5 39.5q-25 -49 -102 -49h-517q-10 0 -10 10v144q0 10 10 10h122v365q0 10 10 10h179q10 0 10 -10v-365z" glyph-name="aLam.medi_aAlifWasla.fina" horiz-adv-x="761" unicode="ﻠﭑ"/><glyph d="M78 131q-5 13 -8.5 28t-3.5 32q0 39 13.5 70.5t38.5 54t60.5 34.5t80.5 12q59 0 103.5 -23.5t66.5 -51.5q6 -7 -1 -14l-67 -79q-4 -5 -7.5 -3.5t-6.5 3.5q-20 19 -37 28t-37 9q-14 0 -30 -10t-16 -39q0 -17 7 -30t17 -21h175q10 0 10 -11v-109q0 -11 -10 -11h-398 q-10 0 -10 11v109q0 11 10 11h50z" arabic-form="isolated" glyph-name="aHamza" horiz-adv-x="464" unicode="ء"/><glyph d="M249 10q0 -10 -10 -10h-179q-10 0 -10 10v660q0 10 10 10h179q10 0 10 -10v-660zM-67 766q27 94 100 94q25 0 49.5 -9t47.5 -19.5t44 -19t41 -8.5q14 0 18 7.5t4 26.5q0 10 10 10h83q10 0 10 -10q0 -55 -22.5 -91t-78.5 -36q-30 0 -55 7.5t-46 17t-38 17t-31 7.5 q-10 0 -17.5 -5.5t-14.5 -22.5q-3 -10 -13 -7l-84 28q-10 3 -7 13z" arabic-form="isolated" glyph-name="aAlifMadda" horiz-adv-x="299" unicode="آ"/><glyph d="M249 10q0 -10 -10 -10h-179q-10 0 -10 10v660q0 10 10 10h179q10 0 10 -10v-660zM59 807q-11 19 -11 44q0 42 30 71.5t87 29.5q37 0 63.5 -14t40.5 -31q4 -4 -1 -8l-39 -46q-3 -4 -9 0q-23 23 -46 23q-10 0 -20.5 -6.5t-10.5 -24.5q0 -14 8 -23.5t17 -14.5h97q6 0 6 -7 v-62q0 -7 -6 -7h-242q-6 0 -6 7v62q0 7 6 7h36z" arabic-form="isolated" glyph-name="aAlifHamza" horiz-adv-x="299" unicode="أ"/><glyph d="M140 -210q-10 0 -10 10v144q0 10 10 10h110q39 0 60 7t23 39h-84q-107 0 -161 49.5t-54 163.5q0 71 21 117t55.5 72.5t78.5 37t89 10.5t89.5 -9t80 -34.5t57.5 -70.5t22 -116v-234q0 -46 -11.5 -82.5t-37 -61.5t-67.5 -38.5t-103 -13.5h-168zM280 286q-29 0 -42.5 -16.5 t-13.5 -46.5q0 -19 5 -30.5t12.5 -18t17.5 -8.5t21 -2h53v63q0 35 -15.5 47t-37.5 12zM195 615q-5 9 -7.5 19.5t-2.5 24.5q0 42 30 71.5t87 29.5q37 0 63.5 -14t40.5 -31q4 -4 -1 -8l-39 -46q-3 -4 -9 0q-23 23 -46 23q-10 0 -20.5 -6.5t-10.5 -24.5q0 -14 8 -23.5t17 -14.5 h97q6 0 6 -7v-62q0 -7 -6 -7h-242q-6 0 -6 7v62q0 7 6 7h35z" arabic-form="isolated" glyph-name="aWawHamza" horiz-adv-x="577" unicode="ؤ"/><glyph d="M249 10q0 -10 -10 -10h-179q-10 0 -10 10v660q0 10 10 10h179q10 0 10 -10v-660zM54 -214q-11 19 -11 44q0 42 30 71.5t87 29.5q37 0 63.5 -14t40.5 -31q4 -4 -1 -8l-39 -46q-3 -4 -9 0q-23 23 -46 23q-10 0 -20.5 -6.5t-10.5 -24.5q0 -14 8 -23.5t17 -14.5h97q6 0 6 -7 v-62q0 -7 -6 -7h-242q-6 0 -6 7v62q0 7 6 7h36z" arabic-form="isolated" glyph-name="aAlifHamzabelow" horiz-adv-x="299" unicode="إ"/><glyph d="M89 438q-5 9 -7.5 19.5t-2.5 24.5q0 42 30 71.5t87 29.5q37 0 63.5 -14t40.5 -31q4 -4 -1 -8l-39 -46q-3 -4 -9 0q-23 23 -46 23q-10 0 -20.5 -6.5t-10.5 -24.5q0 -14 8 -23.5t17 -14.5h97q6 0 6 -7v-62q0 -7 -6 -7h-242q-6 0 -6 7v62q0 7 6 7h35zM493 -44q26 0 42.5 3 t25.5 7.5t12.5 10.5t3.5 12q0 14 -15 27t-37.5 27.5t-48.5 32.5t-48.5 41.5t-37.5 54.5t-15 73q0 52 21 90.5t55.5 64t78.5 38t90 12.5q63 0 117.5 -18.5t83.5 -51.5q3 -4 2 -6.5t-5 -7.5l-87 -104q-6 -5 -14 1q-19 14 -38 18.5t-35 4.5q-23 0 -41 -10.5t-18 -34.5 q0 -22 16 -39.5t40.5 -34.5t53 -35.5t53 -41.5t40.5 -53t16 -70q0 -87 -60.5 -132t-172.5 -45h-233q-84 0 -142.5 16.5t-95.5 47.5t-53.5 74t-16.5 96q0 27 5.5 54t14 52.5t20 49t23.5 42.5q6 9 16 4l150 -72q8 -5 3 -13q-31 -55 -31 -99q0 -29 13 -46t32.5 -26t42.5 -11.5 t42 -2.5h132z" arabic-form="isolated" glyph-name="aYehHamza" horiz-adv-x="844" unicode="ئ"/><glyph d="M249 10q0 -10 -10 -10h-179q-10 0 -10 10v660q0 10 10 10h179q10 0 10 -10v-660z" arabic-form="isolated" glyph-name="aAlif" horiz-adv-x="299" unicode="ا"/><glyph d="M594 164q26 0 37.5 11.5t11.5 41.5v207q0 10 10 10h179q10 0 10 -10v-298q0 -65 -27 -95.5t-92 -30.5h-556q-63 0 -90 30.5t-27 95.5v233q0 10 10 10h179q10 0 10 -10v-142q0 -30 11.5 -41.5t36.5 -11.5h297v0zM359 -210q-10 0 -10 10v124q0 10 10 10h180q10 0 10 -10 v-124q0 -10 -10 -10h-180z" arabic-form="isolated" glyph-name="aBeh" horiz-adv-x="892" unicode="ب"/><glyph d="M291 -7q-50 0 -95 10t-80 35t-55.5 68t-20.5 108q0 73 22.5 119.5t58.5 72t81 35t89 9.5t89 -9.5t81 -35t58.5 -72t22.5 -119.5q0 -65 -20.5 -108t-55.5 -68t-80.5 -35t-94.5 -10zM291 286q-26 0 -41.5 -14t-15.5 -49q0 -41 16 -53.5t41 -12.5q27 0 42 12.5t15 53.5 q0 38 -15.5 50.5t-41.5 12.5zM133 536q-10 0 -10 10v124q0 10 10 10h133q10 0 10 -10v-124q0 -10 -10 -10h-133zM314 536q-10 0 -10 10v124q0 10 10 10h133q10 0 10 -10v-124q0 -10 -10 -10h-133z" arabic-form="isolated" glyph-name="aTehMarbuta" horiz-adv-x="582" unicode="ة"/><glyph d="M594 164q26 0 37.5 11.5t11.5 41.5v207q0 10 10 10h179q10 0 10 -10v-298q0 -65 -27 -95.5t-92 -30.5h-556q-63 0 -90 30.5t-27 95.5v233q0 10 10 10h179q10 0 10 -10v-142q0 -30 11.5 -41.5t36.5 -11.5h297v0zM284 477q-10 0 -10 10v124q0 10 10 10h133q10 0 10 -10 v-124q0 -10 -10 -10h-133zM465 477q-10 0 -10 10v124q0 10 10 10h133q10 0 10 -10v-124q0 -10 -10 -10h-133z" arabic-form="isolated" glyph-name="aTeh" horiz-adv-x="892" unicode="ت"/><glyph d="M594 164q26 0 37.5 11.5t11.5 41.5v207q0 10 10 10h179q10 0 10 -10v-298q0 -65 -27 -95.5t-92 -30.5h-556q-63 0 -90 30.5t-27 95.5v233q0 10 10 10h179q10 0 10 -10v-142q0 -30 11.5 -41.5t36.5 -11.5h297v0zM369 650q-10 0 -10 10v124q0 10 10 10h151q10 0 10 -10 v-124q0 -10 -10 -10h-151zM289 477q-10 0 -10 10v124q0 10 10 10h133q10 0 10 -10v-124q0 -10 -10 -10h-133zM470 477q-10 0 -10 10v124q0 10 10 10h133q10 0 10 -10v-124q0 -10 -10 -10h-133z" arabic-form="isolated" glyph-name="aTheh" horiz-adv-x="892" unicode="ث"/><glyph d="M263 0q-23 0 -32.5 -4.5t-9.5 -18.5t8 -18.5t34 -4.5h47q10 0 10 -10v-144q0 -10 -10 -10h-75q-53 0 -93.5 8.5t-67.5 30t-40.5 59t-13.5 95.5q0 52 14 87t39 56t60.5 29.5t78.5 8.5h83q39 0 55 11.5t16 43.5q0 10 -3.5 22t-11.5 22t-21.5 16.5t-32.5 6.5 q-29 0 -50.5 -11t-41.5 -25q-4 -2 -7 -3t-7 2l-75 106q-3 4 -4.5 8.5t2.5 7.5q42 34 89 56.5t115 22.5q63 0 110.5 -17t79 -48.5t47 -77t15.5 -101.5q0 -66 -14.5 -106.5t-40 -62.5t-61 -29.5t-78.5 -7.5h-113zM362 -198q-10 0 -10 10v124q0 10 10 10h125q10 0 10 -10v-124 q0 -10 -10 -10h-125z" arabic-form="isolated" glyph-name="aJim" horiz-adv-x="610" unicode="ج"/><glyph d="M263 0q-23 0 -32.5 -4.5t-9.5 -18.5t8 -18.5t34 -4.5h79q10 0 10 -10v-144q0 -10 -10 -10h-107q-53 0 -93.5 8.5t-67.5 30t-40.5 59t-13.5 95.5q0 52 14 87t39 56t60.5 29.5t78.5 8.5h83q39 0 55 11.5t16 43.5q0 10 -3.5 22t-11.5 22t-21.5 16.5t-32.5 6.5 q-29 0 -50.5 -11t-41.5 -25q-4 -2 -7 -3t-7 2l-75 106q-3 4 -4.5 8.5t2.5 7.5q42 34 89 56.5t115 22.5q63 0 110.5 -17t79 -48.5t47 -77t15.5 -101.5q0 -66 -14.5 -106.5t-40 -62.5t-61 -29.5t-78.5 -7.5h-113z" arabic-form="isolated" glyph-name="aHah" horiz-adv-x="610" unicode="ح"/><glyph d="M263 0q-23 0 -32.5 -4.5t-9.5 -18.5t8 -18.5t34 -4.5h79q10 0 10 -10v-144q0 -10 -10 -10h-107q-53 0 -93.5 8.5t-67.5 30t-40.5 59t-13.5 95.5q0 52 14 87t39 56t60.5 29.5t78.5 8.5h83q39 0 55 11.5t16 43.5q0 10 -3.5 22t-11.5 22t-21.5 16.5t-32.5 6.5 q-29 0 -50.5 -11t-41.5 -25q-4 -2 -7 -3t-7 2l-75 106q-3 4 -4.5 8.5t2.5 7.5q42 34 89 56.5t115 22.5q63 0 110.5 -17t79 -48.5t47 -77t15.5 -101.5q0 -66 -14.5 -106.5t-40 -62.5t-61 -29.5t-78.5 -7.5h-113zM237 536q-10 0 -10 10v124q0 10 10 10h180q10 0 10 -10v-124 q0 -10 -10 -10h-180z" arabic-form="isolated" glyph-name="aKhah" horiz-adv-x="610" unicode="خ"/><glyph d="M460 171q0 -48 -10.5 -80.5t-31 -53t-50 -29t-67.5 -8.5h-261q-10 0 -10 10v144q0 10 10 10h152q22 0 34.5 3t19 8.5t8.5 14t2 20.5v28q0 29 -16 38.5t-50 9.5h-113q-10 0 -10 10v144q0 10 10 10h200q94 0 138.5 -44.5t44.5 -137.5v-97z" arabic-form="isolated" glyph-name="aDal" horiz-adv-x="505" unicode="د"/><glyph d="M460 171q0 -48 -10.5 -80.5t-31 -53t-50 -29t-67.5 -8.5h-261q-10 0 -10 10v144q0 10 10 10h152q22 0 34.5 3t19 8.5t8.5 14t2 20.5v28q0 29 -16 38.5t-50 9.5h-113q-10 0 -10 10v144q0 10 10 10h200q94 0 138.5 -44.5t44.5 -137.5v-97zM129 536q-10 0 -10 10v124 q0 10 10 10h180q10 0 10 -10v-124q0 -10 -10 -10h-180z" arabic-form="isolated" glyph-name="aDhal" horiz-adv-x="505" unicode="ذ"/><glyph d="M15 -210q-10 0 -10 10v144q0 10 10 10h20q42 0 57 21t15 64v385q0 10 10 10h179q10 0 10 -10v-398q0 -124 -55.5 -180t-170.5 -56h-65z" arabic-form="isolated" glyph-name="aReh" horiz-adv-x="356" unicode="ر"/><glyph d="M15 -210q-10 0 -10 10v144q0 10 10 10h20q42 0 57 21t15 64v385q0 10 10 10h179q10 0 10 -10v-398q0 -124 -55.5 -180t-170.5 -56h-65zM117 536q-10 0 -10 10v124q0 10 10 10h180q10 0 10 -10v-124q0 -10 -10 -10h-180z" arabic-form="isolated" glyph-name="aZeh" horiz-adv-x="356" unicode="ز"/><glyph d="M64 219q4 7 16 5l161 -39q6 -1 7 -5.5t-1 -8.5q-9 -28 -17.5 -57t-8.5 -71q0 -56 21.5 -81t53.5 -25q39 0 55.5 25t16.5 73v330q0 10 10 10h179q10 0 10 -10v-157q0 -25 11.5 -34.5t30.5 -9.5q23 0 29.5 11.5t6.5 41.5v148q0 10 10 10h179q10 0 10 -10v-155 q0 -27 11.5 -36.5t29.5 -9.5q23 0 29.5 11.5t6.5 41.5v207q0 10 10 10h179q10 0 10 -10v-298q0 -65 -27 -95.5t-90 -30.5h-61q-47 0 -72 16.5t-38 37.5q-23 -54 -105 -54h-61q-38 0 -61.5 11t-37.5 28v-15q0 -74 -23.5 -122.5t-62 -77.5t-87.5 -41t-99 -12t-99.5 12.5 t-88.5 42.5t-63 79.5t-24 123.5q0 40 9.5 92t34.5 98z" arabic-form="isolated" glyph-name="aSin" horiz-adv-x="1170" unicode="س"/><glyph d="M64 219q4 7 16 5l161 -39q6 -1 7 -5.5t-1 -8.5q-9 -28 -17.5 -57t-8.5 -71q0 -56 21.5 -81t53.5 -25q39 0 55.5 25t16.5 73v330q0 10 10 10h179q10 0 10 -10v-157q0 -25 11.5 -34.5t30.5 -9.5q23 0 29.5 11.5t6.5 41.5v148q0 10 10 10h179q10 0 10 -10v-155 q0 -27 11.5 -36.5t29.5 -9.5q23 0 29.5 11.5t6.5 41.5v207q0 10 10 10h179q10 0 10 -10v-298q0 -65 -27 -95.5t-90 -30.5h-61q-47 0 -72 16.5t-38 37.5q-23 -54 -105 -54h-61q-38 0 -61.5 11t-37.5 28v-15q0 -74 -23.5 -122.5t-62 -77.5t-87.5 -41t-99 -12t-99.5 12.5 t-88.5 42.5t-63 79.5t-24 123.5q0 40 9.5 92t34.5 98zM665 709q-10 0 -10 10v124q0 10 10 10h151q10 0 10 -10v-124q0 -10 -10 -10h-151zM585 536q-10 0 -10 10v124q0 10 10 10h133q10 0 10 -10v-124q0 -10 -10 -10h-133zM766 536q-10 0 -10 10v124q0 10 10 10h133 q10 0 10 -10v-124q0 -10 -10 -10h-133z" arabic-form="isolated" glyph-name="aShin" horiz-adv-x="1170" unicode="ش"/><glyph d="M64 219q4 7 16 5l161 -39q6 -1 7 -5.5t-1 -8.5q-9 -28 -17.5 -57t-8.5 -71q0 -56 21.5 -81t53.5 -25q39 0 55.5 25t16.5 73v405q0 10 10 10h179q10 0 10 -10v-26q42 16 90.5 26t103.5 10q51 0 98 -10t82.5 -36.5t56.5 -74t21 -122.5q0 -57 -11 -96.5t-36.5 -64 t-66.5 -35.5t-102 -11h-185q-31 0 -52 9q-3 -69 -27 -115t-62 -73.5t-85.5 -38.5t-96.5 -11q-50 0 -99.5 12.5t-88.5 42.5t-63 79.5t-24 123.5q0 40 9.5 92t34.5 98zM714 286q-40 0 -77 -8t-70 -21v-93h160q27 0 44.5 2.5t27 8.5t13 16.5t3.5 26.5q0 18 -4.5 30.5t-15.5 21 t-31 12.5t-50 4z" arabic-form="isolated" glyph-name="aSad" horiz-adv-x="1059" unicode="ص"/><glyph d="M64 219q4 7 16 5l161 -39q6 -1 7 -5.5t-1 -8.5q-9 -28 -17.5 -57t-8.5 -71q0 -56 21.5 -81t53.5 -25q39 0 55.5 25t16.5 73v405q0 10 10 10h179q10 0 10 -10v-26q42 16 90.5 26t103.5 10q51 0 98 -10t82.5 -36.5t56.5 -74t21 -122.5q0 -57 -11 -96.5t-36.5 -64 t-66.5 -35.5t-102 -11h-185q-31 0 -52 9q-3 -69 -27 -115t-62 -73.5t-85.5 -38.5t-96.5 -11q-50 0 -99.5 12.5t-88.5 42.5t-63 79.5t-24 123.5q0 40 9.5 92t34.5 98zM714 286q-40 0 -77 -8t-70 -21v-93h160q27 0 44.5 2.5t27 8.5t13 16.5t3.5 26.5q0 18 -4.5 30.5t-15.5 21 t-31 12.5t-50 4zM633 536q-10 0 -10 10v124q0 10 10 10h180q10 0 10 -10v-124q0 -10 -10 -10h-180z" arabic-form="isolated" glyph-name="aDad" horiz-adv-x="1059" unicode="ض"/><glyph d="M58 164q20 0 26.5 11.5t6.5 41.5v453q0 10 10 10h179q10 0 10 -10v-256q42 15 90.5 25.5t102.5 10.5q51 0 98 -10t82.5 -36.5t56.5 -74t21 -122.5q0 -57 -11 -96.5t-36.5 -64t-66.5 -35.5t-102 -11h-185q-56 0 -79 29q-28 -29 -88 -29h-153q-10 0 -10 10v144q0 10 10 10 h38zM436 286q-39 0 -76 -8.5t-70 -20.5v-93h159q27 0 44.5 2.5t27 8.5t13 16.5t3.5 26.5q0 18 -4.5 30.5t-15.5 21t-31 12.5t-50 4z" arabic-form="isolated" glyph-name="aTah" horiz-adv-x="781" unicode="ط"/><glyph d="M58 164q20 0 26.5 11.5t6.5 41.5v453q0 10 10 10h179q10 0 10 -10v-256q42 15 90.5 25.5t102.5 10.5q51 0 98 -10t82.5 -36.5t56.5 -74t21 -122.5q0 -57 -11 -96.5t-36.5 -64t-66.5 -35.5t-102 -11h-185q-56 0 -79 29q-28 -29 -88 -29h-153q-10 0 -10 10v144q0 10 10 10 h38zM436 286q-39 0 -76 -8.5t-70 -20.5v-93h159q27 0 44.5 2.5t27 8.5t13 16.5t3.5 26.5q0 18 -4.5 30.5t-15.5 21t-31 12.5t-50 4zM408 536q-10 0 -10 10v124q0 10 10 10h180q10 0 10 -10v-124q0 -10 -10 -10h-180z" arabic-form="isolated" glyph-name="aZah" horiz-adv-x="781" unicode="ظ"/><glyph d="M20 -30q0 66 23.5 108.5t65.5 63.5q-14 22 -22.5 49t-8.5 60q0 48 17 85t47 62.5t71.5 38.5t91.5 13q43 0 78.5 -7t63 -17.5t47 -23t31.5 -23.5q7 -7 -1 -16l-83 -114q-5 -5 -8.5 -4.5t-7.5 3.5q-22 20 -42.5 29t-41.5 9q-9 0 -19.5 -2.5t-19 -9.5t-14.5 -18.5t-6 -29.5 q0 -20 8.5 -35.5t19.5 -26.5h209q10 0 10 -10v-144q0 -10 -10 -10h-271q-20 0 -23.5 -7.5t-3.5 -16.5q0 -14 7 -18t26 -4h109q10 0 10 -10v-144q0 -10 -10 -10h-128q-107 0 -161 42t-54 138z" arabic-form="isolated" glyph-name="aAyn" horiz-adv-x="564" unicode="ع"/><glyph d="M20 -30q0 66 23.5 108.5t65.5 63.5q-14 22 -22.5 49t-8.5 60q0 48 17 85t47 62.5t71.5 38.5t91.5 13q43 0 78.5 -7t63 -17.5t47 -23t31.5 -23.5q7 -7 -1 -16l-83 -114q-5 -5 -8.5 -4.5t-7.5 3.5q-22 20 -42.5 29t-41.5 9q-9 0 -19.5 -2.5t-19 -9.5t-14.5 -18.5t-6 -29.5 q0 -20 8.5 -35.5t19.5 -26.5h209q10 0 10 -10v-144q0 -10 -10 -10h-271q-20 0 -23.5 -7.5t-3.5 -16.5q0 -14 7 -18t26 -4h109q10 0 10 -10v-144q0 -10 -10 -10h-128q-107 0 -161 42t-54 138zM217 535q-10 0 -10 10v124q0 10 10 10h180q10 0 10 -10v-124q0 -10 -10 -10h-180z" arabic-form="isolated" glyph-name="aGhayn" horiz-adv-x="564" unicode="غ"/><glyph d="M167 0q-63 0 -90 30.5t-27 95.5v233q0 10 10 10h179q10 0 10 -10v-142q0 -30 11.5 -41.5t36.5 -11.5h182q-2 11 -3 23.5t-1 26.5q0 73 22.5 119.5t58.5 72t81 35t89 9.5t89 -9.5t81 -35t58.5 -72t22.5 -119.5q0 -65 -20.5 -106.5t-55.5 -65.5t-80.5 -33t-94.5 -9h-559z M726 286q-26 0 -41.5 -14t-15.5 -49q0 -41 16 -53.5t41 -12.5q27 0 42 12.5t15 53.5q0 38 -15.5 50.5t-41.5 12.5zM636 536q-10 0 -10 10v124q0 10 10 10h180q10 0 10 -10v-124q0 -10 -10 -10h-180z" arabic-form="isolated" glyph-name="aFeh" horiz-adv-x="1017" unicode="ف"/><glyph d="M842 -44q0 -90 -59 -128t-174 -38h-271q-84 0 -142.5 16.5t-95.5 47.5t-53.5 74t-16.5 96q0 27 5.5 54t14 52.5t20 49t23.5 42.5q6 9 16 4l150 -72q8 -5 3 -13q-31 -55 -31 -99q0 -29 13 -46t32.5 -26t42.5 -11.5t42 -2.5h195q31 0 49.5 1.5t28.5 6t13.5 12t3.5 19.5v5 h-87q-107 0 -161 49.5t-54 163.5q0 71 21 117t55.5 72.5t78.5 37t89 10.5t89.5 -9.5t80 -35t57.5 -70.5t22 -116v-263zM595 286q-29 0 -42.5 -17t-13.5 -47q0 -19 5 -30.5t12.5 -17.5t17.5 -8t21 -2h53v62q0 35 -15.5 47.5t-37.5 12.5zM458 536q-10 0 -10 10v124q0 10 10 10 h133q10 0 10 -10v-124q0 -10 -10 -10h-133zM639 536q-10 0 -10 10v124q0 10 10 10h133q10 0 10 -10v-124q0 -10 -10 -10h-133z" arabic-form="isolated" glyph-name="aQaf" horiz-adv-x="892" unicode="ق"/><glyph d="M461 473h19q72 0 72 -71v-36q0 -38 -16.5 -52.5t-45.5 -14.5h-136q-10 0 -10 10v44q0 10 10 10h93q17 0 21 4.5t4 17.5q0 14 -6 18.5t-20 4.5h-71q-14 0 -14 14v43q0 5 1.5 7.5t3.5 4.5l79 94q5 5 9.5 4.5t6.5 -2.5l42 -34q5 -5 3.5 -9.5t-3.5 -7.5zM594 164 q26 0 37.5 11.5t11.5 41.5v452q0 10 10 10h179q10 0 10 -10v-543q0 -65 -27 -95.5t-92 -30.5h-556q-63 0 -90 30.5t-27 95.5v233q0 10 10 10h179q10 0 10 -10v-142q0 -30 11.5 -41.5t36.5 -11.5h297z" arabic-form="isolated" glyph-name="aKaf" horiz-adv-x="892" unicode="ك"/><glyph d="M84 219q4 7 16 5l161 -39q6 -1 7 -5.5t-1 -8.5q-9 -28 -17.5 -57t-8.5 -71q0 -56 21.5 -81t53.5 -25q39 0 55.5 25t16.5 73v634q0 10 10 10h179q10 0 10 -10v-645q0 -74 -23.5 -122.5t-62 -77.5t-87.5 -41t-99 -12t-99.5 12.5t-88.5 42.5t-63 79.5t-24 123.5q0 40 9.5 92 t34.5 98z" arabic-form="isolated" glyph-name="aLam" horiz-adv-x="637" unicode="ل"/><glyph d="M375 -7q-38 0 -73.5 5.5t-66.5 19.5q-8 -10 -12 -23t-4 -31v-163h-199v184q0 36 7 59.5t18 39t24 25.5t24.5 20t20 21.5t11.5 30.5q-1 8 -1 16v17q0 73 22.5 119.5t58.5 72t81 35t89 9.5t89 -9.5t81 -35t58.5 -72t22.5 -119.5q0 -65 -20.5 -108t-55.5 -68t-80.5 -35 t-94.5 -10zM375 286q-26 0 -41.5 -14t-15.5 -49q0 -41 16 -53.5t41 -12.5q27 0 42 12.5t15 53.5q0 38 -15.5 50.5t-41.5 12.5z" arabic-form="isolated" glyph-name="aMim" horiz-adv-x="666" unicode="م"/><glyph d="M232 480q-10 0 -10 10v124q0 10 10 10h180q10 0 10 -10v-124q0 -10 -10 -10h-180zM84 219q4 7 16 5l161 -39q6 -1 7 -5.5t-1 -8.5q-9 -28 -17.5 -57t-8.5 -71q0 -56 21.5 -81t53.5 -25q39 0 55.5 25t16.5 73v309q0 10 10 10h179q10 0 10 -10v-320q0 -74 -23.5 -122.5 t-62 -77.5t-87.5 -41t-99 -12t-99.5 12.5t-88.5 42.5t-63 79.5t-24 123.5q0 40 9.5 92t34.5 98z" arabic-form="isolated" glyph-name="aNun" horiz-adv-x="637" unicode="ن"/><glyph d="M140 -210q-10 0 -10 10v144q0 10 10 10h110q39 0 60 7t23 39h-84q-107 0 -161 49.5t-54 163.5q0 71 21 117t55.5 72.5t78.5 37t89 10.5t89.5 -9t80 -34.5t57.5 -70.5t22 -116v-234q0 -46 -11.5 -82.5t-37 -61.5t-67.5 -38.5t-103 -13.5h-168zM280 286q-29 0 -42.5 -16.5 t-13.5 -46.5q0 -19 5 -30.5t12.5 -18t17.5 -8.5t21 -2h53v63q0 35 -15.5 47t-37.5 12z" arabic-form="isolated" glyph-name="aWaw" horiz-adv-x="577" unicode="و"/><glyph d="M493 -44q26 0 42.5 3t25.5 7.5t12.5 10.5t3.5 12q0 14 -15 27t-37.5 27.5t-48.5 32.5t-48.5 41.5t-37.5 54.5t-15 73q0 52 21 90.5t55.5 64t78.5 38t90 12.5q63 0 117.5 -18.5t83.5 -51.5q3 -4 2 -6.5t-5 -7.5l-87 -104q-6 -5 -14 1q-19 14 -38 18.5t-35 4.5 q-23 0 -41 -10.5t-18 -34.5q0 -22 16 -39.5t40.5 -34.5t53 -35.5t53 -41.5t40.5 -53t16 -70q0 -87 -60.5 -132t-172.5 -45h-233q-84 0 -142.5 16.5t-95.5 47.5t-53.5 74t-16.5 96q0 27 5.5 54t14 52.5t20 49t23.5 42.5q6 9 16 4l150 -72q8 -5 3 -13q-31 -55 -31 -99 q0 -29 13 -46t32.5 -26t42.5 -11.5t42 -2.5h132z" arabic-form="isolated" glyph-name="aAlifMaksura" horiz-adv-x="844" unicode="ى"/><glyph d="M493 31q26 0 42.5 3t25.5 7.5t12.5 10.5t3.5 12q0 14 -15 27t-37.5 27.5t-48.5 32.5t-48.5 41.5t-37.5 54.5t-15 73q0 52 21 90.5t55.5 64t78.5 38t90 12.5q63 0 117.5 -18.5t83.5 -51.5q3 -4 2 -6.5t-5 -7.5l-87 -104q-6 -5 -14 1q-19 14 -38 18.5t-35 4.5 q-23 0 -41 -10.5t-18 -34.5q0 -22 16 -39.5t40.5 -34.5t53 -35.5t53 -41.5t40.5 -53t16 -70q0 -87 -60.5 -132t-172.5 -45h-233q-84 0 -142.5 16.5t-95.5 47.5t-53.5 74t-16.5 96q0 27 5.5 54t14 52.5t20 49t23.5 42.5q6 9 16 4l150 -72q8 -5 3 -13q-31 -55 -31 -99 q0 -29 13 -46t32.5 -26t42.5 -11.5t42 -2.5h132zM279 -323q-10 0 -10 10v124q0 10 10 10h133q10 0 10 -10v-124q0 -10 -10 -10h-133zM460 -323q-10 0 -10 10v124q0 10 10 10h133q10 0 10 -10v-124q0 -10 -10 -10h-133z" arabic-form="isolated" glyph-name="aYeh" horiz-adv-x="844" unicode="ي"/><glyph d="M249 10q0 -10 -10 -10h-179q-10 0 -10 10v660q0 10 10 10h179q10 0 10 -10v-660zM41 822q10 0 10 11v85q0 7 8 7h63q8 0 8 -7v-5q31 11 67 11q45 0 62.5 -23.5t17.5 -63.5q0 -44 -13 -61t-41 -17h-194q-7 0 -7 7v49q0 7 7 7h12zM173 861q-18 0 -43 -10v-29h50 q11 0 14.5 5t3.5 15q0 12 -7 15.5t-18 3.5z" arabic-form="isolated" glyph-name="aAlifWasla" horiz-adv-x="299" unicode="ٱ"/><glyph d="M594 164q26 0 37.5 11.5t11.5 41.5v207q0 10 10 10h179q10 0 10 -10v-298q0 -65 -27 -95.5t-92 -30.5h-556q-63 0 -90 30.5t-27 95.5v233q0 10 10 10h179q10 0 10 -10v-142q0 -30 11.5 -41.5t36.5 -11.5h297v0zM337 500q10 0 10 11v139q0 7 8 7h63q8 0 8 -7v-59 q33 11 67 11q45 0 62.5 -23t17.5 -58q0 -48 -13 -66t-41 -18h-194q-7 0 -7 7v49q0 7 7 7h12zM469 539q-18 0 -43 -10v-29h50q11 0 14.5 5t3.5 15q0 12 -7 15.5t-18 3.5z" arabic-form="isolated" glyph-name="aTteh" horiz-adv-x="892" unicode="ٹ"/><glyph d="M594 164q26 0 37.5 11.5t11.5 41.5v207q0 10 10 10h179q10 0 10 -10v-298q0 -65 -27 -95.5t-92 -30.5h-556q-63 0 -90 30.5t-27 95.5v233q0 10 10 10h179q10 0 10 -10v-142q0 -30 11.5 -41.5t36.5 -11.5h297v0zM372 -381q-10 0 -10 10v124q0 10 10 10h151q10 0 10 -10 v-124q0 -10 -10 -10h-151zM288 -210q-10 0 -10 10v124q0 10 10 10h133q10 0 10 -10v-124q0 -10 -10 -10h-133zM469 -210q-10 0 -10 10v124q0 10 10 10h133q10 0 10 -10v-124q0 -10 -10 -10h-133z" arabic-form="isolated" glyph-name="aPeh" horiz-adv-x="892" unicode="پ"/><glyph d="M409 -224q-6 0 -6 6v75q0 6 6 6h91q6 0 6 -6v-75q0 -6 -6 -6h-91zM359 -121q-6 0 -6 6v74q0 6 6 6h79q6 0 6 -6v-74q0 -6 -6 -6h-79zM467 -121q-6 0 -6 6v74q0 6 6 6h80q6 0 6 -6v-74q0 -6 -6 -6h-80zM235 -210q-53 0 -93.5 8.5t-67.5 30t-40.5 59t-13.5 95.5q0 52 14 87 t39 56t60.5 29.5t78.5 8.5h83q39 0 55 11.5t16 43.5q0 10 -3.5 22t-11.5 22t-21.5 16.5t-32.5 6.5q-29 0 -50.5 -11t-41.5 -25q-4 -2 -7 -3t-7 2l-75 106q-3 4 -4.5 8.5t2.5 7.5q42 34 89 56.5t115 22.5q63 0 110.5 -17t79 -48.5t47 -77t15.5 -101.5q0 -66 -14.5 -106.5 t-40 -62.5t-61 -29.5t-78.5 -7.5h-113q-23 0 -32.5 -4.5t-9.5 -18.5t8 -18.5t34 -4.5h47q10 0 10 -10v-144q0 -10 -10 -10h-75z" arabic-form="isolated" glyph-name="aTcheh" horiz-adv-x="610" unicode="چ"/><glyph d="M460 171q0 -48 -10.5 -80.5t-31 -53t-50 -29t-67.5 -8.5h-261q-10 0 -10 10v144q0 10 10 10h152q22 0 34.5 3t19 8.5t8.5 14t2 20.5v28q0 29 -16 38.5t-50 9.5h-113q-10 0 -10 10v144q0 10 10 10h200q94 0 138.5 -44.5t44.5 -137.5v-97zM134 566q10 0 10 11v139q0 7 8 7 h63q8 0 8 -7v-59q33 11 67 11q45 0 62.5 -23t17.5 -58q0 -48 -13 -66t-41 -18h-194q-7 0 -7 7v49q0 7 7 7h12zM266 605q-18 0 -43 -10v-29h50q11 0 14.5 5t3.5 15q0 12 -7 15.5t-18 3.5z" arabic-form="isolated" glyph-name="aDdal" horiz-adv-x="505" unicode="ڈ"/><glyph d="M15 -210q-10 0 -10 10v144q0 10 10 10h20q42 0 57 21t15 64v385q0 10 10 10h179q10 0 10 -10v-398q0 -124 -55.5 -180t-170.5 -56h-65zM93 566q10 0 10 11v139q0 7 8 7h63q8 0 8 -7v-59q33 11 67 11q45 0 62.5 -23t17.5 -58q0 -48 -13 -66t-41 -18h-194q-7 0 -7 7v49 q0 7 7 7h12zM225 605q-18 0 -43 -10v-29h50q11 0 14.5 5t3.5 15q0 12 -7 15.5t-18 3.5z" arabic-form="isolated" glyph-name="aRreh" horiz-adv-x="356" unicode="ڑ"/><glyph d="M15 -210q-10 0 -10 10v144q0 10 10 10h20q42 0 57 21t15 64v385q0 10 10 10h179q10 0 10 -10v-398q0 -124 -55.5 -180t-170.5 -56h-65zM123 709q-10 0 -10 10v124q0 10 10 10h151q10 0 10 -10v-124q0 -10 -10 -10h-151zM43 536q-10 0 -10 10v124q0 10 10 10h133 q10 0 10 -10v-124q0 -10 -10 -10h-133zM224 536q-10 0 -10 10v124q0 10 10 10h133q10 0 10 -10v-124q0 -10 -10 -10h-133z" arabic-form="isolated" glyph-name="aJeh" horiz-adv-x="356" unicode="ژ"/><glyph d="M167 0q-63 0 -90 30.5t-27 95.5v233q0 10 10 10h179q10 0 10 -10v-142q0 -30 11.5 -41.5t36.5 -11.5h182q-2 11 -3 23.5t-1 26.5q0 73 22.5 119.5t58.5 72t81 35t89 9.5t89 -9.5t81 -35t58.5 -72t22.5 -119.5q0 -65 -20.5 -106.5t-55.5 -65.5t-80.5 -33t-94.5 -9h-559z M726 286q-26 0 -41.5 -14t-15.5 -49q0 -41 16 -53.5t41 -12.5q27 0 42 12.5t15 53.5q0 38 -15.5 50.5t-41.5 12.5zM643 709q-10 0 -10 10v124q0 10 10 10h151q10 0 10 -10v-124q0 -10 -10 -10h-151zM563 536q-10 0 -10 10v124q0 10 10 10h133q10 0 10 -10v-124 q0 -10 -10 -10h-133zM744 536q-10 0 -10 10v124q0 10 10 10h133q10 0 10 -10v-124q0 -10 -10 -10h-133z" arabic-form="isolated" glyph-name="aVeh" horiz-adv-x="1017" unicode="ڤ"/><glyph d="M167 0q-63 0 -90 30.5t-27 95.5v233q0 10 10 10h179q10 0 10 -10v-142q0 -30 11.5 -41.5t36.5 -11.5h308q21 0 33 1.5t19 6.5t9.5 13.5t2.5 22.5v30q0 31 -15 41t-51 10h-139q-10 0 -10 10v108q0 5 3.5 9.5t5.5 6.5l232 274q6 7 13 3l117 -99q8 -6 4 -14l-119 -137 q86 -8 124.5 -54t38.5 -137v-88q0 -48 -10.5 -80.5t-31 -53t-50 -29t-67.5 -8.5h-547z" arabic-form="isolated" glyph-name="aKeheh" horiz-adv-x="918" unicode="ک"/><glyph d="M167 0q-63 0 -90 30.5t-27 95.5v233q0 10 10 10h179q10 0 10 -10v-142q0 -30 11.5 -41.5t36.5 -11.5h308q21 0 33 1.5t19 6.5t9.5 13.5t2.5 22.5v30q0 31 -15 41t-51 10h-139q-10 0 -10 10v108q0 5 3.5 9.5t5.5 6.5l232 274q6 7 13 3l117 -99q8 -6 4 -14l-119 -137 q86 -8 124.5 -54t38.5 -137v-88q0 -48 -10.5 -80.5t-31 -53t-50 -29t-67.5 -8.5h-547zM438 465q-6 -7 -13 -3l-93 76q-8 5 -4 14l225 264q6 7 13 3l93 -76q8 -6 4 -14z" arabic-form="isolated" glyph-name="aGaf" horiz-adv-x="918" unicode="گ"/><glyph d="M84 219q4 7 16 5l161 -39q6 -1 7 -5.5t-1 -8.5q-9 -28 -17.5 -57t-8.5 -71q0 -56 21.5 -81t53.5 -25q39 0 55.5 25t16.5 73v309q0 10 10 10h179q10 0 10 -10v-320q0 -74 -23.5 -122.5t-62 -77.5t-87.5 -41t-99 -12t-99.5 12.5t-88.5 42.5t-63 79.5t-24 123.5q0 40 9.5 92 t34.5 98z" arabic-form="isolated" glyph-name="aNunGhunna" horiz-adv-x="637" unicode="ں"/><glyph d="M254 0q-23 0 -29.5 -6.5t-6.5 -27.5v-57q0 -10 -10 -10h-179q-10 0 -10 10v145q0 23 4.5 43t16 35t32 23.5t52.5 8.5h63q-5 12 -8.5 34.5t-3.5 39.5q0 26 3 42.5t9 36.5l-11 -3q-13 -3 -15 2l-30 121q-2 6 -2.5 9.5t3.5 5.5q21 7 57 14.5t79 13.5t88 10t83 4 q66 0 127 -10.5t108 -40t75 -80.5t28 -132q0 -48 -8.5 -90t-32.5 -73.5t-68 -49.5t-115 -18h-299zM336 323q-19 0 -31.5 -17t-12.5 -68q0 -27 3.5 -43.5t9.5 -25.5t14 -12.5t17 -3.5t17 3.5t14 12.5t9 25.5t3 43.5q0 52 -12 68.5t-31 16.5zM569 239q0 38 -18.5 62.5 t-62.5 35.5q10 -21 15.5 -47.5t5.5 -53.5q0 -26 -5.5 -50t-13.5 -37q36 2 57.5 20t21.5 70z" arabic-form="isolated" glyph-name="aHehDoachashmi" horiz-adv-x="817" unicode="ھ"/><glyph d="M291 -7q-50 0 -95 10t-80 35t-55.5 68t-20.5 108q0 73 22.5 119.5t58.5 72t81 35t89 9.5t89 -9.5t81 -35t58.5 -72t22.5 -119.5q0 -65 -20.5 -108t-55.5 -68t-80.5 -35t-94.5 -10zM291 286q-26 0 -41.5 -14t-15.5 -49q0 -41 16 -53.5t41 -12.5q27 0 42 12.5t15 53.5 q0 38 -15.5 50.5t-41.5 12.5z" arabic-form="isolated" glyph-name="aHehGoal" horiz-adv-x="582" unicode="ہ"/><glyph d="M185 583q-11 19 -11 44q0 42 30 71.5t87 29.5q37 0 63.5 -14t40.5 -31q4 -4 -1 -8l-39 -46q-3 -4 -9 0q-23 23 -46 23q-10 0 -20.5 -6.5t-10.5 -24.5q0 -14 8 -23.5t17 -14.5h97q6 0 6 -7v-62q0 -7 -6 -7h-242q-6 0 -6 7v62q0 7 6 7h36zM508 236q0 -17 1.5 -30.5 t7.5 -22.5t18 -14t33 -5h13q21 0 30.5 -17t9.5 -64q0 -83 -40 -83h-128q-144 0 -144 141v123h-29q-15 0 -23 -3.5t-12 -13t-5 -26t-1 -41.5v-170q0 -10 -10 -10h-179q-10 0 -10 10v237q0 58 17.5 94.5t45.5 57t63 28t71 7.5h261q10 0 10 -10v-188z" glyph-name="aHehGoalHamzaabove.fina" horiz-adv-x="492" unicode="ۂ"/><glyph d="M80 570q-10 0 -10 10v124q0 10 10 10h133q10 0 10 -10v-124q0 -10 -10 -10h-133zM261 570q-10 0 -10 10v124q0 10 10 10h133q10 0 10 -10v-124q0 -10 -10 -10h-133zM348 450v43q0 10 10 10h179q10 0 10 -10v-276q0 -30 11.5 -41.5t36.5 -11.5h19q40 0 40 -82 q0 -45 -9.5 -63.5t-30.5 -18.5h-149q-49 0 -76.5 12.5t-36.5 55.5q-25 -18 -55 -27t-61 -9q-40 0 -77 10.5t-65.5 35t-46 64t-17.5 97.5q0 64 19 105t49.5 64.5t69 32.5t77.5 9h103zM285 196q10 0 21 2t20.5 7.5t15.5 15.5t6 26v39h-62q-30 0 -46 -9.5t-16 -36.5 q0 -15 5 -23.5t13.5 -13t19.5 -6t23 -1.5z" glyph-name="aTehMarbutaGoal.fina" horiz-adv-x="614" unicode="ۃ"/><glyph d="M493 -44q26 0 42.5 3t25.5 7.5t12.5 10.5t3.5 12q0 14 -15 27t-37.5 27.5t-48.5 32.5t-48.5 41.5t-37.5 54.5t-15 73q0 52 21 90.5t55.5 64t78.5 38t90 12.5q63 0 117.5 -18.5t83.5 -51.5q3 -4 2 -6.5t-5 -7.5l-87 -104q-6 -5 -14 1q-19 14 -38 18.5t-35 4.5 q-23 0 -41 -10.5t-18 -34.5q0 -22 16 -39.5t40.5 -34.5t53 -35.5t53 -41.5t40.5 -53t16 -70q0 -87 -60.5 -132t-172.5 -45h-233q-84 0 -142.5 16.5t-95.5 47.5t-53.5 74t-16.5 96q0 27 5.5 54t14 52.5t20 49t23.5 42.5q6 9 16 4l150 -72q8 -5 3 -13q-31 -55 -31 -99 q0 -29 13 -46t32.5 -26t42.5 -11.5t42 -2.5h132z" arabic-form="isolated" glyph-name="aYehFarsi" horiz-adv-x="844" unicode="ی"/><glyph d="M383 341q-18 -24 -41.5 -46.5t-44 -42.5t-34.5 -36t-14 -28q0 -24 40 -24h487q10 0 10 -10v-144q0 -10 -10 -10h-502q-104 0 -163.5 35t-59.5 115q0 38 15 74.5t40.5 73.5t60 76t73.5 82q2 2 6.5 3t8.5 -2l127 -102q7 -7 1 -14z" arabic-form="isolated" glyph-name="aYehBarri" horiz-adv-x="805" unicode="ے"/><glyph d="M390 341q-18 -24 -41.5 -46.5t-44 -42.5t-34.5 -36t-14 -28q0 -24 40 -24h487q10 0 10 -10v-144q0 -10 -10 -10h-502q-104 0 -163.5 35t-59.5 115q0 38 15 74.5t40.5 73.5t60 76t73.5 82q2 2 6.5 3t8.5 -2l127 -102q7 -7 1 -14zM115 590q-11 19 -11 44q0 42 30 71.5 t87 29.5q37 0 63.5 -14t40.5 -31q4 -4 -1 -8l-39 -46q-3 -4 -9 0q-23 23 -46 23q-10 0 -20.5 -6.5t-10.5 -24.5q0 -14 8 -23.5t17 -14.5h97q6 0 6 -7v-62q0 -7 -6 -7h-242q-6 0 -6 7v62q0 7 6 7h36z" arabic-form="isolated" glyph-name="aYehBarriHamzaabove" horiz-adv-x="819" unicode="ۓ"/><glyph d="M348 450v43q0 10 10 10h179q10 0 10 -10v-276q0 -30 11.5 -41.5t36.5 -11.5h19q40 0 40 -82q0 -45 -9.5 -63.5t-30.5 -18.5h-149q-49 0 -76.5 12.5t-36.5 55.5q-25 -18 -55 -27t-61 -9q-40 0 -77 10.5t-65.5 35t-46 64t-17.5 97.5q0 64 19 105t49.5 64.5t69 32.5t77.5 9 h103zM285 196q10 0 21 2t20.5 7.5t15.5 15.5t6 26v39h-62q-30 0 -46 -9.5t-16 -36.5q0 -15 5 -23.5t13.5 -13t19.5 -6t23 -1.5z" glyph-name="aAe.fina" horiz-adv-x="614" unicode="ە"/><glyph d="M41 822q10 0 10 11v85q0 7 8 7h63q8 0 8 -7v-5q31 11 67 11q45 0 62.5 -23.5t17.5 -63.5q0 -44 -13 -61t-41 -17h-194q-7 0 -7 7v49q0 7 7 7h12zM173 861q-18 0 -43 -10v-29h50q11 0 14.5 5t3.5 15q0 12 -7 15.5t-18 3.5zM50 670q0 10 10 10h179q10 0 10 -10v-453 q0 -30 11.5 -41.5t36.5 -11.5h9q20 0 30 -19t10 -67q0 -47 -9.5 -62.5t-30.5 -15.5h-139q-63 0 -90 30.5t-27 95.5v544z" arabic-form="final" glyph-name="aAlifWasla.fina" horiz-adv-x="306" unicode="ٱ"/><glyph d="M827 49q-25 -49 -104 -49h-556q-63 0 -90 30.5t-27 95.5v233q0 10 10 10h179q10 0 10 -10v-142q0 -30 11.5 -41.5t36.5 -11.5h297q26 0 37.5 11.5t11.5 41.5v207q0 10 10 10h179q10 0 10 -10v-219q4 -17 18 -29t44 -12h34q40 0 40 -83q0 -37 -9.5 -59t-30.5 -22 q-35 0 -61.5 9.5t-49.5 39.5zM370 -381q-10 0 -10 10v124q0 10 10 10h151q10 0 10 -10v-124q0 -10 -10 -10h-151zM286 -210q-10 0 -10 10v124q0 10 10 10h133q10 0 10 -10v-124q0 -10 -10 -10h-133zM467 -210q-10 0 -10 10v124q0 10 10 10h133q10 0 10 -10v-124 q0 -10 -10 -10h-133z" arabic-form="final" glyph-name="aPeh.fina" horiz-adv-x="938" unicode="پ"/><glyph d="M0 0q-20 0 -30 17.5t-10 61.5q0 85 40 85h55q25 0 36.5 11.5t11.5 41.5v207q0 10 10 10h179q10 0 10 -10v-298q0 -65 -27 -95.5t-90 -30.5h-185zM111 -381q-10 0 -10 10v124q0 10 10 10h151q10 0 10 -10v-124q0 -10 -10 -10h-151zM27 -210q-10 0 -10 10v124q0 10 10 10 h133q10 0 10 -10v-124q0 -10 -10 -10h-133zM208 -210q-10 0 -10 10v124q0 10 10 10h133q10 0 10 -10v-124q0 -10 -10 -10h-133z" arabic-form="initial" glyph-name="aPeh.init" horiz-adv-x="362" unicode="پ"/><glyph d="M126 -381q-10 0 -10 10v124q0 10 10 10h151q10 0 10 -10v-124q0 -10 -10 -10h-151zM42 -210q-10 0 -10 10v124q0 10 10 10h133q10 0 10 -10v-124q0 -10 -10 -10h-133zM223 -210q-10 0 -10 10v124q0 10 10 10h133q10 0 10 -10v-124q0 -10 -10 -10h-133zM287 49 q-25 -49 -102 -49h-185q-20 0 -30 18t-10 66q0 42 9.5 61t30.5 19h55q25 0 36.5 11.5t11.5 41.5v207q0 10 10 10h179q10 0 10 -10v-219q4 -17 18 -29t44 -12h34q40 0 40 -83q0 -37 -9.5 -59t-30.5 -22q-35 0 -61.5 9.5t-49.5 39.5z" arabic-form="medial" glyph-name="aPeh.medi" horiz-adv-x="398" unicode="پ"/><glyph d="M337 500q10 0 10 11v139q0 7 8 7h63q8 0 8 -7v-59q33 11 67 11q45 0 62.5 -23t17.5 -58q0 -48 -13 -66t-41 -18h-194q-7 0 -7 7v49q0 7 7 7h12zM469 539q-18 0 -43 -10v-29h50q11 0 14.5 5t3.5 15q0 12 -7 15.5t-18 3.5zM827 49q-25 -49 -104 -49h-556q-63 0 -90 30.5 t-27 95.5v233q0 10 10 10h179q10 0 10 -10v-142q0 -30 11.5 -41.5t36.5 -11.5h297q26 0 37.5 11.5t11.5 41.5v207q0 10 10 10h179q10 0 10 -10v-219q4 -17 18 -29t44 -12h34q40 0 40 -83q0 -37 -9.5 -59t-30.5 -22q-35 0 -61.5 9.5t-49.5 39.5z" arabic-form="final" glyph-name="aTteh.fina" horiz-adv-x="938" unicode="ٹ"/><glyph d="M39 566q10 0 10 11v139q0 7 8 7h63q8 0 8 -7v-59q33 11 67 11q45 0 62.5 -23t17.5 -58q0 -48 -13 -66t-41 -18h-194q-7 0 -7 7v49q0 7 7 7h12zM171 605q-18 0 -43 -10v-29h50q11 0 14.5 5t3.5 15q0 12 -7 15.5t-18 3.5zM0 0q-20 0 -30 7t-10 28q0 12 2.5 34t7 43t12 36.5 t18.5 15.5h8q25 0 36.5 11.5t11.5 41.5v207q0 10 10 10h179q10 0 10 -10v-298q0 -65 -27 -95.5t-90 -30.5h-138z" arabic-form="initial" glyph-name="aTteh.init" horiz-adv-x="305" unicode="ٹ"/><glyph d="M48 566q10 0 10 11v139q0 7 8 7h63q8 0 8 -7v-59q33 11 67 11q45 0 62.5 -23t17.5 -58q0 -48 -13 -66t-41 -18h-194q-7 0 -7 7v49q0 7 7 7h12zM180 605q-18 0 -43 -10v-29h50q11 0 14.5 5t3.5 15q0 12 -7 15.5t-18 3.5zM240 49q-25 -49 -102 -49h-138q-20 0 -30 7t-10 28 q0 12 2.5 34t7 43t12 36.5t18.5 15.5h8q25 0 36.5 11.5t11.5 41.5v207q0 10 10 10h179q10 0 10 -10v-219q4 -17 18 -29t44 -12h34q40 0 40 -83q0 -37 -9.5 -59t-30.5 -22q-35 0 -61.5 9.5t-49.5 39.5z" arabic-form="medial" glyph-name="aTteh.medi" horiz-adv-x="351" unicode="ٹ"/><glyph d="M693 450q51 0 95.5 -10t78 -30t53 -52t19.5 -75q0 -42 -20 -71t-46 -48h113q20 0 30 -18t10 -67q0 -42 -9.5 -60.5t-30.5 -18.5h-163q-36 0 -68 3t-61 21q-33 -18 -70.5 -21t-66.5 -3h-390q-63 0 -90 30.5t-27 95.5v243q0 10 10 10h179q10 0 10 -10v-152 q0 -30 11.5 -41.5t36.5 -11.5h216q-26 19 -46 48t-20 71q0 43 19.5 75t53 52t78 30t95.5 10zM693 330q-8 0 -17 -3.5t-16.5 -11t-13 -19.5t-5.5 -30t4.5 -31t11.5 -22.5t16.5 -17t19.5 -14.5q10 7 19.5 14.5t16.5 17t11.5 22.5t4.5 31t-5.5 30t-13 19.5t-17 11t-16.5 3.5z M619 709q-10 0 -10 10v124q0 10 10 10h151q10 0 10 -10v-124q0 -10 -10 -10h-151zM539 536q-10 0 -10 10v124q0 10 10 10h133q10 0 10 -10v-124q0 -10 -10 -10h-133zM720 536q-10 0 -10 10v124q0 10 10 10h133q10 0 10 -10v-124q0 -10 -10 -10h-133z" arabic-form="final" glyph-name="aVeh.fina" horiz-adv-x="986" unicode="ڤ"/><glyph d="M0 0q-21 0 -30.5 17t-9.5 65q0 44 10 63t30 19h41q-2 11 -3 23.5t-1 26.5q0 73 22.5 119.5t58.5 72t81 35t89 9.5t89 -9.5t81 -35t58.5 -72t22.5 -119.5q0 -65 -20.5 -106.5t-55.5 -65.5t-80.5 -33t-94.5 -9h-288zM288 286q-26 0 -41.5 -14t-15.5 -49q0 -41 16 -53.5 t41 -12.5q27 0 42 12.5t15 53.5q0 38 -15.5 50.5t-41.5 12.5zM214 709q-10 0 -10 10v124q0 10 10 10h151q10 0 10 -10v-124q0 -10 -10 -10h-151zM134 536q-10 0 -10 10v124q0 10 10 10h133q10 0 10 -10v-124q0 -10 -10 -10h-133zM315 536q-10 0 -10 10v124q0 10 10 10h133 q10 0 10 -10v-124q0 -10 -10 -10h-133z" arabic-form="initial" glyph-name="aVeh.init" horiz-adv-x="579" unicode="ڤ"/><glyph d="M305 450q51 0 95.5 -9.5t78 -30t53 -52t19.5 -74.5q0 -42 -20 -71.5t-46 -48.5h117q20 0 30 -18t10 -67q0 -42 -9.5 -60.5t-30.5 -18.5h-167q-36 0 -68 3t-61 21q-33 -18 -70.5 -21t-66.5 -3h-169q-21 0 -30.5 19t-9.5 65q0 80 40 80h125q-26 19 -46 48.5t-20 71.5 q0 43 19.5 74.5t53 52t78 30t95.5 9.5zM305 330q-8 0 -17 -3t-16.5 -10.5t-13 -19.5t-5.5 -30q0 -37 16 -54.5t36 -31.5q20 14 36 31.5t16 54.5q0 18 -5.5 30t-13 19.5t-17 10.5t-16.5 3zM229 709q-10 0 -10 10v124q0 10 10 10h151q10 0 10 -10v-124q0 -10 -10 -10h-151z M149 536q-10 0 -10 10v124q0 10 10 10h133q10 0 10 -10v-124q0 -10 -10 -10h-133zM330 536q-10 0 -10 10v124q0 10 10 10h133q10 0 10 -10v-124q0 -10 -10 -10h-133z" arabic-form="medial" glyph-name="aVeh.medi" horiz-adv-x="602" unicode="ڤ"/><glyph d="M409 -224q-6 0 -6 6v75q0 6 6 6h91q6 0 6 -6v-75q0 -6 -6 -6h-91zM359 -121q-6 0 -6 6v74q0 6 6 6h79q6 0 6 -6v-74q0 -6 -6 -6h-79zM467 -121q-6 0 -6 6v74q0 6 6 6h80q6 0 6 -6v-74q0 -6 -6 -6h-80zM235 -210q-53 0 -93.5 8.5t-67.5 30t-40.5 59t-13.5 95.5q0 52 14 87 t39 56t60.5 29.5t78.5 8.5h83q39 0 55 11.5t16 43.5q0 10 -3.5 22t-11.5 22t-21.5 16.5t-32.5 6.5q-29 0 -50.5 -11t-41.5 -25q-4 -2 -7 -3t-7 2l-75 106q-3 4 -4.5 8.5t2.5 7.5q42 34 89 56.5t115 22.5q127 0 189.5 -66t62.5 -179q4 -17 18 -29t44 -12h34q40 0 40 -83 q0 -37 -9.5 -59t-30.5 -22q-44 0 -73.5 12.5t-53.5 51.5q-25 -40 -67 -52t-96 -12h-113q-23 0 -32.5 -4.5t-9.5 -18.5t8 -18.5t34 -4.5h47q10 0 10 -10v-144q0 -10 -10 -10h-75z" arabic-form="final" glyph-name="aTcheh.fina" horiz-adv-x="665" unicode="چ"/><glyph d="M0 0q-20 0 -30 17t-10 62q0 85 40 85h212q39 0 55 11.5t16 43.5q0 10 -3.5 22t-11.5 22t-21.5 16.5t-32.5 6.5q-29 0 -50.5 -11t-41.5 -25q-4 -2 -7 -3t-7 2l-75 106q-3 4 -4.5 8.5t2.5 7.5q42 34 89 56.5t115 22.5q63 0 110.5 -17t79 -48.5t47 -77t15.5 -101.5 q0 -66 -14.5 -106.5t-40 -62.5t-61 -29.5t-78.5 -7.5h-293zM167 -381q-10 0 -10 10v124q0 10 10 10h151q10 0 10 -10v-124q0 -10 -10 -10h-151zM83 -210q-10 0 -10 10v124q0 10 10 10h133q10 0 10 -10v-124q0 -10 -10 -10h-133zM264 -210q-10 0 -10 10v124q0 10 10 10h133 q10 0 10 -10v-124q0 -10 -10 -10h-133z" arabic-form="initial" glyph-name="aTcheh.init" horiz-adv-x="527" unicode="چ"/><glyph d="M0 0q-20 0 -30 17t-10 62q0 85 40 85h212q39 0 55 11.5t16 43.5q0 10 -3.5 22t-11.5 22t-21.5 16.5t-32.5 6.5q-29 0 -50.5 -11t-41.5 -25q-4 -2 -7 -3t-7 2l-75 106q-3 4 -4.5 8.5t2.5 7.5q42 34 89 56.5t115 22.5q63 0 110.5 -17t79 -48.5t47 -77t15.5 -101.5 q4 -17 18 -29.5t44 -12.5h34q40 0 40 -83q0 -37 -9.5 -59t-30.5 -22q-44 0 -73.5 12.5t-53.5 51.5q-25 -40 -67 -52t-96 -12h-293zM167 -381q-10 0 -10 10v124q0 10 10 10h151q10 0 10 -10v-124q0 -10 -10 -10h-151zM83 -210q-10 0 -10 10v124q0 10 10 10h133q10 0 10 -10 v-124q0 -10 -10 -10h-133zM264 -210q-10 0 -10 10v124q0 10 10 10h133q10 0 10 -10v-124q0 -10 -10 -10h-133z" arabic-form="medial" glyph-name="aTcheh.medi" horiz-adv-x="583" unicode="چ"/><glyph d="M460 201q5 -15 18.5 -26t42.5 -11h34q40 0 40 -83q0 -37 -9.5 -59t-30.5 -22q-42 0 -70.5 11t-51.5 45q-20 -30 -53 -43t-79 -13h-261q-10 0 -10 10v144q0 10 10 10h152q22 0 34.5 3t19 8.5t8.5 14t2 20.5v28q0 29 -16 38.5t-50 9.5h-113q-10 0 -10 10v144q0 10 10 10 h200q94 0 138.5 -44.5t44.5 -137.5v-67zM134 566q10 0 10 11v139q0 7 8 7h63q8 0 8 -7v-59q33 11 67 11q45 0 62.5 -23t17.5 -58q0 -48 -13 -66t-41 -18h-194q-7 0 -7 7v49q0 7 7 7h12zM266 605q-18 0 -43 -10v-29h50q11 0 14.5 5t3.5 15q0 12 -7 15.5t-18 3.5z" arabic-form="final" glyph-name="aDdal.fina" horiz-adv-x="555" unicode="ڈ"/><glyph d="M15 -210q-10 0 -10 10v144q0 10 10 10h20q42 0 57 21t15 64v385q0 10 10 10h179q10 0 10 -10v-219q4 -17 18 -29t44 -12h34q40 0 40 -83q0 -37 -9.5 -59t-30.5 -22q-35 0 -57.5 7.5t-38.5 28.5v-10q0 -124 -55.5 -180t-170.5 -56h-65zM123 709q-10 0 -10 10v124 q0 10 10 10h151q10 0 10 -10v-124q0 -10 -10 -10h-151zM43 536q-10 0 -10 10v124q0 10 10 10h133q10 0 10 -10v-124q0 -10 -10 -10h-133zM224 536q-10 0 -10 10v124q0 10 10 10h133q10 0 10 -10v-124q0 -10 -10 -10h-133z" arabic-form="final" glyph-name="aJeh.fina" horiz-adv-x="402" unicode="ژ"/><glyph d="M15 -210q-10 0 -10 10v144q0 10 10 10h20q42 0 57 21t15 64v385q0 10 10 10h179q10 0 10 -10v-219q4 -17 18 -29t44 -12h34q40 0 40 -83q0 -37 -9.5 -59t-30.5 -22q-35 0 -57.5 7.5t-38.5 28.5v-10q0 -124 -55.5 -180t-170.5 -56h-65zM93 566q10 0 10 11v139q0 7 8 7h63 q8 0 8 -7v-59q33 11 67 11q45 0 62.5 -23t17.5 -58q0 -48 -13 -66t-41 -18h-194q-7 0 -7 7v49q0 7 7 7h12zM225 605q-18 0 -43 -10v-29h50q11 0 14.5 5t3.5 15q0 12 -7 15.5t-18 3.5z" arabic-form="final" glyph-name="aRreh.fina" horiz-adv-x="402" unicode="ڑ"/><glyph d="M167 0q-63 0 -90 30.5t-27 95.5v233q0 10 10 10h179q10 0 10 -10v-142q0 -30 11.5 -41.5t36.5 -11.5h308q21 0 33 1.5t19 6.5t9.5 13.5t2.5 22.5v30q0 31 -15 41t-51 10h-139q-10 0 -10 10v108q0 5 3.5 9.5t5.5 6.5l232 274q6 7 13 3l117 -99q8 -6 4 -14l-119 -137 q86 -8 124.5 -54t38.5 -137v-54q4 -17 18 -29t44 -12h34q40 0 40 -83q0 -37 -9.5 -59t-30.5 -22q-42 0 -70.5 11t-51.5 46q-20 -31 -53.5 -44t-79.5 -13h-547z" arabic-form="final" glyph-name="aKeheh.fina" horiz-adv-x="968" unicode="ک"/><glyph d="M290 450q86 -8 124.5 -54t38.5 -137v-88q0 -48 -10.5 -80.5t-31 -53t-50 -29t-67.5 -8.5h-294q-20 0 -30 18.5t-10 69.5q0 42 9.5 59t30.5 17h185q21 0 33 1.5t19 6.5t9.5 13.5t2.5 22.5v30q0 31 -15 41t-51 10h-139q-10 0 -10 10v108q0 5 3.5 9.5t5.5 6.5l232 274 q6 7 13 3l117 -99q8 -6 4 -14z" arabic-form="initial" glyph-name="aKeheh.init" horiz-adv-x="498" unicode="ک"/><glyph d="M290 450q86 -8 124.5 -54t38.5 -137v-54q4 -17 18 -29t44 -12h34q40 0 40 -83q0 -37 -9.5 -59t-30.5 -22q-42 0 -70.5 11t-51.5 46q-20 -31 -53.5 -44t-79.5 -13h-294q-20 0 -30 18.5t-10 69.5q0 42 9.5 59t30.5 17h185q21 0 33 1.5t19 6.5t9.5 13.5t2.5 22.5v30 q0 31 -15 41t-51 10h-139q-10 0 -10 10v108q0 5 3.5 9.5t5.5 6.5l232 274q6 7 13 3l117 -99q8 -6 4 -14z" arabic-form="medial" glyph-name="aKeheh.medi" horiz-adv-x="549" unicode="ک"/><glyph d="M445 465q-6 -7 -13 -3l-93 76q-8 5 -4 14l225 264q6 7 13 3l93 -76q8 -6 4 -14zM174 0q-63 0 -90 30.5t-27 95.5v233q0 10 10 10h179q10 0 10 -10v-142q0 -30 11.5 -41.5t36.5 -11.5h308q21 0 33 1.5t19 6.5t9.5 13.5t2.5 22.5v30q0 31 -15 41t-51 10h-139q-10 0 -10 10 v108q0 5 3.5 9.5t5.5 6.5l232 274q6 7 13 3l117 -99q8 -6 4 -14l-119 -137q86 -8 124.5 -54t38.5 -137v-54q4 -17 18 -29t44 -12h34q40 0 40 -83q0 -37 -9.5 -59t-30.5 -22q-42 0 -70.5 11t-51.5 46q-20 -31 -53.5 -44t-79.5 -13h-547z" arabic-form="final" glyph-name="aGaf.fina" horiz-adv-x="923" unicode="گ"/><glyph d="M-8 0q-20 0 -30 14.5t-10 60.5q0 89 40 89h264q21 0 33 1.5t19 6.5t9.5 13.5t2.5 22.5v30q0 31 -15 41t-51 10h-139q-10 0 -10 10v108q0 5 3.5 9.5t5.5 6.5l232 274q6 7 13 3l117 -99q8 -6 4 -14l-119 -137q86 -8 124.5 -54t38.5 -137v-88q0 -48 -10.5 -80.5t-31 -53 t-50 -29t-67.5 -8.5h-373zM83 465q-6 -7 -13 -3l-93 76q-8 5 -4 14l225 264q6 7 13 3l93 -76q8 -6 4 -14z" arabic-form="initial" glyph-name="aGaf.init" horiz-adv-x="569" unicode="گ"/><glyph d="M-8 0q-20 0 -30 14.5t-10 60.5q0 89 40 89h254q21 0 33 1.5t19 6.5t9.5 13.5t2.5 22.5v30q0 31 -15 41t-51 10h-139q-10 0 -10 10v108q0 5 3.5 9.5t5.5 6.5l232 274q6 7 13 3l117 -99q8 -6 4 -14l-119 -137q86 -8 124.5 -54t38.5 -137v-54q4 -17 18 -29t44 -12h34 q40 0 40 -83q0 -37 -9.5 -59t-30.5 -22q-42 0 -70.5 11t-51.5 46q-20 -31 -53.5 -44t-79.5 -13h-363zM73 465q-6 -7 -13 -3l-93 76q-8 5 -4 14l225 264q6 7 13 3l93 -76q8 -6 4 -14z" arabic-form="medial" glyph-name="aGaf.medi" horiz-adv-x="611" unicode="گ"/><glyph d="M84 219q4 7 16 5l161 -39q6 -1 7 -5.5t-1 -8.5q-9 -28 -17.5 -57t-8.5 -71q0 -56 21.5 -81t53.5 -25q39 0 55.5 25t16.5 73v309q0 10 10 10h179q10 0 10 -10v-139q4 -17 18 -29t44 -12h34q40 0 40 -83q0 -37 -9.5 -59t-30.5 -22q-29 0 -52.5 6t-43.5 25v-7 q0 -74 -23.5 -122.5t-62 -77.5t-87.5 -41t-99 -12t-99.5 12.5t-88.5 42.5t-63 79.5t-24 123.5q0 40 9.5 92t34.5 98z" arabic-form="final" glyph-name="aNunGhunna.fina" horiz-adv-x="683" unicode="ں"/><glyph d="M348 450v43q0 10 10 10h179q10 0 10 -10v-276q0 -30 11.5 -41.5t36.5 -11.5h19q40 0 40 -82q0 -45 -9.5 -63.5t-30.5 -18.5h-149q-49 0 -76.5 12.5t-36.5 55.5q-25 -18 -55 -27t-61 -9q-40 0 -77 10.5t-65.5 35t-46 64t-17.5 97.5q0 64 19 105t49.5 64.5t69 32.5t77.5 9 h103zM285 196q10 0 21 2t20.5 7.5t15.5 15.5t6 26v39h-62q-30 0 -46 -9.5t-16 -36.5q0 -15 5 -23.5t13.5 -13t19.5 -6t23 -1.5zM200 664q-5 9 -7.5 19.5t-2.5 24.5q0 42 30 71.5t87 29.5q37 0 63.5 -14t40.5 -31q4 -4 -1 -8l-39 -46q-3 -4 -9 0q-23 23 -46 23 q-10 0 -20.5 -6.5t-10.5 -24.5q0 -14 8 -23.5t17 -14.5h97q6 0 6 -7v-62q0 -7 -6 -7h-242q-6 0 -6 7v62q0 7 6 7h35z" arabic-form="final" glyph-name="aHehYeh.fina" horiz-adv-x="614" unicode="ۀ"/><glyph d="M508 236q0 -17 1.5 -30.5t7.5 -22.5t18 -14t33 -5h13q21 0 30.5 -17t9.5 -64q0 -83 -40 -83h-128q-144 0 -144 141v123h-29q-15 0 -23 -3.5t-12 -13t-5 -26t-1 -41.5v-170q0 -10 -10 -10h-179q-10 0 -10 10v237q0 58 17.5 94.5t45.5 57t63 28t71 7.5h261q10 0 10 -10 v-188z" arabic-form="final" glyph-name="aHehGoal.fina" horiz-adv-x="581" unicode="ہ"/><glyph d="M193 -195q-10 -1 -20.5 -1.5t-21.5 -0.5q-24 0 -48 5t-43.5 19t-32 39.5t-12.5 66.5q0 14 1.5 31t5.5 36h-22q-20 0 -30 7t-10 28q0 12 2.5 34t7 43t12 36.5t18.5 15.5h8q25 0 36.5 11.5t11.5 41.5v207q0 10 10 10h179q10 0 10 -10v-298q0 -60 -22.5 -90.5t-74.5 -35.5 q-3 -14 -3 -27q0 -16 8 -27.5t30 -11.5q10 0 10 -10v-109q0 -8 -10 -10z" arabic-form="initial" glyph-name="aHehGoal.init" horiz-adv-x="322" unicode="ہ"/><glyph d="M205 164q10 0 10 -10v-91q0 -28 1.5 -47.5t8 -32t19.5 -18t36 -5.5v54q0 39 11.5 67.5t31.5 46.5t47 27t58 9h104q20 0 30 -22t10 -63q0 -45 -9.5 -62t-30.5 -17h-5q-32 0 -47 -17.5t-15 -61.5v-121q0 -10 -10 -10h-184q-121 0 -181 47.5t-60 125.5v37h-31q-20 0 -30 16 t-10 60q0 88 40 88h206z" arabic-form="medial" glyph-name="aHehGoal.medi" horiz-adv-x="532" unicode="ہ"/><glyph d="M280 164v54q0 71 23.5 116.5t59.5 71t79 35t81 9.5q43 0 88 -9t81 -31t59 -60t23 -96q0 -29 -6.5 -53.5t-11.5 -36.5h74q40 0 40 -83q0 -47 -10 -64t-30 -17h-86q8 -16 14.5 -32.5t6.5 -36.5q0 -49 -21 -79.5t-55.5 -47.5t-78 -23t-88.5 -6q-46 0 -89.5 6.5t-77.5 25 t-54.5 51t-20.5 84.5v58h-26q-23 0 -29.5 -6.5t-6.5 -27.5v-57q0 -10 -10 -10h-179q-10 0 -10 10v145q0 23 4.5 43t16 35t32 23.5t52.5 8.5h156zM526 286q-23 0 -37.5 -15.5t-14.5 -47.5v-63h55q24 0 38.5 13t14.5 51q0 32 -16.5 47t-39.5 15zM526 -75q25 0 36 11.5t11 30.5 q0 22 -11 33t-44 11h-44v-38q0 -24 12 -36t40 -12z" arabic-form="final" glyph-name="aHehDoachashmi.fina" horiz-adv-x="830" unicode="ھ"/><glyph d="M-40 81q0 38 9.5 60.5t30.5 22.5h70q-5 12 -8.5 34.5t-3.5 39.5q0 26 3 42.5t9 36.5l-11 -3q-13 -3 -15 2l-30 121q-2 6 -2.5 9.5t3.5 5.5q21 7 57 14.5t79 13.5t88 10t83 4q66 0 127 -10.5t108 -40t75 -80.5t28 -132q0 -48 -8.5 -90t-32.5 -73.5t-68 -49.5t-115 -18 h-436q-20 0 -30 17t-10 64zM219 323q-19 0 -31.5 -17t-12.5 -68q0 -27 3.5 -43.5t9.5 -25.5t14 -12.5t17 -3.5t17 3.5t14 12.5t9 25.5t3 43.5q0 52 -12 68.5t-31 16.5zM452 239q0 38 -18.5 62.5t-62.5 35.5q10 -21 15.5 -47.5t5.5 -53.5q0 -26 -5.5 -50t-13.5 -37 q36 2 57.5 20t21.5 70z" arabic-form="initial" glyph-name="aHehDoachashmi.init" horiz-adv-x="700" unicode="ھ"/><glyph d="M-40 79q0 40 9.5 62.5t30.5 22.5h59v62q0 71 23.5 115t59.5 68t79 32.5t81 8.5q43 0 88 -7.5t81 -28.5t59 -57.5t23 -94.5q0 -29 -6.5 -57.5t-11.5 -40.5h74q40 0 40 -83q0 -47 -10 -64t-30 -17h-86q8 -16 14.5 -34.5t6.5 -38.5q0 -49 -21 -78.5t-55.5 -46t-78 -22 t-88.5 -5.5q-46 0 -89.5 6t-77.5 23.5t-54.5 49.5t-20.5 84v62h-59q-20 0 -30 18.5t-10 60.5zM305 286q-23 0 -37.5 -11.5t-14.5 -43.5v-71h55q24 0 38.5 17t14.5 55q0 32 -16.5 43t-39.5 11zM305 -70q47 0 47 38q0 22 -11 35t-44 13h-44v-42q0 -24 12 -34t40 -10z" arabic-form="medial" glyph-name="aHehDoachashmi.medi" horiz-adv-x="609" unicode="ھ"/><glyph d="M228 -24q0 -22 29 -22h314q10 0 10 -10v-144q0 -10 -10 -10h-361q-53 0 -88.5 12.5t-57.5 36t-31.5 56.5t-9.5 75q0 94 51.5 144t138.5 50h151q20 0 30 -18.5t10 -66.5q0 -46 -9.5 -62.5t-30.5 -16.5h-109q-17 0 -22 -6.5t-5 -17.5z" arabic-form="final" glyph-name="aYehBarri.fina" horiz-adv-x="364" unicode="ے"/><glyph d="M88 297q-11 19 -11 44q0 42 30 71.5t87 29.5q37 0 63.5 -14t40.5 -31q4 -4 -1 -8l-39 -46q-3 -4 -9 0q-23 23 -46 23q-10 0 -20.5 -6.5t-10.5 -24.5q0 -14 8 -23.5t17 -14.5h97q6 0 6 -7v-62q0 -7 -6 -7h-242q-6 0 -6 7v62q0 7 6 7h36zM228 -24q0 -22 29 -22h314 q10 0 10 -10v-144q0 -10 -10 -10h-361q-53 0 -88.5 12.5t-57.5 36t-31.5 56.5t-9.5 75q0 94 51.5 144t138.5 50h151q20 0 30 -18.5t10 -66.5q0 -46 -9.5 -62.5t-30.5 -16.5h-109q-17 0 -22 -6.5t-5 -17.5z" arabic-form="final" glyph-name="aYehBarriHamzaabove.fina" horiz-adv-x="364" unicode="ۓ"/><glyph d="M0 0q-20 0 -30 7t-10 28q0 12 2.5 34t7 43t12 36.5t18.5 15.5h8q25 0 36.5 11.5t11.5 41.5v207q0 10 10 10h179q10 0 10 -10v-298q0 -65 -27 -95.5t-90 -30.5h-138z" arabic-form="initial" glyph-name="aAlifMaksura.init" horiz-adv-x="305" unicode="ى"/><glyph d="M240 49q-25 -49 -102 -49h-138q-20 0 -30 7t-10 28q0 12 2.5 34t7 43t12 36.5t18.5 15.5h8q25 0 36.5 11.5t11.5 41.5v207q0 10 10 10h179q10 0 10 -10v-219q4 -17 18 -29t44 -12h34q40 0 40 -83q0 -37 -9.5 -59t-30.5 -22q-35 0 -61.5 9.5t-49.5 39.5z" arabic-form="medial" glyph-name="aAlifMaksura.medi" horiz-adv-x="351" unicode="ى"/><glyph d="M476 -44q31 0 49.5 2t28.5 5.5t13.5 9t3.5 12.5q0 9 -6 16.5t-23.5 16.5t-49.5 21t-83 31q-9 3 -6 12l43 138q3 10 12 7q32 -12 58.5 -23.5t51.5 -20t49.5 -14t53.5 -5.5h156q20 0 30 -21.5t10 -60.5q0 -82 -40 -82h-60q5 -8 10 -21t5 -31q0 -78 -59 -118t-174 -40h-211 q-84 0 -142.5 16.5t-95.5 47.5t-53.5 74t-16.5 96q0 27 5.5 54t14 52.5t20 49t23.5 42.5q6 9 16 4l150 -72q8 -5 3 -13q-31 -55 -31 -99q0 -29 13 -46t32.5 -26t42.5 -11.5t42 -2.5h115z" arabic-form="final" glyph-name="aYehFarsi.fina" horiz-adv-x="826" unicode="ی"/><glyph d="M0 0q-20 0 -30 17.5t-10 61.5q0 85 40 85h55q25 0 36.5 11.5t11.5 41.5v207q0 10 10 10h179q10 0 10 -10v-298q0 -65 -27 -95.5t-90 -30.5h-185zM17 -210q-10 0 -10 10v124q0 10 10 10h133q10 0 10 -10v-124q0 -10 -10 -10h-133zM198 -210q-10 0 -10 10v124q0 10 10 10 h133q10 0 10 -10v-124q0 -10 -10 -10h-133z" arabic-form="initial" glyph-name="aYehFarsi.init" horiz-adv-x="362" unicode="ی"/><glyph d="M43 -210q-10 0 -10 10v124q0 10 10 10h133q10 0 10 -10v-124q0 -10 -10 -10h-133zM224 -210q-10 0 -10 10v124q0 10 10 10h133q10 0 10 -10v-124q0 -10 -10 -10h-133zM287 49q-25 -49 -102 -49h-185q-20 0 -30 18t-10 66q0 42 9.5 61t30.5 19h55q25 0 36.5 11.5 t11.5 41.5v207q0 10 10 10h179q10 0 10 -10v-219q4 -17 18 -29t44 -12h34q40 0 40 -83q0 -37 -9.5 -59t-30.5 -22q-35 0 -61.5 9.5t-49.5 39.5z" arabic-form="medial" glyph-name="aYehFarsi.medi" horiz-adv-x="398" unicode="ی"/><glyph d="M-127 905q0 10 10 10h26q10 0 10 -10v-74q0 -40 31 -40t31 36v78q0 10 10 10h26q10 0 10 -10v-78q0 -36 32 -36q17 0 23.5 10.5t6.5 29.5v74q0 10 10 10h26q10 0 10 -10v-71q0 -18 -3.5 -33.5t-12.5 -27.5t-23.5 -19t-36.5 -7q-17 0 -33.5 5.5t-25.5 16.5 q-9 -11 -21 -16.5t-31 -5.5q-22 0 -36.5 7t-23 19t-12 27.5t-3.5 33.5v71zM-147 1091q-10 0 -10 10v23q0 10 10 10h12q34 0 56.5 -22t22.5 -70q0 -22 13.5 -27t39.5 -5q34 0 50 10.5t22 21.5h-24q-35 0 -56 19t-21 51q0 33 23 56t55 23q33 0 55.5 -22t22.5 -72 q0 -37 -9.5 -62t-26.5 -40t-40.5 -21.5t-50.5 -6.5q-21 0 -38.5 2.5t-31 10.5t-21 22.5t-7.5 39.5q0 49 -31 49h-15zM80 1084v13q0 25 -10 37.5t-24 12.5q-17 0 -25.5 -11t-8.5 -24q0 -17 14 -22.5t24 -5.5h30z" arabic-form="isolated" glyph-name="aShadda_aDammatan" horiz-adv-x="0" unicode="ﱞ"/><glyph d="M-128 1098q0 10 10 10h26q10 0 10 -10v-74q0 -40 31 -40t31 36v78q0 10 10 10h26q10 0 10 -10v-78q0 -36 32 -36q17 0 23.5 10.5t6.5 29.5v74q0 10 10 10h26q10 0 10 -10v-71q0 -18 -3.5 -33.5t-12.5 -27.5t-23.5 -19t-36.5 -7q-17 0 -33.5 5.5t-25.5 16.5 q-9 -11 -21 -16.5t-31 -5.5q-22 0 -36.5 7t-23 19t-12 27.5t-3.5 33.5v71zM-123 833q-10 0 -10 10v27q0 10 10 10h254q10 0 10 -10v-27q0 -10 -10 -10h-254zM-123 750q-10 0 -10 10v27q0 10 10 10h254q10 0 10 -10v-27q0 -10 -10 -10h-254z" arabic-form="isolated" glyph-name="aShadda_aKasratan" horiz-adv-x="0" unicode="ﱟ"/><glyph d="M-128 969q-10 0 -10 10v27q0 10 10 10h254q10 0 10 -10v-27q0 -10 -10 -10h-254zM-127 905q0 10 10 10h26q10 0 10 -10v-74q0 -40 31 -40t31 36v78q0 10 10 10h26q10 0 10 -10v-78q0 -36 32 -36q17 0 23.5 10.5t6.5 29.5v74q0 10 10 10h26q10 0 10 -10v-71 q0 -18 -3.5 -33.5t-12.5 -27.5t-23.5 -19t-36.5 -7q-17 0 -33.5 5.5t-25.5 16.5q-9 -11 -21 -16.5t-31 -5.5q-22 0 -36.5 7t-23 19t-12 27.5t-3.5 33.5v71z" arabic-form="isolated" glyph-name="aShadda_aFatha" horiz-adv-x="0" unicode="ﱠ"/><glyph d="M39 1078v13q0 25 -9.5 37.5t-24.5 12.5q-17 0 -25 -11t-8 -24q0 -17 13.5 -22.5t23.5 -5.5h30zM-44 1004q34 0 50.5 10.5t21.5 21.5h-24q-35 0 -55.5 19t-20.5 51q0 33 22.5 56t54.5 23q33 0 55.5 -22t22.5 -72q0 -37 -9.5 -62t-26.5 -40t-40.5 -21.5t-50.5 -6.5h-31 q-10 0 -10 10v23q0 10 10 10h31zM-127 905q0 10 10 10h26q10 0 10 -10v-74q0 -40 31 -40t31 36v78q0 10 10 10h26q10 0 10 -10v-78q0 -36 32 -36q17 0 23.5 10.5t6.5 29.5v74q0 10 10 10h26q10 0 10 -10v-71q0 -18 -3.5 -33.5t-12.5 -27.5t-23.5 -19t-36.5 -7 q-17 0 -33.5 5.5t-25.5 16.5q-9 -11 -21 -16.5t-31 -5.5q-22 0 -36.5 7t-23 19t-12 27.5t-3.5 33.5v71z" arabic-form="isolated" glyph-name="aShadda_aDamma" horiz-adv-x="0" unicode="ﱡ"/><glyph d="M-123 750q-10 0 -10 10v27q0 10 10 10h254q10 0 10 -10v-27q0 -10 -10 -10h-254zM-128 1014q0 10 10 10h26q10 0 10 -10v-74q0 -40 31 -40t31 36v78q0 10 10 10h26q10 0 10 -10v-78q0 -36 32 -36q17 0 23.5 10.5t6.5 29.5v74q0 10 10 10h26q10 0 10 -10v-71 q0 -18 -3.5 -33.5t-12.5 -27.5t-23.5 -19t-36.5 -7q-17 0 -33.5 5.5t-25.5 16.5q-9 -11 -21 -16.5t-31 -5.5q-22 0 -36.5 7t-23 19t-12 27.5t-3.5 33.5v71z" arabic-form="isolated" glyph-name="aShadda_aKasra" horiz-adv-x="0" unicode="ﱢ"/><glyph d="M-127 905q0 10 10 10h26q10 0 10 -10v-74q0 -40 31 -40t31 36v78q0 10 10 10h26q10 0 10 -10v-78q0 -36 32 -36q17 0 23.5 10.5t6.5 29.5v74q0 10 10 10h26q10 0 10 -10v-71q0 -18 -3.5 -33.5t-12.5 -27.5t-23.5 -19t-36.5 -7q-17 0 -33.5 5.5t-25.5 16.5 q-9 -11 -21 -16.5t-31 -5.5q-22 0 -36.5 7t-23 19t-12 27.5t-3.5 33.5v71zM26 968q0 -10 -10 -10h-31q-10 0 -10 10v124q0 10 10 10h31q10 0 10 -10v-124z" arabic-form="isolated" glyph-name="aShadda_aAlifabove" horiz-adv-x="0" unicode="ﱣ"/><glyph d="M853 49q-25 -49 -102 -49h-286q-49 0 -76.5 12.5t-36.5 55.5q-25 -18 -55 -27t-61 -9q-40 0 -77 10.5t-65.5 35t-46 64t-17.5 97.5q0 64 19 105t49.5 64.5t69 32.5t77.5 9h103v43q0 10 10 10h179q10 0 10 -10v-276q0 -30 11.5 -41.5t36.5 -11.5h26q25 0 36.5 11.5 t11.5 41.5v453q0 10 10 10h179q10 0 10 -10v-465q4 -17 18 -29t44 -12h42q25 0 36.5 11.5t11.5 41.5v453q0 10 10 10h179q10 0 10 -10v-544q0 -65 -27 -95.5t-90 -30.5h-146q-32 0 -57 10t-46 39zM285 196q10 0 21 2t20.5 7.5t15.5 15.5t6 26v39h-62q-30 0 -46 -9.5 t-16 -36.5q0 -15 5 -23.5t13.5 -13t19.5 -6t23 -1.5zM1545 10q0 -10 -10 -10h-179q-10 0 -10 10v660q0 10 10 10h179q10 0 10 -10v-660z" arabic-form="isolated" glyph-name="aAllah" horiz-adv-x="1595" unicode="ﷲ"/><glyph d="M1017 437q0 -14 -16 -39q-15 -24 -31 -31q-47 -21 -116 -21h-23t-25 2q-24 -47 -38 -47q-4 0 -4 6q0 16 22 47q-43 17 -48 26q-40 -26 -50 -26q8 -141 25 -176q19 -38 87 -39q-22 17 -22 44q0 33 32 76q24 32 61 32q28 0 53 -17q24 -17 24 -31q-26 9 -52 9q-35 0 -65 -14 q-26 -14 -26 -27q0 -14 25 -39q24 -25 44 -29q19 2 68 18q25 8 42 14t25 11l-17 -37q-101 -53 -191 -53q-97 0 -119 73q-30 -65 -57 -65q-26 0 -67 44q-65 -56 -197 -56q-20 0 -37.5 1.5t-32.5 3.5q4 -32 9 -52q9 -36 23 -50q44 -44 176 -44q113 0 165 32q15 37 28 37 q4 0 4 -8q0 -14 -12 -44q6 -13 27 -13q26 0 49 12q21 66 33 66q4 0 4 -11q0 -19 -10 -43q30 -13 44 -13q1 0 4.5 0.5t3.5 3.5q0 4 -8 38l17 36q12 -36 12 -52q0 -67 -44 -67q-23 0 -48 19q-15 -26 -59 -26q-48 0 -48 26q-20 -14 -64 -24q-53 -11 -121 -11q-97 0 -143 28 q-59 34 -60 126l-22 -32q-16 -24 -26 -26q12 -21 12 -41q0 -26 -16 -42q-8 -8 -21 -8q-20 0 -61 23q-13 -30 -42 -47q-3 -2 -9.5 -3t-13.5 -1.5t-13 -1t-9 -1.5l-11 -4q-6 0 -6 5q0 4 24 15q31 12 39 19l34 26q-10 17 -10 40q0 21 18 41q18 21 34 21q2 0 6 -2q17 -10 29 -10 q18 0 36 23l23 42q-39 12 -55 27q-29 26 -41 85q-29 -50 -79 -50q-18 0 -39 8q-16 7 -16 12q0 25 43 58q20 16 41.5 26.5t43.5 17.5l-2 17l20 33q7 -108 21 -141q13 -31 56 -45l-13 132l19 43l17 -180q52 -6 95 -6q104 0 177 40q14 38 19 38q4 0 4 -9q0 -10 -4 -25 q37 -35 59 -35q26 0 42 43l-13 161q-73 0 -90 74q-7 -28 -14 -42q-11 -26 -27 -30l3 -3q35 0 52 -8t17 -30q0 -30 -25 -46q-86 -59 -160 -59q-46 0 -74 23.5t-28 65.5q0 32 16 67q-27 7 -38 43q-18 -51 -57 -51q-47 0 -47 77l-27 -24q-7 -7 -39 -7q-49 0 -49 18q0 11 13 31 q13 22 25 27l76 37v10l17 36l4 -120q1 -42 32 -42q15 0 29.5 10.5t16.5 22.5l-16 114l18 39l28 -161q9 -21 33 -21q23 0 23 13q0 22 -16 74l-10 32t-10 33l13 33q40 -124 40 -157q0 -21 -10 -44q-10 -28 -25 -28q-5 0 -9 3q-7 -20 -7 -39q0 -75 91 -75q71 0 142 48q2 2 2 3 q0 6 -38 12q-59 9 -61 10q-4 3 -4 8q0 10 17 32q60 25 64 53q1 3 1 14q0 49 -5 106.5t-15 124.5l17 56q24 -211 38 -256q18 -57 72 -66l-5 96l21 45l8 -140q28 10 60 36l30 -21q19 -12 39 -15q23 24 65 55q52 38 70 38t41 -14q26 -15 26 -33zM1008 2q0 -50 -39 -108 q-42 -64 -89 -64q-23 0 -59 16q-37 16 -37 23q0 4 5 4q6 0 27 -7q8 -3 18.5 -5.5t18.5 -2.5q68 0 138 106l-7 22q-18 -26 -37 -26q-15 0 -25.5 14t-10.5 31q0 21 15 50q16 31 28 31t32 -24q22 -26 22 -60zM970 639q-36 -13 -116 -51q-96 -47 -96 -61q0 -11 26 -25l-9 -24 q-33 10 -33 40t26 44q128 74 211 102zM476 447q-3 -66 -13 -73l-25 242l22 57zM602 37l-26 -31l-48 35l-28 -36l-50 36l29 35l47 -35l27 33zM989 420q0 7 -18 16q-17 9 -26 9q-21 0 -60 -24q-30 -19 -47 -34q4 -1 20 -1q39 0 82 8q49 10 49 26zM632 -121q0 -20 -2 -30 q-6 -13 -25 -13q-10 0 -14 4q-15 -16 -30 -16q-8 0 -16.5 8.5t-12.5 8.5q-8 0 -37 -17q-29 -18 -70 -18q-44 0 -44 8q0 7 32 7q17 0 29 0.5t17 1.5q15 3 35 16q29 19 40 19q8 0 19 -8t13 -8q15 0 18 17q1 13 11 13q4 0 4 -6t-1 -9q1 -4 11 -6q12 0 12 12q0 16 11 16z M815 705l-6 -22l-195 -96l4 25zM169 263q-88 -34 -88 -52q0 -10 31 -10q33 0 59 24zM324 665q0 -32 -21 -32q-13 0 -21 8q-18 -15 -30 -15q-21 0 -21 27q0 19 3 27l6 6q0 -37 17 -37q12 0 19 16l-2 23l9 14l4 -30q1 -16 15 -16q11 0 11 12q0 1 -0.5 4.5t-2.5 20.5l7 10 q7 -18 7 -38zM189 487q-10 -5 -20 -9t-21 -8q-34 -17 -34 -25q0 -10 25 -10q29 0 51 13zM214 -39q0 8 -7.5 18.5t-16.5 16.5q-19 14 -34 14q-14 0 -14 -12q0 -13 26 -27q24 -15 39 -15q7 0 7 5zM979 10q-6 32 -26 32q-16 0 -20 -25q4 -18 31 -18q13 0 15 11z" arabic-form="isolated" glyph-name="aAllahlong" horiz-adv-x="1057" unicode="ﷺ"/><glyph d="M-67 766q27 94 100 94q25 0 49.5 -9t47.5 -19.5t44 -19t41 -8.5q14 0 18 7.5t4 26.5q0 10 10 10h83q10 0 10 -10q0 -55 -22.5 -91t-78.5 -36q-30 0 -55 7.5t-46 17t-38 17t-31 7.5q-10 0 -17.5 -5.5t-14.5 -22.5q-3 -10 -13 -7l-84 28q-10 3 -7 13zM50 670q0 10 10 10 h179q10 0 10 -10v-453q0 -30 11.5 -41.5t36.5 -11.5h9q20 0 30 -19t10 -67q0 -47 -9.5 -62.5t-30.5 -15.5h-139q-63 0 -90 30.5t-27 95.5v544z" arabic-form="final" glyph-name="aAlifMadda.fina" horiz-adv-x="306" unicode="آ"/><glyph d="M50 670q0 10 10 10h179q10 0 10 -10v-453q0 -30 11.5 -41.5t36.5 -11.5h9q20 0 30 -19t10 -67q0 -47 -9.5 -62.5t-30.5 -15.5h-139q-63 0 -90 30.5t-27 95.5v544zM60 807q-11 19 -11 44q0 42 30 71.5t87 29.5q37 0 63.5 -14t40.5 -31q4 -4 -1 -8l-39 -46q-3 -4 -9 0 q-23 23 -46 23q-10 0 -20.5 -6.5t-10.5 -24.5q0 -14 8 -23.5t17 -14.5h97q6 0 6 -7v-62q0 -7 -6 -7h-242q-6 0 -6 7v62q0 7 6 7h36z" arabic-form="final" glyph-name="aAlifHamza.fina" horiz-adv-x="306" unicode="أ"/><glyph d="M140 -210q-10 0 -10 10v144q0 10 10 10h110q39 0 60 7t23 39h-84q-107 0 -161 49.5t-54 163.5q0 71 21 117t55.5 72.5t78.5 37t89 10.5t89.5 -9t80 -34.5t57.5 -70.5t22 -116v-56h68q40 0 40 -82q0 -50 -9.5 -66t-30.5 -16h-68v-14q0 -46 -11.5 -82.5t-37 -61.5 t-67.5 -38.5t-103 -13.5h-168zM280 286q-29 0 -42.5 -16.5t-13.5 -46.5q0 -19 5 -30.5t12.5 -18t17.5 -8.5t21 -2h53v63q0 35 -15.5 47t-37.5 12zM208 615q-5 9 -7.5 19.5t-2.5 24.5q0 42 30 71.5t87 29.5q37 0 63.5 -14t40.5 -31q4 -4 -1 -8l-39 -46q-3 -4 -9 0 q-23 23 -46 23q-10 0 -20.5 -6.5t-10.5 -24.5q0 -14 8 -23.5t17 -14.5h97q6 0 6 -7v-62q0 -7 -6 -7h-242q-6 0 -6 7v62q0 7 6 7h35z" arabic-form="final" glyph-name="aWawHamza.fina" horiz-adv-x="595" unicode="ؤ"/><glyph d="M50 670q0 10 10 10h179q10 0 10 -10v-453q0 -30 11.5 -41.5t36.5 -11.5h9q20 0 30 -19t10 -67q0 -47 -9.5 -62.5t-30.5 -15.5h-139q-63 0 -90 30.5t-27 95.5v544zM54 -214q-11 19 -11 44q0 42 30 71.5t87 29.5q37 0 63.5 -14t40.5 -31q4 -4 -1 -8l-39 -46q-3 -4 -9 0 q-23 23 -46 23q-10 0 -20.5 -6.5t-10.5 -24.5q0 -14 8 -23.5t17 -14.5h97q6 0 6 -7v-62q0 -7 -6 -7h-242q-6 0 -6 7v62q0 7 6 7h36z" arabic-form="final" glyph-name="aAlifHamzabelow.fina" horiz-adv-x="306" unicode="إ"/><glyph d="M89 438q-5 9 -7.5 19.5t-2.5 24.5q0 42 30 71.5t87 29.5q37 0 63.5 -14t40.5 -31q4 -4 -1 -8l-39 -46q-3 -4 -9 0q-23 23 -46 23q-10 0 -20.5 -6.5t-10.5 -24.5q0 -14 8 -23.5t17 -14.5h97q6 0 6 -7v-62q0 -7 -6 -7h-242q-6 0 -6 7v62q0 7 6 7h35zM476 -44q31 0 49.5 2 t28.5 5.5t13.5 9t3.5 12.5q0 9 -6 16.5t-23.5 16.5t-49.5 21t-83 31q-9 3 -6 12l43 138q3 10 12 7q32 -12 58.5 -23.5t51.5 -20t49.5 -14t53.5 -5.5h156q20 0 30 -21.5t10 -60.5q0 -82 -40 -82h-60q5 -8 10 -21t5 -31q0 -78 -59 -118t-174 -40h-211q-84 0 -142.5 16.5 t-95.5 47.5t-53.5 74t-16.5 96q0 27 5.5 54t14 52.5t20 49t23.5 42.5q6 9 16 4l150 -72q8 -5 3 -13q-31 -55 -31 -99q0 -29 13 -46t32.5 -26t42.5 -11.5t42 -2.5h115z" arabic-form="final" glyph-name="aYehHamza.fina" horiz-adv-x="826" unicode="ئ"/><glyph d="M63 615q-5 9 -7.5 19.5t-2.5 24.5q0 42 30 71.5t87 29.5q37 0 63.5 -14t40.5 -31q4 -4 -1 -8l-39 -46q-3 -4 -9 0q-23 23 -46 23q-10 0 -20.5 -6.5t-10.5 -24.5q0 -14 8 -23.5t17 -14.5h97q6 0 6 -7v-62q0 -7 -6 -7h-242q-6 0 -6 7v62q0 7 6 7h35zM0 0q-20 0 -30 7 t-10 28q0 12 2.5 34t7 43t12 36.5t18.5 15.5h8q25 0 36.5 11.5t11.5 41.5v207q0 10 10 10h179q10 0 10 -10v-298q0 -65 -27 -95.5t-90 -30.5h-138z" arabic-form="initial" glyph-name="aYehHamza.init" horiz-adv-x="305" unicode="ئ"/><glyph d="M71 615q-5 9 -7.5 19.5t-2.5 24.5q0 42 30 71.5t87 29.5q37 0 63.5 -14t40.5 -31q4 -4 -1 -8l-39 -46q-3 -4 -9 0q-23 23 -46 23q-10 0 -20.5 -6.5t-10.5 -24.5q0 -14 8 -23.5t17 -14.5h97q6 0 6 -7v-62q0 -7 -6 -7h-242q-6 0 -6 7v62q0 7 6 7h35zM240 49 q-25 -49 -102 -49h-138q-20 0 -30 7t-10 28q0 12 2.5 34t7 43t12 36.5t18.5 15.5h8q25 0 36.5 11.5t11.5 41.5v207q0 10 10 10h179q10 0 10 -10v-219q4 -17 18 -29t44 -12h34q40 0 40 -83q0 -37 -9.5 -59t-30.5 -22q-35 0 -61.5 9.5t-49.5 39.5z" arabic-form="medial" glyph-name="aYehHamza.medi" horiz-adv-x="351" unicode="ئ"/><glyph d="M50 670q0 10 10 10h179q10 0 10 -10v-453q0 -30 11.5 -41.5t36.5 -11.5h9q20 0 30 -19t10 -67q0 -47 -9.5 -62.5t-30.5 -15.5h-139q-63 0 -90 30.5t-27 95.5v544z" arabic-form="final" glyph-name="aAlif.fina" horiz-adv-x="306" unicode="ا"/><glyph d="M827 49q-25 -49 -104 -49h-556q-63 0 -90 30.5t-27 95.5v233q0 10 10 10h179q10 0 10 -10v-142q0 -30 11.5 -41.5t36.5 -11.5h297q26 0 37.5 11.5t11.5 41.5v207q0 10 10 10h179q10 0 10 -10v-219q4 -17 18 -29t44 -12h34q40 0 40 -83q0 -37 -9.5 -59t-30.5 -22 q-35 0 -61.5 9.5t-49.5 39.5zM359 -210q-10 0 -10 10v124q0 10 10 10h180q10 0 10 -10v-124q0 -10 -10 -10h-180z" arabic-form="final" glyph-name="aBeh.fina" horiz-adv-x="938" unicode="ب"/><glyph d="M62 -210q-10 0 -10 10v124q0 10 10 10h180q10 0 10 -10v-124q0 -10 -10 -10h-180zM0 0q-20 0 -30 7t-10 28q0 12 2.5 34t7 43t12 36.5t18.5 15.5h8q25 0 36.5 11.5t11.5 41.5v207q0 10 10 10h179q10 0 10 -10v-298q0 -65 -27 -95.5t-90 -30.5h-138z" arabic-form="initial" glyph-name="aBeh.init" horiz-adv-x="305" unicode="ب"/><glyph d="M62 -210q-10 0 -10 10v124q0 10 10 10h180q10 0 10 -10v-124q0 -10 -10 -10h-180zM240 49q-25 -49 -102 -49h-138q-20 0 -30 7t-10 28q0 12 2.5 34t7 43t12 36.5t18.5 15.5h8q25 0 36.5 11.5t11.5 41.5v207q0 10 10 10h179q10 0 10 -10v-219q4 -17 18 -29t44 -12h34 q40 0 40 -83q0 -37 -9.5 -59t-30.5 -22q-35 0 -61.5 9.5t-49.5 39.5z" arabic-form="medial" glyph-name="aBeh.medi" horiz-adv-x="351" unicode="ب"/><glyph d="M133 576q-10 0 -10 10v124q0 10 10 10h133q10 0 10 -10v-124q0 -10 -10 -10h-133zM314 576q-10 0 -10 10v124q0 10 10 10h133q10 0 10 -10v-124q0 -10 -10 -10h-133zM348 450v43q0 10 10 10h179q10 0 10 -10v-276q0 -30 11.5 -41.5t36.5 -11.5h19q40 0 40 -82 q0 -45 -9.5 -63.5t-30.5 -18.5h-149q-49 0 -76.5 12.5t-36.5 55.5q-25 -18 -55 -27t-61 -9q-40 0 -77 10.5t-65.5 35t-46 64t-17.5 97.5q0 64 19 105t49.5 64.5t69 32.5t77.5 9h103zM285 196q10 0 21 2t20.5 7.5t15.5 15.5t6 26v39h-62q-30 0 -46 -9.5t-16 -36.5 q0 -15 5 -23.5t13.5 -13t19.5 -6t23 -1.5z" arabic-form="final" glyph-name="aTehMarbuta.fina" horiz-adv-x="614" unicode="ة"/><glyph d="M284 477q-10 0 -10 10v124q0 10 10 10h133q10 0 10 -10v-124q0 -10 -10 -10h-133zM465 477q-10 0 -10 10v124q0 10 10 10h133q10 0 10 -10v-124q0 -10 -10 -10h-133zM827 49q-25 -49 -104 -49h-556q-63 0 -90 30.5t-27 95.5v233q0 10 10 10h179q10 0 10 -10v-142 q0 -30 11.5 -41.5t36.5 -11.5h297q26 0 37.5 11.5t11.5 41.5v207q0 10 10 10h179q10 0 10 -10v-219q4 -17 18 -29t44 -12h34q40 0 40 -83q0 -37 -9.5 -59t-30.5 -22q-35 0 -61.5 9.5t-49.5 39.5z" arabic-form="final" glyph-name="aTeh.fina" horiz-adv-x="938" unicode="ت"/><glyph d="M31 536q-10 0 -10 10v124q0 10 10 10h133q10 0 10 -10v-124q0 -10 -10 -10h-133zM212 536q-10 0 -10 10v124q0 10 10 10h133q10 0 10 -10v-124q0 -10 -10 -10h-133zM0 0q-20 0 -30 17.5t-10 61.5q0 85 40 85h55q25 0 36.5 11.5t11.5 41.5v207q0 10 10 10h179q10 0 10 -10 v-298q0 -65 -27 -95.5t-90 -30.5h-185z" arabic-form="initial" glyph-name="aTeh.init" horiz-adv-x="362" unicode="ت"/><glyph d="M43 536q-10 0 -10 10v124q0 10 10 10h133q10 0 10 -10v-124q0 -10 -10 -10h-133zM224 536q-10 0 -10 10v124q0 10 10 10h133q10 0 10 -10v-124q0 -10 -10 -10h-133zM287 49q-25 -49 -102 -49h-185q-20 0 -30 18t-10 66q0 42 9.5 61t30.5 19h55q25 0 36.5 11.5t11.5 41.5 v207q0 10 10 10h179q10 0 10 -10v-219q4 -17 18 -29t44 -12h34q40 0 40 -83q0 -37 -9.5 -59t-30.5 -22q-35 0 -61.5 9.5t-49.5 39.5z" arabic-form="medial" glyph-name="aTeh.medi" horiz-adv-x="398" unicode="ت"/><glyph d="M827 49q-25 -49 -104 -49h-556q-63 0 -90 30.5t-27 95.5v233q0 10 10 10h179q10 0 10 -10v-142q0 -30 11.5 -41.5t36.5 -11.5h297q26 0 37.5 11.5t11.5 41.5v207q0 10 10 10h179q10 0 10 -10v-219q4 -17 18 -29t44 -12h34q40 0 40 -83q0 -37 -9.5 -59t-30.5 -22 q-35 0 -61.5 9.5t-49.5 39.5zM369 650q-10 0 -10 10v124q0 10 10 10h151q10 0 10 -10v-124q0 -10 -10 -10h-151zM289 477q-10 0 -10 10v124q0 10 10 10h133q10 0 10 -10v-124q0 -10 -10 -10h-133zM470 477q-10 0 -10 10v124q0 10 10 10h133q10 0 10 -10v-124q0 -10 -10 -10 h-133z" arabic-form="final" glyph-name="aTheh.fina" horiz-adv-x="938" unicode="ث"/><glyph d="M0 0q-20 0 -30 17.5t-10 61.5q0 85 40 85h55q25 0 36.5 11.5t11.5 41.5v207q0 10 10 10h179q10 0 10 -10v-298q0 -65 -27 -95.5t-90 -30.5h-185zM111 709q-10 0 -10 10v124q0 10 10 10h151q10 0 10 -10v-124q0 -10 -10 -10h-151zM31 536q-10 0 -10 10v124q0 10 10 10h133 q10 0 10 -10v-124q0 -10 -10 -10h-133zM212 536q-10 0 -10 10v124q0 10 10 10h133q10 0 10 -10v-124q0 -10 -10 -10h-133z" arabic-form="initial" glyph-name="aTheh.init" horiz-adv-x="362" unicode="ث"/><glyph d="M124 709q-10 0 -10 10v124q0 10 10 10h151q10 0 10 -10v-124q0 -10 -10 -10h-151zM44 536q-10 0 -10 10v124q0 10 10 10h133q10 0 10 -10v-124q0 -10 -10 -10h-133zM225 536q-10 0 -10 10v124q0 10 10 10h133q10 0 10 -10v-124q0 -10 -10 -10h-133zM287 49 q-25 -49 -102 -49h-185q-20 0 -30 18t-10 66q0 42 9.5 61t30.5 19h55q25 0 36.5 11.5t11.5 41.5v207q0 10 10 10h179q10 0 10 -10v-219q4 -17 18 -29t44 -12h34q40 0 40 -83q0 -37 -9.5 -59t-30.5 -22q-35 0 -61.5 9.5t-49.5 39.5z" arabic-form="medial" glyph-name="aTheh.medi" horiz-adv-x="398" unicode="ث"/><glyph d="M235 -210q-53 0 -93.5 8.5t-67.5 30t-40.5 59t-13.5 95.5q0 52 14 87t39 56t60.5 29.5t78.5 8.5h83q39 0 55 11.5t16 43.5q0 10 -3.5 22t-11.5 22t-21.5 16.5t-32.5 6.5q-29 0 -50.5 -11t-41.5 -25q-4 -2 -7 -3t-7 2l-75 106q-3 4 -4.5 8.5t2.5 7.5q42 34 89 56.5 t115 22.5q127 0 189.5 -66t62.5 -179q4 -17 18 -29t44 -12h34q40 0 40 -83q0 -37 -9.5 -59t-30.5 -22q-44 0 -73.5 12.5t-53.5 51.5q-25 -40 -67 -52t-96 -12h-113q-23 0 -32.5 -4.5t-9.5 -18.5t8 -18.5t34 -4.5h47q10 0 10 -10v-144q0 -10 -10 -10h-75zM362 -198 q-10 0 -10 10v124q0 10 10 10h125q10 0 10 -10v-124q0 -10 -10 -10h-125z" arabic-form="final" glyph-name="aJim.fina" horiz-adv-x="665" unicode="ج"/><glyph d="M0 0q-20 0 -30 17t-10 62q0 85 40 85h212q39 0 55 11.5t16 43.5q0 10 -3.5 22t-11.5 22t-21.5 16.5t-32.5 6.5q-29 0 -50.5 -11t-41.5 -25q-4 -2 -7 -3t-7 2l-75 106q-3 4 -4.5 8.5t2.5 7.5q42 34 89 56.5t115 22.5q63 0 110.5 -17t79 -48.5t47 -77t15.5 -101.5 q0 -66 -14.5 -106.5t-40 -62.5t-61 -29.5t-78.5 -7.5h-293zM148 -208q-10 0 -10 10v124q0 10 10 10h180q10 0 10 -10v-124q0 -10 -10 -10h-180z" arabic-form="initial" glyph-name="aJim.init" horiz-adv-x="527" unicode="ج"/><glyph d="M0 0q-20 0 -30 17t-10 62q0 85 40 85h212q39 0 55 11.5t16 43.5q0 10 -3.5 22t-11.5 22t-21.5 16.5t-32.5 6.5q-29 0 -50.5 -11t-41.5 -25q-4 -2 -7 -3t-7 2l-75 106q-3 4 -4.5 8.5t2.5 7.5q42 34 89 56.5t115 22.5q63 0 110.5 -17t79 -48.5t47 -77t15.5 -101.5 q4 -17 18 -29.5t44 -12.5h34q40 0 40 -83q0 -37 -9.5 -59t-30.5 -22q-44 0 -73.5 12.5t-53.5 51.5q-25 -40 -67 -52t-96 -12h-293zM147 -208q-10 0 -10 10v124q0 10 10 10h180q10 0 10 -10v-124q0 -10 -10 -10h-180z" arabic-form="medial" glyph-name="aJim.medi" horiz-adv-x="583" unicode="ج"/><glyph d="M263 0q-23 0 -32.5 -4.5t-9.5 -18.5t8 -18.5t34 -4.5h79q10 0 10 -10v-144q0 -10 -10 -10h-107q-53 0 -93.5 8.5t-67.5 30t-40.5 59t-13.5 95.5q0 52 14 87t39 56t60.5 29.5t78.5 8.5h83q39 0 55 11.5t16 43.5q0 10 -3.5 22t-11.5 22t-21.5 16.5t-32.5 6.5 q-29 0 -50.5 -11t-41.5 -25q-4 -2 -7 -3t-7 2l-75 106q-3 4 -4.5 8.5t2.5 7.5q42 34 89 56.5t115 22.5q127 0 189.5 -66t62.5 -179q4 -17 18 -29t44 -12h34q40 0 40 -83q0 -37 -9.5 -59t-30.5 -22q-44 0 -73.5 12.5t-53.5 51.5q-25 -40 -67 -52t-96 -12h-113z" arabic-form="final" glyph-name="aHah.fina" horiz-adv-x="665" unicode="ح"/><glyph d="M0 0q-20 0 -30 17t-10 62q0 85 40 85h212q39 0 55 11.5t16 43.5q0 10 -3.5 22t-11.5 22t-21.5 16.5t-32.5 6.5q-29 0 -50.5 -11t-41.5 -25q-4 -2 -7 -3t-7 2l-75 106q-3 4 -4.5 8.5t2.5 7.5q42 34 89 56.5t115 22.5q63 0 110.5 -17t79 -48.5t47 -77t15.5 -101.5 q0 -66 -14.5 -106.5t-40 -62.5t-61 -29.5t-78.5 -7.5h-293z" arabic-form="initial" glyph-name="aHah.init" horiz-adv-x="527" unicode="ح"/><glyph d="M0 0q-20 0 -30 17t-10 62q0 85 40 85h212q39 0 55 11.5t16 43.5q0 10 -3.5 22t-11.5 22t-21.5 16.5t-32.5 6.5q-29 0 -50.5 -11t-41.5 -25q-4 -2 -7 -3t-7 2l-75 106q-3 4 -4.5 8.5t2.5 7.5q42 34 89 56.5t115 22.5q63 0 110.5 -17t79 -48.5t47 -77t15.5 -101.5 q4 -17 18 -29.5t44 -12.5h34q40 0 40 -83q0 -37 -9.5 -59t-30.5 -22q-44 0 -73.5 12.5t-53.5 51.5q-25 -40 -67 -52t-96 -12h-293z" arabic-form="medial" glyph-name="aHah.medi" horiz-adv-x="583" unicode="ح"/><glyph d="M237 536q-10 0 -10 10v124q0 10 10 10h180q10 0 10 -10v-124q0 -10 -10 -10h-180zM263 0q-23 0 -32.5 -4.5t-9.5 -18.5t8 -18.5t34 -4.5h79q10 0 10 -10v-144q0 -10 -10 -10h-107q-53 0 -93.5 8.5t-67.5 30t-40.5 59t-13.5 95.5q0 52 14 87t39 56t60.5 29.5t78.5 8.5h83 q39 0 55 11.5t16 43.5q0 10 -3.5 22t-11.5 22t-21.5 16.5t-32.5 6.5q-29 0 -50.5 -11t-41.5 -25q-4 -2 -7 -3t-7 2l-75 106q-3 4 -4.5 8.5t2.5 7.5q42 34 89 56.5t115 22.5q127 0 189.5 -66t62.5 -179q4 -17 18 -29t44 -12h34q40 0 40 -83q0 -37 -9.5 -59t-30.5 -22 q-44 0 -73.5 12.5t-53.5 51.5q-25 -40 -67 -52t-96 -12h-113z" arabic-form="final" glyph-name="aKhah.fina" horiz-adv-x="665" unicode="خ"/><glyph d="M143 535q-10 0 -10 10v124q0 10 10 10h180q10 0 10 -10v-124q0 -10 -10 -10h-180zM0 0q-20 0 -30 17t-10 62q0 85 40 85h212q39 0 55 11.5t16 43.5q0 10 -3.5 22t-11.5 22t-21.5 16.5t-32.5 6.5q-29 0 -50.5 -11t-41.5 -25q-4 -2 -7 -3t-7 2l-75 106q-3 4 -4.5 8.5 t2.5 7.5q42 34 89 56.5t115 22.5q63 0 110.5 -17t79 -48.5t47 -77t15.5 -101.5q0 -66 -14.5 -106.5t-40 -62.5t-61 -29.5t-78.5 -7.5h-293z" arabic-form="initial" glyph-name="aKhah.init" horiz-adv-x="527" unicode="خ"/><glyph d="M143 535q-10 0 -10 10v124q0 10 10 10h180q10 0 10 -10v-124q0 -10 -10 -10h-180zM0 0q-20 0 -30 17t-10 62q0 85 40 85h212q39 0 55 11.5t16 43.5q0 10 -3.5 22t-11.5 22t-21.5 16.5t-32.5 6.5q-29 0 -50.5 -11t-41.5 -25q-4 -2 -7 -3t-7 2l-75 106q-3 4 -4.5 8.5 t2.5 7.5q42 34 89 56.5t115 22.5q63 0 110.5 -17t79 -48.5t47 -77t15.5 -101.5q4 -17 18 -29.5t44 -12.5h34q40 0 40 -83q0 -37 -9.5 -59t-30.5 -22q-44 0 -73.5 12.5t-53.5 51.5q-25 -40 -67 -52t-96 -12h-293z" arabic-form="medial" glyph-name="aKhah.medi" horiz-adv-x="583" unicode="خ"/><glyph d="M460 201q5 -15 18.5 -26t42.5 -11h34q40 0 40 -83q0 -37 -9.5 -59t-30.5 -22q-42 0 -70.5 11t-51.5 45q-20 -30 -53 -43t-79 -13h-261q-10 0 -10 10v144q0 10 10 10h152q22 0 34.5 3t19 8.5t8.5 14t2 20.5v28q0 29 -16 38.5t-50 9.5h-113q-10 0 -10 10v144q0 10 10 10 h200q94 0 138.5 -44.5t44.5 -137.5v-67z" arabic-form="final" glyph-name="aDal.fina" horiz-adv-x="555" unicode="د"/><glyph d="M129 536q-10 0 -10 10v124q0 10 10 10h180q10 0 10 -10v-124q0 -10 -10 -10h-180zM460 201q5 -15 18.5 -26t42.5 -11h34q40 0 40 -83q0 -37 -9.5 -59t-30.5 -22q-42 0 -70.5 11t-51.5 45q-20 -30 -53 -43t-79 -13h-261q-10 0 -10 10v144q0 10 10 10h152q22 0 34.5 3 t19 8.5t8.5 14t2 20.5v28q0 29 -16 38.5t-50 9.5h-113q-10 0 -10 10v144q0 10 10 10h200q94 0 138.5 -44.5t44.5 -137.5v-67z" arabic-form="final" glyph-name="aDhal.fina" horiz-adv-x="555" unicode="ذ"/><glyph d="M15 -210q-10 0 -10 10v144q0 10 10 10h20q42 0 57 21t15 64v385q0 10 10 10h179q10 0 10 -10v-219q4 -17 18 -29t44 -12h34q40 0 40 -83q0 -37 -9.5 -59t-30.5 -22q-35 0 -57.5 7.5t-38.5 28.5v-10q0 -124 -55.5 -180t-170.5 -56h-65z" arabic-form="final" glyph-name="aReh.fina" horiz-adv-x="402" unicode="ر"/><glyph d="M117 536q-10 0 -10 10v124q0 10 10 10h180q10 0 10 -10v-124q0 -10 -10 -10h-180zM15 -210q-10 0 -10 10v144q0 10 10 10h20q42 0 57 21t15 64v385q0 10 10 10h179q10 0 10 -10v-219q4 -17 18 -29t44 -12h34q40 0 40 -83q0 -37 -9.5 -59t-30.5 -22q-35 0 -57.5 7.5 t-38.5 28.5v-10q0 -124 -55.5 -180t-170.5 -56h-65z" arabic-form="final" glyph-name="aZeh.fina" horiz-adv-x="402" unicode="ز"/><glyph d="M1105 49q-25 -49 -102 -49h-61q-47 0 -72 16.5t-38 37.5q-23 -54 -105 -54h-61q-38 0 -61.5 11t-37.5 28v-15q0 -74 -23.5 -122.5t-62 -77.5t-87.5 -41t-99 -12t-99.5 12.5t-88.5 42.5t-63 79.5t-24 123.5q0 40 9.5 92t34.5 98q4 7 16 5l161 -39q6 -1 7 -5.5t-1 -8.5 q-9 -28 -17.5 -57t-8.5 -71q0 -56 21.5 -81t53.5 -25q39 0 55.5 25t16.5 73v330q0 10 10 10h179q9 0 11 -10v-149q0 -31 11 -41.5t30 -10.5q23 0 29.5 11.5t6.5 41.5v148q0 10 10 10h179q10 0 10 -10v-149q0 -31 11 -41.5t30 -10.5q23 0 29.5 11.5t6.5 41.5v207q0 10 10 10 h179q10 0 10 -10v-219q4 -17 18 -29t44 -12h34q40 0 40 -83q0 -37 -9.5 -59t-30.5 -22q-35 0 -61.5 9.5t-49.5 39.5z" arabic-form="final" glyph-name="aSin.fina" horiz-adv-x="1215" unicode="س"/><glyph d="M0 0q-20 0 -30 16t-10 61q0 87 40 87h41q25 0 34 11.5t9 41.5v148q0 10 10 10h179q10 0 10 -10v-157q0 -25 11.5 -34.5t30.5 -9.5q23 0 29.5 11.5t6.5 41.5v148q0 10 10 10h179q10 0 10 -10v-155q0 -27 11.5 -36.5t29.5 -9.5q23 0 29.5 11.5t6.5 41.5v207q0 10 10 10h179 q10 0 10 -10v-298q0 -65 -27 -95.5t-90 -30.5h-61q-47 0 -72 16.5t-38 37.5q-23 -54 -105 -54h-61q-47 0 -72.5 16.5t-38.5 38.5q-23 -55 -105 -55h-166v0z" arabic-form="initial" glyph-name="aSin.init" horiz-adv-x="886" unicode="س"/><glyph d="M821 49q-25 -49 -102 -49h-61q-47 0 -72 16.5t-38 37.5q-23 -54 -105 -54h-61q-47 0 -72.5 16.5t-38.5 38.5q-23 -55 -105 -55h-166q-20 0 -30 16t-10 61q0 87 40 87h41q25 0 34 11.5t9 41.5v148q0 10 10 10h179q10 0 10 -10v-157q0 -25 11.5 -34.5t30.5 -9.5 q23 0 29.5 11.5t6.5 41.5v148q0 10 10 10h179q10 0 10 -10v-155q0 -27 11.5 -36.5t29.5 -9.5q23 0 29.5 11.5t6.5 41.5v207q0 10 10 10h179q10 0 10 -10v-219q4 -17 18 -29t44 -12h34q40 0 40 -83q0 -37 -9.5 -59t-30.5 -22q-35 0 -61.5 9.5t-49.5 39.5z" arabic-form="medial" glyph-name="aSin.medi" horiz-adv-x="932" unicode="س"/><glyph d="M1105 49q-25 -49 -102 -49h-61q-47 0 -72 16.5t-38 37.5q-23 -54 -105 -54h-61q-38 0 -61.5 11t-37.5 28v-15q0 -74 -23.5 -122.5t-62 -77.5t-87.5 -41t-99 -12t-99.5 12.5t-88.5 42.5t-63 79.5t-24 123.5q0 40 9.5 92t34.5 98q4 7 16 5l161 -39q6 -1 7 -5.5t-1 -8.5 q-9 -28 -17.5 -57t-8.5 -71q0 -56 21.5 -81t53.5 -25q39 0 55.5 25t16.5 73v330q0 10 10 10h179q9 0 11 -10v-149q0 -31 11 -41.5t30 -10.5q23 0 29.5 11.5t6.5 41.5v148q0 10 10 10h179q10 0 10 -10v-149q0 -31 11 -41.5t30 -10.5q23 0 29.5 11.5t6.5 41.5v207q0 10 10 10 h179q10 0 10 -10v-219q4 -17 18 -29t44 -12h34q40 0 40 -83q0 -37 -9.5 -59t-30.5 -22q-35 0 -61.5 9.5t-49.5 39.5zM665 709q-10 0 -10 10v124q0 10 10 10h151q10 0 10 -10v-124q0 -10 -10 -10h-151zM585 536q-10 0 -10 10v124q0 10 10 10h133q10 0 10 -10v-124 q0 -10 -10 -10h-133zM766 536q-10 0 -10 10v124q0 10 10 10h133q10 0 10 -10v-124q0 -10 -10 -10h-133z" arabic-form="final" glyph-name="aShin.fina" horiz-adv-x="1215" unicode="ش"/><glyph d="M0 0q-20 0 -30 16t-10 61q0 87 40 87h41q25 0 34 11.5t9 41.5v148q0 10 10 10h179q10 0 10 -10v-157q0 -25 11.5 -34.5t30.5 -9.5q23 0 29.5 11.5t6.5 41.5v148q0 10 10 10h179q10 0 10 -10v-155q0 -27 11.5 -36.5t29.5 -9.5q23 0 29.5 11.5t6.5 41.5v207q0 10 10 10h179 q10 0 10 -10v-298q0 -65 -27 -95.5t-90 -30.5h-61q-47 0 -72 16.5t-38 37.5q-23 -54 -105 -54h-61q-47 0 -72.5 16.5t-38.5 38.5q-23 -55 -105 -55h-166v0zM376 709q-10 0 -10 10v124q0 10 10 10h151q10 0 10 -10v-124q0 -10 -10 -10h-151zM296 536q-10 0 -10 10v124 q0 10 10 10h133q10 0 10 -10v-124q0 -10 -10 -10h-133zM477 536q-10 0 -10 10v124q0 10 10 10h133q10 0 10 -10v-124q0 -10 -10 -10h-133z" arabic-form="initial" glyph-name="aShin.init" horiz-adv-x="886" unicode="ش"/><glyph d="M821 49q-25 -49 -102 -49h-61q-47 0 -72 16.5t-38 37.5q-23 -54 -105 -54h-61q-47 0 -72.5 16.5t-38.5 38.5q-23 -55 -105 -55h-166q-20 0 -30 16t-10 61q0 87 40 87h41q25 0 34 11.5t9 41.5v148q0 10 10 10h179q10 0 10 -10v-157q0 -25 11.5 -34.5t30.5 -9.5 q23 0 29.5 11.5t6.5 41.5v148q0 10 10 10h179q10 0 10 -10v-155q0 -27 11.5 -36.5t29.5 -9.5q23 0 29.5 11.5t6.5 41.5v207q0 10 10 10h179q10 0 10 -10v-219q4 -17 18 -29t44 -12h34q40 0 40 -83q0 -37 -9.5 -59t-30.5 -22q-35 0 -61.5 9.5t-49.5 39.5zM376 709 q-10 0 -10 10v124q0 10 10 10h151q10 0 10 -10v-124q0 -10 -10 -10h-151zM296 536q-10 0 -10 10v124q0 10 10 10h133q10 0 10 -10v-124q0 -10 -10 -10h-133zM477 536q-10 0 -10 10v124q0 10 10 10h133q10 0 10 -10v-124q0 -10 -10 -10h-133z" arabic-form="medial" glyph-name="aShin.medi" horiz-adv-x="932" unicode="ش"/><glyph d="M987 65q-24 -35 -68 -50t-116 -15h-185q-31 0 -52 9q-3 -69 -27 -115t-62 -73.5t-85.5 -38.5t-96.5 -11q-50 0 -99.5 12.5t-88.5 42.5t-63 79.5t-24 123.5q0 40 9.5 92t34.5 98q4 7 16 5l161 -39q6 -1 7 -5.5t-1 -8.5q-9 -28 -17.5 -57t-8.5 -71q0 -56 21.5 -81t53.5 -25 q39 0 55.5 25t16.5 73v405q0 10 10 10h179q10 0 10 -10v-26q42 16 90.5 26t103.5 10q51 0 98 -10t82.5 -37t56.5 -74.5t21 -123.5q4 -17 18 -29t44 -12h34q40 0 40 -83q0 -37 -9.5 -59t-30.5 -22q-44 0 -74 12.5t-54 52.5zM714 286q-40 0 -77 -8t-70 -21v-93h160 q27 0 44.5 2.5t27 8.5t13 16.5t3.5 26.5q0 18 -4.5 30.5t-15.5 21t-31 12.5t-50 4z" arabic-form="final" glyph-name="aSad.fina" horiz-adv-x="1115" unicode="ص"/><glyph d="M18 164q20 0 26.5 11.5t6.5 41.5v223q0 10 10 10h179q10 0 10 -10v-26q42 15 90.5 25.5t102.5 10.5q51 0 98 -10t82.5 -36.5t56.5 -74t21 -122.5q0 -57 -11 -96.5t-36.5 -64t-66.5 -35.5t-102 -11h-185q-56 0 -79 29q-28 -29 -88 -29h-133q-20 0 -30 17.5t-10 67.5 q0 26 2.5 41.5t7 24t12 11t18.5 2.5h18zM396 286q-39 0 -76 -8.5t-70 -20.5v-93h159q27 0 44.5 2.5t27 8.5t13 16.5t3.5 26.5q0 18 -4.5 30.5t-15.5 21t-31 12.5t-50 4z" arabic-form="initial" glyph-name="aSad.init" horiz-adv-x="741" unicode="ص"/><glyph d="M670 65q-23 -35 -68 -50t-117 -15h-185q-56 0 -79 29q-28 -29 -88 -29h-133q-20 0 -30 17.5t-10 67.5q0 26 2.5 41.5t7 24t12 11t18.5 2.5h18q20 0 26.5 11.5t6.5 41.5v223q0 10 10 10h179q10 0 10 -10v-26q42 15 90.5 25.5t102.5 10.5q51 0 98 -10t82.5 -37t56.5 -74.5 t21 -123.5q4 -17 18 -29t44 -12h34q40 0 40 -83q0 -37 -9.5 -59t-30.5 -22q-44 0 -73.5 12.5t-53.5 52.5zM396 286q-39 0 -76 -8.5t-70 -20.5v-93h159q27 0 44.5 2.5t27 8.5t13 16.5t3.5 26.5q0 18 -4.5 30.5t-15.5 21t-31 12.5t-50 4z" arabic-form="medial" glyph-name="aSad.medi" horiz-adv-x="797" unicode="ص"/><glyph d="M633 536q-10 0 -10 10v124q0 10 10 10h180q10 0 10 -10v-124q0 -10 -10 -10h-180zM987 65q-24 -35 -68 -50t-116 -15h-185q-31 0 -52 9q-3 -69 -27 -115t-62 -73.5t-85.5 -38.5t-96.5 -11q-50 0 -99.5 12.5t-88.5 42.5t-63 79.5t-24 123.5q0 40 9.5 92t34.5 98q4 7 16 5 l161 -39q6 -1 7 -5.5t-1 -8.5q-9 -28 -17.5 -57t-8.5 -71q0 -56 21.5 -81t53.5 -25q39 0 55.5 25t16.5 73v405q0 10 10 10h179q10 0 10 -10v-26q42 16 90.5 26t103.5 10q51 0 98 -10t82.5 -37t56.5 -74.5t21 -123.5q4 -17 18 -29t44 -12h34q40 0 40 -83q0 -37 -9.5 -59 t-30.5 -22q-44 0 -74 12.5t-54 52.5zM714 286q-40 0 -77 -8t-70 -21v-93h160q27 0 44.5 2.5t27 8.5t13 16.5t3.5 26.5q0 18 -4.5 30.5t-15.5 21t-31 12.5t-50 4z" arabic-form="final" glyph-name="aDad.fina" horiz-adv-x="1115" unicode="ض"/><glyph d="M319 536q-10 0 -10 10v124q0 10 10 10h180q10 0 10 -10v-124q0 -10 -10 -10h-180zM18 164q20 0 26.5 11.5t6.5 41.5v223q0 10 10 10h179q10 0 10 -10v-26q42 15 90.5 25.5t102.5 10.5q51 0 98 -10t82.5 -36.5t56.5 -74t21 -122.5q0 -57 -11 -96.5t-36.5 -64t-66.5 -35.5 t-102 -11h-185q-56 0 -79 29q-28 -29 -88 -29h-133q-20 0 -30 17.5t-10 67.5q0 26 2.5 41.5t7 24t12 11t18.5 2.5h18zM396 286q-39 0 -76 -8.5t-70 -20.5v-93h159q27 0 44.5 2.5t27 8.5t13 16.5t3.5 26.5q0 18 -4.5 30.5t-15.5 21t-31 12.5t-50 4z" arabic-form="initial" glyph-name="aDad.init" horiz-adv-x="741" unicode="ض"/><glyph d="M319 536q-10 0 -10 10v124q0 10 10 10h180q10 0 10 -10v-124q0 -10 -10 -10h-180zM670 65q-23 -35 -68 -50t-117 -15h-185q-56 0 -79 29q-28 -29 -88 -29h-133q-20 0 -30 17.5t-10 67.5q0 26 2.5 41.5t7 24t12 11t18.5 2.5h18q20 0 26.5 11.5t6.5 41.5v223q0 10 10 10 h179q10 0 10 -10v-26q42 15 90.5 25.5t102.5 10.5q51 0 98 -10t82.5 -37t56.5 -74.5t21 -123.5q4 -17 18 -29t44 -12h34q40 0 40 -83q0 -37 -9.5 -59t-30.5 -22q-44 0 -73.5 12.5t-53.5 52.5zM396 286q-39 0 -76 -8.5t-70 -20.5v-93h159q27 0 44.5 2.5t27 8.5t13 16.5 t3.5 26.5q0 18 -4.5 30.5t-15.5 21t-31 12.5t-50 4z" arabic-form="medial" glyph-name="aDad.medi" horiz-adv-x="797" unicode="ض"/><glyph d="M710 65q-23 -35 -68 -50t-117 -15h-185q-56 0 -79 29q-28 -29 -88 -29h-153q-10 0 -10 10v144q0 10 10 10h38q20 0 26.5 11.5t6.5 41.5v453q0 10 10 10h179q10 0 10 -10v-256q42 15 90.5 25.5t102.5 10.5q51 0 98 -10t82.5 -37t56.5 -74.5t21 -123.5q4 -17 18 -29t44 -12 h34q40 0 40 -83q0 -37 -9.5 -59t-30.5 -22q-44 0 -73.5 12.5t-53.5 52.5zM436 286q-39 0 -76 -8.5t-70 -20.5v-93h159q27 0 44.5 2.5t27 8.5t13 16.5t3.5 26.5q0 18 -4.5 30.5t-15.5 21t-31 12.5t-50 4z" arabic-form="final" glyph-name="aTah.fina" horiz-adv-x="837" unicode="ط"/><glyph d="M43 164q20 0 26.5 11.5t6.5 41.5v453q0 10 10 10h179q10 0 10 -10v-256q42 15 90.5 25.5t102.5 10.5q51 0 98 -10t82.5 -36.5t56.5 -74t21 -122.5q0 -57 -11 -96.5t-36.5 -64t-66.5 -35.5t-102 -11h-185q-56 0 -79 29q-28 -29 -88 -29h-158q-20 0 -30 17.5t-10 67.5 q0 26 2.5 41.5t7 24t12 11t18.5 2.5h43zM421 286q-39 0 -76 -8.5t-70 -20.5v-93h159q27 0 44.5 2.5t27 8.5t13 16.5t3.5 26.5q0 18 -4.5 30.5t-15.5 21t-31 12.5t-50 4z" arabic-form="initial" glyph-name="aTah.init" horiz-adv-x="766" unicode="ط"/><glyph d="M695 65q-23 -35 -68 -50t-117 -15h-185q-56 0 -79 29q-28 -29 -88 -29h-158q-20 0 -30 17.5t-10 67.5q0 26 2.5 41.5t7 24t12 11t18.5 2.5h43q20 0 26.5 11.5t6.5 41.5v453q0 10 10 10h179q10 0 10 -10v-256q42 15 90.5 25.5t102.5 10.5q51 0 98 -10t82.5 -37t56.5 -74.5 t21 -123.5q4 -17 18 -29t44 -12h34q40 0 40 -83q0 -37 -9.5 -59t-30.5 -22q-44 0 -73.5 12.5t-53.5 52.5zM421 286q-39 0 -76 -8.5t-70 -20.5v-93h159q27 0 44.5 2.5t27 8.5t13 16.5t3.5 26.5q0 18 -4.5 30.5t-15.5 21t-31 12.5t-50 4z" arabic-form="medial" glyph-name="aTah.medi" horiz-adv-x="822" unicode="ط"/><glyph d="M401 536q-10 0 -10 10v124q0 10 10 10h180q10 0 10 -10v-124q0 -10 -10 -10h-180zM710 65q-23 -35 -68 -50t-117 -15h-185q-56 0 -79 29q-28 -29 -88 -29h-153q-10 0 -10 10v144q0 10 10 10h38q20 0 26.5 11.5t6.5 41.5v453q0 10 10 10h179q10 0 10 -10v-256 q42 15 90.5 25.5t102.5 10.5q51 0 98 -10t82.5 -37t56.5 -74.5t21 -123.5q4 -17 18 -29t44 -12h34q40 0 40 -83q0 -37 -9.5 -59t-30.5 -22q-44 0 -73.5 12.5t-53.5 52.5zM436 286q-39 0 -76 -8.5t-70 -20.5v-93h159q27 0 44.5 2.5t27 8.5t13 16.5t3.5 26.5q0 18 -4.5 30.5 t-15.5 21t-31 12.5t-50 4z" arabic-form="final" glyph-name="aZah.fina" horiz-adv-x="837" unicode="ظ"/><glyph d="M393 536q-10 0 -10 10v124q0 10 10 10h180q10 0 10 -10v-124q0 -10 -10 -10h-180zM43 164q20 0 26.5 11.5t6.5 41.5v453q0 10 10 10h179q10 0 10 -10v-256q42 15 90.5 25.5t102.5 10.5q51 0 98 -10t82.5 -36.5t56.5 -74t21 -122.5q0 -57 -11 -96.5t-36.5 -64t-66.5 -35.5 t-102 -11h-185q-56 0 -79 29q-28 -29 -88 -29h-158q-20 0 -30 17.5t-10 67.5q0 26 2.5 41.5t7 24t12 11t18.5 2.5h43zM421 286q-39 0 -76 -8.5t-70 -20.5v-93h159q27 0 44.5 2.5t27 8.5t13 16.5t3.5 26.5q0 18 -4.5 30.5t-15.5 21t-31 12.5t-50 4z" arabic-form="initial" glyph-name="aZah.init" horiz-adv-x="766" unicode="ظ"/><glyph d="M386 536q-10 0 -10 10v124q0 10 10 10h180q10 0 10 -10v-124q0 -10 -10 -10h-180zM695 65q-23 -35 -68 -50t-117 -15h-185q-56 0 -79 29q-28 -29 -88 -29h-158q-20 0 -30 17.5t-10 67.5q0 26 2.5 41.5t7 24t12 11t18.5 2.5h43q20 0 26.5 11.5t6.5 41.5v453q0 10 10 10 h179q10 0 10 -10v-256q42 15 90.5 25.5t102.5 10.5q51 0 98 -10t82.5 -37t56.5 -74.5t21 -123.5q4 -17 18 -29t44 -12h34q40 0 40 -83q0 -37 -9.5 -59t-30.5 -22q-44 0 -73.5 12.5t-53.5 52.5zM421 286q-39 0 -76 -8.5t-70 -20.5v-93h159q27 0 44.5 2.5t27 8.5t13 16.5 t3.5 26.5q0 18 -4.5 30.5t-15.5 21t-31 12.5t-50 4z" arabic-form="medial" glyph-name="aZah.medi" horiz-adv-x="822" unicode="ظ"/><glyph d="M221 -17q0 -14 13 -21.5t45 -7.5h84q10 0 10 -10v-144q0 -10 -10 -10h-128q-100 0 -157.5 42.5t-57.5 126.5q0 38 12 67.5t34 52t51.5 38t65.5 25.5q-21 30 -52 56t-66 52q-9 6 -11.5 10.5t-2.5 9.5v107q0 8 1.5 12t8.5 8q19 11 46 20.5t59.5 17t70 11.5t76.5 4 q70 0 119 -12.5t80.5 -34t46 -49.5t14.5 -59q0 -43 -24.5 -76t-53.5 -55h101q20 0 30 -21.5t10 -60.5q0 -44 -9.5 -63t-30.5 -19h-167q-29 0 -62 7t-59 24q-24 -8 -40.5 -12.5t-27 -9.5t-15 -11t-4.5 -15zM313 172q33 20 45 38.5t12 34.5q0 15 -12.5 28t-44.5 13 q-23 0 -41 -4t-25 -7q15 -13 26 -28t19 -29t13 -26.5t8 -19.5z" arabic-form="final" glyph-name="aAyn.fina" horiz-adv-x="596" unicode="ع"/><glyph d="M47 164q-19 38 -19 87q0 48 17 85t47 62.5t71.5 38.5t91.5 13q43 0 78.5 -7t63 -17.5t47 -23t31.5 -23.5q7 -7 -1 -16l-83 -114q-5 -5 -8.5 -4.5t-7.5 3.5q-22 20 -42.5 29t-41.5 9q-9 0 -19.5 -2.5t-19 -9.5t-14.5 -18.5t-6 -29.5q0 -20 8.5 -35.5t19.5 -26.5h219 q10 0 10 -10v-144q0 -10 -10 -10h-479q-20 0 -30 17t-10 62q0 85 40 85h47z" arabic-form="initial" glyph-name="aAyn.init" horiz-adv-x="524" unicode="ع"/><glyph d="M303 450q70 0 119 -12.5t80.5 -34t46 -49.5t14.5 -59q0 -43 -24.5 -76t-53.5 -55h124q20 0 30 -24.5t10 -62.5q0 -43 -9.5 -60t-30.5 -17h-176q-36 0 -68.5 6.5t-61.5 24.5q-33 -18 -70 -24.5t-66 -6.5h-167q-20 0 -30 16t-10 58q0 41 9.5 65.5t30.5 24.5h122q15 0 35 3 q-20 25 -46.5 43.5t-55.5 39.5q-9 6 -11.5 10.5t-2.5 9.5v107q0 8 1.5 12t8.5 8q19 11 46 20.5t59.5 17t70 11.5t76.5 4zM303 172q33 20 45 38.5t12 34.5q0 15 -12.5 28t-44.5 13q-23 0 -41 -4t-25 -7q15 -13 26 -28t19 -29t13 -26.5t8 -19.5z" arabic-form="medial" glyph-name="aAyn.medi" horiz-adv-x="609" unicode="ع"/><glyph d="M222 536q-10 0 -10 10v124q0 10 10 10h180q10 0 10 -10v-124q0 -10 -10 -10h-180zM221 -17q0 -14 13 -21.5t45 -7.5h84q10 0 10 -10v-144q0 -10 -10 -10h-128q-100 0 -157.5 42.5t-57.5 126.5q0 38 12 67.5t34 52t51.5 38t65.5 25.5q-21 30 -52 56t-66 52 q-9 6 -11.5 10.5t-2.5 9.5v107q0 8 1.5 12t8.5 8q19 11 46 20.5t59.5 17t70 11.5t76.5 4q70 0 119 -12.5t80.5 -34t46 -49.5t14.5 -59q0 -43 -24.5 -76t-53.5 -55h101q20 0 30 -21.5t10 -60.5q0 -44 -9.5 -63t-30.5 -19h-167q-29 0 -62 7t-59 24q-24 -8 -40.5 -12.5 t-27 -9.5t-15 -11t-4.5 -15zM313 172q33 20 45 38.5t12 34.5q0 15 -12.5 28t-44.5 13q-23 0 -41 -4t-25 -7q15 -13 26 -28t19 -29t13 -26.5t8 -19.5z" arabic-form="final" glyph-name="aGhayn.fina" horiz-adv-x="596" unicode="غ"/><glyph d="M167 536q-10 0 -10 10v124q0 10 10 10h180q10 0 10 -10v-124q0 -10 -10 -10h-180zM47 164q-19 38 -19 87q0 48 17 85t47 62.5t71.5 38.5t91.5 13q43 0 78.5 -7t63 -17.5t47 -23t31.5 -23.5q7 -7 -1 -16l-83 -114q-5 -5 -8.5 -4.5t-7.5 3.5q-22 20 -42.5 29t-41.5 9 q-9 0 -19.5 -2.5t-19 -9.5t-14.5 -18.5t-6 -29.5q0 -20 8.5 -35.5t19.5 -26.5h219q10 0 10 -10v-144q0 -10 -10 -10h-479q-20 0 -30 17t-10 62q0 85 40 85h47z" arabic-form="initial" glyph-name="aGhayn.init" horiz-adv-x="524" unicode="غ"/><glyph d="M213 536q-10 0 -10 10v124q0 10 10 10h180q10 0 10 -10v-124q0 -10 -10 -10h-180zM303 450q70 0 119 -12.5t80.5 -34t46 -49.5t14.5 -59q0 -43 -24.5 -76t-53.5 -55h124q20 0 30 -24.5t10 -62.5q0 -43 -9.5 -60t-30.5 -17h-176q-36 0 -68.5 6.5t-61.5 24.5 q-33 -18 -70 -24.5t-66 -6.5h-167q-20 0 -30 16t-10 58q0 41 9.5 65.5t30.5 24.5h122q15 0 35 3q-20 25 -46.5 43.5t-55.5 39.5q-9 6 -11.5 10.5t-2.5 9.5v107q0 8 1.5 12t8.5 8q19 11 46 20.5t59.5 17t70 11.5t76.5 4zM303 172q33 20 45 38.5t12 34.5q0 15 -12.5 28 t-44.5 13q-23 0 -41 -4t-25 -7q15 -13 26 -28t19 -29t13 -26.5t8 -19.5z" arabic-form="medial" glyph-name="aGhayn.medi" horiz-adv-x="609" unicode="غ"/><glyph d="M693 450q51 0 95.5 -10t78 -30t53 -52t19.5 -75q0 -42 -20 -71t-46 -48h113q20 0 30 -18t10 -67q0 -42 -9.5 -60.5t-30.5 -18.5h-163q-36 0 -68 3t-61 21q-33 -18 -70.5 -21t-66.5 -3h-390q-63 0 -90 30.5t-27 95.5v243q0 10 10 10h179q10 0 10 -10v-152 q0 -30 11.5 -41.5t36.5 -11.5h216q-26 19 -46 48t-20 71q0 43 19.5 75t53 52t78 30t95.5 10zM693 330q-8 0 -17 -3.5t-16.5 -11t-13 -19.5t-5.5 -30t4.5 -31t11.5 -22.5t16.5 -17t19.5 -14.5q10 7 19.5 14.5t16.5 17t11.5 22.5t4.5 31t-5.5 30t-13 19.5t-17 11t-16.5 3.5z M602 536q-10 0 -10 10v124q0 10 10 10h180q10 0 10 -10v-124q0 -10 -10 -10h-180z" arabic-form="final" glyph-name="aFeh.fina" horiz-adv-x="986" unicode="ف"/><glyph d="M199 536q-10 0 -10 10v124q0 10 10 10h180q10 0 10 -10v-124q0 -10 -10 -10h-180zM0 0q-21 0 -30.5 17t-9.5 65q0 44 10 63t30 19h41q-2 11 -3 23.5t-1 26.5q0 73 22.5 119.5t58.5 72t81 35t89 9.5t89 -9.5t81 -35t58.5 -72t22.5 -119.5q0 -65 -20.5 -106.5t-55.5 -65.5 t-80.5 -33t-94.5 -9h-288zM288 286q-26 0 -41.5 -14t-15.5 -49q0 -41 16 -53.5t41 -12.5q27 0 42 12.5t15 53.5q0 38 -15.5 50.5t-41.5 12.5z" arabic-form="initial" glyph-name="aFeh.init" horiz-adv-x="579" unicode="ف"/><glyph d="M305 450q51 0 95.5 -9.5t78 -30t53 -52t19.5 -74.5q0 -42 -20 -71.5t-46 -48.5h117q20 0 30 -18t10 -67q0 -42 -9.5 -60.5t-30.5 -18.5h-167q-36 0 -68 3t-61 21q-33 -18 -70.5 -21t-66.5 -3h-169q-21 0 -30.5 19t-9.5 65q0 80 40 80h125q-26 19 -46 48.5t-20 71.5 q0 43 19.5 74.5t53 52t78 30t95.5 9.5zM305 330q-8 0 -17 -3t-16.5 -10.5t-13 -19.5t-5.5 -30q0 -37 16 -54.5t36 -31.5q20 14 36 31.5t16 54.5q0 18 -5.5 30t-13 19.5t-17 10.5t-16.5 3zM211 536q-10 0 -10 10v124q0 10 10 10h180q10 0 10 -10v-124q0 -10 -10 -10h-180z" arabic-form="medial" glyph-name="aFeh.medi" horiz-adv-x="602" unicode="ف"/><glyph d="M438 536q-10 0 -10 10v124q0 10 10 10h133q10 0 10 -10v-124q0 -10 -10 -10h-133zM619 536q-10 0 -10 10v124q0 10 10 10h133q10 0 10 -10v-124q0 -10 -10 -10h-133zM556 -44q31 0 49.5 1.5t28.5 6t13.5 12t3.5 19.5v5h-87q-107 0 -161 49.5t-54 163.5q0 71 21 117 t55.5 72.5t78.5 37t89 10.5t89.5 -9.5t80 -35t57.5 -70.5t22 -116v-55h66q20 0 30 -18t10 -67q0 -42 -9.5 -60.5t-30.5 -18.5h-66v-44q0 -90 -59 -128t-174 -38h-271q-84 0 -142.5 16.5t-95.5 47.5t-53.5 74t-16.5 96q0 27 5.5 54t14 52.5t20 49t23.5 42.5q6 9 16 4l150 -72 q8 -5 3 -13q-31 -55 -31 -99q0 -29 13 -46t32.5 -26t42.5 -11.5t42 -2.5h195zM595 286q-29 0 -42.5 -17t-13.5 -47q0 -19 5 -30.5t12.5 -17.5t17.5 -8t21 -2h53v62q0 35 -15.5 47.5t-37.5 12.5z" arabic-form="final" glyph-name="aQaf.fina" horiz-adv-x="908" unicode="ق"/><glyph d="M129 536q-10 0 -10 10v124q0 10 10 10h133q10 0 10 -10v-124q0 -10 -10 -10h-133zM310 536q-10 0 -10 10v124q0 10 10 10h133q10 0 10 -10v-124q0 -10 -10 -10h-133zM0 0q-21 0 -30.5 17t-9.5 65q0 44 10 63t30 19h41q-2 11 -3 23.5t-1 26.5q0 73 22.5 119.5t58.5 72 t81 35t89 9.5t89 -9.5t81 -35t58.5 -72t22.5 -119.5q0 -65 -20.5 -106.5t-55.5 -65.5t-80.5 -33t-94.5 -9h-288zM288 286q-26 0 -41.5 -14t-15.5 -49q0 -41 16 -53.5t41 -12.5q27 0 42 12.5t15 53.5q0 38 -15.5 50.5t-41.5 12.5z" arabic-form="initial" glyph-name="aQaf.init" horiz-adv-x="579" unicode="ق"/><glyph d="M305 450q51 0 95.5 -9.5t78 -30t53 -52t19.5 -74.5q0 -42 -20 -71.5t-46 -48.5h117q20 0 30 -18t10 -67q0 -42 -9.5 -60.5t-30.5 -18.5h-167q-36 0 -68 3t-61 21q-33 -18 -70.5 -21t-66.5 -3h-169q-21 0 -30.5 19t-9.5 65q0 80 40 80h125q-26 19 -46 48.5t-20 71.5 q0 43 19.5 74.5t53 52t78 30t95.5 9.5zM305 330q-8 0 -17 -3t-16.5 -10.5t-13 -19.5t-5.5 -30q0 -37 16 -54.5t36 -31.5q20 14 36 31.5t16 54.5q0 18 -5.5 30t-13 19.5t-17 10.5t-16.5 3zM153 536q-10 0 -10 10v124q0 10 10 10h133q10 0 10 -10v-124q0 -10 -10 -10h-133z M334 536q-10 0 -10 10v124q0 10 10 10h133q10 0 10 -10v-124q0 -10 -10 -10h-133z" arabic-form="medial" glyph-name="aQaf.medi" horiz-adv-x="602" unicode="ق"/><glyph d="M827 49q-25 -49 -104 -49h-556q-63 0 -90 30.5t-27 95.5v233q0 10 10 10h179q10 0 10 -10v-142q0 -30 11.5 -41.5t36.5 -11.5h297q26 0 37.5 11.5t11.5 41.5v452q0 10 10 10h179q10 0 10 -10v-464q4 -17 18 -29t44 -12h34q40 0 40 -83q0 -37 -9.5 -59t-30.5 -22 q-35 0 -61.5 9.5t-49.5 39.5zM461 473h19q72 0 72 -71v-36q0 -38 -16.5 -52.5t-45.5 -14.5h-136q-10 0 -10 10v44q0 10 10 10h93q17 0 21 4.5t4 17.5q0 14 -6 18.5t-20 4.5h-71q-14 0 -14 14v43q0 5 1.5 7.5t3.5 4.5l79 94q5 5 9.5 4.5t6.5 -2.5l42 -34q5 -5 3.5 -9.5 t-3.5 -7.5z" arabic-form="final" glyph-name="aKaf.fina" horiz-adv-x="938" unicode="ك"/><glyph d="M290 450q86 -8 124.5 -54t38.5 -137v-88q0 -48 -10.5 -80.5t-31 -53t-50 -29t-67.5 -8.5h-294q-20 0 -30 18.5t-10 69.5q0 42 9.5 59t30.5 17h185q21 0 33 1.5t19 6.5t9.5 13.5t2.5 22.5v30q0 31 -15 41t-51 10h-139q-10 0 -10 10v108q0 5 3.5 9.5t5.5 6.5l232 274 q6 7 13 3l117 -99q8 -6 4 -14z" arabic-form="initial" glyph-name="aKaf.init" horiz-adv-x="498" unicode="ك"/><glyph d="M290 450q86 -8 124.5 -54t38.5 -137v-54q4 -17 18 -29t44 -12h34q40 0 40 -83q0 -37 -9.5 -59t-30.5 -22q-42 0 -70.5 11t-51.5 46q-20 -31 -53.5 -44t-79.5 -13h-294q-20 0 -30 18.5t-10 69.5q0 42 9.5 59t30.5 17h185q21 0 33 1.5t19 6.5t9.5 13.5t2.5 22.5v30 q0 31 -15 41t-51 10h-139q-10 0 -10 10v108q0 5 3.5 9.5t5.5 6.5l232 274q6 7 13 3l117 -99q8 -6 4 -14z" arabic-form="medial" glyph-name="aKaf.medi" horiz-adv-x="549" unicode="ك"/><glyph d="M84 219q4 7 16 5l161 -39q6 -1 7 -5.5t-1 -8.5q-9 -28 -17.5 -57t-8.5 -71q0 -56 21.5 -81t53.5 -25q39 0 55.5 25t16.5 73v634q0 10 10 10h179q10 0 10 -10v-464q4 -17 18 -29t44 -12h34q40 0 40 -83q0 -37 -9.5 -59t-30.5 -22q-29 0 -52.5 6t-43.5 25v-7 q0 -74 -23.5 -122.5t-62 -77.5t-87.5 -41t-99 -12t-99.5 12.5t-88.5 42.5t-63 79.5t-24 123.5q0 40 9.5 92t34.5 98z" arabic-form="final" glyph-name="aLam.fina" horiz-adv-x="683" unicode="ل"/><glyph d="M0 0q-20 0 -30 7t-10 28q0 12 2.5 34t7 43t12 36.5t18.5 15.5h8q25 0 36.5 11.5t11.5 41.5v453q0 10 10 10h179q10 0 10 -10v-544q0 -65 -27 -95.5t-90 -30.5h-138z" arabic-form="initial" glyph-name="aLam.init" horiz-adv-x="305" unicode="ل"/><glyph d="M240 49q-25 -49 -102 -49h-138q-20 0 -30 7t-10 28q0 12 2.5 34t7 43t12 36.5t18.5 15.5h8q25 0 36.5 11.5t11.5 41.5v453q0 10 10 10h179q10 0 10 -10v-465q4 -17 18 -29t44 -12h34q40 0 40 -83q0 -37 -9.5 -59t-30.5 -22q-35 0 -61.5 9.5t-49.5 39.5z" arabic-form="medial" glyph-name="aLam.medi" horiz-adv-x="351" unicode="ل"/><glyph d="M375 -7q-38 0 -73.5 5.5t-66.5 19.5q-8 -10 -12 -23t-4 -31v-163h-199v184q0 36 7 59.5t18 39t24 25.5t24.5 20t20 21.5t11.5 30.5q-1 8 -1 16v17q0 73 22.5 119.5t58.5 72t81 35t89 9.5t89 -9.5t81 -35t58.5 -72t22.5 -119.5v-9q4 -17 18 -29t44 -12h29q40 0 40 -83 q0 -37 -9.5 -59t-30.5 -22q-43 0 -75.5 14t-59.5 54q-35 -43 -89.5 -59t-117.5 -16zM375 286q-26 0 -41.5 -14t-15.5 -49q0 -41 16 -53.5t41 -12.5q27 0 42 12.5t15 53.5q0 38 -15.5 50.5t-41.5 12.5z" arabic-form="final" glyph-name="aMim.fina" horiz-adv-x="717" unicode="م"/><glyph d="M320 -7q-59 0 -111.5 14t-87.5 52q-10 -20 -24 -31.5t-30.5 -17.5t-34 -8t-32.5 -2q-20 0 -30 17t-10 62t9.5 65t30.5 20h8q22 0 41 19t22 71q4 61 28 99t59 59.5t78 29.5t84 8q44 0 89 -9.5t81 -35t58.5 -72t22.5 -119.5q0 -65 -20.5 -108t-55.5 -68t-80.5 -35 t-94.5 -10zM320 286q-26 0 -42 -14t-16 -49q0 -41 16.5 -53.5t41.5 -12.5q27 0 42 12.5t15 53.5q0 38 -15.5 50.5t-41.5 12.5z" arabic-form="initial" glyph-name="aMim.init" horiz-adv-x="611" unicode="م"/><glyph d="M320 -7q-59 0 -111.5 14t-87.5 52q-10 -20 -24 -31.5t-30.5 -17.5t-34 -8t-32.5 -2q-20 0 -30 17t-10 62t9.5 65t30.5 20h8q22 0 41 19t22 71q4 61 28 99t59 59.5t78 29.5t84 8q44 0 89 -9.5t81 -35t58.5 -72t22.5 -119.5v-9q4 -17 18 -29t44 -12h29q40 0 40 -83 q0 -37 -9.5 -59t-30.5 -22q-43 0 -76 14.5t-59 53.5q-35 -43 -89.5 -59t-117.5 -16zM320 286q-26 0 -41.5 -14t-15.5 -49q0 -41 16 -53.5t41 -12.5q27 0 42 12.5t15 53.5q0 38 -15.5 50.5t-41.5 12.5z" arabic-form="medial" glyph-name="aMim.medi" horiz-adv-x="662" unicode="م"/><glyph d="M232 480q-10 0 -10 10v124q0 10 10 10h180q10 0 10 -10v-124q0 -10 -10 -10h-180zM84 219q4 7 16 5l161 -39q6 -1 7 -5.5t-1 -8.5q-9 -28 -17.5 -57t-8.5 -71q0 -56 21.5 -81t53.5 -25q39 0 55.5 25t16.5 73v309q0 10 10 10h179q10 0 10 -10v-139q4 -17 18 -29t44 -12h34 q40 0 40 -83q0 -37 -9.5 -59t-30.5 -22q-29 0 -52.5 6t-43.5 25v-7q0 -74 -23.5 -122.5t-62 -77.5t-87.5 -41t-99 -12t-99.5 12.5t-88.5 42.5t-63 79.5t-24 123.5q0 40 9.5 92t34.5 98z" arabic-form="final" glyph-name="aNun.fina" horiz-adv-x="683" unicode="ن"/><glyph d="M65 536q-10 0 -10 10v124q0 10 10 10h180q10 0 10 -10v-124q0 -10 -10 -10h-180zM0 0q-20 0 -30 7t-10 28q0 12 2.5 34t7 43t12 36.5t18.5 15.5h8q25 0 36.5 11.5t11.5 41.5v207q0 10 10 10h179q10 0 10 -10v-298q0 -65 -27 -95.5t-90 -30.5h-138z" arabic-form="initial" glyph-name="aNun.init" horiz-adv-x="305" unicode="ن"/><glyph d="M66 536q-10 0 -10 10v124q0 10 10 10h180q10 0 10 -10v-124q0 -10 -10 -10h-180zM240 49q-25 -49 -102 -49h-138q-20 0 -30 7t-10 28q0 12 2.5 34t7 43t12 36.5t18.5 15.5h8q25 0 36.5 11.5t11.5 41.5v207q0 10 10 10h179q10 0 10 -10v-219q4 -17 18 -29t44 -12h34 q40 0 40 -83q0 -37 -9.5 -59t-30.5 -22q-35 0 -61.5 9.5t-49.5 39.5z" arabic-form="medial" glyph-name="aNun.medi" horiz-adv-x="351" unicode="ن"/><glyph d="M254 0q-23 0 -29.5 -6.5t-6.5 -27.5v-57q0 -10 -10 -10h-179q-10 0 -10 10v145q0 23 4.5 43t16 35t32 23.5t52.5 8.5h63q-5 12 -8.5 34.5t-3.5 39.5q0 26 3 42.5t9 36.5l-11 -3q-13 -3 -15 2l-30 121q-2 6 -2.5 9.5t3.5 5.5q21 7 57 14.5t79 13.5t88 10t83 4 q66 0 127 -10.5t108 -40t75 -80.5t28 -132q0 -48 -8.5 -90t-32.5 -73.5t-68 -49.5t-115 -18h-299zM336 323q-19 0 -31.5 -17t-12.5 -68q0 -27 3.5 -43.5t9.5 -25.5t14 -12.5t17 -3.5t17 3.5t14 12.5t9 25.5t3 43.5q0 52 -12 68.5t-31 16.5zM569 239q0 38 -18.5 62.5 t-62.5 35.5q10 -21 15.5 -47.5t5.5 -53.5q0 -26 -5.5 -50t-13.5 -37q36 2 57.5 20t21.5 70z" arabic-form="isolated" glyph-name="aHeh.isol" horiz-adv-x="817" unicode="ه"/><glyph d="M348 450v43q0 10 10 10h179q10 0 10 -10v-276q0 -30 11.5 -41.5t36.5 -11.5h19q40 0 40 -82q0 -45 -9.5 -63.5t-30.5 -18.5h-149q-49 0 -76.5 12.5t-36.5 55.5q-25 -18 -55 -27t-61 -9q-40 0 -77 10.5t-65.5 35t-46 64t-17.5 97.5q0 64 19 105t49.5 64.5t69 32.5t77.5 9 h103zM285 196q10 0 21 2t20.5 7.5t15.5 15.5t6 26v39h-62q-30 0 -46 -9.5t-16 -36.5q0 -15 5 -23.5t13.5 -13t19.5 -6t23 -1.5z" arabic-form="final" glyph-name="aHeh.fina" horiz-adv-x="614" unicode="ه"/><glyph d="M-40 81q0 38 9.5 60.5t30.5 22.5h70q-5 12 -8.5 34.5t-3.5 39.5q0 26 3 42.5t9 36.5l-11 -3q-13 -3 -15 2l-30 121q-2 6 -2.5 9.5t3.5 5.5q21 7 57 14.5t79 13.5t88 10t83 4q66 0 127 -10.5t108 -40t75 -80.5t28 -132q0 -48 -8.5 -90t-32.5 -73.5t-68 -49.5t-115 -18 h-436q-20 0 -30 17t-10 64zM219 323q-19 0 -31.5 -17t-12.5 -68q0 -27 3.5 -43.5t9.5 -25.5t14 -12.5t17 -3.5t17 3.5t14 12.5t9 25.5t3 43.5q0 52 -12 68.5t-31 16.5zM452 239q0 38 -18.5 62.5t-62.5 35.5q10 -21 15.5 -47.5t5.5 -53.5q0 -26 -5.5 -50t-13.5 -37 q36 2 57.5 20t21.5 70z" arabic-form="initial" glyph-name="aHeh.init" horiz-adv-x="700" unicode="ه"/><glyph d="M-40 79q0 40 9.5 62.5t30.5 22.5h59v62q0 71 23.5 115t59.5 68t79 32.5t81 8.5q43 0 88 -7.5t81 -28.5t59 -57.5t23 -94.5q0 -29 -6.5 -57.5t-11.5 -40.5h74q40 0 40 -83q0 -47 -10 -64t-30 -17h-86q8 -16 14.5 -34.5t6.5 -38.5q0 -49 -21 -78.5t-55.5 -46t-78 -22 t-88.5 -5.5q-46 0 -89.5 6t-77.5 23.5t-54.5 49.5t-20.5 84v62h-59q-20 0 -30 18.5t-10 60.5zM305 286q-23 0 -37.5 -11.5t-14.5 -43.5v-71h55q24 0 38.5 17t14.5 55q0 32 -16.5 43t-39.5 11zM305 -70q47 0 47 38q0 22 -11 35t-44 13h-44v-42q0 -24 12 -34t40 -10z" arabic-form="medial" glyph-name="aHeh.medi" horiz-adv-x="609" unicode="ه"/><glyph d="M140 -210q-10 0 -10 10v144q0 10 10 10h110q39 0 60 7t23 39h-84q-107 0 -161 49.5t-54 163.5q0 71 21 117t55.5 72.5t78.5 37t89 10.5t89.5 -9t80 -34.5t57.5 -70.5t22 -116v-56h68q40 0 40 -82q0 -50 -9.5 -66t-30.5 -16h-68v-14q0 -46 -11.5 -82.5t-37 -61.5 t-67.5 -38.5t-103 -13.5h-168zM280 286q-29 0 -42.5 -16.5t-13.5 -46.5q0 -19 5 -30.5t12.5 -18t17.5 -8.5t21 -2h53v63q0 35 -15.5 47t-37.5 12z" arabic-form="final" glyph-name="aWaw.fina" horiz-adv-x="595" unicode="و"/><glyph d="M476 -44q31 0 49.5 2t28.5 5.5t13.5 9t3.5 12.5q0 9 -6 16.5t-23.5 16.5t-49.5 21t-83 31q-9 3 -6 12l43 138q3 10 12 7q32 -12 58.5 -23.5t51.5 -20t49.5 -14t53.5 -5.5h156q20 0 30 -21.5t10 -60.5q0 -82 -40 -82h-60q5 -8 10 -21t5 -31q0 -78 -59 -118t-174 -40h-211 q-84 0 -142.5 16.5t-95.5 47.5t-53.5 74t-16.5 96q0 27 5.5 54t14 52.5t20 49t23.5 42.5q6 9 16 4l150 -72q8 -5 3 -13q-31 -55 -31 -99q0 -29 13 -46t32.5 -26t42.5 -11.5t42 -2.5h115z" arabic-form="final" glyph-name="aAlifMaksura.fina" horiz-adv-x="826" unicode="ى"/><glyph d="M269 -397q-10 0 -10 10v124q0 10 10 10h133q10 0 10 -10v-124q0 -10 -10 -10h-133zM450 -397q-10 0 -10 10v124q0 10 10 10h133q10 0 10 -10v-124q0 -10 -10 -10h-133zM476 -44q31 0 49.5 2t28.5 5.5t13.5 9t3.5 12.5q0 9 -6 16.5t-23.5 16.5t-49.5 21t-83 31q-9 3 -6 12 l43 138q3 10 12 7q32 -12 58.5 -23.5t51.5 -20t49.5 -14t53.5 -5.5h156q20 0 30 -21.5t10 -60.5q0 -82 -40 -82h-60q5 -8 10 -21t5 -31q0 -78 -59 -118t-174 -40h-211q-84 0 -142.5 16.5t-95.5 47.5t-53.5 74t-16.5 96q0 27 5.5 54t14 52.5t20 49t23.5 42.5q6 9 16 4 l150 -72q8 -5 3 -13q-31 -55 -31 -99q0 -29 13 -46t32.5 -26t42.5 -11.5t42 -2.5h115z" arabic-form="final" glyph-name="aYeh.fina" horiz-adv-x="826" unicode="ي"/><glyph d="M0 0q-20 0 -30 17.5t-10 61.5q0 85 40 85h55q25 0 36.5 11.5t11.5 41.5v207q0 10 10 10h179q10 0 10 -10v-298q0 -65 -27 -95.5t-90 -30.5h-185zM32 -210q-10 0 -10 10v124q0 10 10 10h133q10 0 10 -10v-124q0 -10 -10 -10h-133zM213 -210q-10 0 -10 10v124q0 10 10 10 h133q10 0 10 -10v-124q0 -10 -10 -10h-133z" arabic-form="initial" glyph-name="aYeh.init" horiz-adv-x="362" unicode="ي"/><glyph d="M44 -210q-10 0 -10 10v124q0 10 10 10h133q10 0 10 -10v-124q0 -10 -10 -10h-133zM225 -210q-10 0 -10 10v124q0 10 10 10h133q10 0 10 -10v-124q0 -10 -10 -10h-133zM287 49q-25 -49 -102 -49h-185q-20 0 -30 18t-10 66q0 42 9.5 61t30.5 19h55q25 0 36.5 11.5 t11.5 41.5v207q0 10 10 10h179q10 0 10 -10v-219q4 -17 18 -29t44 -12h34q40 0 40 -83q0 -37 -9.5 -59t-30.5 -22q-35 0 -61.5 9.5t-49.5 39.5z" arabic-form="medial" glyph-name="aYeh.medi" horiz-adv-x="398" unicode="ي"/><glyph d="M0 670q0 10 10 10h538q10 0 10 -10v-660q0 -10 -10 -10h-538q-10 0 -10 10v660zM90 92q0 -6 6 -6h366q6 0 6 6v496q0 6 -6 6h-366q-6 0 -6 -6v-496zM230 257q-10 0 -10 10v23q0 17 5.5 29.5t16.5 24.5l31 32q18 19 25 29.5t7 21.5q0 29 -28 29q-26 0 -34 -28 q-3 -11 -12 -9l-91 12q-10 0 -8 11q7 55 47 88t104 33q34 0 61.5 -10t46 -26.5t28.5 -39.5t10 -48q0 -31 -11 -53t-38 -50l-31 -32q-7 -8 -9.5 -14.5t-2.5 -17.5v-5q0 -10 -10 -10h-97zM220 207q0 10 10 10h97q10 0 10 -10v-84q0 -10 -10 -10h-97q-10 0 -10 10v84z" glyph-name=".notdef" horiz-adv-x="558"/><glyph glyph-name=".null" horiz-adv-x="500"/><glyph glyph-name=".null" horiz-adv-x="500"/><glyph glyph-name="nonmarkingreturn" horiz-adv-x="0"/><glyph glyph-name="space" horiz-adv-x="240"/><glyph glyph-name="space" horiz-adv-x="240"/><glyph d="M94 222q-10 0 -10 10l-24 438q0 10 10 10h180q10 0 10 -10l-24 -438q0 -10 -10 -10h-132zM70 150q0 10 10 10h160q10 0 10 -10v-140q0 -10 -10 -10h-160q-10 0 -10 10v140z" glyph-name="exclam" horiz-adv-x="320" unicode="!"/><glyph d="M261 436q-10 0 -10 10v224q0 10 10 10h117q10 0 10 -10v-224q0 -10 -10 -10h-117zM64 436q-10 0 -10 10v224q0 10 10 10h117q10 0 10 -10v-224q0 -10 -10 -10h-117z" glyph-name="quotedbl" horiz-adv-x="442" unicode="&quot;"/><glyph d="M93 161h-59q-10 0 -10 10v125q0 10 10 10h79l10 74h-63q-10 0 -10 10v125q0 10 10 10h83l20 145q2 10 11 10h147q11 0 9 -10l-20 -145h80l20 145q2 10 11 10h147q11 0 9 -10l-20 -145h61q10 0 10 -10v-125q0 -10 -10 -10h-81l-10 -74h65q10 0 10 -10v-125q0 -10 -10 -10 h-85l-20 -151q-2 -10 -11 -10h-147q-11 0 -9 10l21 151h-80l-21 -151q-2 -10 -11 -10h-147q-11 0 -9 10zM360 306l10 74h-80l-10 -74h80z" glyph-name="numbersign" horiz-adv-x="652" unicode="#"/><glyph d="M34 67q-9 8 -2 17l99 120q6 8 13 2q23 -19 54 -32.5t62 -13.5q30 0 48 12.5t18 36.5q0 33 -49 39l-18 2q-100 11 -155.5 65.5t-55.5 144.5q0 83 46 143.5t129 80.5v81q0 10 10 10h106q10 0 10 -10v-77q48 -7 86 -23t64 -33q10 -6 2 -17l-85 -120q-6 -8 -14 -3 q-24 15 -45.5 21.5t-45.5 6.5q-27 0 -44 -11t-17 -31q0 -16 11.5 -24.5t38.5 -12.5l24 -3q106 -13 155 -67t49 -144q0 -88 -47 -149t-132 -81v-82q0 -10 -10 -10h-106q-10 0 -10 10v76q-59 7 -108 28t-81 48z" glyph-name="dollar" unicode="$"/><glyph d="M572 682q6 10 16 10h122q5 0 5.5 -3t-1.5 -7l-395 -684q-6 -10 -16 -10h-122q-5 0 -5.5 3t1.5 7zM215 330q-57 0 -93 23t-50 65q-5 14 -8.5 35t-3.5 56t3.5 56t8.5 35q14 42 50 65t93 23t93 -23t50 -65q5 -14 8.5 -35t3.5 -56t-3.5 -56t-8.5 -35q-14 -42 -50 -65t-93 -23 zM215 423q15 0 19 13q1 3 1.5 6t1 10.5t0.5 21v35.5v35t-0.5 20.5t-1 11t-1.5 6.5q-4 13 -19 13t-19 -13q-1 -3 -1.5 -6.5t-1 -11t-0.5 -20.5v-35v-35.5t0.5 -21t1 -10.5t1.5 -6q4 -13 19 -13zM533 80q-5 14 -8.5 35t-3.5 56t3.5 56t8.5 35q14 42 50 65t93 23t93 -23t50 -65 q5 -14 8.5 -35t3.5 -56t-3.5 -56t-8.5 -35q-14 -42 -50 -65t-93 -23t-93 23t-50 65zM657 98q4 -13 19 -13t19 13q1 3 1.5 6t1 10.5t0.5 21v35.5v35t-0.5 20.5t-1 11t-1.5 6.5q-4 13 -19 13t-19 -13q-1 -3 -1.5 -6.5t-1 -11t-0.5 -20.5v-35v-35.5t0.5 -21t1 -10.5t1.5 -6z" glyph-name="percent" horiz-adv-x="891" unicode="%"/><glyph d="M34 176q0 55 29 99t91 94q-20 24 -32.5 44.5t-20.5 38.5t-11 34.5t-3 33.5q0 37 15.5 69t42.5 54.5t64 35.5t81 13q46 0 83.5 -13t63.5 -36t40.5 -54.5t14.5 -69.5q0 -23 -6 -43t-19 -40t-33.5 -40.5t-50.5 -44.5l52 -63l66 71q7 7 14 1l96 -85q7 -6 1 -14l-79 -91l3 -3 q8 -11 16.5 -14.5t20.5 -3.5h15q10 0 10 -10v-129q0 -10 -10 -10h-62q-38 0 -63 10.5t-50 38.5q-45 -35 -85.5 -48t-88.5 -13q-98 0 -151.5 50.5t-53.5 137.5zM288 468q20 17 28.5 30t8.5 27q0 18 -9 28.5t-24 10.5t-24 -11t-9 -28q0 -11 6 -22.5t23 -34.5zM214 192 q0 -19 12 -32t33 -14q14 -1 27.5 4t30.5 18l-67 84q-21 -18 -28.5 -32t-7.5 -28z" glyph-name="ampersand" horiz-adv-x="647" unicode="&amp;"/><glyph d="M64 436q-10 0 -10 10v224q0 10 10 10h117q10 0 10 -10v-224q0 -10 -10 -10h-117v0z" glyph-name="quotesingle" horiz-adv-x="245" unicode="'"/><glyph d="M183 -74q-66 91 -97.5 195t-31.5 207t31.5 207t97.5 195q3 5 5.5 7.5t7.5 2.5h124q5 0 7 -2.5t0 -7.5q-42 -91 -64 -195t-22 -207t22 -207t64 -195q2 -5 0 -7.5t-7 -2.5h-124q-5 0 -7.5 2.5t-5.5 7.5z" glyph-name="parenleft" horiz-adv-x="351" unicode="("/><glyph d="M24 -74q42 91 64 195t22 207t-22 207t-64 195q-2 5 0 7.5t7 2.5h124q5 0 7.5 -2.5t5.5 -7.5q66 -91 97.5 -195t31.5 -207t-31.5 -207t-97.5 -195q-3 -5 -5.5 -7.5t-7.5 -2.5h-124q-5 0 -7 2.5t0 7.5z" glyph-name="parenright" horiz-adv-x="351" unicode=")"/><glyph d="M181 332q-10 0 -10 10l1 78l-67 -40q-8 -5 -13 3l-41 72q-5 8 3 13l68 38l-68 38q-9 5 -4 13l42 72q5 8 13 3l67 -40l-1 78q0 10 10 10h82q10 0 10 -10l-1 -78l67 40q8 5 13 -3l41 -72q5 -8 -3 -13l-69 -38l69 -38q9 -5 4 -13l-42 -72q-5 -8 -13 -3l-67 40l1 -78 q0 -10 -10 -10h-82v0z" glyph-name="asterisk" horiz-adv-x="444" unicode="*"/><glyph d="M52 194q-10 0 -10 10v144q0 10 10 10h143q6 0 6 6v145q0 10 10 10h148q10 0 10 -10v-145q0 -6 6 -6h143q10 0 10 -10v-144q0 -10 -10 -10h-143q-6 0 -6 -6v-145q0 -10 -10 -10h-148q-10 0 -10 10v145q0 6 -6 6h-143v0z" glyph-name="plus" unicode="+"/><glyph d="M44 170q0 10 10 10h152q10 0 10 -10v-145q0 -11 -10 -20l-132 -99q-11 -8 -18 -8q-12 0 -12 13v259z" glyph-name="comma" horiz-adv-x="260" unicode=","/><glyph d="M46 179q-10 0 -10 10v152q0 10 10 10h316q10 0 10 -10v-152q0 -10 -10 -10h-316v0z" glyph-name="hyphen" horiz-adv-x="408" unicode="-"/><glyph d="M46 179q-10 0 -10 10v152q0 10 10 10h316q10 0 10 -10v-152q0 -10 -10 -10h-316v0z" glyph-name="hyphen" horiz-adv-x="408" unicode="‐"/><glyph d="M46 179q-10 0 -10 10v152q0 10 10 10h316q10 0 10 -10v-152q0 -10 -10 -10h-316v0z" glyph-name="hyphen" horiz-adv-x="408" unicode="­"/><glyph d="M44 170q0 10 10 10h160q10 0 10 -10v-160q0 -10 -10 -10h-160q-10 0 -10 10v160z" glyph-name="period" horiz-adv-x="268" unicode="."/><glyph d="M231 682q3 10 13 10h183q10 0 7 -10l-206 -684q-3 -10 -13 -10h-183q-10 0 -7 10z" glyph-name="slash" horiz-adv-x="459" unicode="/"/><glyph d="M54 141q-5 13 -8 27t-5 35.5t-3 53.5t-1 83t1 83t3 53.5t5 35t8 27.5q24 72 82.5 112.5t148.5 40.5t148.5 -40.5t82.5 -112.5q4 -14 7.5 -27.5t5.5 -35t3 -53.5t1 -83t-1 -83t-3 -53.5t-5.5 -35.5t-7.5 -27q-24 -72 -82.5 -112.5t-148.5 -40.5t-148.5 40.5t-82.5 112.5z M245 175q9 -27 40 -27t40 27q1 4 2.5 11t2 23.5t1 47t0.5 83.5t-0.5 83.5t-1 47t-2 23t-2.5 11.5q-9 27 -40 27t-40 -27q-2 -5 -3 -11.5t-1.5 -23t-1 -47t-0.5 -83.5t0.5 -83.5t1 -47t1.5 -23.5t3 -11z" glyph-name="zero" unicode="0"/><glyph d="M218 470h-2l-121 -79q-5 -3 -9 -1.5t-4 7.5v173q0 8 7 14l130 90q9 6 19 6h170q10 0 10 -10v-660q0 -10 -10 -10h-180q-10 0 -10 10v460z" glyph-name="one" unicode="1"/><glyph d="M48 144q0 8 5 14l239 249q19 20 26.5 36.5t7.5 36.5q0 52 -46 52q-22 0 -36.5 -15t-17.5 -56q0 -11 -11 -9l-157 21q-9 1 -9 11q2 47 21 85.5t51 65.5t75.5 42t93.5 15t92.5 -15t73 -42t47.5 -64.5t17 -81.5q0 -57 -21.5 -99.5t-59.5 -80.5l-140 -143v-2h211q10 0 10 -10 v-144q0 -10 -10 -10h-452q-10 0 -10 10v134z" glyph-name="two" unicode="2"/><glyph d="M45 169q-2 10 8 12l159 22q10 1 12 -9q5 -21 20 -33.5t38 -12.5q25 0 39.5 15.5t14.5 44.5q0 30 -17 45.5t-46 15.5h-27q-10 0 -10 10v137q0 10 10 10h25q26 0 40 14t14 40q0 25 -13.5 38.5t-35.5 13.5q-21 0 -33 -12.5t-17 -33.5q-2 -10 -11 -8l-159 21q-10 2 -8 11 q7 40 25.5 73.5t48.5 57.5t71.5 37.5t94.5 13.5q55 0 98 -14.5t72.5 -40t45 -60t15.5 -73.5q0 -46 -21 -81t-56 -58v-2q18 -10 34 -24t28 -33.5t19 -45.5t7 -60q0 -47 -17.5 -85.5t-49 -67t-76 -44t-98.5 -15.5q-105 0 -169 49.5t-75 131.5z" glyph-name="three" unicode="3"/><glyph d="M40 90q-10 0 -10 10v158q0 7 2 11l167 403q3 8 15 8h192q12 0 7 -11l-172 -406v-3h61q6 0 6 6v90q0 10 10 10h168q10 0 10 -10v-90q0 -6 5 -6h33q10 0 10 -10v-150q0 -10 -10 -10h-32q-6 0 -6 -6v-74q0 -10 -10 -10h-168q-10 0 -10 10v74q0 6 -6 6h-262v0z" glyph-name="four" unicode="4"/><glyph d="M55 162q0 9 9 11l157 21q10 1 13 -9q5 -15 16 -26t34 -11q32 0 42 28q6 16 6 48q0 31 -6 48q-10 28 -42 28q-16 0 -25 -6t-15 -17q-5 -10 -14 -10h-154q-10 0 -10 10v393q0 10 10 10h415q10 0 10 -10v-144q0 -10 -10 -10h-255q-6 0 -6 -6v-92h2q15 17 40.5 28.5 t67.5 11.5q63 0 107.5 -27t64.5 -87q7 -20 10.5 -47.5t3.5 -73.5q0 -29 -4 -53.5t-11 -45.5q-23 -70 -81 -103t-144 -33q-53 0 -94.5 13t-71 36.5t-46 55t-19.5 69.5z" glyph-name="five" unicode="5"/><glyph d="M34 212q0 25 3.5 48t11 46t18.5 48.5t27 56.5l134 261q4 8 13 8h193q12 0 7 -11l-127 -244l1 -1q2 1 8 2t16 1q44 0 80 -16t62 -44.5t40.5 -68t14.5 -86.5q0 -50 -18 -91t-51 -70.5t-79.5 -46t-102.5 -16.5t-102.5 16.5t-79.5 46t-51 70.5t-18 91zM222 212 q0 -28 17.5 -46t45.5 -18t45.5 18t17.5 46t-17.5 46t-45.5 18t-45.5 -18t-17.5 -46z" glyph-name="six" unicode="6"/><glyph d="M325 505v3h-88q-6 0 -6 -6v-55q0 -10 -10 -10h-165q-10 0 -10 10v223q0 10 10 10h464q10 0 10 -10v-161q0 -4 -2 -10l-196 -489q-4 -10 -14 -10h-188q-5 0 -7.5 3t-0.5 8z" glyph-name="seven" unicode="7"/><glyph d="M33 202q0 57 23 93t51 56v2q-23 19 -41 52t-18 80q0 42 16 79.5t46.5 66t74.5 45t100 16.5t100 -16.5t74.5 -45t46.5 -66t16 -79.5q0 -47 -18 -80t-41 -52v-2q28 -20 51 -56t23 -93q0 -51 -20 -90.5t-54 -67t-80 -42t-98 -14.5t-98 14.5t-80 42t-54 67t-20 90.5zM285 428 q23 0 38 14.5t15 37.5t-15 37.5t-38 14.5t-38 -14.5t-15 -37.5t15 -37.5t38 -14.5zM221 210q0 -27 18.5 -44.5t45.5 -17.5t45.5 17.5t18.5 44.5t-18.5 44.5t-45.5 17.5t-45.5 -17.5t-18.5 -44.5z" glyph-name="eight" unicode="8"/><glyph d="M256 255l-1 1q-2 -1 -8 -2t-16 -1q-44 0 -80 16t-62 44.5t-40.5 68t-14.5 86.5q0 49 18 90.5t51 71t79.5 46t102.5 16.5t102.5 -16.5t79.5 -46t51 -71t18 -90.5q0 -25 -3.5 -48t-11 -46t-18.5 -48.5t-27 -56.5l-134 -261q-4 -8 -13 -8h-193q-13 0 -7 11zM285 404 q28 0 45.5 18t17.5 46t-17.5 46t-45.5 18t-45.5 -18t-17.5 -46t17.5 -46t45.5 -18z" glyph-name="nine" unicode="9"/><glyph d="M64 310q-10 0 -10 10v160q0 10 10 10h160q10 0 10 -10v-160q0 -10 -10 -10h-160zM54 170q0 10 10 10h160q10 0 10 -10v-160q0 -10 -10 -10h-160q-10 0 -10 10v160z" glyph-name="colon" horiz-adv-x="288" unicode=":"/><glyph d="M64 310q-10 0 -10 10v160q0 10 10 10h160q10 0 10 -10v-160q0 -10 -10 -10h-160zM58 170q0 10 10 10h152q10 0 10 -10v-145q0 -11 -10 -20l-132 -99q-11 -8 -18 -8q-12 0 -12 13v259z" glyph-name="semicolon" horiz-adv-x="288" unicode=";"/><glyph d="M52 200q-10 3 -10 14v124q0 11 10 14l466 164q10 3 10 -7v-153q0 -9 -10 -13l-220 -66v-2l220 -66q10 -4 10 -13v-153q0 -10 -10 -7l-466 164v0z" glyph-name="less" unicode="&lt;"/><glyph d="M52 310q-10 0 -10 10v144q0 10 10 10h466q10 0 10 -10v-144q0 -10 -10 -10h-466zM52 78q-10 0 -10 10v144q0 10 10 10h466q10 0 10 -10v-144q0 -10 -10 -10h-466z" glyph-name="equal" unicode="="/><glyph d="M42 196q0 9 10 13l220 66v2l-220 66q-10 4 -10 13v153q0 10 10 7l466 -164q10 -3 10 -14v-124q0 -11 -10 -14l-466 -164q-10 -3 -10 7v153z" glyph-name="greater" unicode="&gt;"/><glyph d="M159 222q-10 0 -10 10v40q0 50 34 84l48 48q29 29 39.5 45.5t10.5 33.5q0 20 -12 32.5t-32 12.5q-42 0 -53 -49q-2 -11 -11 -9l-152 21q-10 2 -8 11q5 42 22.5 76.5t47 60t69.5 39.5t89 14q53 0 95.5 -16t72.5 -43t46.5 -62.5t16.5 -74.5q0 -52 -21.5 -87.5t-62.5 -75.5 l-37 -36q-14 -14 -18 -26t-4 -29v-10q0 -10 -10 -10h-160zM150 150q0 10 10 10h160q10 0 10 -10v-140q0 -10 -10 -10h-160q-10 0 -10 10v140z" glyph-name="question" horiz-adv-x="494" unicode="?"/><glyph d="M38 259q0 99 32 179t90 136.5t139 87t180 30.5t180 -30.5t139 -86t90 -134t32 -174.5q0 -54 -17.5 -94.5t-46.5 -68t-66.5 -41t-78.5 -13.5q-54 0 -93 19t-56 49h-1q-18 -32 -48 -50t-91 -18q-111 0 -140 91q-8 23 -11 51.5t-3 73.5t3 73.5t11 51.5q29 91 125 91 q38 0 65.5 -13t40.5 -36h1v30q0 9 9 9h143q8 0 8 -9v-232q0 -24 12 -36.5t32 -12.5q26 0 38 23t12 61q0 67 -20 121.5t-57.5 93t-91 59t-120.5 20.5t-120.5 -21t-91 -60t-57.5 -95t-20 -125q0 -66 20 -119.5t57.5 -91.5t91 -59t120.5 -21q55 0 103 15t86 38q9 6 14 -2 l67 -87q6 -8 -2 -14q-52 -40 -122 -61t-146 -21q-99 0 -180 30.5t-139 86t-90 133.5t-32 173zM432 209q9 -27 39 -27t39 27q2 7 3 17.5t1 39.5t-1 39.5t-3 17.5q-9 27 -39 27t-39 -27q-2 -7 -3 -17.5t-1 -39.5t1 -39.5t3 -17.5z" glyph-name="at" horiz-adv-x="956" unicode="@"/><glyph d="M242 670q3 10 13 10h204q10 0 13 -10l230 -660q3 -10 -7 -10h-203q-10 0 -13 10l-25 89h-200l-25 -89q-3 -10 -13 -10h-203q-10 0 -7 10zM407 270l-50 181h-3l-52 -181h105z" glyph-name="A" horiz-adv-x="708" unicode="A"/><glyph d="M44 670q0 10 10 10h291q58 0 101 -13t71 -37t41.5 -57.5t13.5 -73.5q0 -50 -22 -87.5t-64 -59.5v-2q42 -16 70 -57.5t28 -99.5q0 -49 -18 -85.5t-49.5 -60.5t-75.5 -35.5t-96 -11.5h-291q-10 0 -10 10v660zM292 413q37 0 54.5 13t17.5 46t-17 46t-55 13h-33q-6 0 -6 -6 v-106q0 -6 6 -6h33zM253 156q0 -6 6 -6h44q37 0 54 16t17 51q0 32 -17 49t-54 17h-44q-6 0 -6 -6v-121z" glyph-name="B" horiz-adv-x="618" unicode="B"/><glyph d="M51 156q-6 18 -10 35.5t-6.5 38.5t-3.5 47.5t-1 62.5t1 62.5t3.5 47.5t6.5 38.5t10 35.5q27 84 92 126t160 42q96 0 160.5 -41.5t92.5 -118.5q4 -10 -5 -14l-161 -69q-11 -5 -15 7q-11 26 -26 38t-41 12q-45 0 -58 -41q-2 -6 -3.5 -13.5t-2.5 -21t-1.5 -35t-0.5 -55.5 t0.5 -55.5t1.5 -35t2.5 -21t3.5 -13.5q13 -41 58 -41q26 0 41 12t26 38q4 12 15 7l161 -69q9 -4 5 -14q-28 -77 -92.5 -118.5t-160.5 -41.5q-95 0 -160 42t-92 126z" glyph-name="C" horiz-adv-x="572" unicode="C"/><glyph d="M44 670q0 10 10 10h273q93 0 159 -38t93 -120q6 -18 10 -36t6.5 -38.5t3.5 -46.5t1 -61t-1 -61t-3.5 -46.5t-6.5 -38.5t-10 -36q-27 -82 -93 -120t-159 -38h-273q-10 0 -10 10v660zM254 192q0 -6 6 -6h24q41 0 63 11t32 41q3 8 4.5 16t2.5 19t1.5 27t0.5 40t-0.5 39.5 t-1.5 27t-2.5 19.5t-4.5 16q-10 30 -32 41t-63 11h-24q-6 0 -6 -6v-296z" glyph-name="D" horiz-adv-x="635" unicode="D"/><glyph d="M44 670q0 10 10 10h455q10 0 10 -10v-154q0 -10 -10 -10h-251q-6 0 -6 -6v-66q0 -6 6 -6h201q10 0 10 -10v-150q0 -10 -10 -10h-201q-6 0 -6 -6v-72q0 -6 6 -6h251q10 0 10 -10v-154q0 -10 -10 -10h-455q-10 0 -10 10v660z" glyph-name="E" horiz-adv-x="549" unicode="E"/><glyph d="M44 670q0 10 10 10h455q10 0 10 -10v-154q0 -10 -10 -10h-251q-6 0 -6 -6v-76q0 -6 6 -6h201q10 0 10 -10v-150q0 -10 -10 -10h-201q-6 0 -6 -6v-232q0 -10 -10 -10h-188q-10 0 -10 10v660z" glyph-name="F" horiz-adv-x="546" unicode="F"/><glyph d="M51 157q-7 21 -11 40.5t-6.5 40.5t-3 45.5t-0.5 56.5t0.5 56.5t3 45.5t6.5 40.5t11 40.5q14 43 39.5 74.5t60 52.5t76 31.5t87.5 10.5q93 0 156 -37t96 -108q6 -12 -5 -17l-156 -66q-11 -5 -17 4q-14 20 -30 29t-43 9q-51 0 -65 -44q-3 -8 -4.5 -18t-2 -24t-1 -33.5 t-0.5 -46.5q0 -54 2 -80.5t7 -42.5q14 -43 71 -43q27 0 45 9.5t23 26.5q3 9 3 18q0 7 -6 7h-52q-10 0 -10 10v131q0 10 10 10h253q10 0 10 -10v-47q0 -54 -4 -91t-15 -72q-29 -88 -98.5 -133t-166.5 -45q-46 0 -87.5 10.5t-76 31.5t-60 52.5t-39.5 74.5z" glyph-name="G" horiz-adv-x="628" unicode="G"/><glyph d="M44 670q0 10 10 10h190q10 0 10 -10v-225q0 -6 6 -6h141q6 0 6 6v225q0 10 10 10h190q10 0 10 -10v-660q0 -10 -10 -10h-190q-10 0 -10 10v237q0 6 -6 6h-141q-6 0 -6 -6v-237q0 -10 -10 -10h-190q-10 0 -10 10v660z" glyph-name="H" horiz-adv-x="661" unicode="H"/><glyph d="M44 670q0 10 10 10h190q10 0 10 -10v-660q0 -10 -10 -10h-190q-10 0 -10 10v660z" glyph-name="I" horiz-adv-x="298" unicode="I"/><glyph d="M15 86q-5 8 1 14l132 108q7 5 13 -1q14 -16 29.5 -24.5t36.5 -8.5q70 0 70 80v416q0 10 10 10h190q10 0 10 -10v-393q0 -147 -69.5 -218t-204.5 -71q-71 0 -130 26.5t-88 71.5z" glyph-name="J" horiz-adv-x="550" unicode="J"/><glyph d="M44 670q0 10 10 10h190q10 0 10 -10v-228l158 228q7 10 18 10h212q7 0 8.5 -4t-1.5 -9l-200 -268l204 -388q2 -4 0.5 -7.5t-6.5 -3.5h-218q-13 0 -17 10l-105 218l-53 -75v-143q0 -10 -10 -10h-190q-10 0 -10 10v660z" glyph-name="K" horiz-adv-x="670" unicode="K"/><glyph d="M44 670q0 10 10 10h190q10 0 10 -10v-478q0 -6 6 -6h273q10 0 10 -10v-166q0 -10 -10 -10h-479q-10 0 -10 10v660z" glyph-name="L" horiz-adv-x="559" unicode="L"/><glyph d="M44 670q0 10 10 10h181q5 0 10 -2t7 -8l140 -317h4l136 317q2 6 7 8t10 2h179q10 0 10 -10v-660q0 -10 -10 -10h-169q-10 0 -10 10v312h-5l-90 -216q-4 -8 -9.5 -10.5t-9.5 -2.5h-88q-4 0 -9 2.5t-10 10.5l-90 216h-5v-312q0 -10 -10 -10h-169q-10 0 -10 10v660z" glyph-name="M" horiz-adv-x="782" unicode="M"/><glyph d="M44 670q0 10 10 10h179q5 0 10 -2.5t7 -7.5l162 -335h5v335q0 10 10 10h169q10 0 10 -10v-660q0 -10 -10 -10h-179q-5 0 -10 2.5t-7 7.5l-161 335h-6v-335q0 -10 -10 -10h-169q-10 0 -10 10v660z" glyph-name="N" horiz-adv-x="650" unicode="N"/><glyph d="M314 -12q-46 0 -87.5 10.5t-76 31.5t-60 52.5t-39.5 74.5q-7 21 -11 40.5t-6.5 40.5t-3 45.5t-0.5 56.5t0.5 56.5t3 45.5t6.5 40.5t11 40.5q14 43 39.5 74.5t60 52.5t76 31.5t87.5 10.5t87.5 -10.5t76 -31.5t60 -52.5t39.5 -74.5q7 -21 11 -40.5t6 -40.5t3 -45.5t1 -56.5 t-1 -56.5t-3 -45.5t-6 -40.5t-11 -40.5q-14 -43 -39.5 -74.5t-60 -52.5t-76 -31.5t-87.5 -10.5zM314 174q23 0 40 11t24 32q5 16 6.5 42.5t1.5 80.5q0 27 -0.5 46.5t-1 33.5t-2 24.5t-4.5 18.5q-7 21 -24 32t-40 11t-40 -11t-24 -32q-3 -8 -4.5 -18.5t-2 -24.5t-1 -33.5 t-0.5 -46.5q0 -54 1.5 -80.5t6.5 -42.5q7 -21 24 -32t40 -11z" glyph-name="O" horiz-adv-x="628" unicode="O"/><glyph d="M54 0q-10 0 -10 10v660q0 10 10 10h281q70 0 121 -17.5t84 -49t48.5 -74.5t15.5 -94q0 -50 -16 -92.5t-49.5 -74.5t-84 -50t-119.5 -18h-76q-6 0 -6 -6v-194q0 -10 -10 -10h-189zM324 384q35 0 52.5 16t17.5 45t-17.5 45t-52.5 16h-65q-6 0 -6 -6v-110q0 -6 6 -6h65z" glyph-name="P" horiz-adv-x="620" unicode="P"/><glyph d="M525 -58q-8 -8 -15 0l-63 71q-61 -25 -130 -25q-46 0 -87.5 10.5t-76 31.5t-60 52.5t-39.5 74.5q-7 21 -11 40.5t-6.5 40.5t-3 45.5t-0.5 56.5t0.5 56.5t3 45.5t6.5 40.5t11 40.5q14 43 39.5 74.5t60 52.5t76 31.5t87.5 10.5t87.5 -10.5t76 -31.5t60 -52.5t39.5 -74.5 q7 -21 11 -40.5t6 -40.5t3 -45.5t1 -56.5t-1 -56.5t-3 -45.5t-6 -40t-11 -40l75 -83q8 -8 -1 -15zM317 174q23 0 40 11t24 32q5 16 6.5 42.5t1.5 80.5q0 27 -0.5 46.5t-1 33.5t-2 24.5t-4.5 18.5q-7 21 -24 32t-40 11t-40 -11t-24 -32q-3 -8 -4.5 -18.5t-2 -24.5t-1 -33.5 t-0.5 -46.5q0 -54 1.5 -80.5t6.5 -42.5q7 -21 24 -32t40 -11z" glyph-name="Q" horiz-adv-x="636" unicode="Q"/><glyph d="M396 0q-11 0 -15 10l-87 212h-35q-6 0 -6 -6v-206q0 -10 -10 -10h-189q-10 0 -10 10v660q0 10 10 10h284q66 0 115 -17t81.5 -47.5t49 -72.5t16.5 -92q0 -63 -25.5 -112t-76.5 -79l114 -249q2 -4 0 -7.5t-7 -3.5h-209zM322 390q34 0 51 15.5t17 42.5t-17 42.5t-51 15.5 h-63q-6 0 -6 -6v-104q0 -6 6 -6h63z" glyph-name="R" horiz-adv-x="635" unicode="R"/><glyph d="M306 -12q-44 0 -87 8t-80.5 22t-68.5 32t-50 38q-3 3 -4 8t3 10l106 125q6 8 13 1q29 -26 73.5 -46t92.5 -20q40 0 59 12t19 32q0 14 -12.5 22.5t-51.5 13.5l-36 5q-118 17 -178.5 70.5t-60.5 154.5q0 48 18.5 88t53 68.5t83.5 44t110 15.5q76 0 142 -20.5t115 -57.5 q10 -6 2 -17l-90 -128q-6 -8 -14 -3q-33 22 -70.5 35.5t-76.5 13.5q-30 0 -44 -10.5t-14 -26.5q0 -15 14 -23.5t51 -13.5l36 -5q121 -17 179.5 -70.5t58.5 -155.5q0 -48 -19 -89t-55.5 -70.5t-91 -46t-125.5 -16.5z" glyph-name="S" horiz-adv-x="617" unicode="S"/><glyph d="M193 0q-10 0 -10 10v478q0 6 -6 6h-161q-10 0 -10 10v166q0 10 10 10h544q10 0 10 -10v-166q0 -10 -10 -10h-161q-6 0 -6 -6v-478q0 -10 -10 -10h-190z" glyph-name="T" horiz-adv-x="576" unicode="T"/><glyph d="M326 -12q-65 0 -117.5 17.5t-89 53.5t-56.5 90.5t-20 127.5v393q0 10 10 10h190q10 0 10 -10v-411q0 -40 18 -62.5t54 -22.5t54 22.5t18 62.5v411q0 10 10 10h190q10 0 10 -10v-393q0 -73 -19.5 -127.5t-56.5 -90.5t-89 -53.5t-116 -17.5z" glyph-name="U" horiz-adv-x="650" unicode="U"/><glyph d="M239 0q-11 0 -14 10l-218 658q-3 12 9 12h202q11 0 14 -10l104 -367h3l100 367q3 10 14 10h200q12 0 9 -12l-218 -658q-3 -10 -14 -10h-191z" glyph-name="V" horiz-adv-x="669" unicode="V"/><glyph d="M587 0q-11 0 -14 10l-94 329h-2l-94 -329q-3 -10 -14 -10h-154q-11 0 -14 10l-195 660q-3 10 7 10h206q11 0 13 -10l76 -360h2l94 360q3 10 14 10h121q11 0 14 -10l98 -360h2l73 360q2 10 13 10h204q10 0 7 -10l-195 -660q-3 -10 -14 -10h-154z" glyph-name="W" horiz-adv-x="956" unicode="W"/><glyph d="M428 0q-12 0 -18 10l-89 154h-3l-89 -154q-6 -10 -18 -10h-202q-5 0 -6.5 3t0.5 7l204 340l-192 320q-2 4 -0.5 7t6.5 3h202q12 0 18 -10l77 -134h3l77 134q6 10 18 10h202q5 0 6.5 -3t-0.5 -7l-192 -320l204 -340q2 -4 0.5 -7t-6.5 -3h-202z" glyph-name="X" horiz-adv-x="642" unicode="X"/><glyph d="M226 0q-10 0 -10 10v244l-211 415q-6 11 7 11h189q11 0 17 -10l104 -213h3l101 213q4 10 17 10h187q12 0 7 -11l-211 -415v-244q0 -10 -10 -10h-190z" glyph-name="Y" horiz-adv-x="641" unicode="Y"/><glyph d="M40 0q-10 0 -10 10v162q0 5 3 10l269 309v3h-251q-10 0 -10 10v166q0 10 10 10h489q10 0 10 -10v-162q0 -6 -3 -10l-270 -309v-3h263q10 0 10 -10v-166q0 -10 -10 -10h-500z" glyph-name="Z" horiz-adv-x="580" unicode="Z"/><glyph d="M60 -84q-10 0 -10 10v804q0 10 10 10h239q10 0 10 -10v-126q0 -10 -10 -10h-76q-6 0 -6 -6v-520q0 -6 6 -6h76q10 0 10 -10v-126q0 -10 -10 -10h-239z" glyph-name="bracketleft" horiz-adv-x="331" unicode="["/><glyph d="M244 -12q-10 0 -13 10l-206 684q-3 10 7 10h183q10 0 13 -10l206 -684q3 -10 -7 -10h-183z" glyph-name="backslash" horiz-adv-x="459" unicode="\"/><glyph d="M32 -84q-10 0 -10 10v126q0 10 10 10h76q6 0 6 6v520q0 6 -6 6h-76q-10 0 -10 10v126q0 10 10 10h239q10 0 10 -10v-804q0 -10 -10 -10h-239z" glyph-name="bracketright" horiz-adv-x="331" unicode="]"/><glyph d="M359 232q-10 0 -13 10l-60 196h-2l-60 -196q-3 -10 -13 -10h-165q-10 0 -7 10l162 428q5 10 14 10h140q9 0 14 -10l162 -428q3 -10 -7 -10h-165z" glyph-name="asciicircum" unicode="^"/><glyph d="M0 -190v140h584v-140h-584z" glyph-name="underscore" horiz-adv-x="584" unicode="_"/><glyph d="M251 540q-9 0 -16 10l-106 144q-2 3 -1 6.5t6 3.5h165q10 0 17 -10l83 -144q5 -10 -5 -10h-143z" glyph-name="grave" horiz-adv-x="530" unicode="`"/><glyph d="M319 0q-10 0 -10 10v24h-1q-20 -21 -50.5 -33.5t-77.5 -12.5q-30 0 -58.5 8.5t-50 27t-34.5 47t-13 68.5q0 42 16.5 73t45.5 51t68 30t85 10h65q6 0 6 6v8q0 18 -16.5 26t-69.5 8q-29 0 -57 -7t-45 -18q-9 -5 -13 3l-60 108q-6 11 3 17q35 23 87 35.5t113 12.5 q69 0 116 -11.5t76 -35t41.5 -59.5t12.5 -84v-302q0 -10 -10 -10h-169zM253 124q31 0 44 8.5t13 26.5v26q0 6 -6 6h-47q-23 0 -35 -9.5t-12 -25.5q0 -32 43 -32z" glyph-name="a" horiz-adv-x="537" unicode="a"/><glyph d="M366 -12q-45 0 -76 16t-47 42h-1v-36q0 -10 -10 -10h-180q-10 0 -10 10v660q0 10 10 10h180q10 0 10 -10v-226h1q16 26 47 42t76 16q63 0 101 -30t56 -87q10 -30 13.5 -63.5t3.5 -76.5t-3.5 -76.5t-13.5 -63.5q-18 -57 -56 -87t-101 -30zM290 148q15 0 26 6t16 22 q3 10 4.5 24t1.5 45t-1.5 45t-4.5 24q-5 16 -16 22t-26 6t-26 -6t-16 -22q-3 -10 -4.5 -24t-1.5 -45t1.5 -45t4.5 -24q5 -16 16 -22t26 -6z" glyph-name="b" horiz-adv-x="563" unicode="b"/><glyph d="M264 -12q-83 0 -143.5 36.5t-84.5 111.5q-7 20 -10 45.5t-3 63.5t3 63.5t10 45.5q24 75 84.5 111.5t143.5 36.5q43 0 79.5 -10.5t65 -29t48.5 -43t30 -52.5q3 -9 -5 -13l-141 -60q-5 -2 -10 -2t-7 6q-9 25 -21 34.5t-31 9.5q-32 0 -42 -30q-2 -7 -3.5 -20t-1.5 -47 t1.5 -47t3.5 -20q10 -30 42 -30q19 0 31 9.5t21 34.5q2 6 7 6t10 -2l141 -60q8 -4 5 -13q-10 -28 -30 -52.5t-48.5 -43t-65 -29t-79.5 -10.5z" glyph-name="c" horiz-adv-x="504" unicode="c"/><glyph d="M331 0q-10 0 -10 10v36h-1q-16 -26 -47 -42t-76 -16q-63 0 -101 30t-56 87q-10 30 -13.5 63.5t-3.5 76.5t3.5 76.5t13.5 63.5q18 57 56 87t101 30q45 0 76 -16t47 -42h1v226q0 10 10 10h180q10 0 10 -10v-660q0 -10 -10 -10h-180zM273 148q15 0 26 6t16 22q3 10 4.5 24 t1.5 45t-1.5 45t-4.5 24q-5 16 -16 22t-26 6t-26 -6t-16 -22q-3 -10 -4.5 -24t-1.5 -45t1.5 -45t4.5 -24q5 -16 16 -22t26 -6z" glyph-name="d" horiz-adv-x="563" unicode="d"/><glyph d="M281 -12q-97 0 -158.5 39t-84.5 109q-7 20 -11 45t-4 64t4 64t11 45q23 72 82.5 110t147.5 38q95 0 152.5 -37.5t80.5 -107.5q7 -21 11 -55.5t4 -100.5q0 -10 -10 -10h-285q-6 0 -6 -6q0 -4 2 -10q7 -20 30.5 -31t56.5 -11q55 0 107 36q8 5 14 -2l78 -86q7 -7 -2 -15 q-43 -38 -99 -58t-121 -20zM321 303q6 0 6 6q0 15 -3 24q-11 34 -53 34t-53 -34q-3 -9 -3 -24q0 -6 6 -6h100z" glyph-name="e" horiz-adv-x="539" unicode="e"/><glyph d="M76 0q-10 0 -10 10v334q0 6 -6 6h-26q-10 0 -10 10v120q0 10 10 10h26q6 0 6 6v4q0 49 10.5 83.5t33.5 56t59.5 31t88.5 9.5h78q10 0 10 -10v-124q0 -10 -10 -10h-28q-26 0 -35 -8.5t-9 -27.5v-4q0 -6 6 -6h64q10 0 10 -10v-120q0 -10 -10 -10h-64q-6 0 -6 -6v-334 q0 -10 -10 -10h-178z" glyph-name="f" horiz-adv-x="364" unicode="f"/><glyph d="M240 -192q-32 0 -62.5 6.5t-57.5 17.5t-47.5 25t-32.5 29q-6 8 1 15l98 102q7 7 15 1q21 -17 41.5 -26.5t48.5 -9.5q39 0 56.5 21t17.5 69v32h-1q-16 -26 -47.5 -42t-75.5 -16q-120 0 -158 116q-8 24 -12 52.5t-4 66.5t4 66.5t12 52.5q38 116 158 116q44 0 75.5 -16 t47.5 -42h1v36q0 10 10 10h180q10 0 10 -10v-378q0 -82 -18 -138.5t-53 -91t-87 -49.5t-120 -15zM270 192q33 0 43 31q2 7 3.5 16t1.5 28t-1.5 28t-3.5 16q-10 31 -43 31t-43 -31q-2 -7 -3.5 -16t-1.5 -28t1.5 -28t3.5 -16q10 -31 43 -31z" glyph-name="g" horiz-adv-x="559" unicode="g"/><glyph d="M334 0q-10 0 -10 10v278q0 50 -41 50t-41 -50v-278q0 -10 -10 -10h-180q-10 0 -10 10v660q0 10 10 10h180q10 0 10 -10v-226h1q17 26 48 42t76 16q43 0 73 -13t49 -37t27 -58t8 -75v-309q0 -10 -10 -10h-180z" glyph-name="h" horiz-adv-x="564" unicode="h"/><glyph d="M52 536q-10 0 -10 10v124q0 10 10 10h180q10 0 10 -10v-124q0 -10 -10 -10h-180zM52 0q-10 0 -10 10v470q0 10 10 10h180q10 0 10 -10v-470q0 -10 -10 -10h-180z" glyph-name="i" horiz-adv-x="284" unicode="i"/><glyph d="M52 536q-10 0 -10 10v124q0 10 10 10h180q10 0 10 -10v-124q0 -10 -10 -10h-180zM-22 -180q-10 0 -10 10v140q0 10 10 10h10q30 0 42 9.5t12 44.5v446q0 10 10 10h180q10 0 10 -10v-447q0 -115 -57 -164t-164 -49h-43z" glyph-name="j" horiz-adv-x="284" unicode="j"/><glyph d="M353 0q-10 0 -14 10l-80 178l-19 -29v-149q0 -10 -10 -10h-178q-10 0 -10 10v660q0 10 10 10h178q10 0 10 -10v-313l85 123q7 10 19 10h181q5 0 6.5 -3.5t-1.5 -6.5l-136 -160l155 -310q2 -4 1 -7t-6 -3h-191z" glyph-name="k" horiz-adv-x="551" unicode="k"/><glyph d="M229 -6q-51 0 -87 10t-58.5 32.5t-33 59t-10.5 88.5v486q0 10 10 10h180q10 0 10 -10v-462q0 -50 41 -50h19q10 0 10 -10v-144q0 -10 -10 -10h-71z" glyph-name="l" horiz-adv-x="329" unicode="l"/><glyph d="M616 0q-10 0 -10 10v278q0 50 -41 50t-41 -50v-278q0 -10 -10 -10h-180q-10 0 -10 10v278q0 50 -41 50t-41 -50v-278q0 -10 -10 -10h-180q-10 0 -10 10v470q0 10 10 10h180q10 0 10 -10v-36h1q17 26 48 42t76 16q47 0 77.5 -14.5t49.5 -43.5h1q22 26 58 42t87 16 q87 0 126.5 -48.5t39.5 -134.5v-309q0 -10 -10 -10h-180z" glyph-name="m" horiz-adv-x="846" unicode="m"/><glyph d="M334 0q-10 0 -10 10v278q0 50 -41 50t-41 -50v-278q0 -10 -10 -10h-180q-10 0 -10 10v470q0 10 10 10h180q10 0 10 -10v-36h1q17 26 48 42t76 16q43 0 73 -13t49 -37t27 -58t8 -75v-309q0 -10 -10 -10h-180z" glyph-name="n" horiz-adv-x="564" unicode="n"/><glyph d="M273 -12q-84 0 -147.5 36t-87.5 110q-9 27 -12 55t-3 56t3 56t12 55q24 74 87.5 110t147.5 36t147.5 -36t87.5 -110q9 -27 12 -55t3 -56t-3 -56t-12 -55q-24 -74 -87.5 -110t-147.5 -36zM273 148q15 0 26 6t16 22q3 10 4.5 24t1.5 45t-1.5 45t-4.5 24q-5 16 -16 22t-26 6 t-26 -6t-16 -22q-3 -10 -4.5 -24t-1.5 -45t1.5 -45t4.5 -24q5 -16 16 -22t26 -6z" glyph-name="o" horiz-adv-x="546" unicode="o"/><glyph d="M52 -180q-10 0 -10 10v650q0 10 10 10h180q10 0 10 -10v-36h1q16 26 47 42t76 16q63 0 101 -30t56 -87q10 -30 13.5 -63.5t3.5 -76.5t-3.5 -76.5t-13.5 -63.5q-18 -57 -56 -87t-101 -30q-45 0 -76 16t-47 42h-1v-216q0 -10 -10 -10h-180zM290 148q15 0 26 6t16 22 q3 10 4.5 24t1.5 45t-1.5 45t-4.5 24q-5 16 -16 22t-26 6t-26 -6t-16 -22q-3 -10 -4.5 -24t-1.5 -45t1.5 -45t4.5 -24q5 -16 16 -22t26 -6z" glyph-name="p" horiz-adv-x="563" unicode="p"/><glyph d="M331 -180q-10 0 -10 10v216h-1q-16 -26 -47 -42t-76 -16q-63 0 -101 30t-56 87q-10 30 -13.5 63.5t-3.5 76.5t3.5 76.5t13.5 63.5q18 57 56 87t101 30q45 0 76 -16t47 -42h1v36q0 10 10 10h180q10 0 10 -10v-650q0 -10 -10 -10h-180zM273 148q15 0 26 6t16 22 q3 10 4.5 24t1.5 45t-1.5 45t-4.5 24q-5 16 -16 22t-26 6t-26 -6t-16 -22q-3 -10 -4.5 -24t-1.5 -45t1.5 -45t4.5 -24q5 -16 16 -22t26 -6z" glyph-name="q" horiz-adv-x="563" unicode="q"/><glyph d="M52 0q-10 0 -10 10v470q0 10 10 10h180q10 0 10 -10v-44h1q17 35 51 50.5t76 15.5q29 0 46 -5q9 -2 6 -13l-58 -185q-5 -6 -14 -1q-20 11 -37.5 16t-33.5 1q-37 -9 -37 -64v-241q0 -10 -10 -10h-180z" glyph-name="r" horiz-adv-x="431" unicode="r"/><glyph d="M257 -12q-78 0 -140.5 19.5t-106.5 54.5q-7 7 -1 14l79 100q6 6 14 2q48 -27 87.5 -38.5t80.5 -11.5q26 0 36.5 6.5t10.5 15.5q0 8 -8.5 12t-41.5 8l-56 6q-85 9 -132.5 48.5t-47.5 112.5q0 75 59 120t166 45q72 0 130.5 -17.5t95.5 -44.5q8 -6 1 -15l-70 -93 q-6 -8 -15 -3q-30 17 -65.5 27t-76.5 10q-40 0 -40 -19q0 -7 7 -11t36 -7l56 -6q53 -6 89.5 -20t58 -35t31 -48t8.5 -59q-2 -79 -66 -126t-179 -47z" glyph-name="s" horiz-adv-x="520" unicode="s"/><glyph d="M261 -6q-55 0 -93.5 11t-63 36t-35.5 65.5t-11 98.5v139q0 6 -6 6h-26q-10 0 -10 10v120q0 10 10 10h26q6 0 6 6v124q0 10 10 10h178q10 0 10 -10v-124q0 -6 6 -6h60q10 0 10 -10v-120q0 -10 -10 -10h-60q-6 0 -6 -6v-131q0 -32 9.5 -43.5t36.5 -11.5h20q10 0 10 -10 v-144q0 -10 -10 -10h-61z" glyph-name="t" horiz-adv-x="352" unicode="t"/><glyph d="M330 0q-10 0 -10 10v36h-1q-17 -26 -48 -42t-76 -16q-44 0 -73.5 13t-48 37t-26.5 58t-8 75v309q0 10 10 10h180q10 0 10 -10v-278q0 -50 41 -50q40 0 40 50v278q0 10 10 10h180q10 0 10 -10v-470q0 -10 -10 -10h-180z" glyph-name="u" horiz-adv-x="562" unicode="u"/><glyph d="M193 0q-9 0 -12 10l-177 470q-3 10 8 10h186q12 0 15 -10l68 -229h2l64 229q3 10 15 10h185q11 0 8 -10l-177 -470q-3 -10 -12 -10h-173z" glyph-name="v" horiz-adv-x="559" unicode="v"/><glyph d="M470 0q-9 0 -12 10l-64 215h-2l-66 -215q-3 -10 -12 -10h-135q-9 0 -12 10l-161 469q-4 11 8 11h179q12 0 15 -10l52 -220h2l64 220q3 10 14 10h107q11 0 14 -10l65 -220h2l48 220q3 10 15 10h179q12 0 8 -11l-161 -469q-3 -10 -12 -10h-135z" glyph-name="w" horiz-adv-x="784" unicode="w"/><glyph d="M351 0q-10 0 -15 8l-58 97h-1l-58 -97q-5 -8 -15 -8h-192q-5 0 -6 3t1 7l164 244l-151 226q-2 4 -0.5 7t6.5 3h193q10 0 15 -8l45 -77h1l46 77q5 8 15 8h190q5 0 6.5 -3t-0.5 -7l-151 -226l164 -244q2 -4 0.5 -7t-6.5 -3h-193z" glyph-name="x" horiz-adv-x="557" unicode="x"/><glyph d="M99 -180q-10 0 -10 10v140q0 10 10 10h30q21 0 34 6.5t20 25.5l9 25l-188 443q-4 10 7 10h189q10 0 13 -10l70 -201h2l64 201q3 10 13 10h186q11 0 7 -10l-229 -551q-14 -32 -30 -53t-38 -33.5t-51 -17.5t-67 -5h-41z" glyph-name="y" horiz-adv-x="559" unicode="y"/><glyph d="M42 0q-10 0 -10 10v129q0 5 3 10l199 184v3h-181q-10 0 -10 10v134q0 10 10 10h406q10 0 10 -10v-134q0 -6 -3 -10l-198 -179v-3h191q10 0 10 -10v-134q0 -10 -10 -10h-417z" glyph-name="z" horiz-adv-x="499" unicode="z"/><glyph d="M260 -84q-72 0 -106 32.5t-34 97.5v120q0 47 -17 68.5t-53 21.5q-10 0 -10 10v126q0 10 10 10q36 0 53 21t17 68v119q0 65 34 97.5t106 32.5h84q10 0 10 -10v-126q0 -10 -10 -10h-20q-21 0 -31.5 -12.5t-10.5 -33.5v-86q0 -57 -16.5 -86.5t-55.5 -45.5v-2 q39 -16 55.5 -46t16.5 -87v-87q0 -21 10.5 -33.5t31.5 -12.5h20q10 0 10 -10v-126q0 -10 -10 -10h-84z" glyph-name="braceleft" horiz-adv-x="378" unicode="{"/><glyph d="M90 -84q-10 0 -10 10v804q0 10 10 10h156q10 0 10 -10v-804q0 -10 -10 -10h-156z" glyph-name="bar" horiz-adv-x="336" unicode="|"/><glyph d="M34 -84q-10 0 -10 10v126q0 10 10 10h20q21 0 31.5 12.5t10.5 33.5v87q0 57 16.5 87t55.5 46v2q-39 16 -55.5 45.5t-16.5 86.5v86q0 21 -10.5 33.5t-31.5 12.5h-20q-10 0 -10 10v126q0 10 10 10h84q72 0 106 -32.5t34 -97.5v-119q0 -47 17 -68t53 -21q10 0 10 -10v-126 q0 -10 -10 -10q-36 0 -53 -21.5t-17 -68.5v-120q0 -65 -34 -97.5t-106 -32.5h-84z" glyph-name="braceright" horiz-adv-x="378" unicode="}"/><glyph d="M376 172q-35 0 -57 8.5t-43 22.5q-17 11 -31 18t-31 7q-20 0 -34 -13.5t-24 -30.5q-5 -9 -14 -4l-98 63q-8 5 -4 14q11 25 27 47t35.5 38t42.5 25.5t49 9.5q35 0 57 -8.5t43 -22.5q17 -11 31 -18t31 -7q20 0 34 13.5t24 30.5q5 9 14 4l98 -63q8 -5 4 -14q-23 -50 -63 -85 t-91 -35z" glyph-name="asciitilde" unicode="~"/><glyph d="M226 268q10 0 10 -10l24 -438q0 -10 -10 -10h-180q-10 0 -10 10l24 438q0 10 10 10h132zM250 340q0 -10 -10 -10h-160q-10 0 -10 10v140q0 10 10 10h160q10 0 10 -10v-140z" glyph-name="exclamdown" horiz-adv-x="320" unicode="¡"/><glyph d="M257 245q0 -34 2 -47t4 -20q10 -30 45 -30q19 0 32 9.5t22 34.5q2 6 7 6t10 -2l141 -60q8 -4 5 -13q-17 -47 -61 -82.5t-108 -46.5v-79q0 -10 -10 -10h-106q-10 0 -10 10v81q-58 12 -100 47t-61 93q-7 20 -10.5 45.5t-3.5 63.5t3.5 63.5t10.5 45.5q19 58 61 92.5 t100 47.5v81q0 10 10 10h106q10 0 10 -10v-79q64 -12 108 -47.5t61 -81.5q3 -9 -5 -13l-141 -60q-5 -2 -10 -2t-7 6q-9 25 -22 34.5t-32 9.5q-35 0 -45 -30q-2 -7 -4 -20t-2 -47z" glyph-name="cent" unicode="¢"/><glyph d="M59 0q-10 0 -10 10v139q0 8 6 14q17 15 26 31t9 42v14q0 6 -6 6h-25q-10 0 -10 10v115q0 10 10 10h25q6 0 6 6v86q0 101 59.5 155t163.5 54q46 0 83.5 -12.5t64 -34.5t42 -52t19.5 -64q2 -10 -8 -12l-152 -30q-10 -2 -12 8q-4 21 -11.5 29t-21.5 8q-29 0 -29 -42v-93 q0 -6 6 -6h129q10 0 10 -10v-115q0 -10 -10 -10h-129q-6 0 -6 -6v-9q0 -25 -7.5 -44t-25.5 -32v-2h257q10 0 10 -10v-143q0 -10 -10 -10h-453z" glyph-name="sterling" unicode="£"/><glyph d="M443 3q-7 -7 -14 0l-63 62q-40 -16 -81 -16q-42 0 -82 16l-61 -61q-7 -7 -14 0l-101 102q-7 7 0 14l62 62q-15 36 -15 78t15 78l-63 63q-7 7 0 14l101 102q7 7 14 0l62 -63q39 17 82 17q42 0 81 -17l63 63q7 7 14 0l101 -102q7 -7 0 -14l-63 -63q7 -18 11 -38t4 -40 q0 -21 -4 -40.5t-11 -37.5l63 -63q7 -7 0 -14zM285 187q31 0 51.5 21t20.5 52t-20.5 52t-51.5 21t-51.5 -21t-20.5 -52t20.5 -52t51.5 -21z" glyph-name="currency" unicode="¤"/><glyph d="M195 0q-10 0 -10 10v108q0 6 -6 6h-106q-10 0 -10 10v63q0 10 10 10h106q6 0 6 6v23q0 6 -6 6h-106q-10 0 -10 10v63q0 10 10 10h81v2l-142 343q-4 10 7 10h189q12 0 16 -10l62 -213h3l60 213q4 10 16 10h186q11 0 7 -10l-142 -343v-2h81q10 0 10 -10v-63q0 -10 -10 -10 h-106q-6 0 -6 -6v-23q0 -6 6 -6h106q10 0 10 -10v-63q0 -10 -10 -10h-106q-6 0 -6 -6v-108q0 -10 -10 -10h-180z" glyph-name="yen" unicode="¥"/><glyph d="M90 388q-10 0 -10 10v332q0 10 10 10h156q10 0 10 -10v-332q0 -10 -10 -10h-156zM90 -84q-10 0 -10 10v336q0 10 10 10h156q10 0 10 -10v-336q0 -10 -10 -10h-156z" glyph-name="brokenbar" horiz-adv-x="336" unicode="¦"/><glyph d="M246 -196q-48 0 -86 12.5t-64.5 34t-41.5 50.5t-18 61q0 11 8 12l148 20q10 2 11 -8q2 -17 11.5 -27t28.5 -10q38 0 38 33q0 9 -3.5 17.5t-12.5 16.5t-25.5 15.5t-43.5 15.5q-88 26 -129 73t-41 128q0 46 20.5 81t56.5 63v2q-57 46 -57 129q0 35 14.5 66.5t41 55t65 37.5 t86.5 14t85 -13t63.5 -35.5t41.5 -51.5t18 -61q2 -11 -8 -12l-145 -19q-9 -2 -11 8q-6 39 -40 39q-18 0 -27.5 -9t-9.5 -23q0 -17 18 -32.5t66 -29.5q83 -25 126.5 -71.5t43.5 -129.5q0 -48 -22.5 -84.5t-54.5 -59.5v-2q58 -47 58 -133q0 -37 -14.5 -68.5t-41.5 -55 t-65.5 -36.5t-87.5 -13zM250 196q24 0 37 16t13 40t-13 40t-37 16t-37 -16t-13 -40t13 -40t37 -16z" glyph-name="section" horiz-adv-x="500" unicode="§"/><glyph d="M307 536q-10 0 -10 10v124q0 10 10 10h126q10 0 10 -10v-124q0 -10 -10 -10h-126zM97 536q-10 0 -10 10v124q0 10 10 10h126q10 0 10 -10v-124q0 -10 -10 -10h-126z" glyph-name="dieresis" horiz-adv-x="530" unicode="¨"/><glyph d="M387 -14q-76 0 -140.5 26.5t-112 73.5t-74 111.5t-26.5 141.5q0 76 26.5 141t74 112t112 73.5t140.5 26.5t140.5 -26.5t112 -73.5t74 -112t26.5 -141q0 -77 -26.5 -141.5t-74 -111.5t-112 -73.5t-140.5 -26.5zM387 74q58 0 107 19.5t83.5 55t54 84t19.5 106.5 t-19.5 106.5t-54 83.5t-83.5 55t-107 20q-59 0 -107.5 -20t-83 -55t-54 -83.5t-19.5 -106.5t19.5 -106.5t54 -84t83 -55t107.5 -19.5zM392 146q-63 0 -112 28.5t-68 86.5q-5 15 -7.5 33.5t-2.5 46.5t2.5 46.5t7.5 33.5q19 58 68 86.5t112 28.5q66 0 112.5 -29t62.5 -71 q4 -10 -6 -13l-109 -45q-9 -5 -13 5q-7 17 -17 23.5t-24 6.5q-26 0 -34 -23q-2 -7 -3 -16t-1 -33t1 -33t3 -16q8 -23 34 -23q14 0 24 6.5t17 23.5q4 10 13 5l109 -45q10 -3 6 -13q-16 -42 -62.5 -71t-112.5 -29z" glyph-name="copyright" horiz-adv-x="774" unicode="©"/><glyph d="M228 392q-10 0 -10 10v14h-1q-24 -30 -79 -30q-20 0 -38.5 5t-32.5 16t-22.5 27.5t-8.5 40.5q0 45 35.5 70.5t97.5 25.5h43q6 0 6 6v4q0 11 -11.5 16.5t-41.5 5.5q-18 0 -37.5 -5.5t-31.5 -13.5q-9 -6 -14 4l-33 56q-5 9 4 14q50 31 126 31q82 0 121 -25.5t39 -84.5v-177 q0 -10 -10 -10h-101zM178 464q40 0 40 23v11q0 6 -6 6h-34q-27 0 -27 -20t27 -20z" glyph-name="ordfeminine" horiz-adv-x="383" unicode="ª"/><glyph d="M295 257q-7 7 0 14l255 251q3 3 6.5 2t3.5 -6v-162q0 -8 -10 -18l-71 -70q-4 -4 0 -8l71 -70q10 -10 10 -18v-162q0 -5 -3.5 -6t-6.5 2zM15 257q-7 7 0 14l255 251q3 3 6.5 2t3.5 -6v-162q0 -8 -10 -18l-71 -70q-4 -4 0 -8l71 -70q10 -10 10 -18v-162q0 -5 -3.5 -6 t-6.5 2z" glyph-name="guillemotleft" horiz-adv-x="612" unicode="«"/><glyph d="M370 66q-10 0 -10 10v112q0 6 -6 6h-302q-10 0 -10 10v144q0 10 10 10h466q10 0 10 -10v-272q0 -10 -10 -10h-148z" glyph-name="logicalnot" unicode="¬"/><glyph d="M216 301q-42 0 -77.5 14.5t-61.5 40t-41 61t-15 76.5t15 76t41 60.5t61.5 40t77.5 14.5q41 0 76.5 -14.5t61.5 -40t41 -60.5t15 -76t-15 -76.5t-41 -61t-61.5 -40t-76.5 -14.5zM216 343q32 0 59 11t46.5 30.5t30.5 47.5t11 61t-11 60.5t-30.5 47t-46.5 30.5t-59 11 q-33 0 -60 -11t-46.5 -30.5t-30.5 -47t-11 -60.5t11 -61t30.5 -47.5t46.5 -30.5t60 -11zM134 388q-7 0 -7 7v198q0 7 7 7h99q43 0 64 -20t21 -52q0 -44 -35 -62l33 -71q2 -2 0.5 -4.5t-5.5 -2.5h-64q-7 0 -10 7l-26 60h-7q-4 0 -4 -4v-56q0 -7 -7 -7h-59zM223 509 q21 0 21 18t-21 18h-19q-4 0 -4 -4v-28q0 -4 4 -4h19z" glyph-name="registered" horiz-adv-x="431" unicode="®"/><glyph d="M103 548q-10 0 -10 10v108q0 10 10 10h324q10 0 10 -10v-108q0 -10 -10 -10h-324z" glyph-name="macron" horiz-adv-x="530" unicode="¯"/><glyph d="M185 368q-35 0 -65.5 12.5t-52.5 34.5t-34.5 52t-12.5 65t12.5 65t34.5 52t52.5 34.5t65.5 12.5t65.5 -12.5t52.5 -34.5t34.5 -52t12.5 -65t-12.5 -65t-34.5 -52t-52.5 -34.5t-65.5 -12.5zM185 483q21 0 34.5 13.5t13.5 35.5t-13.5 35.5t-34.5 13.5t-34.5 -13.5 t-13.5 -35.5t13.5 -35.5t34.5 -13.5z" glyph-name="degree" horiz-adv-x="370" unicode="°"/><glyph d="M211 200q-10 0 -10 10v142q0 6 -6 6h-143q-10 0 -10 10v144q0 10 10 10h143q6 0 6 6v142q0 10 10 10h148q10 0 10 -10v-142q0 -6 6 -6h143q10 0 10 -10v-144q0 -10 -10 -10h-143q-6 0 -6 -6v-142q0 -10 -10 -10h-148zM52 0q-10 0 -10 10v144q0 10 10 10h466q10 0 10 -10 v-144q0 -10 -10 -10h-466z" glyph-name="plusminus" unicode="±"/><glyph d="M40 430q-10 0 -10 10v87q0 13 10 21l147 125q21 18 21 38q0 11 -6.5 17.5t-17.5 6.5t-19 -7.5t-9 -24.5q0 -12 -11 -10l-106 12q-9 1 -9 11q2 57 45 92t119 35q30 0 57.5 -8t48.5 -24t33.5 -40.5t12.5 -57.5q0 -35 -14.5 -60.5t-45.5 -50.5l-70 -56v-1h120q10 0 10 -10 v-95q0 -10 -10 -10h-296z" glyph-name="twosuperior" horiz-adv-x="376" unicode="²"/><glyph d="M189 423q-69 0 -111 29.5t-50 80.5q-2 9 8 11l105 13q10 2 14 -7q8 -19 29 -19q12 0 19.5 6.5t7.5 19.5q0 27 -35 27h-10q-10 0 -10 10v84q0 10 10 10h12q12 0 19.5 6t7.5 17q0 24 -24 24q-21 0 -26 -19q-3 -11 -12 -9l-107 14q-10 2 -8 11q8 48 48.5 79.5t111.5 31.5 q75 0 115 -32.5t40 -81.5q0 -25 -12.5 -45.5t-35.5 -34.5v-2q22 -11 38 -32.5t16 -62.5q0 -58 -43.5 -93.5t-116.5 -35.5z" glyph-name="threesuperior" horiz-adv-x="376" unicode="³"/><glyph d="M136 540q-10 0 -5 10l83 144q7 10 17 10h165q5 0 6 -3.5t-1 -6.5l-106 -144q-8 -10 -16 -10h-143z" glyph-name="acute" horiz-adv-x="530" unicode="´"/><glyph d="M333 0q-10 0 -10 10v36h-1q-10 -15 -24.5 -27t-34.5 -18q-5 -2 -10.5 -2.5t-10.5 -1.5v-167q0 -10 -10 -10h-180q-10 0 -10 10v650q0 10 10 10h180q10 0 10 -10v-278q0 -50 41 -50q40 0 40 50v278q0 10 10 10h180q10 0 10 -10v-470q0 -10 -10 -10h-180z" glyph-name="micron" horiz-adv-x="565" unicode="µ"/><glyph d="M502 -180q-10 0 -10 10v719q0 6 -6 6h-68q-6 0 -6 -6v-719q0 -10 -10 -10h-134q-10 0 -10 10v360q-47 3 -87.5 21.5t-70.5 50t-47 75.5t-17 98q0 55 18 100t52 77t82 50t107 18h341q10 0 10 -10v-840q0 -10 -10 -10h-134z" glyph-name="paragraph" horiz-adv-x="702" unicode="¶"/><glyph d="M54 175q-10 0 -10 10v160q0 10 10 10h160q10 0 10 -10v-160q0 -10 -10 -10h-160z" glyph-name="periodcentered" horiz-adv-x="268" unicode="·"/><glyph d="M170 -172q-10 0 -7 10l64 162q4 10 16 10h120q10 0 7 -10l-47 -162q-3 -10 -15 -10h-138z" glyph-name="cedilla" horiz-adv-x="530" unicode="¸"/><glyph d="M149 430q-10 0 -10 10v256h-2l-67 -37q-4 -2 -7 -0.5t-3 6.5v112q0 10 9 15l63 38q9 6 17 6h123q10 0 10 -10v-386q0 -10 -10 -10h-123z" glyph-name="onesuperior" horiz-adv-x="376" unicode="¹"/><glyph d="M203 383q-62 0 -101.5 24t-53.5 67q-4 12 -6 26t-2 36t2 36t6 26q14 43 53.5 67t101.5 24t101.5 -24t53.5 -67q4 -12 6 -26t2 -36t-2 -36t-6 -26q-14 -43 -53.5 -67t-101.5 -24zM203 479q12 0 20 6t11 15q2 4 2.5 11.5t0.5 24.5t-0.5 24.5t-2.5 11.5q-3 9 -11 15t-20 6 t-20 -6t-11 -15q-2 -4 -2.5 -11.5t-0.5 -24.5t0.5 -24.5t2.5 -11.5q3 -9 11 -15t20 -6z" glyph-name="ordmasculine" horiz-adv-x="406" unicode="º"/><glyph d="M342 6q-3 -3 -6.5 -2t-3.5 6v162q0 8 10 18l71 70q4 4 0 8l-71 70q-10 10 -10 18v162q0 5 3.5 6t6.5 -2l255 -251q7 -7 0 -14zM62 6q-3 -3 -6.5 -2t-3.5 6v162q0 8 10 18l71 70q4 4 0 8l-71 70q-10 10 -10 18v162q0 5 3.5 6t6.5 -2l255 -251q7 -7 0 -14z" glyph-name="guillemotright" horiz-adv-x="612" unicode="»"/><glyph d="M194 -12q-5 0 -5.5 3t1.5 7l395 684q6 10 16 10h122q5 0 5.5 -3t-1.5 -7l-395 -684q-6 -10 -16 -10h-122zM169 274q-10 0 -10 10v256h-2l-67 -37q-4 -2 -7 -0.5t-3 6.5v112q0 10 9 15l63 38q9 6 17 6h123q10 0 10 -10v-386q0 -10 -10 -10h-123zM721 0q-10 0 -10 10v32 q0 6 -6 6h-169q-10 0 -10 10v102q0 8 5 20l97 216q4 10 15 10h127q11 0 7 -10l-104 -230v-3h32q6 0 6 6v42q0 10 10 10h109q10 0 10 -10v-42q0 -6 5 -6h13q10 0 10 -10v-95q0 -10 -10 -10h-12q-6 0 -6 -6v-32q0 -10 -10 -10h-109z" glyph-name="onequarter" horiz-adv-x="948" unicode="¼"/><glyph d="M194 -12q-5 0 -5.5 3t1.5 7l395 684q6 10 16 10h122q5 0 5.5 -3t-1.5 -7l-395 -684q-6 -10 -16 -10h-122zM169 274q-10 0 -10 10v256h-2l-67 -37q-4 -2 -7 -0.5t-3 6.5v112q0 10 9 15l63 38q9 6 17 6h123q10 0 10 -10v-386q0 -10 -10 -10h-123zM580 0q-10 0 -10 10v87 q0 13 10 21l147 125q21 18 21 38q0 11 -6.5 17.5t-17.5 6.5t-19 -7.5t-9 -24.5q0 -12 -11 -10l-106 12q-9 1 -9 11q2 57 45 92t119 35q30 0 57.5 -8t48.5 -24t33.5 -40.5t12.5 -57.5q0 -35 -14.5 -60.5t-45.5 -50.5l-70 -56v-1h120q10 0 10 -10v-95q0 -10 -10 -10h-296z" glyph-name="onehalf" horiz-adv-x="966" unicode="½"/><glyph d="M250 -12q-5 0 -5.5 3t1.5 7l395 684q6 10 16 10h122q5 0 5.5 -3t-1.5 -7l-395 -684q-6 -10 -16 -10h-122zM242 267q-69 0 -111 29.5t-50 80.5q-2 9 8 11l105 13q10 2 14 -7q8 -19 29 -19q12 0 19.5 6.5t7.5 19.5q0 27 -35 27h-10q-10 0 -10 10v84q0 10 10 10h12 q12 0 19.5 6t7.5 17q0 24 -24 24q-21 0 -26 -19q-3 -11 -12 -9l-107 14q-10 2 -8 11q8 48 48.5 79.5t111.5 31.5q75 0 115 -32.5t40 -81.5q0 -25 -12.5 -45.5t-35.5 -34.5v-2q22 -11 38 -32.5t16 -62.5q0 -58 -43.5 -93.5t-116.5 -35.5zM776 0q-10 0 -10 10v32q0 6 -6 6 h-169q-10 0 -10 10v102q0 8 5 20l97 216q4 10 15 10h127q11 0 7 -10l-104 -230v-3h32q6 0 6 6v42q0 10 10 10h109q10 0 10 -10v-42q0 -6 5 -6h13q10 0 10 -10v-95q0 -10 -10 -10h-12q-6 0 -6 -6v-32q0 -10 -10 -10h-109z" glyph-name="threequarters" horiz-adv-x="1003" unicode="¾"/><glyph d="M335 268q10 0 10 -10v-40q0 -26 -8 -46t-26 -38l-48 -48q-29 -29 -39.5 -45.5t-10.5 -33.5q0 -20 12 -32.5t32 -12.5q42 0 53 49q2 11 11 9l152 -21q10 -2 8 -11q-5 -42 -23 -76.5t-47 -60t-69 -39.5t-89 -14q-53 0 -95.5 16t-72.5 43t-46.5 62.5t-16.5 74.5 q0 52 21.5 87.5t62.5 75.5l37 36q14 14 18 26t4 29v10q0 10 10 10h160zM344 340q0 -10 -10 -10h-160q-10 0 -10 10v140q0 10 10 10h160q10 0 10 -10v-140z" glyph-name="questiondown" horiz-adv-x="494" unicode="¿"/><glyph d="M242 670q3 10 13 10h204q10 0 13 -10l230 -660q3 -10 -7 -10h-203q-10 0 -13 10l-25 89h-200l-25 -89q-3 -10 -13 -10h-203q-10 0 -7 10zM407 270l-50 181h-3l-52 -181h105zM295 738q-11 0 -21 10l-134 132q-3 4 -1.5 7t6.5 3h167q10 0 18 -10l110 -132q3 -4 2 -7t-6 -3 h-141z" glyph-name="Agrave" horiz-adv-x="708" unicode="À"/><glyph d="M242 670q3 10 13 10h204q10 0 13 -10l230 -660q3 -10 -7 -10h-203q-10 0 -13 10l-25 89h-200l-25 -89q-3 -10 -13 -10h-203q-10 0 -7 10zM407 270l-50 181h-3l-52 -181h105zM278 738q-5 0 -6 3t2 7l110 132q8 10 18 10h167q5 0 6.5 -3t-1.5 -7l-134 -132q-10 -10 -21 -10 h-141z" glyph-name="Aacute" horiz-adv-x="708" unicode="Á"/><glyph d="M242 670q3 10 13 10h204q10 0 13 -10l230 -660q3 -10 -7 -10h-203q-10 0 -13 10l-25 89h-200l-25 -89q-3 -10 -13 -10h-203q-10 0 -7 10zM407 270l-50 181h-3l-52 -181h105zM423 734q-14 0 -24 10l-44 44h-2l-44 -44q-10 -10 -24 -10h-113q-5 0 -6.5 3t1.5 7l114 144 q7 10 19 10h108q12 0 19 -10l114 -144q3 -4 1.5 -7t-6.5 -3h-113z" glyph-name="Acircumflex" horiz-adv-x="708" unicode="Â"/><glyph d="M242 670q3 10 13 10h204q10 0 13 -10l230 -660q3 -10 -7 -10h-203q-10 0 -13 10l-25 89h-200l-25 -89q-3 -10 -13 -10h-203q-10 0 -7 10zM407 270l-50 181h-3l-52 -181h105zM429 730q-32 0 -53.5 8.5t-40.5 17.5q-14 7 -28.5 12t-32.5 5q-23 0 -41 -8t-40 -25 q-11 -7 -11 4v92q0 14 10 24q18 17 39 28t47 11q32 0 53.5 -8.5t40.5 -17.5q14 -7 28.5 -12t32.5 -5q23 0 41 8t40 25q11 7 11 -4v-92q0 -8 -2 -13t-8 -11q-18 -17 -39 -28t-47 -11z" glyph-name="Atilde" horiz-adv-x="708" unicode="Ã"/><glyph d="M242 670q3 10 13 10h204q10 0 13 -10l230 -660q3 -10 -7 -10h-203q-10 0 -13 10l-25 89h-200l-25 -89q-3 -10 -13 -10h-203q-10 0 -7 10zM407 270l-50 181h-3l-52 -181h105zM396 739q-10 0 -10 10v124q0 10 10 10h126q10 0 10 -10v-124q0 -10 -10 -10h-126zM186 739 q-10 0 -10 10v124q0 10 10 10h126q10 0 10 -10v-124q0 -10 -10 -10h-126z" glyph-name="Adieresis" horiz-adv-x="708" unicode="Ä"/><glyph d="M242 670q3 10 13 10h204q10 0 13 -10l230 -660q3 -10 -7 -10h-203q-10 0 -13 10l-25 89h-200l-25 -89q-3 -10 -13 -10h-203q-10 0 -7 10zM407 270l-50 181h-3l-52 -181h105zM354 694q-54 0 -89 34t-35 88t35 88t89 34t89 -34t35 -88t-35 -88t-89 -34zM354 775 q17 0 28.5 11.5t11.5 29.5t-11.5 29.5t-28.5 11.5t-28.5 -11.5t-11.5 -29.5t11.5 -29.5t28.5 -11.5z" glyph-name="Aring" horiz-adv-x="708" unicode="Å"/><glyph d="M440 0q-10 0 -10 10v83q0 6 -6 6h-161l-35 -89q-4 -10 -14 -10h-201q-11 0 -6 10l286 660q5 10 14 10h588q10 0 10 -10v-154q0 -10 -10 -10h-251q-6 0 -6 -6v-66q0 -6 6 -6h201q10 0 10 -10v-150q0 -10 -10 -10h-201q-6 0 -6 -6v-72q0 -6 6 -6h251q10 0 10 -10v-154 q0 -10 -10 -10h-455zM332 270h92q6 0 6 6v230h-4z" glyph-name="AE" horiz-adv-x="935" unicode="Æ"/><glyph d="M181 -172q-10 0 -7 10l61 156q-68 13 -115 53.5t-69 108.5q-6 18 -10 35.5t-6.5 38.5t-3.5 47.5t-1 62.5t1 62.5t3.5 47.5t6.5 38.5t10 35.5q27 84 92 126t160 42q96 0 160.5 -41.5t92.5 -118.5q4 -10 -5 -14l-161 -69q-11 -5 -15 7q-11 26 -26 38t-41 12q-45 0 -58 -41 q-2 -6 -3.5 -13.5t-2.5 -21t-1.5 -35t-0.5 -55.5t0.5 -55.5t1.5 -35t2.5 -21t3.5 -13.5q13 -41 58 -41q26 0 41 12t26 38q4 12 15 7l161 -69q9 -4 5 -14q-22 -60 -66.5 -99t-109.5 -53l-46 -158q-3 -10 -15 -10h-138z" glyph-name="Ccedilla" horiz-adv-x="572" unicode="Ç"/><glyph d="M44 670q0 10 10 10h455q10 0 10 -10v-154q0 -10 -10 -10h-251q-6 0 -6 -6v-66q0 -6 6 -6h201q10 0 10 -10v-150q0 -10 -10 -10h-201q-6 0 -6 -6v-72q0 -6 6 -6h251q10 0 10 -10v-154q0 -10 -10 -10h-455q-10 0 -10 10v660zM231 738q-11 0 -21 10l-134 132q-3 4 -1.5 7 t6.5 3h167q10 0 18 -10l110 -132q3 -4 2 -7t-6 -3h-141z" glyph-name="Egrave" horiz-adv-x="549" unicode="È"/><glyph d="M44 670q0 10 10 10h455q10 0 10 -10v-154q0 -10 -10 -10h-251q-6 0 -6 -6v-66q0 -6 6 -6h201q10 0 10 -10v-150q0 -10 -10 -10h-201q-6 0 -6 -6v-72q0 -6 6 -6h251q10 0 10 -10v-154q0 -10 -10 -10h-455q-10 0 -10 10v660zM172 738q-5 0 -6 3t2 7l110 132q8 10 18 10h167 q5 0 6.5 -3t-1.5 -7l-134 -132q-10 -10 -21 -10h-141z" glyph-name="Eacute" horiz-adv-x="549" unicode="É"/><glyph d="M44 670q0 10 10 10h455q10 0 10 -10v-154q0 -10 -10 -10h-251q-6 0 -6 -6v-66q0 -6 6 -6h201q10 0 10 -10v-150q0 -10 -10 -10h-201q-6 0 -6 -6v-72q0 -6 6 -6h251q10 0 10 -10v-154q0 -10 -10 -10h-455q-10 0 -10 10v660zM352 734q-14 0 -24 10l-44 44h-2l-44 -44 q-10 -10 -24 -10h-113q-5 0 -6.5 3t1.5 7l114 144q7 10 19 10h108q12 0 19 -10l114 -144q3 -4 1.5 -7t-6.5 -3h-113z" glyph-name="Ecircumflex" horiz-adv-x="549" unicode="Ê"/><glyph d="M44 670q0 10 10 10h455q10 0 10 -10v-154q0 -10 -10 -10h-251q-6 0 -6 -6v-66q0 -6 6 -6h201q10 0 10 -10v-150q0 -10 -10 -10h-201q-6 0 -6 -6v-72q0 -6 6 -6h251q10 0 10 -10v-154q0 -10 -10 -10h-455q-10 0 -10 10v660zM323 739q-10 0 -10 10v124q0 10 10 10h126 q10 0 10 -10v-124q0 -10 -10 -10h-126zM113 739q-10 0 -10 10v124q0 10 10 10h126q10 0 10 -10v-124q0 -10 -10 -10h-126z" glyph-name="Edieresis" horiz-adv-x="549" unicode="Ë"/><glyph d="M44 670q0 10 10 10h190q10 0 10 -10v-660q0 -10 -10 -10h-190q-10 0 -10 10v660zM92 738q-11 0 -21 10l-134 132q-3 4 -1.5 7t6.5 3h167q10 0 18 -10l110 -132q3 -4 2 -7t-6 -3h-141z" glyph-name="Igrave" horiz-adv-x="298" unicode="Ì"/><glyph d="M44 670q0 10 10 10h190q10 0 10 -10v-660q0 -10 -10 -10h-190q-10 0 -10 10v660zM67 738q-5 0 -6 3t2 7l110 132q8 10 18 10h167q5 0 6.5 -3t-1.5 -7l-134 -132q-10 -10 -21 -10h-141z" glyph-name="Iacute" horiz-adv-x="298" unicode="Í"/><glyph d="M44 670q0 10 10 10h190q10 0 10 -10v-660q0 -10 -10 -10h-190q-10 0 -10 10v660zM218 734q-14 0 -24 10l-44 44h-2l-44 -44q-10 -10 -24 -10h-113q-5 0 -6.5 3t1.5 7l114 144q7 10 19 10h108q12 0 19 -10l114 -144q3 -4 1.5 -7t-6.5 -3h-113z" glyph-name="Icircumflex" horiz-adv-x="298" unicode="Î"/><glyph d="M44 670q0 10 10 10h190q10 0 10 -10v-660q0 -10 -10 -10h-190q-10 0 -10 10v660zM191 739q-10 0 -10 10v124q0 10 10 10h126q10 0 10 -10v-124q0 -10 -10 -10h-126zM-19 739q-10 0 -10 10v124q0 10 10 10h126q10 0 10 -10v-124q0 -10 -10 -10h-126z" glyph-name="Idieresis" horiz-adv-x="298" unicode="Ï"/><glyph d="M54 0q-10 0 -10 10v259q0 6 -6 6h-26q-10 0 -10 10v117q0 10 10 10h26q6 0 6 6v252q0 10 10 10h273q93 0 159 -38t93 -120q6 -18 10 -36t6.5 -38.5t3.5 -46.5t1 -61t-1 -61t-3.5 -46.5t-6.5 -38.5t-10 -36q-27 -82 -93 -120t-159 -38h-273zM284 186q41 0 63 11t32 41 q3 8 4.5 16t2.5 19t1.5 27t0.5 40t-0.5 39.5t-1.5 27t-2.5 19.5t-4.5 16q-10 30 -32 41t-63 11h-24q-6 0 -6 -6v-70q0 -6 6 -6h54q10 0 10 -10v-117q0 -10 -10 -10h-54q-6 0 -6 -6v-77q0 -6 6 -6h24z" glyph-name="Eth" horiz-adv-x="635" unicode="Ð"/><glyph d="M44 670q0 10 10 10h179q5 0 10 -2.5t7 -7.5l162 -335h5v335q0 10 10 10h169q10 0 10 -10v-660q0 -10 -10 -10h-179q-5 0 -10 2.5t-7 7.5l-161 335h-6v-335q0 -10 -10 -10h-169q-10 0 -10 10v660zM400 730q-32 0 -53.5 8.5t-40.5 17.5q-14 7 -28.5 12t-32.5 5 q-23 0 -41 -8t-40 -25q-11 -7 -11 4v92q0 14 10 24q18 17 39 28t47 11q32 0 53.5 -8.5t40.5 -17.5q14 -7 28.5 -12t32.5 -5q23 0 41 8t40 25q11 7 11 -4v-92q0 -8 -2 -13t-8 -11q-18 -17 -39 -28t-47 -11z" glyph-name="Ntilde" horiz-adv-x="650" unicode="Ñ"/><glyph d="M314 -12q-46 0 -87.5 10.5t-76 31.5t-60 52.5t-39.5 74.5q-7 21 -11 40.5t-6.5 40.5t-3 45.5t-0.5 56.5t0.5 56.5t3 45.5t6.5 40.5t11 40.5q14 43 39.5 74.5t60 52.5t76 31.5t87.5 10.5t87.5 -10.5t76 -31.5t60 -52.5t39.5 -74.5q7 -21 11 -40.5t6 -40.5t3 -45.5t1 -56.5 t-1 -56.5t-3 -45.5t-6 -40.5t-11 -40.5q-14 -43 -39.5 -74.5t-60 -52.5t-76 -31.5t-87.5 -10.5zM314 174q23 0 40 11t24 32q5 16 6.5 42.5t1.5 80.5q0 27 -0.5 46.5t-1 33.5t-2 24.5t-4.5 18.5q-7 21 -24 32t-40 11t-40 -11t-24 -32q-3 -8 -4.5 -18.5t-2 -24.5t-1 -33.5 t-0.5 -46.5q0 -54 1.5 -80.5t6.5 -42.5q7 -21 24 -32t40 -11zM256 738q-11 0 -21 10l-134 132q-3 4 -1.5 7t6.5 3h167q10 0 18 -10l110 -132q3 -4 2 -7t-6 -3h-141z" glyph-name="Ograve" horiz-adv-x="628" unicode="Ò"/><glyph d="M314 -12q-46 0 -87.5 10.5t-76 31.5t-60 52.5t-39.5 74.5q-7 21 -11 40.5t-6.5 40.5t-3 45.5t-0.5 56.5t0.5 56.5t3 45.5t6.5 40.5t11 40.5q14 43 39.5 74.5t60 52.5t76 31.5t87.5 10.5t87.5 -10.5t76 -31.5t60 -52.5t39.5 -74.5q7 -21 11 -40.5t6 -40.5t3 -45.5t1 -56.5 t-1 -56.5t-3 -45.5t-6 -40.5t-11 -40.5q-14 -43 -39.5 -74.5t-60 -52.5t-76 -31.5t-87.5 -10.5zM314 174q23 0 40 11t24 32q5 16 6.5 42.5t1.5 80.5q0 27 -0.5 46.5t-1 33.5t-2 24.5t-4.5 18.5q-7 21 -24 32t-40 11t-40 -11t-24 -32q-3 -8 -4.5 -18.5t-2 -24.5t-1 -33.5 t-0.5 -46.5q0 -54 1.5 -80.5t6.5 -42.5q7 -21 24 -32t40 -11zM231 738q-5 0 -6 3t2 7l110 132q8 10 18 10h167q5 0 6.5 -3t-1.5 -7l-134 -132q-10 -10 -21 -10h-141z" glyph-name="Oacute" horiz-adv-x="628" unicode="Ó"/><glyph d="M314 -12q-46 0 -87.5 10.5t-76 31.5t-60 52.5t-39.5 74.5q-7 21 -11 40.5t-6.5 40.5t-3 45.5t-0.5 56.5t0.5 56.5t3 45.5t6.5 40.5t11 40.5q14 43 39.5 74.5t60 52.5t76 31.5t87.5 10.5t87.5 -10.5t76 -31.5t60 -52.5t39.5 -74.5q7 -21 11 -40.5t6 -40.5t3 -45.5t1 -56.5 t-1 -56.5t-3 -45.5t-6 -40.5t-11 -40.5q-14 -43 -39.5 -74.5t-60 -52.5t-76 -31.5t-87.5 -10.5zM314 174q23 0 40 11t24 32q5 16 6.5 42.5t1.5 80.5q0 27 -0.5 46.5t-1 33.5t-2 24.5t-4.5 18.5q-7 21 -24 32t-40 11t-40 -11t-24 -32q-3 -8 -4.5 -18.5t-2 -24.5t-1 -33.5 t-0.5 -46.5q0 -54 1.5 -80.5t6.5 -42.5q7 -21 24 -32t40 -11zM383 734q-14 0 -24 10l-44 44h-2l-44 -44q-10 -10 -24 -10h-113q-5 0 -6.5 3t1.5 7l114 144q7 10 19 10h108q12 0 19 -10l114 -144q3 -4 1.5 -7t-6.5 -3h-113z" glyph-name="Ocircumflex" horiz-adv-x="628" unicode="Ô"/><glyph d="M314 -12q-46 0 -87.5 10.5t-76 31.5t-60 52.5t-39.5 74.5q-7 21 -11 40.5t-6.5 40.5t-3 45.5t-0.5 56.5t0.5 56.5t3 45.5t6.5 40.5t11 40.5q14 43 39.5 74.5t60 52.5t76 31.5t87.5 10.5t87.5 -10.5t76 -31.5t60 -52.5t39.5 -74.5q7 -21 11 -40.5t6 -40.5t3 -45.5t1 -56.5 t-1 -56.5t-3 -45.5t-6 -40.5t-11 -40.5q-14 -43 -39.5 -74.5t-60 -52.5t-76 -31.5t-87.5 -10.5zM314 174q23 0 40 11t24 32q5 16 6.5 42.5t1.5 80.5q0 27 -0.5 46.5t-1 33.5t-2 24.5t-4.5 18.5q-7 21 -24 32t-40 11t-40 -11t-24 -32q-3 -8 -4.5 -18.5t-2 -24.5t-1 -33.5 t-0.5 -46.5q0 -54 1.5 -80.5t6.5 -42.5q7 -21 24 -32t40 -11zM390 730q-32 0 -53.5 8.5t-40.5 17.5q-14 7 -28.5 12t-32.5 5q-23 0 -41 -8t-40 -25q-11 -7 -11 4v92q0 14 10 24q18 17 39 28t47 11q32 0 53.5 -8.5t40.5 -17.5q14 -7 28.5 -12t32.5 -5q23 0 41 8t40 25 q11 7 11 -4v-92q0 -8 -2 -13t-8 -11q-18 -17 -39 -28t-47 -11z" glyph-name="Otilde" horiz-adv-x="628" unicode="Õ"/><glyph d="M314 -12q-46 0 -87.5 10.5t-76 31.5t-60 52.5t-39.5 74.5q-7 21 -11 40.5t-6.5 40.5t-3 45.5t-0.5 56.5t0.5 56.5t3 45.5t6.5 40.5t11 40.5q14 43 39.5 74.5t60 52.5t76 31.5t87.5 10.5t87.5 -10.5t76 -31.5t60 -52.5t39.5 -74.5q7 -21 11 -40.5t6 -40.5t3 -45.5t1 -56.5 t-1 -56.5t-3 -45.5t-6 -40.5t-11 -40.5q-14 -43 -39.5 -74.5t-60 -52.5t-76 -31.5t-87.5 -10.5zM314 174q23 0 40 11t24 32q5 16 6.5 42.5t1.5 80.5q0 27 -0.5 46.5t-1 33.5t-2 24.5t-4.5 18.5q-7 21 -24 32t-40 11t-40 -11t-24 -32q-3 -8 -4.5 -18.5t-2 -24.5t-1 -33.5 t-0.5 -46.5q0 -54 1.5 -80.5t6.5 -42.5q7 -21 24 -32t40 -11zM356 739q-10 0 -10 10v124q0 10 10 10h126q10 0 10 -10v-124q0 -10 -10 -10h-126zM146 739q-10 0 -10 10v124q0 10 10 10h126q10 0 10 -10v-124q0 -10 -10 -10h-126z" glyph-name="Odieresis" horiz-adv-x="628" unicode="Ö"/><glyph d="M420 44q-7 -9 -14 0l-118 117q-4 4 -8 0l-118 -117q-7 -9 -14 0l-96 96q-7 7 0 14l117 117q4 4 0 9l-117 117q-7 7 0 14l98 98q7 7 14 0l117 -118q4 -3 9 0l117 118q7 7 14 0l96 -96q8 -8 0 -14l-117 -118q-5 -5 0 -8l117 -118q9 -7 0 -14z" glyph-name="multiply" unicode="×"/><glyph d="M314 -12q-80 0 -143 30l-25 -38q-6 -10 -17 -10h-124q-5 0 -6 3t1 7l79 118q-18 26 -28 59q-7 21 -11 40.5t-6.5 40.5t-3 45.5t-0.5 56.5t0.5 56.5t3 45.5t6.5 40.5t11 40.5q14 43 39.5 74.5t60 52.5t76 31.5t87.5 10.5q80 0 142 -30l26 38q6 10 17 10h124q5 0 6 -3 t-1 -7l-79 -119q8 -13 15.5 -27.5t12.5 -30.5q7 -21 11 -40.5t6 -40.5t3 -45.5t1 -56.5t-1 -56.5t-3 -45.5t-6 -40.5t-11 -40.5q-14 -43 -39.5 -74.5t-60 -52.5t-76 -31.5t-87.5 -10.5zM314 174q23 0 40 11t24 32q5 16 6.5 42.5t1.5 80.5q0 27 -0.5 46.5t-1 33.5t-2 24.5 t-4.5 18.5q-7 21 -24 32t-40 11t-40 -11t-24 -32q-3 -8 -4.5 -18.5t-2 -24.5t-1 -33.5t-0.5 -46.5q0 -54 1.5 -80.5t6.5 -42.5q7 -21 24 -32t40 -11z" glyph-name="Oslash" horiz-adv-x="628" unicode="Ø"/><glyph d="M326 -12q-65 0 -117.5 17.5t-89 53.5t-56.5 90.5t-20 127.5v393q0 10 10 10h190q10 0 10 -10v-411q0 -40 18 -62.5t54 -22.5t54 22.5t18 62.5v411q0 10 10 10h190q10 0 10 -10v-393q0 -73 -19.5 -127.5t-56.5 -90.5t-89 -53.5t-116 -17.5zM266 738q-11 0 -21 10l-134 132 q-3 4 -1.5 7t6.5 3h167q10 0 18 -10l110 -132q3 -4 2 -7t-6 -3h-141z" glyph-name="Ugrave" horiz-adv-x="650" unicode="Ù"/><glyph d="M326 -12q-65 0 -117.5 17.5t-89 53.5t-56.5 90.5t-20 127.5v393q0 10 10 10h190q10 0 10 -10v-411q0 -40 18 -62.5t54 -22.5t54 22.5t18 62.5v411q0 10 10 10h190q10 0 10 -10v-393q0 -73 -19.5 -127.5t-56.5 -90.5t-89 -53.5t-116 -17.5zM247 738q-5 0 -6 3t2 7l110 132 q8 10 18 10h167q5 0 6.5 -3t-1.5 -7l-134 -132q-10 -10 -21 -10h-141z" glyph-name="Uacute" horiz-adv-x="650" unicode="Ú"/><glyph d="M326 -12q-65 0 -117.5 17.5t-89 53.5t-56.5 90.5t-20 127.5v393q0 10 10 10h190q10 0 10 -10v-411q0 -40 18 -62.5t54 -22.5t54 22.5t18 62.5v411q0 10 10 10h190q10 0 10 -10v-393q0 -73 -19.5 -127.5t-56.5 -90.5t-89 -53.5t-116 -17.5zM394 734q-14 0 -24 10l-44 44 h-2l-44 -44q-10 -10 -24 -10h-113q-5 0 -6.5 3t1.5 7l114 144q7 10 19 10h108q12 0 19 -10l114 -144q3 -4 1.5 -7t-6.5 -3h-113z" glyph-name="Ucircumflex" horiz-adv-x="650" unicode="Û"/><glyph d="M326 -12q-65 0 -117.5 17.5t-89 53.5t-56.5 90.5t-20 127.5v393q0 10 10 10h190q10 0 10 -10v-411q0 -40 18 -62.5t54 -22.5t54 22.5t18 62.5v411q0 10 10 10h190q10 0 10 -10v-393q0 -73 -19.5 -127.5t-56.5 -90.5t-89 -53.5t-116 -17.5zM367 739q-10 0 -10 10v124 q0 10 10 10h126q10 0 10 -10v-124q0 -10 -10 -10h-126zM157 739q-10 0 -10 10v124q0 10 10 10h126q10 0 10 -10v-124q0 -10 -10 -10h-126z" glyph-name="Udieresis" horiz-adv-x="650" unicode="Ü"/><glyph d="M226 0q-10 0 -10 10v244l-211 415q-6 11 7 11h189q11 0 17 -10l104 -213h3l101 213q4 10 17 10h187q12 0 7 -11l-211 -415v-244q0 -10 -10 -10h-190zM244 738q-5 0 -6 3t2 7l110 132q8 10 18 10h167q5 0 6.5 -3t-1.5 -7l-134 -132q-10 -10 -21 -10h-141z" glyph-name="Yacute" horiz-adv-x="641" unicode="Ý"/><glyph d="M54 0q-10 0 -10 10v660q0 10 10 10h189q10 0 10 -10v-81q0 -6 6 -6h76q70 0 121 -17.5t84 -49t48.5 -74.5t15.5 -94q0 -50 -16 -92.5t-49.5 -74.5t-84 -50t-119.5 -18h-76q-6 0 -6 -6v-97q0 -10 -10 -10h-189zM324 287q35 0 52.5 16t17.5 45t-17.5 45t-52.5 16h-65 q-6 0 -6 -6v-110q0 -6 6 -6h65z" glyph-name="Thorn" horiz-adv-x="620" unicode="Þ"/><glyph d="M290 -6q-10 0 -10 10v128q0 10 10 10h24q48 0 60 38q2 7 3 17t1 33t-1 33t-3 17q-12 38 -60 38h-20q-10 0 -10 10v125q0 10 10 10h25q26 0 36.5 9.5t10.5 28.5q0 17 -13 27t-46 10q-37 0 -53 -15.5t-16 -47.5v-465q0 -10 -10 -10h-176q-10 0 -10 10v465q0 106 62 161.5 t203 55.5q61 0 108 -13t79.5 -36.5t49 -55.5t16.5 -71q0 -45 -14.5 -73.5t-44.5 -48.5v-2q46 -22 63 -75q5 -14 7.5 -35.5t2.5 -57.5q0 -50 -3 -75.5t-9 -43.5q-20 -61 -75.5 -86t-149.5 -25h-47z" glyph-name="germandbls" horiz-adv-x="598" unicode="ß"/><glyph d="M319 0q-10 0 -10 10v24h-1q-20 -21 -50.5 -33.5t-77.5 -12.5q-30 0 -58.5 8.5t-50 27t-34.5 47t-13 68.5q0 42 16.5 73t45.5 51t68 30t85 10h65q6 0 6 6v8q0 18 -16.5 26t-69.5 8q-29 0 -57 -7t-45 -18q-9 -5 -13 3l-60 108q-6 11 3 17q35 23 87 35.5t113 12.5 q69 0 116 -11.5t76 -35t41.5 -59.5t12.5 -84v-302q0 -10 -10 -10h-169zM253 124q31 0 44 8.5t13 26.5v26q0 6 -6 6h-47q-23 0 -35 -9.5t-12 -25.5q0 -32 43 -32zM233 540q-9 0 -16 10l-106 144q-2 3 -1 6.5t6 3.5h165q10 0 17 -10l83 -144q5 -10 -5 -10h-143z" glyph-name="agrave" horiz-adv-x="537" unicode="à"/><glyph d="M319 0q-10 0 -10 10v24h-1q-20 -21 -50.5 -33.5t-77.5 -12.5q-30 0 -58.5 8.5t-50 27t-34.5 47t-13 68.5q0 42 16.5 73t45.5 51t68 30t85 10h65q6 0 6 6v8q0 18 -16.5 26t-69.5 8q-29 0 -57 -7t-45 -18q-9 -5 -13 3l-60 108q-6 11 3 17q35 23 87 35.5t113 12.5 q69 0 116 -11.5t76 -35t41.5 -59.5t12.5 -84v-302q0 -10 -10 -10h-169zM253 124q31 0 44 8.5t13 26.5v26q0 6 -6 6h-47q-23 0 -35 -9.5t-12 -25.5q0 -32 43 -32zM193 540q-10 0 -5 10l83 144q7 10 17 10h165q5 0 6 -3.5t-1 -6.5l-106 -144q-8 -10 -16 -10h-143z" glyph-name="aacute" horiz-adv-x="537" unicode="á"/><glyph d="M319 0q-10 0 -10 10v24h-1q-20 -21 -50.5 -33.5t-77.5 -12.5q-30 0 -58.5 8.5t-50 27t-34.5 47t-13 68.5q0 42 16.5 73t45.5 51t68 30t85 10h65q6 0 6 6v8q0 18 -16.5 26t-69.5 8q-29 0 -57 -7t-45 -18q-9 -5 -13 3l-60 108q-6 11 3 17q35 23 87 35.5t113 12.5 q69 0 116 -11.5t76 -35t41.5 -59.5t12.5 -84v-302q0 -10 -10 -10h-169zM253 124q31 0 44 8.5t13 26.5v26q0 6 -6 6h-47q-23 0 -35 -9.5t-12 -25.5q0 -32 43 -32zM337 538q-14 0 -24 10l-44 44h-2l-44 -44q-10 -10 -24 -10h-113q-5 0 -6.5 3t1.5 7l114 144q7 10 19 10h108 q12 0 19 -10l114 -144q3 -4 1.5 -7t-6.5 -3h-113z" glyph-name="acircumflex" horiz-adv-x="537" unicode="â"/><glyph d="M319 0q-10 0 -10 10v24h-1q-20 -21 -50.5 -33.5t-77.5 -12.5q-30 0 -58.5 8.5t-50 27t-34.5 47t-13 68.5q0 42 16.5 73t45.5 51t68 30t85 10h65q6 0 6 6v8q0 18 -16.5 26t-69.5 8q-29 0 -57 -7t-45 -18q-9 -5 -13 3l-60 108q-6 11 3 17q35 23 87 35.5t113 12.5 q69 0 116 -11.5t76 -35t41.5 -59.5t12.5 -84v-302q0 -10 -10 -10h-169zM253 124q31 0 44 8.5t13 26.5v26q0 6 -6 6h-47q-23 0 -35 -9.5t-12 -25.5q0 -32 43 -32zM344 536q-32 0 -53.5 8.5t-40.5 17.5q-14 7 -28.5 12t-32.5 5q-23 0 -41 -8t-40 -25q-11 -7 -11 4v92 q0 14 10 24q18 17 39 28t47 11q32 0 53.5 -8.5t40.5 -17.5q14 -7 28.5 -12t32.5 -5q23 0 41 8t40 25q11 7 11 -4v-92q0 -8 -2 -13t-8 -11q-18 -17 -39 -28t-47 -11z" glyph-name="atilde" horiz-adv-x="537" unicode="ã"/><glyph d="M319 0q-10 0 -10 10v24h-1q-20 -21 -50.5 -33.5t-77.5 -12.5q-30 0 -58.5 8.5t-50 27t-34.5 47t-13 68.5q0 42 16.5 73t45.5 51t68 30t85 10h65q6 0 6 6v8q0 18 -16.5 26t-69.5 8q-29 0 -57 -7t-45 -18q-9 -5 -13 3l-60 108q-6 11 3 17q35 23 87 35.5t113 12.5 q69 0 116 -11.5t76 -35t41.5 -59.5t12.5 -84v-302q0 -10 -10 -10h-169zM253 124q31 0 44 8.5t13 26.5v26q0 6 -6 6h-47q-23 0 -35 -9.5t-12 -25.5q0 -32 43 -32zM310 536q-10 0 -10 10v124q0 10 10 10h126q10 0 10 -10v-124q0 -10 -10 -10h-126zM100 536q-10 0 -10 10v124 q0 10 10 10h126q10 0 10 -10v-124q0 -10 -10 -10h-126z" glyph-name="adieresis" horiz-adv-x="537" unicode="ä"/><glyph d="M319 0q-10 0 -10 10v24h-1q-20 -21 -50.5 -33.5t-77.5 -12.5q-30 0 -58.5 8.5t-50 27t-34.5 47t-13 68.5q0 42 16.5 73t45.5 51t68 30t85 10h65q6 0 6 6v8q0 18 -16.5 26t-69.5 8q-29 0 -57 -7t-45 -18q-9 -5 -13 3l-60 108q-6 11 3 17q35 23 87 35.5t113 12.5 q69 0 116 -11.5t76 -35t41.5 -59.5t12.5 -84v-302q0 -10 -10 -10h-169zM253 124q31 0 44 8.5t13 26.5v26q0 6 -6 6h-47q-23 0 -35 -9.5t-12 -25.5q0 -32 43 -32zM268 512q-54 0 -89 34t-35 88t35 88t89 34t89 -34t35 -88t-35 -88t-89 -34zM268 593q17 0 28.5 11.5t11.5 29.5 t-11.5 29.5t-28.5 11.5t-28.5 -11.5t-11.5 -29.5t11.5 -29.5t28.5 -11.5z" glyph-name="aring" horiz-adv-x="537" unicode="å"/><glyph d="M564 -12q-49 0 -93.5 17.5t-70.5 46.5h-1q-30 -33 -73.5 -48.5t-112.5 -15.5q-189 0 -189 151q0 42 16.5 73t45.5 51t68 30t85 10h65q6 0 6 6v8q0 18 -16.5 26t-69.5 8q-29 0 -57 -7t-45 -18q-9 -5 -13 3l-60 108q-6 11 3 17q35 23 87 35.5t113 12.5q55 0 94.5 -11 t71.5 -28h1q21 14 54 26.5t78 12.5q95 0 152.5 -37.5t80.5 -107.5q7 -21 11 -55.5t4 -100.5q0 -10 -10 -10h-285q-6 0 -6 -6q0 -4 2 -10q7 -20 30.5 -31t56.5 -11q55 0 107 36q8 5 14 -2l78 -86q7 -7 -2 -15q-43 -38 -99 -58t-121 -20zM604 303q6 0 6 6q0 15 -3 24 q-11 34 -53 34t-53 -34q-3 -9 -3 -24q0 -6 6 -6h100zM253 124q31 0 44 8.5t13 26.5v26q0 6 -6 6h-47q-23 0 -35 -9.5t-12 -25.5q0 -32 43 -32z" glyph-name="ae" horiz-adv-x="822" unicode="æ"/><glyph d="M133 -172q-10 0 -7 10l62 159q-55 13 -94.5 47.5t-57.5 91.5q-7 20 -10 45.5t-3 63.5t3 63.5t10 45.5q24 75 84.5 111.5t143.5 36.5q43 0 79.5 -10.5t65 -29t48.5 -43t30 -52.5q3 -9 -5 -13l-141 -60q-5 -2 -10 -2t-7 6q-9 25 -21 34.5t-31 9.5q-32 0 -42 -30 q-2 -7 -3.5 -20t-1.5 -47t1.5 -47t3.5 -20q10 -30 42 -30q19 0 31 9.5t21 34.5q2 6 7 6t10 -2l141 -60q8 -4 5 -13q-16 -45 -56 -79t-100 -48l-45 -158q-3 -10 -15 -10h-138z" glyph-name="ccedilla" horiz-adv-x="504" unicode="ç"/><glyph d="M281 -12q-97 0 -158.5 39t-84.5 109q-7 20 -11 45t-4 64t4 64t11 45q23 72 82.5 110t147.5 38q95 0 152.5 -37.5t80.5 -107.5q7 -21 11 -55.5t4 -100.5q0 -10 -10 -10h-285q-6 0 -6 -6q0 -4 2 -10q7 -20 30.5 -31t56.5 -11q55 0 107 36q8 5 14 -2l78 -86q7 -7 -2 -15 q-43 -38 -99 -58t-121 -20zM321 303q6 0 6 6q0 15 -3 24q-11 34 -53 34t-53 -34q-3 -9 -3 -24q0 -6 6 -6h100zM211 540q-9 0 -16 10l-106 144q-2 3 -1 6.5t6 3.5h165q10 0 17 -10l83 -144q5 -10 -5 -10h-143z" glyph-name="egrave" horiz-adv-x="539" unicode="è"/><glyph d="M281 -12q-97 0 -158.5 39t-84.5 109q-7 20 -11 45t-4 64t4 64t11 45q23 72 82.5 110t147.5 38q95 0 152.5 -37.5t80.5 -107.5q7 -21 11 -55.5t4 -100.5q0 -10 -10 -10h-285q-6 0 -6 -6q0 -4 2 -10q7 -20 30.5 -31t56.5 -11q55 0 107 36q8 5 14 -2l78 -86q7 -7 -2 -15 q-43 -38 -99 -58t-121 -20zM321 303q6 0 6 6q0 15 -3 24q-11 34 -53 34t-53 -34q-3 -9 -3 -24q0 -6 6 -6h100zM190 540q-10 0 -5 10l83 144q7 10 17 10h165q5 0 6 -3.5t-1 -6.5l-106 -144q-8 -10 -16 -10h-143z" glyph-name="eacute" horiz-adv-x="539" unicode="é"/><glyph d="M281 -12q-97 0 -158.5 39t-84.5 109q-7 20 -11 45t-4 64t4 64t11 45q23 72 82.5 110t147.5 38q95 0 152.5 -37.5t80.5 -107.5q7 -21 11 -55.5t4 -100.5q0 -10 -10 -10h-285q-6 0 -6 -6q0 -4 2 -10q7 -20 30.5 -31t56.5 -11q55 0 107 36q8 5 14 -2l78 -86q7 -7 -2 -15 q-43 -38 -99 -58t-121 -20zM321 303q6 0 6 6q0 15 -3 24q-11 34 -53 34t-53 -34q-3 -9 -3 -24q0 -6 6 -6h100zM338 538q-14 0 -24 10l-44 44h-2l-44 -44q-10 -10 -24 -10h-113q-5 0 -6.5 3t1.5 7l114 144q7 10 19 10h108q12 0 19 -10l114 -144q3 -4 1.5 -7t-6.5 -3h-113z" glyph-name="ecircumflex" horiz-adv-x="539" unicode="ê"/><glyph d="M281 -12q-97 0 -158.5 39t-84.5 109q-7 20 -11 45t-4 64t4 64t11 45q23 72 82.5 110t147.5 38q95 0 152.5 -37.5t80.5 -107.5q7 -21 11 -55.5t4 -100.5q0 -10 -10 -10h-285q-6 0 -6 -6q0 -4 2 -10q7 -20 30.5 -31t56.5 -11q55 0 107 36q8 5 14 -2l78 -86q7 -7 -2 -15 q-43 -38 -99 -58t-121 -20zM321 303q6 0 6 6q0 15 -3 24q-11 34 -53 34t-53 -34q-3 -9 -3 -24q0 -6 6 -6h100zM311 536q-10 0 -10 10v124q0 10 10 10h126q10 0 10 -10v-124q0 -10 -10 -10h-126zM101 536q-10 0 -10 10v124q0 10 10 10h126q10 0 10 -10v-124q0 -10 -10 -10 h-126z" glyph-name="edieresis" horiz-adv-x="539" unicode="ë"/><glyph d="M52 0q-10 0 -10 10v470q0 10 10 10h180q10 0 10 -10v-470q0 -10 -10 -10h-180zM73 540q-9 0 -16 10l-106 144q-2 3 -1 6.5t6 3.5h165q10 0 17 -10l83 -144q5 -10 -5 -10h-143z" glyph-name="igrave" horiz-adv-x="284" unicode="ì"/><glyph d="M52 0q-10 0 -10 10v470q0 10 10 10h180q10 0 10 -10v-470q0 -10 -10 -10h-180zM68 540q-10 0 -5 10l83 144q7 10 17 10h165q5 0 6 -3.5t-1 -6.5l-106 -144q-8 -10 -16 -10h-143z" glyph-name="iacute" horiz-adv-x="284" unicode="í"/><glyph d="M52 0q-10 0 -10 10v470q0 10 10 10h180q10 0 10 -10v-470q0 -10 -10 -10h-180zM211 538q-14 0 -24 10l-44 44h-2l-44 -44q-10 -10 -24 -10h-113q-5 0 -6.5 3t1.5 7l114 144q7 10 19 10h108q12 0 19 -10l114 -144q3 -4 1.5 -7t-6.5 -3h-113z" glyph-name="icircumflex" horiz-adv-x="284" unicode="î"/><glyph d="M52 0q-10 0 -10 10v470q0 10 10 10h180q10 0 10 -10v-470q0 -10 -10 -10h-180zM184 536q-10 0 -10 10v124q0 10 10 10h126q10 0 10 -10v-124q0 -10 -10 -10h-126zM-26 536q-10 0 -10 10v124q0 10 10 10h126q10 0 10 -10v-124q0 -10 -10 -10h-126z" glyph-name="idieresis" horiz-adv-x="284" unicode="ï"/><glyph d="M385 540q40 -55 67 -97t42.5 -77.5t22 -68.5t6.5 -71q0 -25 -3.5 -46.5t-9.5 -40.5q-23 -72 -84.5 -111.5t-152.5 -39.5q-96 0 -156 38.5t-80 101.5q-8 23 -11 43.5t-3 43.5t2.5 46t10.5 46q18 55 62 90t113 35q25 0 40 -6t24 -11h2l-56 77l-99 -29q-9 -2 -12 7l-24 82 q-3 9 7 12l62 18l-63 88q-3 4 -2 7t6 3h174q13 0 21 -9l29 -40l89 26q10 2 13 -7l24 -81q2 -10 -7 -13zM273 147q34 0 44 29q5 15 5 39q0 25 -5 40q-10 29 -44 29t-44 -29q-5 -15 -5 -40q0 -24 5 -39q10 -29 44 -29z" glyph-name="eth" horiz-adv-x="546" unicode="ð"/><glyph d="M334 0q-10 0 -10 10v278q0 50 -41 50t-41 -50v-278q0 -10 -10 -10h-180q-10 0 -10 10v470q0 10 10 10h180q10 0 10 -10v-36h1q17 26 48 42t76 16q43 0 73 -13t49 -37t27 -58t8 -75v-309q0 -10 -10 -10h-180zM357 536q-32 0 -53.5 8.5t-40.5 17.5q-14 7 -28.5 12t-32.5 5 q-23 0 -41 -8t-40 -25q-11 -7 -11 4v92q0 14 10 24q18 17 39 28t47 11q32 0 53.5 -8.5t40.5 -17.5q14 -7 28.5 -12t32.5 -5q23 0 41 8t40 25q11 7 11 -4v-92q0 -8 -2 -13t-8 -11q-18 -17 -39 -28t-47 -11z" glyph-name="ntilde" horiz-adv-x="564" unicode="ñ"/><glyph d="M273 -12q-84 0 -147.5 36t-87.5 110q-9 27 -12 55t-3 56t3 56t12 55q24 74 87.5 110t147.5 36t147.5 -36t87.5 -110q9 -27 12 -55t3 -56t-3 -56t-12 -55q-24 -74 -87.5 -110t-147.5 -36zM273 148q15 0 26 6t16 22q3 10 4.5 24t1.5 45t-1.5 45t-4.5 24q-5 16 -16 22t-26 6 t-26 -6t-16 -22q-3 -10 -4.5 -24t-1.5 -45t1.5 -45t4.5 -24q5 -16 16 -22t26 -6zM210 540q-9 0 -16 10l-106 144q-2 3 -1 6.5t6 3.5h165q10 0 17 -10l83 -144q5 -10 -5 -10h-143z" glyph-name="ograve" horiz-adv-x="546" unicode="ò"/><glyph d="M273 -12q-84 0 -147.5 36t-87.5 110q-9 27 -12 55t-3 56t3 56t12 55q24 74 87.5 110t147.5 36t147.5 -36t87.5 -110q9 -27 12 -55t3 -56t-3 -56t-12 -55q-24 -74 -87.5 -110t-147.5 -36zM273 148q15 0 26 6t16 22q3 10 4.5 24t1.5 45t-1.5 45t-4.5 24q-5 16 -16 22t-26 6 t-26 -6t-16 -22q-3 -10 -4.5 -24t-1.5 -45t1.5 -45t4.5 -24q5 -16 16 -22t26 -6zM193 540q-10 0 -5 10l83 144q7 10 17 10h165q5 0 6 -3.5t-1 -6.5l-106 -144q-8 -10 -16 -10h-143z" glyph-name="oacute" horiz-adv-x="546" unicode="ó"/><glyph d="M273 -12q-84 0 -147.5 36t-87.5 110q-9 27 -12 55t-3 56t3 56t12 55q24 74 87.5 110t147.5 36t147.5 -36t87.5 -110q9 -27 12 -55t3 -56t-3 -56t-12 -55q-24 -74 -87.5 -110t-147.5 -36zM273 148q15 0 26 6t16 22q3 10 4.5 24t1.5 45t-1.5 45t-4.5 24q-5 16 -16 22t-26 6 t-26 -6t-16 -22q-3 -10 -4.5 -24t-1.5 -45t1.5 -45t4.5 -24q5 -16 16 -22t26 -6zM342 538q-14 0 -24 10l-44 44h-2l-44 -44q-10 -10 -24 -10h-113q-5 0 -6.5 3t1.5 7l114 144q7 10 19 10h108q12 0 19 -10l114 -144q3 -4 1.5 -7t-6.5 -3h-113z" glyph-name="ocircumflex" horiz-adv-x="546" unicode="ô"/><glyph d="M273 -12q-84 0 -147.5 36t-87.5 110q-9 27 -12 55t-3 56t3 56t12 55q24 74 87.5 110t147.5 36t147.5 -36t87.5 -110q9 -27 12 -55t3 -56t-3 -56t-12 -55q-24 -74 -87.5 -110t-147.5 -36zM273 148q15 0 26 6t16 22q3 10 4.5 24t1.5 45t-1.5 45t-4.5 24q-5 16 -16 22t-26 6 t-26 -6t-16 -22q-3 -10 -4.5 -24t-1.5 -45t1.5 -45t4.5 -24q5 -16 16 -22t26 -6zM348 536q-32 0 -53.5 8.5t-40.5 17.5q-14 7 -28.5 12t-32.5 5q-23 0 -41 -8t-40 -25q-11 -7 -11 4v92q0 14 10 24q18 17 39 28t47 11q32 0 53.5 -8.5t40.5 -17.5q14 -7 28.5 -12t32.5 -5 q23 0 41 8t40 25q11 7 11 -4v-92q0 -8 -2 -13t-8 -11q-18 -17 -39 -28t-47 -11z" glyph-name="otilde" horiz-adv-x="546" unicode="õ"/><glyph d="M273 -12q-84 0 -147.5 36t-87.5 110q-9 27 -12 55t-3 56t3 56t12 55q24 74 87.5 110t147.5 36t147.5 -36t87.5 -110q9 -27 12 -55t3 -56t-3 -56t-12 -55q-24 -74 -87.5 -110t-147.5 -36zM273 148q15 0 26 6t16 22q3 10 4.5 24t1.5 45t-1.5 45t-4.5 24q-5 16 -16 22t-26 6 t-26 -6t-16 -22q-3 -10 -4.5 -24t-1.5 -45t1.5 -45t4.5 -24q5 -16 16 -22t26 -6zM315 536q-10 0 -10 10v124q0 10 10 10h126q10 0 10 -10v-124q0 -10 -10 -10h-126zM105 536q-10 0 -10 10v124q0 10 10 10h126q10 0 10 -10v-124q0 -10 -10 -10h-126z" glyph-name="odieresis" horiz-adv-x="546" unicode="ö"/><glyph d="M285 391q-40 0 -67.5 27.5t-27.5 67.5t27.5 67.5t67.5 27.5t67.5 -27.5t27.5 -67.5t-27.5 -67.5t-67.5 -27.5zM52 194q-10 0 -10 10v144q0 10 10 10h466q10 0 10 -10v-144q0 -10 -10 -10h-466zM285 -29q-40 0 -67.5 27.5t-27.5 67.5t27.5 67.5t67.5 27.5t67.5 -27.5 t27.5 -67.5t-27.5 -67.5t-67.5 -27.5z" glyph-name="divide" unicode="÷"/><glyph d="M7 -30q-5 0 -6 3t2 7l69 90q-22 26 -34 64q-9 27 -12 55t-3 56t3 56t12 55q24 74 87.5 110t147.5 36q67 0 118 -22l23 30q7 10 19 10h106q5 0 6 -3t-2 -7l-70 -90q23 -27 35 -64q9 -27 12 -55t3 -56t-3 -56t-12 -55q-24 -74 -87.5 -110t-147.5 -36q-67 0 -119 21l-22 -29 q-7 -10 -19 -10h-106zM273 148q15 0 26 6t16 22q3 10 4.5 24t1.5 45t-1.5 45t-4.5 24q-5 16 -16 22t-26 6t-26 -6t-16 -22q-3 -10 -4.5 -24t-1.5 -45t1.5 -45t4.5 -24q5 -16 16 -22t26 -6z" glyph-name="oslash" horiz-adv-x="546" unicode="ø"/><glyph d="M330 0q-10 0 -10 10v36h-1q-17 -26 -48 -42t-76 -16q-44 0 -73.5 13t-48 37t-26.5 58t-8 75v309q0 10 10 10h180q10 0 10 -10v-278q0 -50 41 -50q40 0 40 50v278q0 10 10 10h180q10 0 10 -10v-470q0 -10 -10 -10h-180zM218 540q-9 0 -16 10l-106 144q-2 3 -1 6.5t6 3.5 h165q10 0 17 -10l83 -144q5 -10 -5 -10h-143z" glyph-name="ugrave" horiz-adv-x="562" unicode="ù"/><glyph d="M330 0q-10 0 -10 10v36h-1q-17 -26 -48 -42t-76 -16q-44 0 -73.5 13t-48 37t-26.5 58t-8 75v309q0 10 10 10h180q10 0 10 -10v-278q0 -50 41 -50q40 0 40 50v278q0 10 10 10h180q10 0 10 -10v-470q0 -10 -10 -10h-180zM198 540q-10 0 -5 10l83 144q7 10 17 10h165 q5 0 6 -3.5t-1 -6.5l-106 -144q-8 -10 -16 -10h-143z" glyph-name="uacute" horiz-adv-x="562" unicode="ú"/><glyph d="M330 0q-10 0 -10 10v36h-1q-17 -26 -48 -42t-76 -16q-44 0 -73.5 13t-48 37t-26.5 58t-8 75v309q0 10 10 10h180q10 0 10 -10v-278q0 -50 41 -50q40 0 40 50v278q0 10 10 10h180q10 0 10 -10v-470q0 -10 -10 -10h-180zM350 538q-14 0 -24 10l-44 44h-2l-44 -44 q-10 -10 -24 -10h-113q-5 0 -6.5 3t1.5 7l114 144q7 10 19 10h108q12 0 19 -10l114 -144q3 -4 1.5 -7t-6.5 -3h-113z" glyph-name="ucircumflex" horiz-adv-x="562" unicode="û"/><glyph d="M330 0q-10 0 -10 10v36h-1q-17 -26 -48 -42t-76 -16q-44 0 -73.5 13t-48 37t-26.5 58t-8 75v309q0 10 10 10h180q10 0 10 -10v-278q0 -50 41 -50q40 0 40 50v278q0 10 10 10h180q10 0 10 -10v-470q0 -10 -10 -10h-180zM323 536q-10 0 -10 10v124q0 10 10 10h126 q10 0 10 -10v-124q0 -10 -10 -10h-126zM113 536q-10 0 -10 10v124q0 10 10 10h126q10 0 10 -10v-124q0 -10 -10 -10h-126z" glyph-name="udieresis" horiz-adv-x="562" unicode="ü"/><glyph d="M99 -180q-10 0 -10 10v140q0 10 10 10h30q21 0 34 6.5t20 25.5l9 25l-188 443q-4 10 7 10h189q10 0 13 -10l70 -201h2l64 201q3 10 13 10h186q11 0 7 -10l-229 -551q-14 -32 -30 -53t-38 -33.5t-51 -17.5t-67 -5h-41zM202 540q-10 0 -5 10l83 144q7 10 17 10h165 q5 0 6 -3.5t-1 -6.5l-106 -144q-8 -10 -16 -10h-143z" glyph-name="yacute" horiz-adv-x="559" unicode="ý"/><glyph d="M52 -180q-10 0 -10 10v840q0 10 10 10h180q10 0 10 -10v-226h1q16 26 47 42t76 16q63 0 101 -30t56 -87q10 -30 13.5 -63.5t3.5 -76.5t-3.5 -76.5t-13.5 -63.5q-18 -57 -56 -87t-101 -30q-45 0 -76 16t-47 42h-1v-216q0 -10 -10 -10h-180zM290 148q15 0 26 6t16 22 q3 10 4.5 24t1.5 45t-1.5 45t-4.5 24q-5 16 -16 22t-26 6t-26 -6t-16 -22q-3 -10 -4.5 -24t-1.5 -45t1.5 -45t4.5 -24q5 -16 16 -22t26 -6z" glyph-name="thorn" horiz-adv-x="563" unicode="þ"/><glyph d="M99 -180q-10 0 -10 10v140q0 10 10 10h30q21 0 34 6.5t20 25.5l9 25l-188 443q-4 10 7 10h189q10 0 13 -10l70 -201h2l64 201q3 10 13 10h186q11 0 7 -10l-229 -551q-14 -32 -30 -53t-38 -33.5t-51 -17.5t-67 -5h-41zM321 536q-10 0 -10 10v124q0 10 10 10h126 q10 0 10 -10v-124q0 -10 -10 -10h-126zM111 536q-10 0 -10 10v124q0 10 10 10h126q10 0 10 -10v-124q0 -10 -10 -10h-126z" glyph-name="ydieresis" horiz-adv-x="559" unicode="ÿ"/><glyph d="M52 0q-10 0 -10 10v470q0 10 10 10h180q10 0 10 -10v-470q0 -10 -10 -10h-180z" glyph-name="dotlessi" horiz-adv-x="284" unicode="ı"/><glyph d="M54 0q-10 0 -10 10v218l-34 -17q-10 -5 -10 6v123q0 9 10 14l34 17v299q0 10 10 10h190q10 0 10 -10v-201l128 66q10 5 10 -6v-123q0 -9 -10 -14l-128 -66v-134q0 -6 6 -6h273q10 0 10 -10v-166q0 -10 -10 -10h-479z" glyph-name="Lslash" horiz-adv-x="559" unicode="Ł"/><glyph d="M240 322v-114q0 -50 41 -50h19q10 0 10 -10v-144q0 -10 -10 -10h-71q-51 0 -87 10t-58.5 32.5t-33 59t-10.5 88.5v43l-32 -16q-10 -5 -10 6v121q0 9 10 14l32 16v302q0 10 10 10h180q10 0 10 -10v-207l60 31q10 5 10 -6v-121q0 -9 -10 -14z" glyph-name="lslash" horiz-adv-x="329" unicode="ł"/><glyph d="M396 0q-10 0 -10 10v15h-3q-13 -14 -38.5 -25.5t-70.5 -11.5q-169 0 -222 164q-6 19 -10 37.5t-7 40.5t-4 48.5t-1 61.5t1 61.5t4 48.5t7 40.5t10 37.5q53 164 222 164q45 0 70.5 -11.5t38.5 -25.5h3v15q0 10 10 10h455q10 0 10 -10v-154q0 -10 -10 -10h-251q-6 0 -6 -6 v-66q0 -6 6 -6h201q10 0 10 -10v-150q0 -10 -10 -10h-201q-6 0 -6 -6v-72q0 -6 6 -6h251q10 0 10 -10v-154q0 -10 -10 -10h-455zM314 174q23 0 40 11t24 32q5 16 6.5 42.5t1.5 80.5q0 27 -0.5 46.5t-1 33.5t-2 24.5t-4.5 18.5q-7 21 -24 32t-40 11t-40 -11t-24 -32 q-3 -8 -4.5 -18.5t-2 -24.5t-1 -33.5t-0.5 -46.5q0 -54 1.5 -80.5t6.5 -42.5q7 -21 24 -32t40 -11z" glyph-name="OE" horiz-adv-x="891" unicode="Œ"/><glyph d="M579 -12q-94 0 -156 44h-1q-31 -23 -68.5 -33.5t-80.5 -10.5q-84 0 -147.5 36t-87.5 110q-9 27 -12 55t-3 56t3 56t12 55q24 74 87.5 110t147.5 36q42 0 79.5 -10.5t69.5 -33.5h1q26 19 62 31.5t81 12.5q95 0 152.5 -37.5t80.5 -107.5q7 -21 11 -55.5t4 -100.5 q0 -10 -10 -10h-285q-6 0 -6 -6q0 -4 2 -10q7 -20 30.5 -31t56.5 -11q55 0 107 36q8 5 14 -2l78 -86q7 -7 -2 -15q-43 -38 -99 -58t-121 -20zM619 303q6 0 6 6q0 15 -3 24q-11 34 -53 34t-53 -34q-3 -9 -3 -24q0 -6 6 -6h100zM273 148q15 0 26 6t16 22q3 10 4.5 24t1.5 45 t-1.5 45t-4.5 24q-5 16 -16 22t-26 6t-26 -6t-16 -22q-3 -10 -4.5 -24t-1.5 -45t1.5 -45t4.5 -24q5 -16 16 -22t26 -6z" glyph-name="oe" horiz-adv-x="837" unicode="œ"/><glyph d="M306 -12q-44 0 -87 8t-80.5 22t-68.5 32t-50 38q-3 3 -4 8t3 10l106 125q6 8 13 1q29 -26 73.5 -46t92.5 -20q40 0 59 12t19 32q0 14 -12.5 22.5t-51.5 13.5l-36 5q-118 17 -178.5 70.5t-60.5 154.5q0 48 18.5 88t53 68.5t83.5 44t110 15.5q76 0 142 -20.5t115 -57.5 q10 -6 2 -17l-90 -128q-6 -8 -14 -3q-33 22 -70.5 35.5t-76.5 13.5q-30 0 -44 -10.5t-14 -26.5q0 -15 14 -23.5t51 -13.5l36 -5q121 -17 179.5 -70.5t58.5 -155.5q0 -48 -19 -89t-55.5 -70.5t-91 -46t-125.5 -16.5zM254 726q-12 0 -19 10l-114 144q-3 4 -1.5 7t6.5 3h113 q8 0 13 -2t11 -8l44 -44h2l44 44q6 6 11 8t13 2h113q5 0 6.5 -3t-1.5 -7l-114 -144q-7 -10 -19 -10h-108z" glyph-name="Scaron" horiz-adv-x="617" unicode="Š"/><glyph d="M257 -12q-78 0 -140.5 19.5t-106.5 54.5q-7 7 -1 14l79 100q6 6 14 2q48 -27 87.5 -38.5t80.5 -11.5q26 0 36.5 6.5t10.5 15.5q0 8 -8.5 12t-41.5 8l-56 6q-85 9 -132.5 48.5t-47.5 112.5q0 75 59 120t166 45q72 0 130.5 -17.5t95.5 -44.5q8 -6 1 -15l-70 -93 q-6 -8 -15 -3q-30 17 -65.5 27t-76.5 10q-40 0 -40 -19q0 -7 7 -11t36 -7l56 -6q53 -6 89.5 -20t58 -35t31 -48t8.5 -59q-2 -79 -66 -126t-179 -47zM200 534q-12 0 -19 10l-114 144q-3 4 -1.5 7t6.5 3h113q8 0 13 -2t11 -8l44 -44h2l44 44q6 6 11 8t13 2h113q5 0 6.5 -3 t-1.5 -7l-114 -144q-7 -10 -19 -10h-108z" glyph-name="scaron" horiz-adv-x="520" unicode="š"/><glyph d="M226 0q-10 0 -10 10v244l-211 415q-6 11 7 11h189q11 0 17 -10l104 -213h3l101 213q4 10 17 10h187q12 0 7 -11l-211 -415v-244q0 -10 -10 -10h-190zM362 739q-10 0 -10 10v124q0 10 10 10h126q10 0 10 -10v-124q0 -10 -10 -10h-126zM152 739q-10 0 -10 10v124 q0 10 10 10h126q10 0 10 -10v-124q0 -10 -10 -10h-126z" glyph-name="Ydieresis" horiz-adv-x="641" unicode="Ÿ"/><glyph d="M40 0q-10 0 -10 10v162q0 5 3 10l269 309v3h-251q-10 0 -10 10v166q0 10 10 10h489q10 0 10 -10v-162q0 -6 -3 -10l-270 -309v-3h263q10 0 10 -10v-166q0 -10 -10 -10h-500zM238 726q-12 0 -19 10l-114 144q-3 4 -1.5 7t6.5 3h113q8 0 13 -2t11 -8l44 -44h2l44 44 q6 6 11 8t13 2h113q5 0 6.5 -3t-1.5 -7l-114 -144q-7 -10 -19 -10h-108z" glyph-name="Zcaron" horiz-adv-x="580" unicode="Ž"/><glyph d="M42 0q-10 0 -10 10v129q0 5 3 10l199 184v3h-181q-10 0 -10 10v134q0 10 10 10h406q10 0 10 -10v-134q0 -6 -3 -10l-198 -179v-3h191q10 0 10 -10v-134q0 -10 -10 -10h-417zM200 534q-12 0 -19 10l-114 144q-3 4 -1.5 7t6.5 3h113q8 0 13 -2t11 -8l44 -44h2l44 44 q6 6 11 8t13 2h113q5 0 6.5 -3t-1.5 -7l-114 -144q-7 -10 -19 -10h-108z" glyph-name="zcaron" horiz-adv-x="499" unicode="ž"/><glyph d="M389 289l-43 -278q-9 -55 -26.5 -92t-45 -59t-65.5 -31t-87 -9h-41q-10 0 -10 10v142q0 10 10 10h23q23 0 34 10t15 33l41 264h-54q-10 0 -10 10v126q0 10 10 10h76l9 54q9 55 26.5 92t45 59t65 31t87.5 9h41q10 0 10 -10v-142q0 -10 -10 -10h-23q-23 0 -34 -10t-15 -33 l-6 -40h56q10 0 10 -10v-126q0 -10 -10 -10h-79z" glyph-name="florin" unicode="ƒ"/><glyph d="M334 538q-14 0 -24 10l-44 44h-2l-44 -44q-10 -10 -24 -10h-113q-5 0 -6.5 3t1.5 7l114 144q7 10 19 10h108q12 0 19 -10l114 -144q3 -4 1.5 -7t-6.5 -3h-113z" glyph-name="circumflex" horiz-adv-x="530" unicode="ˆ"/><glyph d="M211 534q-12 0 -19 10l-114 144q-3 4 -1.5 7t6.5 3h113q8 0 13 -2t11 -8l44 -44h2l44 44q6 6 11 8t13 2h113q5 0 6.5 -3t-1.5 -7l-114 -144q-7 -10 -19 -10h-108z" glyph-name="caron" horiz-adv-x="530" unicode="ˇ"/><glyph d="M265 529q-36 0 -67 12t-54 32.5t-36 48.5t-13 60q0 11 14 11h74q7 0 10 -2.5t6 -8.5q19 -37 66 -37t66 37q5 11 16 11h74q14 0 14 -11q0 -32 -13 -60t-36 -48.5t-54 -32.5t-67 -12z" glyph-name="breve" horiz-adv-x="530" unicode="˘"/><glyph d="M183 536q-10 0 -10 10v124q0 10 10 10h164q10 0 10 -10v-124q0 -10 -10 -10h-164z" glyph-name="dotaccent" horiz-adv-x="530" unicode="˙"/><glyph d="M265 512q-54 0 -89 34t-35 88t35 88t89 34t89 -34t35 -88t-35 -88t-89 -34zM265 593q17 0 28.5 11.5t11.5 29.5t-11.5 29.5t-28.5 11.5t-28.5 -11.5t-11.5 -29.5t11.5 -29.5t28.5 -11.5z" glyph-name="ring" horiz-adv-x="530" unicode="˚"/><glyph d="M265 -192q-57 0 -87.5 29t-30.5 72q0 34 14 55.5t32 35.5q7 5 11.5 7.5t12.5 2.5h154q5 0 5 -4t-5 -6q-29 -12 -46 -20.5t-26 -15t-11.5 -11.5t-2.5 -9q0 -10 13 -10q10 0 24 9q8 5 13 -3l46 -83q5 -8 -4 -14q-30 -20 -57.5 -27.5t-54.5 -7.5z" glyph-name="ogonek" horiz-adv-x="530" unicode="˛"/><glyph d="M341 536q-32 0 -53.5 8.5t-40.5 17.5q-14 7 -28.5 12t-32.5 5q-23 0 -41 -8t-40 -25q-11 -7 -11 4v92q0 14 10 24q18 17 39 28t47 11q32 0 53.5 -8.5t40.5 -17.5q14 -7 28.5 -12t32.5 -5q23 0 41 8t40 25q11 7 11 -4v-92q0 -8 -2 -13t-8 -11q-18 -17 -39 -28t-47 -11z" glyph-name="tilde" horiz-adv-x="530" unicode="˜"/><glyph d="M257 536q-11 0 -6 10l72 144q5 10 16 10h135q5 0 6.5 -3t-0.5 -7l-88 -144q-6 -10 -18 -10h-117zM58 536q-11 0 -6 10l72 144q5 10 16 10h135q5 0 6.5 -3t-0.5 -7l-88 -144q-6 -10 -18 -10h-117z" glyph-name="hungarumlaut" horiz-adv-x="530" unicode="˝"/><glyph d="M513 -6q-94 0 -139.5 41.5t-45.5 144.5v133q0 6 -6 6h-46q-6 0 -6 -6v-303q0 -10 -10 -10h-180q-10 0 -10 10v303q0 6 -6 6h-38q-10 0 -10 10v151q0 10 10 10h542q10 0 10 -10v-151q0 -10 -10 -10h-38q-6 0 -6 -6v-114q0 -23 7 -32t25 -9h6q10 0 10 -10v-144 q0 -10 -10 -10h-49z" glyph-name="pi" horiz-adv-x="604" unicode="π"/><glyph d="M216 10q0 -10 -10 -10h-152q-10 0 -10 10v145q0 11 10 20l132 99q11 8 18 8q12 0 12 -13v-259z" glyph-name="aComma" horiz-adv-x="260" unicode="،"/><glyph d="M-120 566q10 0 10 11v139q0 7 8 7h63q8 0 8 -7v-59q33 11 67 11q45 0 62.5 -23t17.5 -58q0 -48 -13 -66t-41 -18h-194q-7 0 -7 7v49q0 7 7 7h12zM12 605q-18 0 -43 -10v-29h50q11 0 14.5 5t3.5 15q0 12 -7 15.5t-18 3.5z" glyph-name="aTahabove" horiz-adv-x="0" unicode="ؕ"/><glyph d="M220 244q0 -10 -10 -10h-152q-10 0 -10 10v145q0 11 10 20l132 99q11 8 18 8q12 0 12 -13v-259zM44 170q0 10 10 10h160q10 0 10 -10v-160q0 -10 -10 -10h-160q-10 0 -10 10v160z" glyph-name="aSemicolon" horiz-adv-x="268" unicode="؛"/><glyph d="M165 207q-10 0 -10 10v10q0 17 -4 29t-18 26l-37 36q-41 40 -62.5 75.5t-21.5 87.5q0 39 16.5 74.5t46.5 62.5t72.5 43t95.5 16q49 0 89 -14t69 -39.5t47 -60t23 -76.5q2 -9 -8 -11l-152 -21q-9 -2 -11 9q-11 49 -53 49q-20 0 -32 -12.5t-12 -32.5q0 -17 10.5 -33.5 t39.5 -45.5l48 -48q18 -18 26 -38t8 -46v-40q0 -10 -10 -10h-160zM334 10q0 -10 -10 -10h-160q-10 0 -10 10v140q0 10 10 10h160q10 0 10 -10v-140z" glyph-name="aQuestion" horiz-adv-x="496" unicode="؟"/><glyph d="M1 0q-20 0 -30 14.5t-10 60.5q0 89 40 89h148q40 0 40 -86q0 -49 -9.5 -63.5t-30.5 -14.5h-148z" glyph-name="aKashida" horiz-adv-x="149" unicode="ـ"/><glyph d="M291 -7q-50 0 -95 10t-80 35t-55.5 68t-20.5 108q0 73 22.5 119.5t58.5 72t81 35t89 9.5t89 -9.5t81 -35t58.5 -72t22.5 -119.5q0 -65 -20.5 -108t-55.5 -68t-80.5 -35t-94.5 -10zM291 286q-26 0 -41.5 -14t-15.5 -49q0 -41 16 -53.5t41 -12.5q27 0 42 12.5t15 53.5 q0 38 -15.5 50.5t-41.5 12.5z" glyph-name="aHeh" horiz-adv-x="582" unicode="ه"/><glyph d="M-123 833q-10 0 -10 10v27q0 10 10 10h254q10 0 10 -10v-27q0 -10 -10 -10h-254zM-123 750q-10 0 -10 10v27q0 10 10 10h254q10 0 10 -10v-27q0 -10 -10 -10h-254z" glyph-name="aFathatan" horiz-adv-x="0" unicode="ً"/><glyph d="M-144 869q-10 0 -10 10v23q0 10 10 10h12q34 0 56.5 -22t22.5 -70q0 -22 13.5 -27t39.5 -5q34 0 50 10.5t22 21.5h-24q-35 0 -56 19t-21 51q0 33 23 56t55 23q33 0 55.5 -22t22.5 -72q0 -37 -9.5 -62t-26.5 -40t-40.5 -21.5t-50.5 -6.5q-21 0 -38.5 2.5t-31 10.5 t-21 22.5t-7.5 39.5q0 49 -31 49h-15zM83 862v13q0 25 -10 37.5t-24 12.5q-17 0 -25.5 -11t-8.5 -24q0 -17 14 -22.5t24 -5.5h30z" glyph-name="aDammatan" horiz-adv-x="0" unicode="ٌ"/><glyph d="M-123 -127q-10 0 -10 10v27q0 10 10 10h254q10 0 10 -10v-27q0 -10 -10 -10h-254zM-123 -210q-10 0 -10 10v27q0 10 10 10h254q10 0 10 -10v-27q0 -10 -10 -10h-254z" glyph-name="aKasratan" horiz-adv-x="0" unicode="ٍ"/><glyph d="M-123 750q-10 0 -10 10v27q0 10 10 10h254q10 0 10 -10v-27q0 -10 -10 -10h-254z" glyph-name="aFatha" horiz-adv-x="0" unicode="َ"/><glyph d="M35 859v13q0 25 -9.5 37.5t-24.5 12.5q-17 0 -25 -11t-8 -24q0 -17 13.5 -22.5t23.5 -5.5h30zM-48 785q34 0 50.5 10.5t21.5 21.5h-24q-35 0 -55.5 19t-20.5 51q0 33 22.5 56t54.5 23q33 0 55.5 -22t22.5 -72q0 -37 -9.5 -62t-26.5 -40t-40.5 -21.5t-50.5 -6.5h-31 q-10 0 -10 10v23q0 10 10 10h31z" glyph-name="aDamma" horiz-adv-x="0" unicode="ُ"/><glyph d="M-123 -138q-10 0 -10 10v27q0 10 10 10h254q10 0 10 -10v-27q0 -10 -10 -10h-254z" glyph-name="aKasra" horiz-adv-x="0" unicode="ِ"/><glyph d="M-128 905q0 10 10 10h26q10 0 10 -10v-74q0 -40 31 -40t31 36v78q0 10 10 10h26q10 0 10 -10v-78q0 -36 32 -36q17 0 23.5 10.5t6.5 29.5v74q0 10 10 10h26q10 0 10 -10v-71q0 -18 -3.5 -33.5t-12.5 -27.5t-23.5 -19t-36.5 -7q-17 0 -33.5 5.5t-25.5 16.5 q-9 -11 -21 -16.5t-31 -5.5q-22 0 -36.5 7t-23 19t-12 27.5t-3.5 33.5v71z" glyph-name="aShadda" horiz-adv-x="0" unicode="ّ"/><glyph d="M-86 832q0 18 6.5 33.5t18 27t27 18.5t33.5 7t33.5 -7t27 -18.5t18.5 -27t7 -33.5t-7 -33.5t-18.5 -27t-27 -18t-33.5 -6.5q-35 0 -60 23.5t-25 61.5zM-44 833q0 -21 13 -32.5t31 -11.5t31 13t13 31t-13 31t-31 13t-31 -13t-13 -31z" glyph-name="aSukun" horiz-adv-x="0" unicode="ْ"/><glyph d="M-202 766q27 94 100 94q25 0 49.5 -9t47.5 -19.5t44 -19t41 -8.5q14 0 18 7.5t4 26.5q0 10 10 10h83q10 0 10 -10q0 -55 -22.5 -91t-78.5 -36q-30 0 -55 7.5t-46 17t-38 17t-31 7.5q-10 0 -17.5 -5.5t-14.5 -22.5q-3 -10 -13 -7l-84 28q-10 3 -7 13z" glyph-name="aMadda" horiz-adv-x="0" unicode="ٓ"/><glyph d="M-89 807q-11 19 -11 44q0 42 30 71.5t87 29.5q37 0 63.5 -14t40.5 -31q4 -4 -1 -8l-39 -46q-3 -4 -9 0q-23 23 -46 23q-10 0 -20.5 -6.5t-10.5 -24.5q0 -14 8 -23.5t17 -14.5h97q6 0 6 -7v-62q0 -7 -6 -7h-242q-6 0 -6 7v62q0 7 6 7h36z" glyph-name="aHamzaabove" horiz-adv-x="0" unicode="ٔ"/><glyph d="M-89 -214q-11 19 -11 44q0 42 30 71.5t87 29.5q37 0 63.5 -14t40.5 -31q4 -4 -1 -8l-39 -46q-3 -4 -9 0q-23 23 -46 23q-10 0 -20.5 -6.5t-10.5 -24.5q0 -14 8 -23.5t17 -14.5h97q6 0 6 -7v-62q0 -7 -6 -7h-242q-6 0 -6 7v62q0 7 6 7h36z" glyph-name="aHamzabelow" horiz-adv-x="0" unicode="ٕ"/><glyph d="M26 -237q0 -10 -10 -10h-31q-10 0 -10 10v124q0 10 10 10h31q10 0 10 -10v-124z" glyph-name="aAlifbelow" horiz-adv-x="0" unicode="ٖ"/><glyph d="M-92 893q0 10 10 10h26q10 0 10 -10v-56q0 -21 10 -34.5t36 -13.5t35.5 13t9.5 36v55q0 10 10 10h26q10 0 10 -10v-48q0 -21 -4 -39t-14.5 -31.5t-28 -21.5t-44.5 -8t-45 8t-28.5 21.5t-14.5 31.5t-4 39v48z" glyph-name="aNasalnun" horiz-adv-x="0" unicode="٘"/><glyph d="M353 90q-14 -13 -23.5 -19.5t-21.5 -6.5q-11 0 -22 7.5t-22 18.5l-72 74q-11 11 -19.5 22.5t-8.5 21.5q0 11 7 20.5t21 23.5l72 72q14 14 23.5 21t20.5 7q8 0 18 -6t20 -16l80 -78q14 -13 20 -23t6 -23q0 -17 -26 -43z" glyph-name="aZero" horiz-adv-x="615" unicode="٠"/><glyph d="M407 10q0 -10 -10 -10h-179q-10 0 -10 10v585q0 10 10 10h179q10 0 10 -10v-585z" glyph-name="aOne" horiz-adv-x="615" unicode="١"/><glyph d="M105 478q0 63 28.5 95t91.5 32h307q10 0 10 -10v-144q0 -10 -10 -10h-167q-37 0 -49 -16t-12 -50v-365q0 -10 -10 -10h-179q-10 0 -10 10v468z" glyph-name="aTwo" horiz-adv-x="615" unicode="٢"/><glyph d="M209 435h38v113q0 10 10 10h116q10 0 10 -10v-111q17 3 25.5 12t8.5 30v116q0 10 10 10h168q10 0 10 -10v-161q0 -86 -47.5 -123.5t-153.5 -37.5h-195v-263q0 -10 -10 -10h-179q-10 0 -10 10v585q0 10 10 10h179q10 0 10 -10v-160z" glyph-name="aThree" horiz-adv-x="615" unicode="٣"/><glyph d="M528 158q10 0 10 -10v-138q0 -10 -10 -10h-262q-39 0 -74.5 9t-62.5 28t-43 48t-16 69q0 19 3.5 40.5t13.5 42t28 39.5t47 34q-35 27 -48.5 62t-13.5 67q0 82 52 124t136 42h200q10 0 10 -10v-138q0 -10 -10 -10h-131q-22 0 -32.5 -6t-10.5 -29q0 -21 8 -27t35 -6h130 q10 0 10 -10v-138q0 -10 -10 -10h-152q-26 0 -40.5 -7t-14.5 -27q0 -21 16 -25t40 -4h192z" glyph-name="aFour" horiz-adv-x="615" unicode="٤"/><glyph d="M308 0q-50 0 -95.5 7.5t-80 30t-54.5 62.5t-20 106v163q0 65 18.5 110.5t52 74t80 41t102.5 12.5t102 -12t79 -39.5t51 -73t18 -111.5v-160q0 -64 -20 -105t-54.5 -64.5t-80.5 -32.5t-98 -9zM310 164q16 0 26.5 5t16 13t7.5 16.5t2 16.5v144q0 49 -12 68t-40 19 t-40.5 -18t-12.5 -69v-144q0 -25 12 -38t41 -13z" glyph-name="aFive" horiz-adv-x="615" unicode="٥"/><glyph d="M96 441q-10 0 -10 10v144q0 10 10 10h291q63 0 91.5 -32t28.5 -95v-468q0 -10 -10 -10h-179q-10 0 -10 10v365q0 34 -12 50t-49 16h-151z" glyph-name="aSix" horiz-adv-x="615" unicode="٦"/><glyph d="M424 604q3 10 12 7l165 -42q11 -3 9 -11l-196 -537q-3 -9 -17 -14t-31.5 -7.5t-34 -3.5t-25.5 -1q-8 0 -25 1t-34.5 4t-31.5 8t-17 13l-194 538q-2 8 9 11l165 41q9 3 12 -7l116 -384z" glyph-name="aSeven" horiz-adv-x="615" unicode="٧"/><glyph d="M190 4q-3 -10 -12 -7l-165 42q-11 3 -9 11l196 537q3 9 17 14t31.5 7.5t34 3.5t25.5 1q8 0 25 -1.5t34.5 -4.5t31.5 -8t17 -12l194 -538q2 -8 -9 -11l-165 -41q-9 -3 -12 7l-116 384z" glyph-name="aEight" horiz-adv-x="615" unicode="٨"/><glyph d="M289 197q-47 0 -89 7t-74.5 28.5t-51.5 61.5t-19 105q0 70 24 111t60 62t78 27t78 6q40 0 81.5 -6.5t75 -23.5t55 -48t21.5 -80v-437q0 -10 -10 -10h-179q-10 0 -10 10v187h-40zM329 362v46q0 9 -7 21t-32 12q-17 0 -28 -9t-11 -32q0 -38 38 -38h40z" glyph-name="aNine" horiz-adv-x="615" unicode="٩"/><glyph d="M176 416q-12 -11 -20 -16.5t-18 -5.5q-9 0 -18.5 6.5t-18.5 15.5l-60 61q-8 9 -15.5 19t-7.5 18q0 10 6 18t17 19l60 60q11 11 19.5 17t17.5 6q14 0 32 -18l66 -65q11 -11 16.5 -19.5t5.5 -19.5q0 -14 -22 -35zM588 19q-12 -11 -20 -16.5t-18 -5.5q-9 0 -18.5 6.5 t-18.5 15.5l-60 61q-8 9 -15.5 19t-7.5 18q0 10 6 18t17 19l60 60q11 11 19.5 17t17.5 6q14 0 32 -18l66 -65q11 -11 16.5 -19.5t5.5 -19.5q0 -14 -22 -35zM458 620q2 4 5 7t8 3h151q10 0 7 -10l-386 -622q-2 -4 -5 -7t-8 -3h-151q-5 0 -7 3t0 7z" glyph-name="aPercent" horiz-adv-x="691" unicode="٪"/><glyph d="M44 170q0 10 10 10h152q10 0 10 -10v-145q0 -11 -10 -20l-132 -99q-11 -8 -18 -8q-12 0 -12 13v259z" glyph-name="aDecimal" horiz-adv-x="255" unicode="٫"/><glyph d="M44 304q0 10 10 10h152q10 0 10 -10v-145q0 -11 -10 -20l-132 -99q-11 -8 -18 -8q-12 0 -12 13v259z" glyph-name="aThousands" horiz-adv-x="230" unicode="٬"/><glyph d="M114 487q-8 -7 -14 -3l-14 9q-6 5 -3 14l31 73l-72 54q-8 6 -7 13l5 16q3 9 13 7l85 -11l23 91q3 10 10 10h17q7 0 10 -10l23 -91l85 11q10 2 13 -7l5 -16q1 -7 -7 -13l-72 -54l31 -73q3 -9 -3 -14l-14 -9q-6 -4 -14 3l-66 48z" glyph-name="aStar" horiz-adv-x="343" unicode="٭"/><glyph d="M26 760q0 -10 -10 -10h-31q-10 0 -10 10v124q0 10 10 10h31q10 0 10 -10v-124z" glyph-name="aAlifabove" horiz-adv-x="0" unicode="ٰ"/><glyph d="M291 -7q-50 0 -95 10t-80 35t-55.5 68t-20.5 108q0 73 22.5 119.5t58.5 72t81 35t89 9.5t89 -9.5t81 -35t58.5 -72t22.5 -119.5q0 -65 -20.5 -108t-55.5 -68t-80.5 -35t-94.5 -10zM291 286q-26 0 -41.5 -14t-15.5 -49q0 -41 16 -53.5t41 -12.5q27 0 42 12.5t15 53.5 q0 38 -15.5 50.5t-41.5 12.5zM200 615q-5 9 -7.5 19.5t-2.5 24.5q0 42 30 71.5t87 29.5q37 0 63.5 -14t40.5 -31q4 -4 -1 -8l-39 -46q-3 -4 -9 0q-23 23 -46 23q-10 0 -20.5 -6.5t-10.5 -24.5q0 -14 8 -23.5t17 -14.5h97q6 0 6 -7v-62q0 -7 -6 -7h-242q-6 0 -6 7v62q0 7 6 7 h35z" glyph-name="aHehYeh" horiz-adv-x="582" unicode="ۀ"/><glyph d="M291 -7q-50 0 -95 10t-80 35t-55.5 68t-20.5 108q0 73 22.5 119.5t58.5 72t81 35t89 9.5t89 -9.5t81 -35t58.5 -72t22.5 -119.5q0 -65 -20.5 -108t-55.5 -68t-80.5 -35t-94.5 -10zM291 286q-26 0 -41.5 -14t-15.5 -49q0 -41 16 -53.5t41 -12.5q27 0 42 12.5t15 53.5 q0 38 -15.5 50.5t-41.5 12.5zM200 615q-5 9 -7.5 19.5t-2.5 24.5q0 42 30 71.5t87 29.5q37 0 63.5 -14t40.5 -31q4 -4 -1 -8l-39 -46q-3 -4 -9 0q-23 23 -46 23q-10 0 -20.5 -6.5t-10.5 -24.5q0 -14 8 -23.5t17 -14.5h97q6 0 6 -7v-62q0 -7 -6 -7h-242q-6 0 -6 7v62q0 7 6 7 h35z" glyph-name="aHehGoalHamzaabove" horiz-adv-x="582" unicode="ۂ"/><glyph d="M291 -7q-50 0 -95 10t-80 35t-55.5 68t-20.5 108q0 73 22.5 119.5t58.5 72t81 35t89 9.5t89 -9.5t81 -35t58.5 -72t22.5 -119.5q0 -65 -20.5 -108t-55.5 -68t-80.5 -35t-94.5 -10zM291 286q-26 0 -41.5 -14t-15.5 -49q0 -41 16 -53.5t41 -12.5q27 0 42 12.5t15 53.5 q0 38 -15.5 50.5t-41.5 12.5zM143 536q-10 0 -10 10v124q0 10 10 10h133q10 0 10 -10v-124q0 -10 -10 -10h-133zM324 536q-10 0 -10 10v124q0 10 10 10h133q10 0 10 -10v-124q0 -10 -10 -10h-133z" glyph-name="aTehMarbutaGoal" horiz-adv-x="582" unicode="ۃ"/><glyph d="M297 164q10 0 10 -10v-144q0 -10 -10 -10h-92q-57 0 -104.5 18t-75.5 44q-6 6 -1 14l70 120q5 8 13 3q28 -18 55 -26.5t71 -8.5h64z" glyph-name="aPeriodUrdu" horiz-adv-x="356" unicode="۔"/><glyph d="M291 -7q-50 0 -95 10t-80 35t-55.5 68t-20.5 108q0 73 22.5 119.5t58.5 72t81 35t89 9.5t89 -9.5t81 -35t58.5 -72t22.5 -119.5q0 -65 -20.5 -108t-55.5 -68t-80.5 -35t-94.5 -10zM291 286q-26 0 -41.5 -14t-15.5 -49q0 -41 16 -53.5t41 -12.5q27 0 42 12.5t15 53.5 q0 38 -15.5 50.5t-41.5 12.5z" glyph-name="aAe" horiz-adv-x="582" unicode="ە"/><glyph d="M353 90q-14 -13 -23.5 -19.5t-21.5 -6.5q-11 0 -22 7.5t-22 18.5l-72 74q-11 11 -19.5 22.5t-8.5 21.5q0 11 7 20.5t21 23.5l72 72q14 14 23.5 21t20.5 7q8 0 18 -6t20 -16l80 -78q14 -13 20 -23t6 -23q0 -17 -26 -43z" glyph-name="aZeroFarsi" horiz-adv-x="615" unicode="۰"/><glyph d="M407 10q0 -10 -10 -10h-179q-10 0 -10 10v585q0 10 10 10h179q10 0 10 -10v-585z" glyph-name="aOneFarsi" horiz-adv-x="615" unicode="۱"/><glyph d="M105 478q0 63 28.5 95t91.5 32h307q10 0 10 -10v-144q0 -10 -10 -10h-167q-37 0 -49 -16t-12 -50v-365q0 -10 -10 -10h-179q-10 0 -10 10v468z" glyph-name="aTwoFarsi" horiz-adv-x="615" unicode="۲"/><glyph d="M209 435h38v113q0 10 10 10h116q10 0 10 -10v-111q17 3 25.5 12t8.5 30v116q0 10 10 10h168q10 0 10 -10v-161q0 -86 -47.5 -123.5t-153.5 -37.5h-195v-263q0 -10 -10 -10h-179q-10 0 -10 10v585q0 10 10 10h179q10 0 10 -10v-160z" glyph-name="aThreeFarsi" horiz-adv-x="615" unicode="۳"/><glyph d="M383 606q10 0 10 -10v-67q0 -10 -10 -10q-21 0 -26.5 -7.5t-5.5 -24.5v-24q24 0 38.5 2.5t22.5 8.5t11 17t3 28v24q0 10 10 10h160q10 0 10 -10v-48q0 -41 -7.5 -73t-25 -54.5t-46.5 -34t-73 -11.5h-250v-312q0 -10 -10 -10h-179q-10 0 -10 10v585q0 10 10 10h179 q10 0 10 -10v-132h38v35q0 57 26 82.5t85 25.5h30z" glyph-name="aFourFarsi" horiz-adv-x="615" unicode="۴"/><glyph d="M360 359q0 49 -14.5 68t-37.5 19q-24 0 -38.5 -18.5t-14.5 -68.5v-144q0 -22 5 -36.5t20 -14.5q7 0 11 4t6 9t4.5 9t6.5 4t6.5 -4t4.5 -9t5.5 -9t10.5 -4q14 0 19.5 14t5.5 37v144zM56 369q0 65 18.5 110.5t52 74t80 41t102.5 12.5t102 -12t79 -39.5t51 -73t18 -111.5 v-190q0 -89 -42.5 -136t-111.5 -47q-29 0 -51.5 7.5t-43.5 25.5q-22 -17 -42 -24.5t-49 -7.5q-26 0 -55 8t-53 29t-39.5 56t-15.5 89v188z" glyph-name="aFiveFarsi" horiz-adv-x="615" unicode="۵"/><glyph d="M206 -33q-5 -8 -14 -3l-134 106q-9 8 -3 14l179 234q-63 45 -63 116q0 44 16 76t42.5 53t59.5 31.5t67 10.5h162q10 0 10 -10v-143q0 -10 -10 -10h-90q-31 0 -45.5 -10t-14.5 -38q0 -29 18 -37t41 -8h90q10 0 10 -10v-143q0 -10 -10 -10h-86q-31 0 -45.5 -4t-28.5 -19z" glyph-name="aSixFarsi" horiz-adv-x="615" unicode="۶"/><glyph d="M424 604q3 10 12 7l165 -42q11 -3 9 -11l-196 -537q-3 -9 -17 -14t-31.5 -7.5t-34 -3.5t-25.5 -1q-8 0 -25 1t-34.5 4t-31.5 8t-17 13l-194 538q-2 8 9 11l165 41q9 3 12 -7l116 -384z" glyph-name="aSevenFarsi" horiz-adv-x="615" unicode="۷"/><glyph d="M190 4q-3 -10 -12 -7l-165 42q-11 3 -9 11l196 537q3 9 17 14t31.5 7.5t34 3.5t25.5 1q8 0 25 -1.5t34.5 -4.5t31.5 -8t17 -12l194 -538q2 -8 -9 -11l-165 -41q-9 -3 -12 7l-116 384z" glyph-name="aEightFarsi" horiz-adv-x="615" unicode="۸"/><glyph d="M289 197q-47 0 -89 7t-74.5 28.5t-51.5 61.5t-19 105q0 70 24 111t60 62t78 27t78 6q40 0 81.5 -6.5t75 -23.5t55 -48t21.5 -80v-437q0 -10 -10 -10h-179q-10 0 -10 10v187h-40zM329 362v46q0 9 -7 21t-32 12q-17 0 -28 -9t-11 -32q0 -38 38 -38h40z" glyph-name="aNineFarsi" horiz-adv-x="615" unicode="۹"/><glyph glyph-name="enspace" horiz-adv-x="500"/><glyph glyph-name="emspace" horiz-adv-x="1000"/><glyph glyph-name="thinspace" horiz-adv-x="100"/><glyph glyph-name="hairspace" horiz-adv-x="20"/><glyph d="M33 2h-33v1319h33v-1319z" glyph-name="ZWNJ" horiz-adv-x="33" unicode="‌"/><glyph d="M78 1227l-45 46v-1273h-33v1276l-49 -49l-17 18l63 63l-63 64l17 17l64 -63l63 63l18 -17l-63 -63v-1l63 -63z" glyph-name="ZWJ" horiz-adv-x="33" unicode="‍"/><glyph d="M109 1227v61h-77v-1286h-32v1319h109v68l81 -81z" glyph-name="LTR" horiz-adv-x="32" unicode="‎"/><glyph d="M33 1321v-1319h-33v1286h-77v-61l-81 81l81 81v-68h110z" glyph-name="RTL" horiz-adv-x="33" unicode="‏"/><glyph d="M30 181q-10 0 -10 10v148q0 10 10 10h510q10 0 10 -10v-148q0 -10 -10 -10h-510z" glyph-name="endash" unicode="–"/><glyph d="M30 181q-10 0 -10 10v148q0 10 10 10h892q10 0 10 -10v-148q0 -10 -10 -10h-892z" glyph-name="emdash" horiz-adv-x="952" unicode="—"/><glyph d="M58 436q-10 0 -10 10v128q0 16 10 22l112 78q11 8 18 8q12 0 12 -13v-223q0 -10 -10 -10h-132z" glyph-name="quoteleft" horiz-adv-x="248" unicode="‘"/><glyph d="M60 434q-12 0 -12 13v223q0 10 10 10h132q10 0 10 -10v-128q0 -16 -10 -22l-112 -78q-11 -8 -18 -8z" glyph-name="quoteright" horiz-adv-x="248" unicode="’"/><glyph d="M60 -89q-12 0 -12 13v223q0 10 10 10h132q10 0 10 -10v-128q0 -16 -10 -22l-112 -78q-11 -8 -18 -8z" glyph-name="quotesinglbase" horiz-adv-x="248" unicode="‚"/><glyph d="M270 436q-10 0 -10 10v128q0 16 10 22l112 78q11 8 18 8q12 0 12 -13v-223q0 -10 -10 -10h-132zM58 436q-10 0 -10 10v128q0 16 10 22l112 78q11 8 18 8q12 0 12 -13v-223q0 -10 -10 -10h-132z" glyph-name="quotedblleft" horiz-adv-x="460" unicode="“"/><glyph d="M272 434q-12 0 -12 13v223q0 10 10 10h132q10 0 10 -10v-128q0 -16 -10 -22l-112 -78q-11 -8 -18 -8zM60 434q-12 0 -12 13v223q0 10 10 10h132q10 0 10 -10v-128q0 -16 -10 -22l-112 -78q-11 -8 -18 -8z" glyph-name="quotedblright" horiz-adv-x="460" unicode="”"/><glyph d="M272 -89q-12 0 -12 13v223q0 10 10 10h132q10 0 10 -10v-128q0 -16 -10 -22l-112 -78q-11 -8 -18 -8zM60 -89q-12 0 -12 13v223q0 10 10 10h132q10 0 10 -10v-128q0 -16 -10 -22l-112 -78q-11 -8 -18 -8z" glyph-name="quotedblbase" horiz-adv-x="460" unicode="„"/><glyph d="M200 -180q-10 0 -10 10v465q0 6 -6 6h-144q-10 0 -10 10v161q0 10 10 10h144q6 0 6 6v182q0 10 10 10h181q10 0 10 -10v-182q0 -6 6 -6h144q10 0 10 -10v-161q0 -10 -10 -10h-144q-6 0 -6 -6v-465q0 -10 -10 -10h-181z" glyph-name="dagger" horiz-adv-x="581" unicode="†"/><glyph d="M200 -180q-10 0 -10 10v142q0 6 -6 6h-144q-10 0 -10 10v161q0 10 10 10h144q6 0 6 6v170q0 6 -6 6h-144q-10 0 -10 10v161q0 10 10 10h144q6 0 6 6v142q0 10 10 10h181q10 0 10 -10v-142q0 -6 6 -6h144q10 0 10 -10v-161q0 -10 -10 -10h-144q-6 0 -6 -6v-170q0 -6 6 -6 h144q10 0 10 -10v-161q0 -10 -10 -10h-144q-6 0 -6 -6v-142q0 -10 -10 -10h-181z" glyph-name="daggerdbl" horiz-adv-x="581" unicode="‡"/><glyph d="M255 134q-38 0 -70 13.5t-55 36.5t-36.5 55t-13.5 70q0 37 13.5 69.5t36.5 55.5t55 36.5t70 13.5q37 0 69.5 -13.5t55.5 -36.5t36.5 -55.5t13.5 -69.5q0 -38 -13.5 -70t-36.5 -55t-55.5 -36.5t-69.5 -13.5z" glyph-name="bullet" horiz-adv-x="510" unicode="•"/><glyph d="M590 0q-10 0 -10 10v160q0 10 10 10h160q10 0 10 -10v-160q0 -10 -10 -10h-160zM322 0q-10 0 -10 10v160q0 10 10 10h160q10 0 10 -10v-160q0 -10 -10 -10h-160zM54 0q-10 0 -10 10v160q0 10 10 10h160q10 0 10 -10v-160q0 -10 -10 -10h-160z" glyph-name="ellipsis" horiz-adv-x="804" unicode="…"/><glyph glyph-name="LTRE" horiz-adv-x="500" unicode="‪"/><glyph glyph-name="RTLE" horiz-adv-x="500" unicode="‫"/><glyph glyph-name="POP" horiz-adv-x="500" unicode="‬"/><glyph glyph-name="LTRO" horiz-adv-x="500" unicode="‭"/><glyph glyph-name="RTLO" horiz-adv-x="500" unicode="‮"/><glyph d="M181 -12q-5 0 -5.5 3t1.5 7l395 684q6 10 16 10h122q5 0 5.5 -3t-1.5 -7l-395 -684q-6 -10 -16 -10h-122zM215 330q-57 0 -93 23t-50 65q-5 14 -8.5 35t-3.5 56t3.5 56t8.5 35q14 42 50 65t93 23t93 -23t50 -65q5 -14 8.5 -35t3.5 -56t-3.5 -56t-8.5 -35q-14 -42 -50 -65 t-93 -23zM215 423q15 0 19 13q1 3 1.5 6t1 10.5t0.5 21v35.5v35t-0.5 20.5t-1 11t-1.5 6.5q-4 13 -19 13t-19 -13q-1 -3 -1.5 -6.5t-1 -11t-0.5 -20.5v-35v-35.5t0.5 -21t1 -10.5t1.5 -6q4 -13 19 -13zM1030 -8q-57 0 -93 23t-50 65q-5 14 -8.5 35t-3.5 56t3.5 56t8.5 35 q14 42 50 65t93 23t93 -23t50 -65q5 -14 8.5 -35t3.5 -56t-3.5 -56t-8.5 -35q-14 -42 -50 -65t-93 -23zM676 -8q-57 0 -93 23t-50 65q-5 14 -8.5 35t-3.5 56t3.5 56t8.5 35q14 42 50 65t93 23t93 -23t50 -65q5 -14 8.5 -35t3.5 -56t-3.5 -56t-8.5 -35q-14 -42 -50 -65 t-93 -23zM1030 85q15 0 19 13q1 3 1.5 6t1 10.5t0.5 21v35.5v35t-0.5 20.5t-1 11t-1.5 6.5q-4 13 -19 13t-19 -13q-1 -3 -1.5 -6.5t-1 -11t-0.5 -20.5v-35v-35.5t0.5 -21t1 -10.5t1.5 -6q4 -13 19 -13zM676 85q15 0 19 13q1 3 1.5 6t1 10.5t0.5 21v35.5v35t-0.5 20.5t-1 11 t-1.5 6.5q-4 13 -19 13t-19 -13q-1 -3 -1.5 -6.5t-1 -11t-0.5 -20.5v-35v-35.5t0.5 -21t1 -10.5t1.5 -6q4 -13 19 -13z" glyph-name="perthousand" horiz-adv-x="1245" unicode="‰"/><glyph d="M15 257q-7 7 0 14l255 251q3 3 6.5 2t3.5 -6v-162q0 -8 -10 -18l-71 -70q-4 -4 0 -8l71 -70q10 -10 10 -18v-162q0 -5 -3.5 -6t-6.5 2z" glyph-name="guilsinglleft" horiz-adv-x="332" unicode="‹"/><glyph d="M62 6q-3 -3 -6.5 -2t-3.5 6v162q0 8 10 18l71 70q4 4 0 8l-71 70q-10 10 -10 18v162q0 5 3.5 6t6.5 -2l255 -251q7 -7 0 -14l-255 -251v0z" glyph-name="guilsinglright" horiz-adv-x="332" unicode="›"/><glyph d="M-174 -12q-5 0 -5.5 3t1.5 7l395 684q6 10 16 10h122q5 0 5.5 -3t-1.5 -7l-395 -684q-6 -10 -16 -10h-122z" glyph-name="fraction" horiz-adv-x="181" unicode="⁄"/></font>
</defs>
</svg>
