<svg xmlns="http://www.w3.org/2000/svg" id="confused" width="38.733" height="38.639" viewBox="0 0 38.733 38.639"><ellipse id="Ellipse_52" cx="19.365" cy="19.295" fill="#ffd93b" data-name="Ellipse 52" rx="19.365" ry="19.295" transform="translate(0 0)"/><path id="Path_1106" fill="#f4c534" d="M91.122,71.778a19.345,19.345,0,0,1-34.4,12.144,19.345,19.345,0,0,0,27.2-27.2A19.323,19.323,0,0,1,91.122,71.778Z" data-name="Path 1106" transform="translate(-52.389 -52.483)"/><g id="Group_1843" data-name="Group 1843" transform="translate(10.349 12.717)"><path id="Path_1107" fill="#3e4347" d="M158.738,331.532a1.051,1.051,0,0,1-1.052,1.052h-15.21a1.052,1.052,0,0,1,0-2.1h15.21A1.051,1.051,0,0,1,158.738,331.532Z" data-name="Path 1107" transform="translate(-141.042 -318.274)"/><ellipse id="Ellipse_53" cx="2.882" cy="2.882" fill="#3e4347" data-name="Ellipse 53" rx="2.882" ry="2.882"/></g><ellipse id="Ellipse_54" cx=".757" cy=".49" fill="#5a5f63" data-name="Ellipse 54" rx=".757" ry=".49" transform="translate(14.511 15.321) rotate(-126.653)"/><ellipse id="Ellipse_55" cx="2.882" cy="2.882" fill="#3e4347" data-name="Ellipse 55" rx="2.882" ry="2.882" transform="translate(22.66 12.717)"/><ellipse id="Ellipse_56" cx=".757" cy=".49" fill="#5a5f63" data-name="Ellipse 56" rx=".757" ry=".49" transform="matrix(-0.597, -0.802, 0.802, -0.597, 26.822, 15.324)"/></svg>