<svg xmlns="http://www.w3.org/2000/svg" id="happy_1_" width="38.746" height="38.639" data-name="happy (1)" viewBox="0 0 38.746 38.639"><ellipse id="Ellipse_47" cx="19.365" cy="19.295" fill="#ffd93b" data-name="Ellipse 47" rx="19.365" ry="19.295" transform="translate(0 0)"/><path id="Path_1104" fill="#f4c534" d="M91.122,71.778a19.345,19.345,0,0,1-34.4,12.144,19.345,19.345,0,0,0,27.2-27.2A19.323,19.323,0,0,1,91.122,71.778Z" data-name="Path 1104" transform="translate(-52.375 -52.483)"/><circle id="Ellipse_48" cx="3.036" cy="3.036" r="3.036" fill="#3e4347" data-name="Ellipse 48" transform="translate(23.483 13.962)"/><ellipse id="Ellipse_49" cx=".919" cy=".595" fill="#5a5f63" data-name="Ellipse 49" rx=".919" ry=".595" transform="matrix(-0.914, -0.405, 0.405, -0.914, 27.979, 16.569)"/><circle id="Ellipse_50" cx="3.036" cy="3.036" r="3.036" fill="#3e4347" data-name="Ellipse 50" transform="translate(9.251 13.962)"/><ellipse id="Ellipse_51" cx=".919" cy=".595" fill="#5a5f63" data-name="Ellipse 51" rx=".919" ry=".595" transform="matrix(-0.914, -0.405, 0.405, -0.914, 13.746, 16.569)"/><path id="Path_1105" fill="#3e4347" d="M147.644,337.891a.907.907,0,0,1,1.243-1.32,9.76,9.76,0,0,0,13.362,0,.907.907,0,1,1,1.243,1.32A11.575,11.575,0,0,1,147.644,337.891Z" data-name="Path 1105" transform="translate(-136.165 -310.96)"/></svg>